<?xml version="1.0" encoding="UTF-8" standalone="no"?>
<!DOCTYPE svg PUBLIC "-//W3C//DTD SVG 1.1//EN"
 "http://www.w3.org/Graphics/SVG/1.1/DTD/svg11.dtd">
<!-- Generated by graphviz version 3.0.0 (20220226.1711)
 -->
<!-- Title: ROFL::ROFL_Input Pages: 1 -->
<svg width="502pt" height="95pt"
 viewBox="0.00 0.00 501.50 95.00" xmlns="http://www.w3.org/2000/svg" xmlns:xlink="http://www.w3.org/1999/xlink">
<g id="graph0" class="graph" transform="scale(1 1) rotate(0) translate(4 91)">
<title>ROFL::ROFL_Input</title>
<!-- Node1 -->
<g id="node1" class="node">
<title>Node1</title>
<g id="a_node1"><a xlink:title=" ">
<polygon fill="#bfbfbf" stroke="black" points="229,-0.5 229,-19.5 329,-19.5 329,-0.5 229,-0.5"/>
<text text-anchor="middle" x="279" y="-7.5" font-family="Helvetica,sans-Serif" font-size="10.00">ROFL::ROFL_Input</text>
</a>
</g>
</g>
<!-- Node2 -->
<g id="node2" class="node">
<title>Node2</title>
<g id="a_node2"><a xlink:href="class_r_o_f_l_1_1_controller_input.html" target="_top" xlink:title=" ">
<polygon fill="none" stroke="#bfbfbf" points="0,-67.5 0,-86.5 110,-86.5 110,-67.5 0,-67.5"/>
<text text-anchor="middle" x="55" y="-74.5" font-family="Helvetica,sans-Serif" font-size="10.00">ROFL::ControllerInput</text>
</a>
</g>
</g>
<!-- Node2&#45;&gt;Node1 -->
<g id="edge1" class="edge">
<title>Node2&#45;&gt;Node1</title>
<path fill="none" stroke="#9a32cd" stroke-dasharray="5,2" d="M90.29,-64.28C114.12,-56.51 146.34,-46.25 175,-38 197.95,-31.39 223.95,-24.64 244.21,-19.55"/>
<polygon fill="#9a32cd" stroke="#9a32cd" points="89.04,-61.01 80.63,-67.45 91.22,-67.66 89.04,-61.01"/>
<text text-anchor="middle" x="206" y="-41" font-family="Helvetica,sans-Serif" font-size="10.00"> AnyController</text>
</g>
<!-- Node3 -->
<g id="node3" class="node">
<title>Node3</title>
<g id="a_node3"><a xlink:title=" ">
<polygon fill="none" stroke="#bfbfbf" points="128.5,-67.5 128.5,-86.5 291.5,-86.5 291.5,-67.5 128.5,-67.5"/>
<text text-anchor="middle" x="210" y="-74.5" font-family="Helvetica,sans-Serif" font-size="10.00">ROFL::ROFL_Input::InputSettings</text>
</a>
</g>
</g>
<!-- Node3&#45;&gt;Node1 -->
<g id="edge2" class="edge">
<title>Node3&#45;&gt;Node1</title>
<path fill="none" stroke="#9a32cd" stroke-dasharray="5,2" d="M226.61,-60.36C240.17,-47.58 258.84,-29.99 269.84,-19.63"/>
<polygon fill="#9a32cd" stroke="#9a32cd" points="224.18,-57.83 219.31,-67.23 228.98,-62.92 224.18,-57.83"/>
<text text-anchor="middle" x="268" y="-41" font-family="Helvetica,sans-Serif" font-size="10.00"> Settings</text>
</g>
<!-- Node4 -->
<g id="node4" class="node">
<title>Node4</title>
<g id="a_node4"><a xlink:href="class_r_o_f_l_1_1_mouse.html" target="_top" xlink:title=" ">
<polygon fill="none" stroke="#bfbfbf" points="309.5,-67.5 309.5,-86.5 386.5,-86.5 386.5,-67.5 309.5,-67.5"/>
<text text-anchor="middle" x="348" y="-74.5" font-family="Helvetica,sans-Serif" font-size="10.00">ROFL::Mouse</text>
</a>
</g>
</g>
<!-- Node4&#45;&gt;Node1 -->
<g id="edge3" class="edge">
<title>Node4&#45;&gt;Node1</title>
<path fill="none" stroke="#9a32cd" stroke-dasharray="5,2" d="M331.39,-60.36C317.83,-47.58 299.16,-29.99 288.16,-19.63"/>
<polygon fill="#9a32cd" stroke="#9a32cd" points="329.02,-62.92 338.69,-67.23 333.82,-57.83 329.02,-62.92"/>
<text text-anchor="middle" x="333.5" y="-41" font-family="Helvetica,sans-Serif" font-size="10.00"> Mouse</text>
</g>
<!-- Node5 -->
<g id="node5" class="node">
<title>Node5</title>
<g id="a_node5"><a xlink:href="class_r_o_f_l_1_1_keyboard.html" target="_top" xlink:title=" ">
<polygon fill="none" stroke="#bfbfbf" points="404.5,-67.5 404.5,-86.5 493.5,-86.5 493.5,-67.5 404.5,-67.5"/>
<text text-anchor="middle" x="449" y="-74.5" font-family="Helvetica,sans-Serif" font-size="10.00">ROFL::Keyboard</text>
</a>
</g>
</g>
<!-- Node5&#45;&gt;Node1 -->
<g id="edge4" class="edge">
<title>Node5&#45;&gt;Node1</title>
<path fill="none" stroke="#9a32cd" stroke-dasharray="5,2" d="M418.89,-63.65C400.26,-56.08 375.82,-46.29 354,-38 337.18,-31.61 318.1,-24.75 303.4,-19.54"/>
<polygon fill="#9a32cd" stroke="#9a32cd" points="417.74,-66.96 428.33,-67.49 420.39,-60.47 417.74,-66.96"/>
<text text-anchor="middle" x="402.5" y="-41" font-family="Helvetica,sans-Serif" font-size="10.00"> Keyboard</text>
</g>
</g>
</svg>
