<?xml version="1.0" encoding="UTF-8" standalone="no"?>
<!DOCTYPE svg PUBLIC "-//W3C//DTD SVG 1.1//EN"
 "http://www.w3.org/Graphics/SVG/1.1/DTD/svg11.dtd">
<!-- Generated by graphviz version 3.0.0 (20220226.1711)
 -->
<!-- Title: ROFL::Interface Pages: 1 -->
<svg width="627pt" height="220pt"
 viewBox="0.00 0.00 627.00 219.50" xmlns="http://www.w3.org/2000/svg" xmlns:xlink="http://www.w3.org/1999/xlink">
<g id="graph0" class="graph" transform="scale(1 1) rotate(0) translate(4 215.5)">
<title>ROFL::Interface</title>
<!-- Node1 -->
<g id="node1" class="node">
<title>Node1</title>
<g id="a_node1"><a xlink:title=" ">
<polygon fill="#bfbfbf" stroke="black" points="534,-109.5 534,-128.5 619,-128.5 619,-109.5 534,-109.5"/>
<text text-anchor="middle" x="576.5" y="-116.5" font-family="Helvetica,sans-Serif" font-size="10.00">ROFL::Interface</text>
</a>
</g>
</g>
<!-- Node2 -->
<g id="node2" class="node">
<title>Node2</title>
<g id="a_node2"><a xlink:title=" ">
<polygon fill="none" stroke="black" points="329,-181 329,-211 427,-211 427,-181 329,-181"/>
<text text-anchor="start" x="337" y="-199" font-family="Helvetica,sans-Serif" font-size="10.00">std::unordered_set</text>
<text text-anchor="middle" x="378" y="-188" font-family="Helvetica,sans-Serif" font-size="10.00">&lt; void * &gt;</text>
</a>
</g>
</g>
<!-- Node2&#45;&gt;Node1 -->
<g id="edge1" class="edge">
<title>Node2&#45;&gt;Node1</title>
<path fill="none" stroke="#9a32cd" stroke-dasharray="5,2" d="M429.53,-177.3C455.46,-167.59 487.51,-155.39 516,-144 528.38,-139.05 542.11,-133.3 553.25,-128.56"/>
<polygon fill="#9a32cd" stroke="#9a32cd" points="428.05,-174.12 419.91,-180.9 430.5,-180.68 428.05,-174.12"/>
<text text-anchor="middle" x="485.5" y="-170" font-family="Helvetica,sans-Serif" font-size="10.00"> pointers</text>
</g>
<!-- Node3 -->
<g id="node3" class="node">
<title>Node3</title>
<g id="a_node3"><a xlink:title=" ">
<polygon fill="none" stroke="black" points="319,-110 319,-162 437,-162 437,-110 319,-110"/>
<text text-anchor="start" x="327" y="-150" font-family="Helvetica,sans-Serif" font-size="10.00">std::unordered_map</text>
<text text-anchor="start" x="327" y="-139" font-family="Helvetica,sans-Serif" font-size="10.00">&lt; std::type_index, std</text>
<text text-anchor="start" x="327" y="-128" font-family="Helvetica,sans-Serif" font-size="10.00">::unordered_map&lt; std::</text>
<text text-anchor="middle" x="378" y="-117" font-family="Helvetica,sans-Serif" font-size="10.00">string, std::any &gt; &gt;</text>
</a>
</g>
</g>
<!-- Node3&#45;&gt;Node1 -->
<g id="edge2" class="edge">
<title>Node3&#45;&gt;Node1</title>
<path fill="none" stroke="#9a32cd" stroke-dasharray="5,2" d="M447.17,-130.1C475.96,-127.61 508.57,-124.79 533.71,-122.62"/>
<polygon fill="#9a32cd" stroke="#9a32cd" points="446.82,-126.62 437.16,-130.97 447.42,-133.59 446.82,-126.62"/>
<text text-anchor="middle" x="485.5" y="-132" font-family="Helvetica,sans-Serif" font-size="10.00"> Variables</text>
</g>
<!-- Node4 -->
<g id="node4" class="node">
<title>Node4</title>
<g id="a_node4"><a xlink:title=" ">
<polygon fill="none" stroke="black" points="326.5,-61 326.5,-91 429.5,-91 429.5,-61 326.5,-61"/>
<text text-anchor="start" x="334.5" y="-79" font-family="Helvetica,sans-Serif" font-size="10.00">std::unordered_map</text>
<text text-anchor="middle" x="378" y="-68" font-family="Helvetica,sans-Serif" font-size="10.00">&lt; std::string, bool &gt;</text>
</a>
</g>
</g>
<!-- Node4&#45;&gt;Node1 -->
<g id="edge3" class="edge">
<title>Node4&#45;&gt;Node1</title>
<path fill="none" stroke="#9a32cd" stroke-dasharray="5,2" d="M439.7,-89.28C470.19,-95.95 506.35,-103.87 533.68,-109.85"/>
<polygon fill="#9a32cd" stroke="#9a32cd" points="440.12,-85.79 429.6,-87.07 438.62,-92.63 440.12,-85.79"/>
<text text-anchor="middle" x="485.5" y="-108" font-family="Helvetica,sans-Serif" font-size="10.00"> initializer_list</text>
</g>
<!-- Node5 -->
<g id="node5" class="node">
<title>Node5</title>
<g id="a_node5"><a xlink:title=" ">
<polygon fill="none" stroke="black" points="156,-66.5 156,-85.5 216,-85.5 216,-66.5 156,-66.5"/>
<text text-anchor="middle" x="186" y="-73.5" font-family="Helvetica,sans-Serif" font-size="10.00">std::string</text>
</a>
</g>
</g>
<!-- Node5&#45;&gt;Node4 -->
<g id="edge4" class="edge">
<title>Node5&#45;&gt;Node4</title>
<path fill="none" stroke="#9a32cd" stroke-dasharray="5,2" d="M226.42,-76C255.36,-76 294.92,-76 326.23,-76"/>
<polygon fill="#9a32cd" stroke="#9a32cd" points="226.27,-72.5 216.27,-76 226.27,-79.5 226.27,-72.5"/>
<text text-anchor="middle" x="279.5" y="-79" font-family="Helvetica,sans-Serif" font-size="10.00"> keys</text>
</g>
<!-- Node6 -->
<g id="node6" class="node">
<title>Node6</title>
<g id="a_node6"><a xlink:title=" ">
<polygon fill="none" stroke="black" points="0,-61 0,-91 95,-91 95,-61 0,-61"/>
<text text-anchor="start" x="8" y="-79" font-family="Helvetica,sans-Serif" font-size="10.00">std::basic_string&lt;</text>
<text text-anchor="middle" x="47.5" y="-68" font-family="Helvetica,sans-Serif" font-size="10.00"> Char &gt;</text>
</a>
</g>
</g>
<!-- Node6&#45;&gt;Node5 -->
<g id="edge5" class="edge">
<title>Node6&#45;&gt;Node5</title>
<path fill="none" stroke="midnightblue" d="M105.17,-76C122.54,-76 140.94,-76 155.69,-76"/>
<polygon fill="midnightblue" stroke="midnightblue" points="105.09,-72.5 95.09,-76 105.09,-79.5 105.09,-72.5"/>
</g>
<!-- Node7 -->
<g id="node7" class="node">
<title>Node7</title>
<g id="a_node7"><a xlink:title=" ">
<polygon fill="none" stroke="black" points="326.5,-0.5 326.5,-41.5 429.5,-41.5 429.5,-0.5 326.5,-0.5"/>
<text text-anchor="start" x="334.5" y="-29.5" font-family="Helvetica,sans-Serif" font-size="10.00">std::unordered_map</text>
<text text-anchor="start" x="334.5" y="-18.5" font-family="Helvetica,sans-Serif" font-size="10.00">&lt; int, std::vector&lt;</text>
<text text-anchor="middle" x="378" y="-7.5" font-family="Helvetica,sans-Serif" font-size="10.00"> double &gt; &gt;</text>
</a>
</g>
</g>
<!-- Node7&#45;&gt;Node1 -->
<g id="edge6" class="edge">
<title>Node7&#45;&gt;Node1</title>
<path fill="none" stroke="#9a32cd" stroke-dasharray="5,2" d="M439.13,-42.86C463.52,-52.53 491.64,-64.73 516,-78 533.19,-87.36 551.52,-100.54 563.22,-109.4"/>
<polygon fill="#9a32cd" stroke="#9a32cd" points="440.22,-39.53 429.63,-39.14 437.67,-46.05 440.22,-39.53"/>
<text text-anchor="middle" x="485.5" y="-81" font-family="Helvetica,sans-Serif" font-size="10.00"> profiler_times</text>
</g>
<!-- Node8 -->
<g id="node8" class="node">
<title>Node8</title>
<g id="a_node8"><a xlink:title=" ">
<polygon fill="none" stroke="black" points="132,-11.5 132,-30.5 240,-30.5 240,-11.5 132,-11.5"/>
<text text-anchor="middle" x="186" y="-18.5" font-family="Helvetica,sans-Serif" font-size="10.00">std::vector&lt; double &gt;</text>
</a>
</g>
</g>
<!-- Node8&#45;&gt;Node7 -->
<g id="edge7" class="edge">
<title>Node8&#45;&gt;Node7</title>
<path fill="none" stroke="#9a32cd" stroke-dasharray="5,2" d="M250.22,-21C275,-21 303.05,-21 326.45,-21"/>
<polygon fill="#9a32cd" stroke="#9a32cd" points="250.18,-17.5 240.18,-21 250.18,-24.5 250.18,-17.5"/>
<text text-anchor="middle" x="279.5" y="-24" font-family="Helvetica,sans-Serif" font-size="10.00"> elements</text>
</g>
</g>
</svg>
