<?xml version="1.0" encoding="UTF-8" standalone="no"?>
<!DOCTYPE svg PUBLIC "-//W3C//DTD SVG 1.1//EN"
 "http://www.w3.org/Graphics/SVG/1.1/DTD/svg11.dtd">
<!-- Generated by graphviz version 3.0.0 (20220226.1711)
 -->
<!-- Title: ROFL::ObjectBase Pages: 1 -->
<svg width="472pt" height="284pt"
 viewBox="0.00 0.00 472.00 284.00" xmlns="http://www.w3.org/2000/svg" xmlns:xlink="http://www.w3.org/1999/xlink">
<g id="graph0" class="graph" transform="scale(1 1) rotate(0) translate(4 280)">
<title>ROFL::ObjectBase</title>
<!-- Node1 -->
<g id="node1" class="node">
<title>Node1</title>
<g id="a_node1"><a xlink:title=" ">
<polygon fill="#bfbfbf" stroke="black" points="83.5,-0.5 83.5,-19.5 182.5,-19.5 182.5,-0.5 83.5,-0.5"/>
<text text-anchor="middle" x="133" y="-7.5" font-family="Helvetica,sans-Serif" font-size="10.00">ROFL::ObjectBase</text>
</a>
</g>
</g>
<!-- Node2 -->
<g id="node2" class="node">
<title>Node2</title>
<g id="a_node2"><a xlink:href="struct_r_o_f_l_1_1_collider.html" target="_top" xlink:title=" ">
<polygon fill="none" stroke="#bfbfbf" points="0,-67.5 0,-86.5 80,-86.5 80,-67.5 0,-67.5"/>
<text text-anchor="middle" x="40" y="-74.5" font-family="Helvetica,sans-Serif" font-size="10.00">ROFL::Collider</text>
</a>
</g>
</g>
<!-- Node2&#45;&gt;Node1 -->
<g id="edge1" class="edge">
<title>Node2&#45;&gt;Node1</title>
<path fill="none" stroke="#9a32cd" stroke-dasharray="5,2" d="M38.49,-57.01C38.92,-50.34 40.6,-43.21 45,-38 54.6,-26.65 68.83,-19.99 83.07,-16.1"/>
<polygon fill="#9a32cd" stroke="#9a32cd" points="34.99,-57.47 38.68,-67.41 41.99,-57.34 34.99,-57.47"/>
<text text-anchor="middle" x="69.5" y="-41" font-family="Helvetica,sans-Serif" font-size="10.00"> objCollider</text>
</g>
<!-- Node3 -->
<g id="node3" class="node">
<title>Node3</title>
<g id="a_node3"><a xlink:href="class_r_o_f_l_1_1_sprite.html" target="_top" xlink:title=" ">
<polygon fill="none" stroke="#bfbfbf" points="207,-167.5 207,-186.5 281,-186.5 281,-167.5 207,-167.5"/>
<text text-anchor="middle" x="244" y="-174.5" font-family="Helvetica,sans-Serif" font-size="10.00">ROFL::Sprite</text>
</a>
</g>
</g>
<!-- Node3&#45;&gt;Node1 -->
<g id="edge2" class="edge">
<title>Node3&#45;&gt;Node1</title>
<path fill="none" stroke="#9a32cd" stroke-dasharray="5,2" d="M227.83,-159.89C211.32,-142.85 185.69,-114.65 168,-87 153.44,-64.24 141.56,-34.43 136.15,-19.83"/>
<polygon fill="#9a32cd" stroke="#9a32cd" points="225.61,-162.63 235.12,-167.31 230.6,-157.72 225.61,-162.63"/>
<text text-anchor="middle" x="197.5" y="-74.5" font-family="Helvetica,sans-Serif" font-size="10.00"> currentSprite</text>
</g>
<!-- Node8 -->
<g id="node8" class="node">
<title>Node8</title>
<g id="a_node8"><a xlink:href="class_r_o_f_l_1_1_animated_sprite.html" target="_top" xlink:title=" ">
<polygon fill="none" stroke="#bfbfbf" points="236.5,-67.5 236.5,-86.5 351.5,-86.5 351.5,-67.5 236.5,-67.5"/>
<text text-anchor="middle" x="294" y="-74.5" font-family="Helvetica,sans-Serif" font-size="10.00">ROFL::AnimatedSprite</text>
</a>
</g>
</g>
<!-- Node3&#45;&gt;Node8 -->
<g id="edge8" class="edge">
<title>Node3&#45;&gt;Node8</title>
<path fill="none" stroke="midnightblue" d="M252.99,-158.38C263.8,-137.2 281.5,-102.51 289.64,-86.54"/>
<polygon fill="midnightblue" stroke="midnightblue" points="249.86,-156.8 248.44,-167.3 256.1,-159.99 249.86,-156.8"/>
</g>
<!-- Node4 -->
<g id="node4" class="node">
<title>Node4</title>
<g id="a_node4"><a xlink:href="struct_r_o_f_l_1_1_vec2.html" target="_top" xlink:title=" ">
<polygon fill="none" stroke="#bfbfbf" points="54.5,-256.5 54.5,-275.5 161.5,-275.5 161.5,-256.5 54.5,-256.5"/>
<text text-anchor="middle" x="108" y="-263.5" font-family="Helvetica,sans-Serif" font-size="10.00">ROFL::Vec2&lt; float &gt;</text>
</a>
</g>
</g>
<!-- Node4&#45;&gt;Node1 -->
<g id="edge9" class="edge">
<title>Node4&#45;&gt;Node1</title>
<path fill="none" stroke="#9a32cd" stroke-dasharray="5,2" d="M109.87,-246C114.9,-194.9 128.58,-55.89 132.14,-19.71"/>
<polygon fill="#9a32cd" stroke="#9a32cd" points="106.36,-245.96 108.86,-256.26 113.32,-246.65 106.36,-245.96"/>
<text text-anchor="middle" x="142" y="-141" font-family="Helvetica,sans-Serif" font-size="10.00"> objSize</text>
<text text-anchor="middle" x="142" y="-130" font-family="Helvetica,sans-Serif" font-size="10.00">pivot</text>
<text text-anchor="middle" x="142" y="-119" font-family="Helvetica,sans-Serif" font-size="10.00">pos</text>
<text text-anchor="middle" x="142" y="-108" font-family="Helvetica,sans-Serif" font-size="10.00">scale</text>
</g>
<!-- Node4&#45;&gt;Node3 -->
<g id="edge3" class="edge">
<title>Node4&#45;&gt;Node3</title>
<path fill="none" stroke="#9a32cd" stroke-dasharray="5,2" d="M121.46,-248.6C133.11,-235.3 151.05,-216.87 170,-205 182.75,-197.02 198.21,-190.91 211.69,-186.54"/>
<polygon fill="#9a32cd" stroke="#9a32cd" points="118.57,-246.6 114.75,-256.48 123.9,-251.13 118.57,-246.6"/>
<text text-anchor="middle" x="200" y="-230" font-family="Helvetica,sans-Serif" font-size="10.00"> pivot</text>
<text text-anchor="middle" x="200" y="-219" font-family="Helvetica,sans-Serif" font-size="10.00">spritePosition</text>
<text text-anchor="middle" x="200" y="-208" font-family="Helvetica,sans-Serif" font-size="10.00">spriteSize</text>
</g>
<!-- Node5 -->
<g id="node5" class="node">
<title>Node5</title>
<g id="a_node5"><a xlink:href="struct_r_o_f_l_1_1_rect.html" target="_top" xlink:title=" ">
<polygon fill="none" stroke="#bfbfbf" points="179.5,-256.5 179.5,-275.5 276.5,-275.5 276.5,-256.5 179.5,-256.5"/>
<text text-anchor="middle" x="228" y="-263.5" font-family="Helvetica,sans-Serif" font-size="10.00">ROFL::Rect&lt; int &gt;</text>
</a>
</g>
</g>
<!-- Node5&#45;&gt;Node3 -->
<g id="edge4" class="edge">
<title>Node5&#45;&gt;Node3</title>
<path fill="none" stroke="#9a32cd" stroke-dasharray="5,2" d="M231.41,-246.46C234.81,-228 239.87,-200.48 242.41,-186.62"/>
<polygon fill="#9a32cd" stroke="#9a32cd" points="227.96,-245.87 229.59,-256.34 234.84,-247.14 227.96,-245.87"/>
<text text-anchor="middle" x="247.5" y="-219" font-family="Helvetica,sans-Serif" font-size="10.00"> src</text>
</g>
<!-- Node6 -->
<g id="node6" class="node">
<title>Node6</title>
<g id="a_node6"><a xlink:href="struct_r_o_f_l_1_1_color.html" target="_top" xlink:title=" ">
<polygon fill="none" stroke="#bfbfbf" points="294.5,-256.5 294.5,-275.5 365.5,-275.5 365.5,-256.5 294.5,-256.5"/>
<text text-anchor="middle" x="330" y="-263.5" font-family="Helvetica,sans-Serif" font-size="10.00">ROFL::Color</text>
</a>
</g>
</g>
<!-- Node6&#45;&gt;Node3 -->
<g id="edge5" class="edge">
<title>Node6&#45;&gt;Node3</title>
<path fill="none" stroke="#9a32cd" stroke-dasharray="5,2" d="M313.93,-248.74C295.74,-230.35 266.8,-201.06 252.53,-186.62"/>
<polygon fill="#9a32cd" stroke="#9a32cd" points="311.92,-251.69 321.44,-256.34 316.9,-246.77 311.92,-251.69"/>
<text text-anchor="middle" x="328" y="-219" font-family="Helvetica,sans-Serif" font-size="10.00"> colorRGBA</text>
</g>
<!-- Node7 -->
<g id="node7" class="node">
<title>Node7</title>
<g id="a_node7"><a xlink:href="class_r_o_f_l_1_1_texture.html" target="_top" xlink:title=" ">
<polygon fill="none" stroke="#bfbfbf" points="384,-256.5 384,-275.5 464,-275.5 464,-256.5 384,-256.5"/>
<text text-anchor="middle" x="424" y="-263.5" font-family="Helvetica,sans-Serif" font-size="10.00">ROFL::Texture</text>
</a>
</g>
</g>
<!-- Node7&#45;&gt;Node3 -->
<g id="edge6" class="edge">
<title>Node7&#45;&gt;Node3</title>
<path fill="none" stroke="#9a32cd" stroke-dasharray="5,2" d="M410.17,-248.43C397.86,-234.75 378.65,-215.88 358,-205 334.07,-192.38 304.24,-185.59 281.09,-181.97"/>
<polygon fill="#9a32cd" stroke="#9a32cd" points="407.69,-250.91 416.89,-256.15 412.97,-246.31 407.69,-250.91"/>
<text text-anchor="middle" x="423.5" y="-219" font-family="Helvetica,sans-Serif" font-size="10.00"> srcTexture</text>
</g>
<!-- Node8&#45;&gt;Node1 -->
<g id="edge7" class="edge">
<title>Node8&#45;&gt;Node1</title>
<path fill="none" stroke="#9a32cd" stroke-dasharray="5,2" d="M263.3,-63.6C231.33,-50.7 182.11,-30.83 154.21,-19.56"/>
<polygon fill="#9a32cd" stroke="#9a32cd" points="262.04,-66.87 272.62,-67.37 264.66,-60.38 262.04,-66.87"/>
<text text-anchor="middle" x="262.5" y="-41" font-family="Helvetica,sans-Serif" font-size="10.00"> currentAnimation</text>
</g>
</g>
</svg>
