<?xml version="1.0" encoding="UTF-8" standalone="no"?>
<!DOCTYPE svg PUBLIC "-//W3C//DTD SVG 1.1//EN"
 "http://www.w3.org/Graphics/SVG/1.1/DTD/svg11.dtd">
<!-- Generated by graphviz version 3.0.0 (20220226.1711)
 -->
<!-- Title: ROFL::LightSourceDynamic Pages: 1 -->
<svg width="494pt" height="400pt"
 viewBox="0.00 0.00 493.50 400.00" xmlns="http://www.w3.org/2000/svg" xmlns:xlink="http://www.w3.org/1999/xlink">
<g id="graph0" class="graph" transform="scale(1 1) rotate(0) translate(4 396)">
<title>ROFL::LightSourceDynamic</title>
<!-- Node1 -->
<g id="node1" class="node">
<title>Node1</title>
<g id="a_node1"><a xlink:title=" ">
<polygon fill="#bfbfbf" stroke="black" points="0,-0.5 0,-19.5 138,-19.5 138,-0.5 0,-0.5"/>
<text text-anchor="middle" x="69" y="-7.5" font-family="Helvetica,sans-Serif" font-size="10.00">ROFL::LightSourceDynamic</text>
</a>
</g>
</g>
<!-- Node2 -->
<g id="node2" class="node">
<title>Node2</title>
<g id="a_node2"><a xlink:href="class_r_o_f_l_1_1_object_dynamic.html" target="_top" xlink:title=" ">
<polygon fill="none" stroke="#bfbfbf" points="11.5,-57.5 11.5,-76.5 126.5,-76.5 126.5,-57.5 11.5,-57.5"/>
<text text-anchor="middle" x="69" y="-64.5" font-family="Helvetica,sans-Serif" font-size="10.00">ROFL::ObjectDynamic</text>
</a>
</g>
</g>
<!-- Node2&#45;&gt;Node1 -->
<g id="edge1" class="edge">
<title>Node2&#45;&gt;Node1</title>
<path fill="none" stroke="midnightblue" d="M69,-47.12C69,-37.82 69,-27.06 69,-19.71"/>
<polygon fill="midnightblue" stroke="midnightblue" points="65.5,-47.41 69,-57.41 72.5,-47.41 65.5,-47.41"/>
</g>
<!-- Node3 -->
<g id="node3" class="node">
<title>Node3</title>
<g id="a_node3"><a xlink:href="class_r_o_f_l_1_1_object_base.html" target="_top" xlink:title=" ">
<polygon fill="none" stroke="#bfbfbf" points="126.5,-114.5 126.5,-133.5 225.5,-133.5 225.5,-114.5 126.5,-114.5"/>
<text text-anchor="middle" x="176" y="-121.5" font-family="Helvetica,sans-Serif" font-size="10.00">ROFL::ObjectBase</text>
</a>
</g>
</g>
<!-- Node3&#45;&gt;Node2 -->
<g id="edge2" class="edge">
<title>Node3&#45;&gt;Node2</title>
<path fill="none" stroke="midnightblue" d="M150.35,-109.82C130.26,-99.49 102.91,-85.43 85.6,-76.53"/>
<polygon fill="midnightblue" stroke="midnightblue" points="148.79,-112.95 159.28,-114.41 151.99,-106.72 148.79,-112.95"/>
</g>
<!-- Node4 -->
<g id="node4" class="node">
<title>Node4</title>
<g id="a_node4"><a xlink:href="struct_r_o_f_l_1_1_collider.html" target="_top" xlink:title=" ">
<polygon fill="none" stroke="#bfbfbf" points="387,-182.5 387,-201.5 467,-201.5 467,-182.5 387,-182.5"/>
<text text-anchor="middle" x="427" y="-189.5" font-family="Helvetica,sans-Serif" font-size="10.00">ROFL::Collider</text>
</a>
</g>
</g>
<!-- Node4&#45;&gt;Node3 -->
<g id="edge3" class="edge">
<title>Node4&#45;&gt;Node3</title>
<path fill="none" stroke="#9a32cd" stroke-dasharray="5,2" d="M400.45,-178.27C381.7,-169.74 355.78,-158.85 332,-152 297.14,-141.96 256.75,-135.09 225.81,-130.8"/>
<polygon fill="#9a32cd" stroke="#9a32cd" points="399.01,-181.46 409.55,-182.48 401.95,-175.11 399.01,-181.46"/>
<text text-anchor="middle" x="388.5" y="-155" font-family="Helvetica,sans-Serif" font-size="10.00"> objCollider</text>
</g>
<!-- Node5 -->
<g id="node5" class="node">
<title>Node5</title>
<g id="a_node5"><a xlink:href="class_r_o_f_l_1_1_sprite.html" target="_top" xlink:title=" ">
<polygon fill="none" stroke="#bfbfbf" points="221,-283.5 221,-302.5 295,-302.5 295,-283.5 221,-283.5"/>
<text text-anchor="middle" x="258" y="-290.5" font-family="Helvetica,sans-Serif" font-size="10.00">ROFL::Sprite</text>
</a>
</g>
</g>
<!-- Node5&#45;&gt;Node3 -->
<g id="edge4" class="edge">
<title>Node5&#45;&gt;Node3</title>
<path fill="none" stroke="#9a32cd" stroke-dasharray="5,2" d="M240.44,-276.13C223.45,-259.64 198.48,-232.21 186,-203 175.91,-179.4 175.25,-148.4 175.61,-133.59"/>
<polygon fill="#9a32cd" stroke="#9a32cd" points="238.37,-278.99 248.05,-283.3 243.18,-273.9 238.37,-278.99"/>
<text text-anchor="middle" x="215.5" y="-189.5" font-family="Helvetica,sans-Serif" font-size="10.00"> currentSprite</text>
</g>
<!-- Node10 -->
<g id="node10" class="node">
<title>Node10</title>
<g id="a_node10"><a xlink:href="class_r_o_f_l_1_1_animated_sprite.html" target="_top" xlink:title=" ">
<polygon fill="none" stroke="#bfbfbf" points="253.5,-182.5 253.5,-201.5 368.5,-201.5 368.5,-182.5 253.5,-182.5"/>
<text text-anchor="middle" x="311" y="-189.5" font-family="Helvetica,sans-Serif" font-size="10.00">ROFL::AnimatedSprite</text>
</a>
</g>
</g>
<!-- Node5&#45;&gt;Node10 -->
<g id="edge10" class="edge">
<title>Node5&#45;&gt;Node10</title>
<path fill="none" stroke="midnightblue" d="M267.53,-274.2C278.98,-252.81 297.75,-217.76 306.38,-201.62"/>
<polygon fill="midnightblue" stroke="midnightblue" points="264.34,-272.75 262.7,-283.21 270.51,-276.05 264.34,-272.75"/>
</g>
<!-- Node6 -->
<g id="node6" class="node">
<title>Node6</title>
<g id="a_node6"><a xlink:href="struct_r_o_f_l_1_1_vec2.html" target="_top" xlink:title=" ">
<polygon fill="none" stroke="#bfbfbf" points="71.5,-372.5 71.5,-391.5 178.5,-391.5 178.5,-372.5 71.5,-372.5"/>
<text text-anchor="middle" x="125" y="-379.5" font-family="Helvetica,sans-Serif" font-size="10.00">ROFL::Vec2&lt; float &gt;</text>
</a>
</g>
</g>
<!-- Node6&#45;&gt;Node2 -->
<g id="edge12" class="edge">
<title>Node6&#45;&gt;Node2</title>
<path fill="none" stroke="#9a32cd" stroke-dasharray="5,2" d="M92.16,-368.21C63.34,-354.58 26,-329.98 26,-294 26,-294 26,-294 26,-123 26,-103.12 43.65,-86.14 56.33,-76.5"/>
<polygon fill="#9a32cd" stroke="#9a32cd" points="90.98,-371.51 101.54,-372.41 93.84,-365.13 90.98,-371.51"/>
<text text-anchor="middle" x="61.5" y="-195" font-family="Helvetica,sans-Serif" font-size="10.00"> direction</text>
<text text-anchor="middle" x="61.5" y="-184" font-family="Helvetica,sans-Serif" font-size="10.00">previousPosition</text>
</g>
<!-- Node6&#45;&gt;Node3 -->
<g id="edge11" class="edge">
<title>Node6&#45;&gt;Node3</title>
<path fill="none" stroke="#9a32cd" stroke-dasharray="5,2" d="M128.5,-362.48C134.16,-332.65 145.71,-272.16 156,-221 162.48,-188.79 170.55,-150.58 174.14,-133.73"/>
<polygon fill="#9a32cd" stroke="#9a32cd" points="125.06,-361.84 126.64,-372.32 131.94,-363.15 125.06,-361.84"/>
<text text-anchor="middle" x="174" y="-257" font-family="Helvetica,sans-Serif" font-size="10.00"> objSize</text>
<text text-anchor="middle" x="174" y="-246" font-family="Helvetica,sans-Serif" font-size="10.00">pivot</text>
<text text-anchor="middle" x="174" y="-235" font-family="Helvetica,sans-Serif" font-size="10.00">pos</text>
<text text-anchor="middle" x="174" y="-224" font-family="Helvetica,sans-Serif" font-size="10.00">scale</text>
</g>
<!-- Node6&#45;&gt;Node5 -->
<g id="edge5" class="edge">
<title>Node6&#45;&gt;Node5</title>
<path fill="none" stroke="#9a32cd" stroke-dasharray="5,2" d="M136.51,-364.04C146.37,-350.67 161.71,-332.42 179,-321 191.58,-312.69 206.98,-306.68 220.82,-302.47"/>
<polygon fill="#9a32cd" stroke="#9a32cd" points="133.52,-362.2 130.59,-372.38 139.23,-366.25 133.52,-362.2"/>
<text text-anchor="middle" x="209" y="-346" font-family="Helvetica,sans-Serif" font-size="10.00"> pivot</text>
<text text-anchor="middle" x="209" y="-335" font-family="Helvetica,sans-Serif" font-size="10.00">spritePosition</text>
<text text-anchor="middle" x="209" y="-324" font-family="Helvetica,sans-Serif" font-size="10.00">spriteSize</text>
</g>
<!-- Node7 -->
<g id="node7" class="node">
<title>Node7</title>
<g id="a_node7"><a xlink:href="struct_r_o_f_l_1_1_rect.html" target="_top" xlink:title=" ">
<polygon fill="none" stroke="#bfbfbf" points="388.5,-372.5 388.5,-391.5 485.5,-391.5 485.5,-372.5 388.5,-372.5"/>
<text text-anchor="middle" x="437" y="-379.5" font-family="Helvetica,sans-Serif" font-size="10.00">ROFL::Rect&lt; int &gt;</text>
</a>
</g>
</g>
<!-- Node7&#45;&gt;Node5 -->
<g id="edge6" class="edge">
<title>Node7&#45;&gt;Node5</title>
<path fill="none" stroke="#9a32cd" stroke-dasharray="5,2" d="M424.18,-363.97C412.96,-350.29 395.45,-331.65 376,-321 351.02,-307.32 319.43,-300.56 295.22,-297.22"/>
<polygon fill="#9a32cd" stroke="#9a32cd" points="421.66,-366.43 430.6,-372.11 427.16,-362.09 421.66,-366.43"/>
<text text-anchor="middle" x="422.5" y="-335" font-family="Helvetica,sans-Serif" font-size="10.00"> src</text>
</g>
<!-- Node8 -->
<g id="node8" class="node">
<title>Node8</title>
<g id="a_node8"><a xlink:href="struct_r_o_f_l_1_1_color.html" target="_top" xlink:title=" ">
<polygon fill="none" stroke="#bfbfbf" points="200.5,-372.5 200.5,-391.5 271.5,-391.5 271.5,-372.5 200.5,-372.5"/>
<text text-anchor="middle" x="236" y="-379.5" font-family="Helvetica,sans-Serif" font-size="10.00">ROFL::Color</text>
</a>
</g>
</g>
<!-- Node8&#45;&gt;Node5 -->
<g id="edge7" class="edge">
<title>Node8&#45;&gt;Node5</title>
<path fill="none" stroke="#9a32cd" stroke-dasharray="5,2" d="M240.69,-362.46C245.36,-344 252.32,-316.48 255.82,-302.62"/>
<polygon fill="#9a32cd" stroke="#9a32cd" points="237.25,-361.79 238.19,-372.34 244.03,-363.5 237.25,-361.79"/>
<text text-anchor="middle" x="276" y="-335" font-family="Helvetica,sans-Serif" font-size="10.00"> colorRGBA</text>
</g>
<!-- Node9 -->
<g id="node9" class="node">
<title>Node9</title>
<g id="a_node9"><a xlink:href="class_r_o_f_l_1_1_texture.html" target="_top" xlink:title=" ">
<polygon fill="none" stroke="#bfbfbf" points="290,-372.5 290,-391.5 370,-391.5 370,-372.5 290,-372.5"/>
<text text-anchor="middle" x="330" y="-379.5" font-family="Helvetica,sans-Serif" font-size="10.00">ROFL::Texture</text>
</a>
</g>
</g>
<!-- Node9&#45;&gt;Node5 -->
<g id="edge8" class="edge">
<title>Node9&#45;&gt;Node5</title>
<path fill="none" stroke="#9a32cd" stroke-dasharray="5,2" d="M326,-362.27C322.49,-349.46 316.29,-332.75 306,-321 299.07,-313.09 289.23,-306.99 280.27,-302.61"/>
<polygon fill="#9a32cd" stroke="#9a32cd" points="322.67,-363.4 328.43,-372.29 329.47,-361.75 322.67,-363.4"/>
<text text-anchor="middle" x="347.5" y="-335" font-family="Helvetica,sans-Serif" font-size="10.00"> srcTexture</text>
</g>
<!-- Node10&#45;&gt;Node3 -->
<g id="edge9" class="edge">
<title>Node10&#45;&gt;Node3</title>
<path fill="none" stroke="#9a32cd" stroke-dasharray="5,2" d="M284.13,-177.86C257.25,-164.72 216.7,-144.9 193.65,-133.63"/>
<polygon fill="#9a32cd" stroke="#9a32cd" points="282.83,-181.12 293.35,-182.37 285.9,-174.84 282.83,-181.12"/>
<text text-anchor="middle" x="289.5" y="-155" font-family="Helvetica,sans-Serif" font-size="10.00"> currentAnimation</text>
</g>
</g>
</svg>
