<?xml version="1.0" encoding="UTF-8" standalone="no"?>
<!DOCTYPE svg PUBLIC "-//W3C//DTD SVG 1.1//EN"
 "http://www.w3.org/Graphics/SVG/1.1/DTD/svg11.dtd">
<!-- Generated by graphviz version 3.0.0 (20220226.1711)
 -->
<!-- Title: ROFL::ROFL_Engine Pages: 1 -->
<svg width="822pt" height="280pt"
 viewBox="0.00 0.00 822.00 280.00" xmlns="http://www.w3.org/2000/svg" xmlns:xlink="http://www.w3.org/1999/xlink">
<g id="graph0" class="graph" transform="scale(1 1) rotate(0) translate(4 276)">
<title>ROFL::ROFL_Engine</title>
<!-- Node1 -->
<g id="node1" class="node">
<title>Node1</title>
<g id="a_node1"><a xlink:title=" ">
<polygon fill="#bfbfbf" stroke="black" points="705,-139.5 705,-158.5 814,-158.5 814,-139.5 705,-139.5"/>
<text text-anchor="middle" x="759.5" y="-146.5" font-family="Helvetica,sans-Serif" font-size="10.00">ROFL::ROFL_Engine</text>
</a>
</g>
</g>
<!-- Node2 -->
<g id="node2" class="node">
<title>Node2</title>
<g id="a_node2"><a xlink:href="class_r_o_f_l_1_1_window.html" target="_top" xlink:title=" ">
<polygon fill="none" stroke="#bfbfbf" points="489.5,-106.5 489.5,-125.5 572.5,-125.5 572.5,-106.5 489.5,-106.5"/>
<text text-anchor="middle" x="531" y="-113.5" font-family="Helvetica,sans-Serif" font-size="10.00">ROFL::Window</text>
</a>
</g>
</g>
<!-- Node2&#45;&gt;Node1 -->
<g id="edge1" class="edge">
<title>Node2&#45;&gt;Node1</title>
<path fill="none" stroke="#9a32cd" stroke-dasharray="5,2" d="M582.44,-122.42C612.78,-126.39 652.14,-131.72 687,-137 692.72,-137.87 698.7,-138.81 704.65,-139.78"/>
<polygon fill="#9a32cd" stroke="#9a32cd" points="582.89,-118.95 572.52,-121.13 581.98,-125.89 582.89,-118.95"/>
<text text-anchor="middle" x="649" y="-140" font-family="Helvetica,sans-Serif" font-size="10.00"> window</text>
</g>
<!-- Node3 -->
<g id="node3" class="node">
<title>Node3</title>
<g id="a_node3"><a xlink:title=" ">
<polygon fill="none" stroke="black" points="300.5,-153.5 300.5,-172.5 360.5,-172.5 360.5,-153.5 300.5,-153.5"/>
<text text-anchor="middle" x="330.5" y="-160.5" font-family="Helvetica,sans-Serif" font-size="10.00">std::string</text>
</a>
</g>
</g>
<!-- Node3&#45;&gt;Node1 -->
<g id="edge14" class="edge">
<title>Node3&#45;&gt;Node1</title>
<path fill="none" stroke="#9a32cd" stroke-dasharray="5,2" d="M370.71,-161.71C447.48,-159.2 617.71,-153.62 704.84,-150.76"/>
<polygon fill="#9a32cd" stroke="#9a32cd" points="370.39,-158.22 360.51,-162.05 370.62,-165.22 370.39,-158.22"/>
<text text-anchor="middle" x="531" y="-161" font-family="Helvetica,sans-Serif" font-size="10.00"> gameName</text>
</g>
<!-- Node3&#45;&gt;Node2 -->
<g id="edge2" class="edge">
<title>Node3&#45;&gt;Node2</title>
<path fill="none" stroke="#9a32cd" stroke-dasharray="5,2" d="M361.98,-149.5C373.13,-144.98 385.97,-140.27 398,-137 428.12,-128.82 463.03,-123.44 489.38,-120.17"/>
<polygon fill="#9a32cd" stroke="#9a32cd" points="360.55,-146.3 352.67,-153.37 363.25,-152.76 360.55,-146.3"/>
<text text-anchor="middle" x="424.5" y="-140" font-family="Helvetica,sans-Serif" font-size="10.00"> winTitle</text>
</g>
<!-- Node10 -->
<g id="node10" class="node">
<title>Node10</title>
<g id="a_node10"><a xlink:title=" ">
<polygon fill="none" stroke="black" points="479.5,-191.5 479.5,-232.5 582.5,-232.5 582.5,-191.5 479.5,-191.5"/>
<text text-anchor="start" x="487.5" y="-220.5" font-family="Helvetica,sans-Serif" font-size="10.00">std::unordered_map</text>
<text text-anchor="start" x="487.5" y="-209.5" font-family="Helvetica,sans-Serif" font-size="10.00">&lt; std::string, ROFL</text>
<text text-anchor="middle" x="531" y="-198.5" font-family="Helvetica,sans-Serif" font-size="10.00">::Scene * &gt;</text>
</a>
</g>
</g>
<!-- Node3&#45;&gt;Node10 -->
<g id="edge12" class="edge">
<title>Node3&#45;&gt;Node10</title>
<path fill="none" stroke="#9a32cd" stroke-dasharray="5,2" d="M370.83,-172.71C401.96,-180.39 445.66,-191.18 479.4,-199.51"/>
<polygon fill="#9a32cd" stroke="#9a32cd" points="371.34,-169.23 360.79,-170.23 369.66,-176.02 371.34,-169.23"/>
<text text-anchor="middle" x="424.5" y="-194" font-family="Helvetica,sans-Serif" font-size="10.00"> keys</text>
</g>
<!-- Node4 -->
<g id="node4" class="node">
<title>Node4</title>
<g id="a_node4"><a xlink:title=" ">
<polygon fill="none" stroke="black" points="113,-148 113,-178 208,-178 208,-148 113,-148"/>
<text text-anchor="start" x="121" y="-166" font-family="Helvetica,sans-Serif" font-size="10.00">std::basic_string&lt;</text>
<text text-anchor="middle" x="160.5" y="-155" font-family="Helvetica,sans-Serif" font-size="10.00"> Char &gt;</text>
</a>
</g>
</g>
<!-- Node4&#45;&gt;Node3 -->
<g id="edge3" class="edge">
<title>Node4&#45;&gt;Node3</title>
<path fill="none" stroke="midnightblue" d="M218.6,-163C246.09,-163 277.88,-163 300.36,-163"/>
<polygon fill="midnightblue" stroke="midnightblue" points="218.3,-159.5 208.3,-163 218.3,-166.5 218.3,-159.5"/>
</g>
<!-- Node5 -->
<g id="node5" class="node">
<title>Node5</title>
<g id="a_node5"><a xlink:href="struct_r_o_f_l_1_1_vec2.html" target="_top" xlink:title=" ">
<polygon fill="none" stroke="#bfbfbf" points="281,-75.5 281,-94.5 380,-94.5 380,-75.5 281,-75.5"/>
<text text-anchor="middle" x="330.5" y="-82.5" font-family="Helvetica,sans-Serif" font-size="10.00">ROFL::Vec2&lt; int &gt;</text>
</a>
</g>
</g>
<!-- Node5&#45;&gt;Node2 -->
<g id="edge4" class="edge">
<title>Node5&#45;&gt;Node2</title>
<path fill="none" stroke="#9a32cd" stroke-dasharray="5,2" d="M390.35,-84.79C409.8,-85.56 431.45,-87.32 451,-91 459.29,-92.56 460.97,-94.41 469,-97 478.71,-100.13 489.32,-103.47 498.93,-106.45"/>
<polygon fill="#9a32cd" stroke="#9a32cd" points="390.22,-81.28 380.11,-84.46 390,-88.28 390.22,-81.28"/>
<text text-anchor="middle" x="424.5" y="-105" font-family="Helvetica,sans-Serif" font-size="10.00"> dimensions</text>
<text text-anchor="middle" x="424.5" y="-94" font-family="Helvetica,sans-Serif" font-size="10.00">winPos</text>
</g>
<!-- Node6 -->
<g id="node6" class="node">
<title>Node6</title>
<g id="a_node6"><a xlink:title=" ">
<polygon fill="none" stroke="#bfbfbf" points="0,-37.5 0,-56.5 53,-56.5 53,-37.5 0,-37.5"/>
<text text-anchor="middle" x="26.5" y="-44.5" font-family="Helvetica,sans-Serif" font-size="10.00">Numeric</text>
</a>
</g>
</g>
<!-- Node6&#45;&gt;Node5 -->
<g id="edge5" class="edge">
<title>Node6&#45;&gt;Node5</title>
<path fill="none" stroke="#9a32cd" stroke-dasharray="5,2" d="M50.14,-61.99C56.62,-65.58 63.87,-68.96 71,-71 141.86,-91.31 228.02,-91.34 280.79,-88.74"/>
<polygon fill="#9a32cd" stroke="#9a32cd" points="51.67,-58.83 41.29,-56.72 48.09,-64.84 51.67,-58.83"/>
<text text-anchor="middle" x="160.5" y="-125" font-family="Helvetica,sans-Serif" font-size="10.00"> h</text>
<text text-anchor="middle" x="160.5" y="-114" font-family="Helvetica,sans-Serif" font-size="10.00">w</text>
<text text-anchor="middle" x="160.5" y="-103" font-family="Helvetica,sans-Serif" font-size="10.00">x</text>
<text text-anchor="middle" x="160.5" y="-92" font-family="Helvetica,sans-Serif" font-size="10.00">y</text>
</g>
<!-- Node7 -->
<g id="node7" class="node">
<title>Node7</title>
<g id="a_node7"><a xlink:href="struct_r_o_f_l_1_1_vec2.html" target="_top" xlink:title=" ">
<polygon fill="none" stroke="#bfbfbf" points="98,-0.5 98,-19.5 223,-19.5 223,-0.5 98,-0.5"/>
<text text-anchor="middle" x="160.5" y="-7.5" font-family="Helvetica,sans-Serif" font-size="10.00">ROFL::Vec2&lt; Numeric &gt;</text>
</a>
</g>
</g>
<!-- Node6&#45;&gt;Node7 -->
<g id="edge7" class="edge">
<title>Node6&#45;&gt;Node7</title>
<path fill="none" stroke="#9a32cd" stroke-dasharray="5,2" d="M54.83,-33.23C60.11,-30.91 65.66,-28.71 71,-27 79.94,-24.13 89.55,-21.68 99.02,-19.59"/>
<polygon fill="#9a32cd" stroke="#9a32cd" points="53.35,-30.06 45.74,-37.42 56.28,-36.41 53.35,-30.06"/>
<text text-anchor="middle" x="75.5" y="-63" font-family="Helvetica,sans-Serif" font-size="10.00"> h</text>
<text text-anchor="middle" x="75.5" y="-52" font-family="Helvetica,sans-Serif" font-size="10.00">w</text>
<text text-anchor="middle" x="75.5" y="-41" font-family="Helvetica,sans-Serif" font-size="10.00">x</text>
<text text-anchor="middle" x="75.5" y="-30" font-family="Helvetica,sans-Serif" font-size="10.00">y</text>
</g>
<!-- Node7&#45;&gt;Node5 -->
<g id="edge6" class="edge">
<title>Node7&#45;&gt;Node5</title>
<path fill="none" stroke="#9a32cd" stroke-dasharray="5,2" d="M192.45,-23.82C226,-38.79 278.65,-62.3 307.96,-75.39"/>
<polygon fill="#9a32cd" stroke="#9a32cd" points="193.68,-20.53 183.12,-19.65 190.82,-26.92 193.68,-20.53"/>
<text text-anchor="middle" x="252" y="-57" font-family="Helvetica,sans-Serif" font-size="10.00"> Zero</text>
</g>
<!-- Node7&#45;&gt;Node7 -->
<g id="edge8" class="edge">
<title>Node7&#45;&gt;Node7</title>
<path fill="none" stroke="#9a32cd" stroke-dasharray="5,2" d="M145.03,-29.77C146.25,-34.5 151.4,-38 160.5,-38 175.43,-38 179.75,-28.57 173.45,-19.76"/>
<polygon fill="#9a32cd" stroke="#9a32cd" points="148.5,-30.31 147.55,-19.76 141.72,-28.6 148.5,-30.31"/>
<text text-anchor="middle" x="160.5" y="-41" font-family="Helvetica,sans-Serif" font-size="10.00"> Zero</text>
</g>
<!-- Node8 -->
<g id="node8" class="node">
<title>Node8</title>
<g id="a_node8"><a xlink:title=" ">
<polygon fill="none" stroke="black" points="469,-46.5 469,-87.5 593,-87.5 593,-46.5 469,-46.5"/>
<text text-anchor="start" x="477" y="-75.5" font-family="Helvetica,sans-Serif" font-size="10.00">std::vector&lt; std::pair</text>
<text text-anchor="start" x="477" y="-64.5" font-family="Helvetica,sans-Serif" font-size="10.00">&lt; ROFL::Object *, ROFL</text>
<text text-anchor="middle" x="531" y="-53.5" font-family="Helvetica,sans-Serif" font-size="10.00">::Rect &gt; &gt;</text>
</a>
</g>
</g>
<!-- Node8&#45;&gt;Node1 -->
<g id="edge9" class="edge">
<title>Node8&#45;&gt;Node1</title>
<path fill="none" stroke="#9a32cd" stroke-dasharray="5,2" d="M603.03,-83.77C629.77,-90.97 660.19,-100.21 687,-111 706.95,-119.03 728.6,-131.03 742.78,-139.39"/>
<polygon fill="#9a32cd" stroke="#9a32cd" points="603.92,-80.39 593.36,-81.22 602.13,-87.16 603.92,-80.39"/>
<text text-anchor="middle" x="649" y="-114" font-family="Helvetica,sans-Serif" font-size="10.00"> objectsToRender</text>
</g>
<!-- Node9 -->
<g id="node9" class="node">
<title>Node9</title>
<g id="a_node9"><a xlink:href="class_r_o_f_l_1_1_scene.html" target="_top" xlink:title=" ">
<polygon fill="none" stroke="#bfbfbf" points="292.5,-244.5 292.5,-263.5 368.5,-263.5 368.5,-244.5 292.5,-244.5"/>
<text text-anchor="middle" x="330.5" y="-251.5" font-family="Helvetica,sans-Serif" font-size="10.00">ROFL::Scene</text>
</a>
</g>
</g>
<!-- Node9&#45;&gt;Node1 -->
<g id="edge10" class="edge">
<title>Node9&#45;&gt;Node1</title>
<path fill="none" stroke="#9a32cd" stroke-dasharray="5,2" d="M378.72,-259.12C450.37,-264.59 588.59,-265.98 687,-210 712.25,-195.64 736.95,-171.76 749.66,-158.54"/>
<polygon fill="#9a32cd" stroke="#9a32cd" points="378.9,-255.62 368.65,-258.29 378.33,-262.6 378.9,-255.62"/>
<text text-anchor="middle" x="531" y="-264" font-family="Helvetica,sans-Serif" font-size="10.00"> currentScene</text>
</g>
<!-- Node9&#45;&gt;Node10 -->
<g id="edge13" class="edge">
<title>Node9&#45;&gt;Node10</title>
<path fill="none" stroke="#9a32cd" stroke-dasharray="5,2" d="M378.75,-244C409.06,-237.59 448.39,-229.27 479.34,-222.72"/>
<polygon fill="#9a32cd" stroke="#9a32cd" points="377.9,-240.61 368.84,-246.1 379.34,-247.45 377.9,-240.61"/>
<text text-anchor="middle" x="424.5" y="-242" font-family="Helvetica,sans-Serif" font-size="10.00"> elements</text>
</g>
<!-- Node10&#45;&gt;Node1 -->
<g id="edge11" class="edge">
<title>Node10&#45;&gt;Node1</title>
<path fill="none" stroke="#9a32cd" stroke-dasharray="5,2" d="M592.64,-199.87C621.46,-193.61 656.26,-185.33 687,-176 703.51,-170.99 721.69,-164.11 735.58,-158.54"/>
<polygon fill="#9a32cd" stroke="#9a32cd" points="591.75,-196.48 582.71,-202 593.22,-203.33 591.75,-196.48"/>
<text text-anchor="middle" x="649" y="-198" font-family="Helvetica,sans-Serif" font-size="10.00"> scenes</text>
</g>
<!-- Node11 -->
<g id="node11" class="node">
<title>Node11</title>
<g id="a_node11"><a xlink:href="class_r_o_f_l_1_1_sound_handler.html" target="_top" xlink:title=" ">
<polygon fill="none" stroke="#bfbfbf" points="476.5,-8.5 476.5,-27.5 585.5,-27.5 585.5,-8.5 476.5,-8.5"/>
<text text-anchor="middle" x="531" y="-15.5" font-family="Helvetica,sans-Serif" font-size="10.00">ROFL::SoundHandler</text>
</a>
</g>
</g>
<!-- Node11&#45;&gt;Node1 -->
<g id="edge15" class="edge">
<title>Node11&#45;&gt;Node1</title>
<path fill="none" stroke="#9a32cd" stroke-dasharray="5,2" d="M589.34,-30.04C620.06,-38.28 657.53,-51.36 687,-71 715.74,-90.16 740.83,-123.24 752.13,-139.47"/>
<polygon fill="#9a32cd" stroke="#9a32cd" points="590.18,-26.64 579.62,-27.53 588.43,-33.42 590.18,-26.64"/>
<text text-anchor="middle" x="649" y="-74" font-family="Helvetica,sans-Serif" font-size="10.00"> Sound</text>
</g>
</g>
</svg>
