<?xml version="1.0" encoding="UTF-8" standalone="no"?>
<!DOCTYPE svg PUBLIC "-//W3C//DTD SVG 1.1//EN"
 "http://www.w3.org/Graphics/SVG/1.1/DTD/svg11.dtd">
<!-- Generated by graphviz version 3.0.0 (20220226.1711)
 -->
<!-- Title: ROFL::ROFL_Engine Pages: 1 -->
<svg width="414pt" height="195pt"
 viewBox="0.00 0.00 413.50 195.00" xmlns="http://www.w3.org/2000/svg" xmlns:xlink="http://www.w3.org/1999/xlink">
<g id="graph0" class="graph" transform="scale(1 1) rotate(0) translate(4 191)">
<title>ROFL::ROFL_Engine</title>
<!-- Node1 -->
<g id="node1" class="node">
<title>Node1</title>
<g id="a_node1"><a xlink:title=" ">
<polygon fill="#bfbfbf" stroke="black" points="136.5,-0.5 136.5,-19.5 245.5,-19.5 245.5,-0.5 136.5,-0.5"/>
<text text-anchor="middle" x="191" y="-7.5" font-family="Helvetica,sans-Serif" font-size="10.00">ROFL::ROFL_Engine</text>
</a>
</g>
</g>
<!-- Node2 -->
<g id="node2" class="node">
<title>Node2</title>
<g id="a_node2"><a xlink:href="class_r_o_f_l_1_1_camera.html" target="_top" xlink:title=" ">
<polygon fill="none" stroke="#bfbfbf" points="0,-67.5 0,-86.5 82,-86.5 82,-67.5 0,-67.5"/>
<text text-anchor="middle" x="41" y="-74.5" font-family="Helvetica,sans-Serif" font-size="10.00">ROFL::Camera</text>
</a>
</g>
</g>
<!-- Node2&#45;&gt;Node1 -->
<g id="edge1" class="edge">
<title>Node2&#45;&gt;Node1</title>
<path fill="none" stroke="#9a32cd" stroke-dasharray="5,2" d="M57.32,-60.29C66.1,-52.6 77.48,-43.77 89,-38 105.63,-29.68 125.1,-23.71 142.55,-19.54"/>
<polygon fill="#9a32cd" stroke="#9a32cd" points="54.79,-57.86 49.77,-67.19 59.52,-63.03 54.79,-57.86"/>
<text text-anchor="middle" x="120" y="-41" font-family="Helvetica,sans-Serif" font-size="10.00"> activeCamera</text>
</g>
<!-- Node3 -->
<g id="node3" class="node">
<title>Node3</title>
<g id="a_node3"><a xlink:href="class_r_o_f_l_1_1_window.html" target="_top" xlink:title=" ">
<polygon fill="none" stroke="#bfbfbf" points="100.5,-67.5 100.5,-86.5 183.5,-86.5 183.5,-67.5 100.5,-67.5"/>
<text text-anchor="middle" x="142" y="-74.5" font-family="Helvetica,sans-Serif" font-size="10.00">ROFL::Window</text>
</a>
</g>
</g>
<!-- Node3&#45;&gt;Node1 -->
<g id="edge2" class="edge">
<title>Node3&#45;&gt;Node1</title>
<path fill="none" stroke="#9a32cd" stroke-dasharray="5,2" d="M150.29,-58.45C153.8,-51.77 158.19,-44.27 163,-38 168.18,-31.25 175.04,-24.6 180.68,-19.59"/>
<polygon fill="#9a32cd" stroke="#9a32cd" points="147.16,-56.89 145.83,-67.41 153.42,-60.01 147.16,-56.89"/>
<text text-anchor="middle" x="180.5" y="-41" font-family="Helvetica,sans-Serif" font-size="10.00"> window</text>
</g>
<!-- Node4 -->
<g id="node4" class="node">
<title>Node4</title>
<g id="a_node4"><a xlink:href="struct_r_o_f_l_1_1_vec2.html" target="_top" xlink:title=" ">
<polygon fill="none" stroke="#bfbfbf" points="78.5,-156.5 78.5,-175.5 177.5,-175.5 177.5,-156.5 78.5,-156.5"/>
<text text-anchor="middle" x="128" y="-163.5" font-family="Helvetica,sans-Serif" font-size="10.00">ROFL::Vec2&lt; int &gt;</text>
</a>
</g>
</g>
<!-- Node4&#45;&gt;Node3 -->
<g id="edge3" class="edge">
<title>Node4&#45;&gt;Node3</title>
<path fill="none" stroke="#9a32cd" stroke-dasharray="5,2" d="M130.98,-146.46C133.95,-128 138.38,-100.48 140.61,-86.62"/>
<polygon fill="#9a32cd" stroke="#9a32cd" points="127.53,-145.91 129.39,-156.34 134.44,-147.02 127.53,-145.91"/>
<text text-anchor="middle" x="163.5" y="-119" font-family="Helvetica,sans-Serif" font-size="10.00"> dimensions</text>
<text text-anchor="middle" x="163.5" y="-108" font-family="Helvetica,sans-Serif" font-size="10.00">winPos</text>
</g>
<!-- Node5 -->
<g id="node5" class="node">
<title>Node5</title>
<g id="a_node5"><a xlink:href="class_r_o_f_l_1_1_scene.html" target="_top" xlink:title=" ">
<polygon fill="none" stroke="#bfbfbf" points="202,-67.5 202,-86.5 278,-86.5 278,-67.5 202,-67.5"/>
<text text-anchor="middle" x="240" y="-74.5" font-family="Helvetica,sans-Serif" font-size="10.00">ROFL::Scene</text>
</a>
</g>
</g>
<!-- Node5&#45;&gt;Node1 -->
<g id="edge4" class="edge">
<title>Node5&#45;&gt;Node1</title>
<path fill="none" stroke="#9a32cd" stroke-dasharray="5,2" d="M227.11,-58.9C217.59,-46.27 205.02,-29.6 197.5,-19.63"/>
<polygon fill="#9a32cd" stroke="#9a32cd" points="224.58,-61.36 233.39,-67.23 230.17,-57.14 224.58,-61.36"/>
<text text-anchor="middle" x="246.5" y="-41" font-family="Helvetica,sans-Serif" font-size="10.00"> globalScene</text>
</g>
<!-- Node6 -->
<g id="node6" class="node">
<title>Node6</title>
<g id="a_node6"><a xlink:href="class_r_o_f_l_1_1_spatial_hash_map.html" target="_top" xlink:title=" ">
<polygon fill="none" stroke="#bfbfbf" points="195.5,-145.5 195.5,-186.5 314.5,-186.5 314.5,-145.5 195.5,-145.5"/>
<text text-anchor="start" x="203.5" y="-174.5" font-family="Helvetica,sans-Serif" font-size="10.00">ROFL::SpatialHashMap</text>
<text text-anchor="start" x="203.5" y="-163.5" font-family="Helvetica,sans-Serif" font-size="10.00">&lt; std::string, ROFL::</text>
<text text-anchor="middle" x="255" y="-152.5" font-family="Helvetica,sans-Serif" font-size="10.00">ObjectBase * &gt;</text>
</a>
</g>
</g>
<!-- Node6&#45;&gt;Node5 -->
<g id="edge5" class="edge">
<title>Node6&#45;&gt;Node5</title>
<path fill="none" stroke="#9a32cd" stroke-dasharray="5,2" d="M249.85,-135.12C246.9,-118.03 243.41,-97.81 241.48,-86.59"/>
<polygon fill="#9a32cd" stroke="#9a32cd" points="246.45,-136 251.6,-145.26 253.35,-134.81 246.45,-136"/>
<text text-anchor="middle" x="272.5" y="-113.5" font-family="Helvetica,sans-Serif" font-size="10.00"> objectMap</text>
</g>
<!-- Node7 -->
<g id="node7" class="node">
<title>Node7</title>
<g id="a_node7"><a xlink:href="class_r_o_f_l_1_1_sound_handler.html" target="_top" xlink:title=" ">
<polygon fill="none" stroke="#bfbfbf" points="296.5,-67.5 296.5,-86.5 405.5,-86.5 405.5,-67.5 296.5,-67.5"/>
<text text-anchor="middle" x="351" y="-74.5" font-family="Helvetica,sans-Serif" font-size="10.00">ROFL::SoundHandler</text>
</a>
</g>
</g>
<!-- Node7&#45;&gt;Node1 -->
<g id="edge6" class="edge">
<title>Node7&#45;&gt;Node1</title>
<path fill="none" stroke="#9a32cd" stroke-dasharray="5,2" d="M327.92,-62.4C314.06,-54.58 295.88,-44.97 279,-38 261.28,-30.68 240.83,-24.29 224.11,-19.57"/>
<polygon fill="#9a32cd" stroke="#9a32cd" points="326.35,-65.53 336.77,-67.46 329.83,-59.45 326.35,-65.53"/>
<text text-anchor="middle" x="316.5" y="-41" font-family="Helvetica,sans-Serif" font-size="10.00"> Sound</text>
</g>
</g>
</svg>
