<?xml version="1.0" encoding="UTF-8" standalone="no"?>
<!DOCTYPE svg PUBLIC "-//W3C//DTD SVG 1.1//EN"
 "http://www.w3.org/Graphics/SVG/1.1/DTD/svg11.dtd">
<!-- Generated by graphviz version 3.0.0 (20220226.1711)
 -->
<!-- Title: ROFL::ObjectBase Pages: 1 -->
<svg width="290pt" height="140pt"
 viewBox="0.00 0.00 289.50 140.00" xmlns="http://www.w3.org/2000/svg" xmlns:xlink="http://www.w3.org/1999/xlink">
<g id="graph0" class="graph" transform="scale(1 1) rotate(0) translate(4 136)">
<title>ROFL::ObjectBase</title>
<!-- Node1 -->
<g id="node1" class="node">
<title>Node1</title>
<g id="a_node1"><a xlink:title=" ">
<polygon fill="#bfbfbf" stroke="black" points="93.5,-112.5 93.5,-131.5 192.5,-131.5 192.5,-112.5 93.5,-112.5"/>
<text text-anchor="middle" x="143" y="-119.5" font-family="Helvetica,sans-Serif" font-size="10.00">ROFL::ObjectBase</text>
</a>
</g>
</g>
<!-- Node2 -->
<g id="node2" class="node">
<title>Node2</title>
<g id="a_node2"><a xlink:href="class_r_o_f_l_1_1_object_dynamic.html" target="_top" xlink:title=" ">
<polygon fill="none" stroke="#bfbfbf" points="22.5,-56.5 22.5,-75.5 137.5,-75.5 137.5,-56.5 22.5,-56.5"/>
<text text-anchor="middle" x="80" y="-63.5" font-family="Helvetica,sans-Serif" font-size="10.00">ROFL::ObjectDynamic</text>
</a>
</g>
</g>
<!-- Node1&#45;&gt;Node2 -->
<g id="edge1" class="edge">
<title>Node1&#45;&gt;Node2</title>
<path fill="none" stroke="midnightblue" d="M124.96,-105.54C113.73,-95.91 99.68,-83.87 90.31,-75.83"/>
<polygon fill="midnightblue" stroke="midnightblue" points="123.01,-108.47 132.88,-112.32 127.56,-103.16 123.01,-108.47"/>
</g>
<!-- Node4 -->
<g id="node4" class="node">
<title>Node4</title>
<g id="a_node4"><a xlink:href="class_r_o_f_l_1_1_object_static.html" target="_top" xlink:title=" ">
<polygon fill="none" stroke="#bfbfbf" points="162,-56.5 162,-75.5 264,-75.5 264,-56.5 162,-56.5"/>
<text text-anchor="middle" x="213" y="-63.5" font-family="Helvetica,sans-Serif" font-size="10.00">ROFL::ObjectStatic</text>
</a>
</g>
</g>
<!-- Node1&#45;&gt;Node4 -->
<g id="edge3" class="edge">
<title>Node1&#45;&gt;Node4</title>
<path fill="none" stroke="midnightblue" d="M162.31,-106.1C174.91,-96.38 190.93,-84.03 201.55,-75.83"/>
<polygon fill="midnightblue" stroke="midnightblue" points="160.03,-103.44 154.25,-112.32 164.3,-108.99 160.03,-103.44"/>
</g>
<!-- Node3 -->
<g id="node3" class="node">
<title>Node3</title>
<g id="a_node3"><a xlink:href="class_r_o_f_l_1_1_light_source_dynamic.html" target="_top" xlink:title=" ">
<polygon fill="none" stroke="#bfbfbf" points="0,-0.5 0,-19.5 138,-19.5 138,-0.5 0,-0.5"/>
<text text-anchor="middle" x="69" y="-7.5" font-family="Helvetica,sans-Serif" font-size="10.00">ROFL::LightSourceDynamic</text>
</a>
</g>
</g>
<!-- Node2&#45;&gt;Node3 -->
<g id="edge2" class="edge">
<title>Node2&#45;&gt;Node3</title>
<path fill="none" stroke="midnightblue" d="M76.15,-46.1C74.32,-37.14 72.23,-26.86 70.78,-19.75"/>
<polygon fill="midnightblue" stroke="midnightblue" points="72.76,-46.98 78.18,-56.08 79.62,-45.59 72.76,-46.98"/>
</g>
<!-- Node5 -->
<g id="node5" class="node">
<title>Node5</title>
<g id="a_node5"><a xlink:href="class_r_o_f_l_1_1_light_source_static.html" target="_top" xlink:title=" ">
<polygon fill="none" stroke="#bfbfbf" points="156.5,-0.5 156.5,-19.5 281.5,-19.5 281.5,-0.5 156.5,-0.5"/>
<text text-anchor="middle" x="219" y="-7.5" font-family="Helvetica,sans-Serif" font-size="10.00">ROFL::LightSourceStatic</text>
</a>
</g>
</g>
<!-- Node4&#45;&gt;Node5 -->
<g id="edge4" class="edge">
<title>Node4&#45;&gt;Node5</title>
<path fill="none" stroke="midnightblue" d="M215.1,-46.1C216.1,-37.14 217.24,-26.86 218.03,-19.75"/>
<polygon fill="midnightblue" stroke="midnightblue" points="211.62,-45.76 213.99,-56.08 218.57,-46.53 211.62,-45.76"/>
</g>
</g>
</svg>
