<?xml version="1.0" encoding="UTF-8" standalone="no"?>
<!DOCTYPE svg PUBLIC "-//W3C//DTD SVG 1.1//EN"
 "http://www.w3.org/Graphics/SVG/1.1/DTD/svg11.dtd">
<!-- Generated by graphviz version 3.0.0 (20220226.1711)
 -->
<!-- Title: ROFL::UIComponent Pages: 1 -->
<svg width="284pt" height="84pt"
 viewBox="0.00 0.00 283.50 84.00" xmlns="http://www.w3.org/2000/svg" xmlns:xlink="http://www.w3.org/1999/xlink">
<g id="graph0" class="graph" transform="scale(1 1) rotate(0) translate(4 80)">
<title>ROFL::UIComponent</title>
<!-- Node1 -->
<g id="node1" class="node">
<title>Node1</title>
<g id="a_node1"><a xlink:title=" ">
<polygon fill="#bfbfbf" stroke="black" points="79,-56.5 79,-75.5 186,-75.5 186,-56.5 79,-56.5"/>
<text text-anchor="middle" x="132.5" y="-63.5" font-family="Helvetica,sans-Serif" font-size="10.00">ROFL::UIComponent</text>
</a>
</g>
</g>
<!-- Node2 -->
<g id="node2" class="node">
<title>Node2</title>
<g id="a_node2"><a xlink:href="class_r_o_f_l_1_1_button.html" target="_top" xlink:title=" ">
<polygon fill="none" stroke="#bfbfbf" points="0,-0.5 0,-19.5 77,-19.5 77,-0.5 0,-0.5"/>
<text text-anchor="middle" x="38.5" y="-7.5" font-family="Helvetica,sans-Serif" font-size="10.00">ROFL::Button</text>
</a>
</g>
</g>
<!-- Node1&#45;&gt;Node2 -->
<g id="edge1" class="edge">
<title>Node1&#45;&gt;Node2</title>
<path fill="none" stroke="midnightblue" d="M108.44,-51.18C91.14,-41.24 68.35,-28.15 53.57,-19.65"/>
<polygon fill="midnightblue" stroke="midnightblue" points="106.98,-54.38 117.4,-56.32 110.47,-48.31 106.98,-54.38"/>
</g>
<!-- Node3 -->
<g id="node3" class="node">
<title>Node3</title>
<g id="a_node3"><a xlink:href="class_r_o_f_l_1_1_image.html" target="_top" xlink:title=" ">
<polygon fill="none" stroke="#bfbfbf" points="95.5,-0.5 95.5,-19.5 169.5,-19.5 169.5,-0.5 95.5,-0.5"/>
<text text-anchor="middle" x="132.5" y="-7.5" font-family="Helvetica,sans-Serif" font-size="10.00">ROFL::Image</text>
</a>
</g>
</g>
<!-- Node1&#45;&gt;Node3 -->
<g id="edge2" class="edge">
<title>Node1&#45;&gt;Node3</title>
<path fill="none" stroke="midnightblue" d="M132.5,-45.8C132.5,-36.91 132.5,-26.78 132.5,-19.75"/>
<polygon fill="midnightblue" stroke="midnightblue" points="129,-46.08 132.5,-56.08 136,-46.08 129,-46.08"/>
</g>
<!-- Node4 -->
<g id="node4" class="node">
<title>Node4</title>
<g id="a_node4"><a xlink:href="class_r_o_f_l_1_1_text_field.html" target="_top" xlink:title=" ">
<polygon fill="none" stroke="#bfbfbf" points="187.5,-0.5 187.5,-19.5 275.5,-19.5 275.5,-0.5 187.5,-0.5"/>
<text text-anchor="middle" x="231.5" y="-7.5" font-family="Helvetica,sans-Serif" font-size="10.00">ROFL::TextField</text>
</a>
</g>
</g>
<!-- Node1&#45;&gt;Node4 -->
<g id="edge3" class="edge">
<title>Node1&#45;&gt;Node4</title>
<path fill="none" stroke="midnightblue" d="M157.34,-51.45C175.61,-41.48 199.92,-28.23 215.63,-19.65"/>
<polygon fill="midnightblue" stroke="midnightblue" points="155.51,-48.46 148.41,-56.32 158.86,-54.61 155.51,-48.46"/>
</g>
</g>
</svg>
