<?xml version="1.0" encoding="UTF-8" standalone="no"?>
<!DOCTYPE svg PUBLIC "-//W3C//DTD SVG 1.1//EN"
 "http://www.w3.org/Graphics/SVG/1.1/DTD/svg11.dtd">
<!-- Generated by graphviz version 3.0.0 (20220226.1711)
 -->
<!-- Title: ROFL::LightSourceStatic Pages: 1 -->
<svg width="472pt" height="398pt"
 viewBox="0.00 0.00 472.00 398.00" xmlns="http://www.w3.org/2000/svg" xmlns:xlink="http://www.w3.org/1999/xlink">
<g id="graph0" class="graph" transform="scale(1 1) rotate(0) translate(4 394)">
<title>ROFL::LightSourceStatic</title>
<!-- Node1 -->
<g id="node1" class="node">
<title>Node1</title>
<g id="a_node1"><a xlink:title=" ">
<polygon fill="#bfbfbf" stroke="black" points="70.5,-0.5 70.5,-19.5 195.5,-19.5 195.5,-0.5 70.5,-0.5"/>
<text text-anchor="middle" x="133" y="-7.5" font-family="Helvetica,sans-Serif" font-size="10.00">ROFL::LightSourceStatic</text>
</a>
</g>
</g>
<!-- Node2 -->
<g id="node2" class="node">
<title>Node2</title>
<g id="a_node2"><a xlink:href="class_r_o_f_l_1_1_object_static.html" target="_top" xlink:title=" ">
<polygon fill="none" stroke="#bfbfbf" points="82,-57.5 82,-76.5 184,-76.5 184,-57.5 82,-57.5"/>
<text text-anchor="middle" x="133" y="-64.5" font-family="Helvetica,sans-Serif" font-size="10.00">ROFL::ObjectStatic</text>
</a>
</g>
</g>
<!-- Node2&#45;&gt;Node1 -->
<g id="edge1" class="edge">
<title>Node2&#45;&gt;Node1</title>
<path fill="none" stroke="midnightblue" d="M133,-47.12C133,-37.82 133,-27.06 133,-19.71"/>
<polygon fill="midnightblue" stroke="midnightblue" points="129.5,-47.41 133,-57.41 136.5,-47.41 129.5,-47.41"/>
</g>
<!-- Node3 -->
<g id="node3" class="node">
<title>Node3</title>
<g id="a_node3"><a xlink:href="class_r_o_f_l_1_1_object_base.html" target="_top" xlink:title=" ">
<polygon fill="none" stroke="#bfbfbf" points="83.5,-114.5 83.5,-133.5 182.5,-133.5 182.5,-114.5 83.5,-114.5"/>
<text text-anchor="middle" x="133" y="-121.5" font-family="Helvetica,sans-Serif" font-size="10.00">ROFL::ObjectBase</text>
</a>
</g>
</g>
<!-- Node3&#45;&gt;Node2 -->
<g id="edge2" class="edge">
<title>Node3&#45;&gt;Node2</title>
<path fill="none" stroke="midnightblue" d="M133,-104.12C133,-94.82 133,-84.06 133,-76.71"/>
<polygon fill="midnightblue" stroke="midnightblue" points="129.5,-104.41 133,-114.41 136.5,-104.41 129.5,-104.41"/>
</g>
<!-- Node4 -->
<g id="node4" class="node">
<title>Node4</title>
<g id="a_node4"><a xlink:href="struct_r_o_f_l_1_1_collider.html" target="_top" xlink:title=" ">
<polygon fill="none" stroke="#bfbfbf" points="0,-181.5 0,-200.5 80,-200.5 80,-181.5 0,-181.5"/>
<text text-anchor="middle" x="40" y="-188.5" font-family="Helvetica,sans-Serif" font-size="10.00">ROFL::Collider</text>
</a>
</g>
</g>
<!-- Node4&#45;&gt;Node3 -->
<g id="edge3" class="edge">
<title>Node4&#45;&gt;Node3</title>
<path fill="none" stroke="#9a32cd" stroke-dasharray="5,2" d="M38.49,-171.01C38.92,-164.34 40.6,-157.21 45,-152 54.6,-140.65 68.83,-133.99 83.07,-130.1"/>
<polygon fill="#9a32cd" stroke="#9a32cd" points="34.99,-171.47 38.68,-181.41 41.99,-171.34 34.99,-171.47"/>
<text text-anchor="middle" x="69.5" y="-155" font-family="Helvetica,sans-Serif" font-size="10.00"> objCollider</text>
</g>
<!-- Node5 -->
<g id="node5" class="node">
<title>Node5</title>
<g id="a_node5"><a xlink:href="class_r_o_f_l_1_1_sprite.html" target="_top" xlink:title=" ">
<polygon fill="none" stroke="#bfbfbf" points="207,-281.5 207,-300.5 281,-300.5 281,-281.5 207,-281.5"/>
<text text-anchor="middle" x="244" y="-288.5" font-family="Helvetica,sans-Serif" font-size="10.00">ROFL::Sprite</text>
</a>
</g>
</g>
<!-- Node5&#45;&gt;Node3 -->
<g id="edge4" class="edge">
<title>Node5&#45;&gt;Node3</title>
<path fill="none" stroke="#9a32cd" stroke-dasharray="5,2" d="M227.83,-273.89C211.32,-256.85 185.69,-228.65 168,-201 153.44,-178.24 141.56,-148.43 136.15,-133.83"/>
<polygon fill="#9a32cd" stroke="#9a32cd" points="225.61,-276.63 235.12,-281.31 230.6,-271.72 225.61,-276.63"/>
<text text-anchor="middle" x="197.5" y="-188.5" font-family="Helvetica,sans-Serif" font-size="10.00"> currentSprite</text>
</g>
<!-- Node10 -->
<g id="node10" class="node">
<title>Node10</title>
<g id="a_node10"><a xlink:href="class_r_o_f_l_1_1_animated_sprite.html" target="_top" xlink:title=" ">
<polygon fill="none" stroke="#bfbfbf" points="236.5,-181.5 236.5,-200.5 351.5,-200.5 351.5,-181.5 236.5,-181.5"/>
<text text-anchor="middle" x="294" y="-188.5" font-family="Helvetica,sans-Serif" font-size="10.00">ROFL::AnimatedSprite</text>
</a>
</g>
</g>
<!-- Node5&#45;&gt;Node10 -->
<g id="edge10" class="edge">
<title>Node5&#45;&gt;Node10</title>
<path fill="none" stroke="midnightblue" d="M252.99,-272.38C263.8,-251.2 281.5,-216.51 289.64,-200.54"/>
<polygon fill="midnightblue" stroke="midnightblue" points="249.86,-270.8 248.44,-281.3 256.1,-273.99 249.86,-270.8"/>
</g>
<!-- Node6 -->
<g id="node6" class="node">
<title>Node6</title>
<g id="a_node6"><a xlink:href="struct_r_o_f_l_1_1_vec2.html" target="_top" xlink:title=" ">
<polygon fill="none" stroke="#bfbfbf" points="54.5,-370.5 54.5,-389.5 161.5,-389.5 161.5,-370.5 54.5,-370.5"/>
<text text-anchor="middle" x="108" y="-377.5" font-family="Helvetica,sans-Serif" font-size="10.00">ROFL::Vec2&lt; float &gt;</text>
</a>
</g>
</g>
<!-- Node6&#45;&gt;Node3 -->
<g id="edge11" class="edge">
<title>Node6&#45;&gt;Node3</title>
<path fill="none" stroke="#9a32cd" stroke-dasharray="5,2" d="M109.87,-360C114.9,-308.9 128.58,-169.89 132.14,-133.71"/>
<polygon fill="#9a32cd" stroke="#9a32cd" points="106.36,-359.96 108.86,-370.26 113.32,-360.65 106.36,-359.96"/>
<text text-anchor="middle" x="142" y="-255" font-family="Helvetica,sans-Serif" font-size="10.00"> objSize</text>
<text text-anchor="middle" x="142" y="-244" font-family="Helvetica,sans-Serif" font-size="10.00">pivot</text>
<text text-anchor="middle" x="142" y="-233" font-family="Helvetica,sans-Serif" font-size="10.00">pos</text>
<text text-anchor="middle" x="142" y="-222" font-family="Helvetica,sans-Serif" font-size="10.00">scale</text>
</g>
<!-- Node6&#45;&gt;Node5 -->
<g id="edge5" class="edge">
<title>Node6&#45;&gt;Node5</title>
<path fill="none" stroke="#9a32cd" stroke-dasharray="5,2" d="M121.46,-362.6C133.11,-349.3 151.05,-330.87 170,-319 182.75,-311.02 198.21,-304.91 211.69,-300.54"/>
<polygon fill="#9a32cd" stroke="#9a32cd" points="118.57,-360.6 114.75,-370.48 123.9,-365.13 118.57,-360.6"/>
<text text-anchor="middle" x="200" y="-344" font-family="Helvetica,sans-Serif" font-size="10.00"> pivot</text>
<text text-anchor="middle" x="200" y="-333" font-family="Helvetica,sans-Serif" font-size="10.00">spritePosition</text>
<text text-anchor="middle" x="200" y="-322" font-family="Helvetica,sans-Serif" font-size="10.00">spriteSize</text>
</g>
<!-- Node7 -->
<g id="node7" class="node">
<title>Node7</title>
<g id="a_node7"><a xlink:href="struct_r_o_f_l_1_1_rect.html" target="_top" xlink:title=" ">
<polygon fill="none" stroke="#bfbfbf" points="179.5,-370.5 179.5,-389.5 276.5,-389.5 276.5,-370.5 179.5,-370.5"/>
<text text-anchor="middle" x="228" y="-377.5" font-family="Helvetica,sans-Serif" font-size="10.00">ROFL::Rect&lt; int &gt;</text>
</a>
</g>
</g>
<!-- Node7&#45;&gt;Node5 -->
<g id="edge6" class="edge">
<title>Node7&#45;&gt;Node5</title>
<path fill="none" stroke="#9a32cd" stroke-dasharray="5,2" d="M231.41,-360.46C234.81,-342 239.87,-314.48 242.41,-300.62"/>
<polygon fill="#9a32cd" stroke="#9a32cd" points="227.96,-359.87 229.59,-370.34 234.84,-361.14 227.96,-359.87"/>
<text text-anchor="middle" x="247.5" y="-333" font-family="Helvetica,sans-Serif" font-size="10.00"> src</text>
</g>
<!-- Node8 -->
<g id="node8" class="node">
<title>Node8</title>
<g id="a_node8"><a xlink:href="struct_r_o_f_l_1_1_color.html" target="_top" xlink:title=" ">
<polygon fill="none" stroke="#bfbfbf" points="294.5,-370.5 294.5,-389.5 365.5,-389.5 365.5,-370.5 294.5,-370.5"/>
<text text-anchor="middle" x="330" y="-377.5" font-family="Helvetica,sans-Serif" font-size="10.00">ROFL::Color</text>
</a>
</g>
</g>
<!-- Node8&#45;&gt;Node5 -->
<g id="edge7" class="edge">
<title>Node8&#45;&gt;Node5</title>
<path fill="none" stroke="#9a32cd" stroke-dasharray="5,2" d="M313.93,-362.74C295.74,-344.35 266.8,-315.06 252.53,-300.62"/>
<polygon fill="#9a32cd" stroke="#9a32cd" points="311.92,-365.69 321.44,-370.34 316.9,-360.77 311.92,-365.69"/>
<text text-anchor="middle" x="328" y="-333" font-family="Helvetica,sans-Serif" font-size="10.00"> colorRGBA</text>
</g>
<!-- Node9 -->
<g id="node9" class="node">
<title>Node9</title>
<g id="a_node9"><a xlink:href="class_r_o_f_l_1_1_texture.html" target="_top" xlink:title=" ">
<polygon fill="none" stroke="#bfbfbf" points="384,-370.5 384,-389.5 464,-389.5 464,-370.5 384,-370.5"/>
<text text-anchor="middle" x="424" y="-377.5" font-family="Helvetica,sans-Serif" font-size="10.00">ROFL::Texture</text>
</a>
</g>
</g>
<!-- Node9&#45;&gt;Node5 -->
<g id="edge8" class="edge">
<title>Node9&#45;&gt;Node5</title>
<path fill="none" stroke="#9a32cd" stroke-dasharray="5,2" d="M410.17,-362.43C397.86,-348.75 378.65,-329.88 358,-319 334.07,-306.38 304.24,-299.59 281.09,-295.97"/>
<polygon fill="#9a32cd" stroke="#9a32cd" points="407.69,-364.91 416.89,-370.15 412.97,-360.31 407.69,-364.91"/>
<text text-anchor="middle" x="423.5" y="-333" font-family="Helvetica,sans-Serif" font-size="10.00"> srcTexture</text>
</g>
<!-- Node10&#45;&gt;Node3 -->
<g id="edge9" class="edge">
<title>Node10&#45;&gt;Node3</title>
<path fill="none" stroke="#9a32cd" stroke-dasharray="5,2" d="M263.3,-177.6C231.33,-164.7 182.11,-144.83 154.21,-133.56"/>
<polygon fill="#9a32cd" stroke="#9a32cd" points="262.04,-180.87 272.62,-181.37 264.66,-174.38 262.04,-180.87"/>
<text text-anchor="middle" x="262.5" y="-155" font-family="Helvetica,sans-Serif" font-size="10.00"> currentAnimation</text>
</g>
</g>
</svg>
