<?xml version="1.0" encoding="UTF-8" standalone="no"?>
<!DOCTYPE svg PUBLIC "-//W3C//DTD SVG 1.1//EN"
 "http://www.w3.org/Graphics/SVG/1.1/DTD/svg11.dtd">
<!-- Generated by graphviz version 3.0.0 (20220226.1711)
 -->
<!-- Title: ROFL::ROFL_Engine Pages: 1 -->
<svg width="640pt" height="280pt"
 viewBox="0.00 0.00 640.00 280.00" xmlns="http://www.w3.org/2000/svg" xmlns:xlink="http://www.w3.org/1999/xlink">
<g id="graph0" class="graph" transform="scale(1 1) rotate(0) translate(4 276)">
<title>ROFL::ROFL_Engine</title>
<!-- Node1 -->
<g id="node1" class="node">
<title>Node1</title>
<g id="a_node1"><a xlink:title=" ">
<polygon fill="#bfbfbf" stroke="black" points="523,-138.5 523,-157.5 632,-157.5 632,-138.5 523,-138.5"/>
<text text-anchor="middle" x="577.5" y="-145.5" font-family="Helvetica,sans-Serif" font-size="10.00">ROFL::ROFL_Engine</text>
</a>
</g>
</g>
<!-- Node2 -->
<g id="node2" class="node">
<title>Node2</title>
<g id="a_node2"><a xlink:href="class_r_o_f_l_1_1_window.html" target="_top" xlink:title=" ">
<polygon fill="none" stroke="#bfbfbf" points="307.5,-252.5 307.5,-271.5 390.5,-271.5 390.5,-252.5 307.5,-252.5"/>
<text text-anchor="middle" x="349" y="-259.5" font-family="Helvetica,sans-Serif" font-size="10.00">ROFL::Window</text>
</a>
</g>
</g>
<!-- Node2&#45;&gt;Node1 -->
<g id="edge1" class="edge">
<title>Node2&#45;&gt;Node1</title>
<path fill="none" stroke="#9a32cd" stroke-dasharray="5,2" d="M400.67,-251.44C432.1,-243.52 472.53,-230.78 505,-212 530.96,-196.99 555.76,-171.45 568.2,-157.6"/>
<polygon fill="#9a32cd" stroke="#9a32cd" points="399.69,-248.08 390.8,-253.84 401.35,-254.88 399.69,-248.08"/>
<text text-anchor="middle" x="467" y="-245" font-family="Helvetica,sans-Serif" font-size="10.00"> window</text>
</g>
<!-- Node3 -->
<g id="node3" class="node">
<title>Node3</title>
<g id="a_node3"><a xlink:title=" ">
<polygon fill="none" stroke="black" points="287,-192.5 287,-233.5 411,-233.5 411,-192.5 287,-192.5"/>
<text text-anchor="start" x="295" y="-221.5" font-family="Helvetica,sans-Serif" font-size="10.00">std::vector&lt; std::pair</text>
<text text-anchor="start" x="295" y="-210.5" font-family="Helvetica,sans-Serif" font-size="10.00">&lt; ROFL::Object *, ROFL</text>
<text text-anchor="middle" x="349" y="-199.5" font-family="Helvetica,sans-Serif" font-size="10.00">::Rect &gt; &gt;</text>
</a>
</g>
</g>
<!-- Node3&#45;&gt;Node1 -->
<g id="edge2" class="edge">
<title>Node3&#45;&gt;Node1</title>
<path fill="none" stroke="#9a32cd" stroke-dasharray="5,2" d="M421.3,-198.9C447.83,-193.01 478.03,-185.54 505,-177 522.37,-171.5 541.46,-163.66 555.55,-157.52"/>
<polygon fill="#9a32cd" stroke="#9a32cd" points="420.35,-195.53 411.33,-201.08 421.85,-202.36 420.35,-195.53"/>
<text text-anchor="middle" x="467" y="-200" font-family="Helvetica,sans-Serif" font-size="10.00"> objectsToRender</text>
</g>
<!-- Node4 -->
<g id="node4" class="node">
<title>Node4</title>
<g id="a_node4"><a xlink:href="class_r_o_f_l_1_1_scene.html" target="_top" xlink:title=" ">
<polygon fill="none" stroke="#bfbfbf" points="132,-132.5 132,-151.5 208,-151.5 208,-132.5 132,-132.5"/>
<text text-anchor="middle" x="170" y="-139.5" font-family="Helvetica,sans-Serif" font-size="10.00">ROFL::Scene</text>
</a>
</g>
</g>
<!-- Node4&#45;&gt;Node1 -->
<g id="edge3" class="edge">
<title>Node4&#45;&gt;Node1</title>
<path fill="none" stroke="#9a32cd" stroke-dasharray="5,2" d="M218.32,-144.69C220.92,-144.8 223.49,-144.91 226,-145 349.93,-149.6 380.99,-149.87 505,-149 510.71,-148.96 516.68,-148.9 522.62,-148.83"/>
<polygon fill="#9a32cd" stroke="#9a32cd" points="218.42,-141.19 208.27,-144.21 218.09,-148.18 218.42,-141.19"/>
<text text-anchor="middle" x="349" y="-152" font-family="Helvetica,sans-Serif" font-size="10.00"> currentScene</text>
</g>
<!-- Node5 -->
<g id="node5" class="node">
<title>Node5</title>
<g id="a_node5"><a xlink:title=" ">
<polygon fill="none" stroke="black" points="297.5,-85.5 297.5,-126.5 400.5,-126.5 400.5,-85.5 297.5,-85.5"/>
<text text-anchor="start" x="305.5" y="-114.5" font-family="Helvetica,sans-Serif" font-size="10.00">std::unordered_map</text>
<text text-anchor="start" x="305.5" y="-103.5" font-family="Helvetica,sans-Serif" font-size="10.00">&lt; std::string, ROFL</text>
<text text-anchor="middle" x="349" y="-92.5" font-family="Helvetica,sans-Serif" font-size="10.00">::Scene * &gt;</text>
</a>
</g>
</g>
<!-- Node4&#45;&gt;Node5 -->
<g id="edge7" class="edge">
<title>Node4&#45;&gt;Node5</title>
<path fill="none" stroke="#9a32cd" stroke-dasharray="5,2" d="M218.19,-132.4C242.56,-127.45 272.31,-121.39 297.18,-116.34"/>
<polygon fill="#9a32cd" stroke="#9a32cd" points="217.21,-129.03 208.11,-134.45 218.6,-135.89 217.21,-129.03"/>
<text text-anchor="middle" x="247.5" y="-133" font-family="Helvetica,sans-Serif" font-size="10.00"> elements</text>
</g>
<!-- Node5&#45;&gt;Node1 -->
<g id="edge4" class="edge">
<title>Node5&#45;&gt;Node1</title>
<path fill="none" stroke="#9a32cd" stroke-dasharray="5,2" d="M410.83,-117.28C446.47,-123.89 491.01,-132.15 524.93,-138.44"/>
<polygon fill="#9a32cd" stroke="#9a32cd" points="411.02,-113.76 400.55,-115.37 409.74,-120.64 411.02,-113.76"/>
<text text-anchor="middle" x="467" y="-137" font-family="Helvetica,sans-Serif" font-size="10.00"> scenes</text>
</g>
<!-- Node6 -->
<g id="node6" class="node">
<title>Node6</title>
<g id="a_node6"><a xlink:title=" ">
<polygon fill="none" stroke="black" points="140,-75.5 140,-94.5 200,-94.5 200,-75.5 140,-75.5"/>
<text text-anchor="middle" x="170" y="-82.5" font-family="Helvetica,sans-Serif" font-size="10.00">std::string</text>
</a>
</g>
</g>
<!-- Node6&#45;&gt;Node1 -->
<g id="edge8" class="edge">
<title>Node6&#45;&gt;Node1</title>
<path fill="none" stroke="#9a32cd" stroke-dasharray="5,2" d="M210.22,-74.3C258.21,-62.9 341.63,-48.58 411,-65 471.68,-79.36 535.44,-119.62 562.76,-138.28"/>
<polygon fill="#9a32cd" stroke="#9a32cd" points="209.13,-70.97 200.25,-76.75 210.8,-77.76 209.13,-70.97"/>
<text text-anchor="middle" x="349" y="-68" font-family="Helvetica,sans-Serif" font-size="10.00"> gameName</text>
</g>
<!-- Node6&#45;&gt;Node5 -->
<g id="edge5" class="edge">
<title>Node6&#45;&gt;Node5</title>
<path fill="none" stroke="#9a32cd" stroke-dasharray="5,2" d="M210.32,-89.67C235.93,-92.7 269.6,-96.7 297.23,-99.98"/>
<polygon fill="#9a32cd" stroke="#9a32cd" points="210.57,-86.17 200.23,-88.47 209.75,-93.12 210.57,-86.17"/>
<text text-anchor="middle" x="247.5" y="-99" font-family="Helvetica,sans-Serif" font-size="10.00"> keys</text>
</g>
<!-- Node7 -->
<g id="node7" class="node">
<title>Node7</title>
<g id="a_node7"><a xlink:title=" ">
<polygon fill="none" stroke="black" points="0,-70 0,-100 95,-100 95,-70 0,-70"/>
<text text-anchor="start" x="8" y="-88" font-family="Helvetica,sans-Serif" font-size="10.00">std::basic_string&lt;</text>
<text text-anchor="middle" x="47.5" y="-77" font-family="Helvetica,sans-Serif" font-size="10.00"> Char &gt;</text>
</a>
</g>
</g>
<!-- Node7&#45;&gt;Node6 -->
<g id="edge6" class="edge">
<title>Node7&#45;&gt;Node6</title>
<path fill="none" stroke="midnightblue" d="M105.13,-85C117.19,-85 129.44,-85 139.94,-85"/>
<polygon fill="midnightblue" stroke="midnightblue" points="105.09,-81.5 95.09,-85 105.09,-88.5 105.09,-81.5"/>
</g>
<!-- Node8 -->
<g id="node8" class="node">
<title>Node8</title>
<g id="a_node8"><a xlink:href="class_r_o_f_l_1_1_sound_handler.html" target="_top" xlink:title=" ">
<polygon fill="none" stroke="#bfbfbf" points="294.5,-0.5 294.5,-19.5 403.5,-19.5 403.5,-0.5 294.5,-0.5"/>
<text text-anchor="middle" x="349" y="-7.5" font-family="Helvetica,sans-Serif" font-size="10.00">ROFL::SoundHandler</text>
</a>
</g>
</g>
<!-- Node8&#45;&gt;Node1 -->
<g id="edge9" class="edge">
<title>Node8&#45;&gt;Node1</title>
<path fill="none" stroke="#9a32cd" stroke-dasharray="5,2" d="M414.14,-6.5C443.89,-7.78 478.46,-13.67 505,-31 545.46,-57.42 566.71,-115.51 573.78,-138.43"/>
<polygon fill="#9a32cd" stroke="#9a32cd" points="413.93,-2.99 403.84,-6.22 413.74,-9.99 413.93,-2.99"/>
<text text-anchor="middle" x="467" y="-34" font-family="Helvetica,sans-Serif" font-size="10.00"> Sound</text>
</g>
</g>
</svg>
