<?xml version="1.0" encoding="UTF-8" standalone="no"?>
<!DOCTYPE svg PUBLIC "-//W3C//DTD SVG 1.1//EN"
 "http://www.w3.org/Graphics/SVG/1.1/DTD/svg11.dtd">
<!-- Generated by graphviz version 3.0.0 (20220226.1711)
 -->
<!-- Title: ROFL::ObjectDynamic Pages: 1 -->
<svg width="482pt" height="343pt"
 viewBox="0.00 0.00 482.00 343.00" xmlns="http://www.w3.org/2000/svg" xmlns:xlink="http://www.w3.org/1999/xlink">
<g id="graph0" class="graph" transform="scale(1 1) rotate(0) translate(4 339)">
<title>ROFL::ObjectDynamic</title>
<!-- Node1 -->
<g id="node1" class="node">
<title>Node1</title>
<g id="a_node1"><a xlink:title=" ">
<polygon fill="#bfbfbf" stroke="black" points="0,-0.5 0,-19.5 115,-19.5 115,-0.5 0,-0.5"/>
<text text-anchor="middle" x="57.5" y="-7.5" font-family="Helvetica,sans-Serif" font-size="10.00">ROFL::ObjectDynamic</text>
</a>
</g>
</g>
<!-- Node2 -->
<g id="node2" class="node">
<title>Node2</title>
<g id="a_node2"><a xlink:href="class_r_o_f_l_1_1_object_base.html" target="_top" xlink:title=" ">
<polygon fill="none" stroke="#bfbfbf" points="115,-57.5 115,-76.5 214,-76.5 214,-57.5 115,-57.5"/>
<text text-anchor="middle" x="164.5" y="-64.5" font-family="Helvetica,sans-Serif" font-size="10.00">ROFL::ObjectBase</text>
</a>
</g>
</g>
<!-- Node2&#45;&gt;Node1 -->
<g id="edge1" class="edge">
<title>Node2&#45;&gt;Node1</title>
<path fill="none" stroke="midnightblue" d="M138.85,-52.82C118.76,-42.49 91.41,-28.43 74.1,-19.53"/>
<polygon fill="midnightblue" stroke="midnightblue" points="137.29,-55.95 147.78,-57.41 140.49,-49.72 137.29,-55.95"/>
</g>
<!-- Node3 -->
<g id="node3" class="node">
<title>Node3</title>
<g id="a_node3"><a xlink:href="struct_r_o_f_l_1_1_collider.html" target="_top" xlink:title=" ">
<polygon fill="none" stroke="#bfbfbf" points="375.5,-125.5 375.5,-144.5 455.5,-144.5 455.5,-125.5 375.5,-125.5"/>
<text text-anchor="middle" x="415.5" y="-132.5" font-family="Helvetica,sans-Serif" font-size="10.00">ROFL::Collider</text>
</a>
</g>
</g>
<!-- Node3&#45;&gt;Node2 -->
<g id="edge2" class="edge">
<title>Node3&#45;&gt;Node2</title>
<path fill="none" stroke="#9a32cd" stroke-dasharray="5,2" d="M388.95,-121.27C370.2,-112.74 344.28,-101.85 320.5,-95 285.64,-84.96 245.25,-78.09 214.31,-73.8"/>
<polygon fill="#9a32cd" stroke="#9a32cd" points="387.51,-124.46 398.05,-125.48 390.45,-118.11 387.51,-124.46"/>
<text text-anchor="middle" x="377" y="-98" font-family="Helvetica,sans-Serif" font-size="10.00"> objCollider</text>
</g>
<!-- Node4 -->
<g id="node4" class="node">
<title>Node4</title>
<g id="a_node4"><a xlink:href="class_r_o_f_l_1_1_sprite.html" target="_top" xlink:title=" ">
<polygon fill="none" stroke="#bfbfbf" points="209.5,-226.5 209.5,-245.5 283.5,-245.5 283.5,-226.5 209.5,-226.5"/>
<text text-anchor="middle" x="246.5" y="-233.5" font-family="Helvetica,sans-Serif" font-size="10.00">ROFL::Sprite</text>
</a>
</g>
</g>
<!-- Node4&#45;&gt;Node2 -->
<g id="edge3" class="edge">
<title>Node4&#45;&gt;Node2</title>
<path fill="none" stroke="#9a32cd" stroke-dasharray="5,2" d="M228.94,-219.13C211.95,-202.64 186.98,-175.21 174.5,-146 164.41,-122.4 163.75,-91.4 164.11,-76.59"/>
<polygon fill="#9a32cd" stroke="#9a32cd" points="226.87,-221.99 236.55,-226.3 231.68,-216.9 226.87,-221.99"/>
<text text-anchor="middle" x="204" y="-132.5" font-family="Helvetica,sans-Serif" font-size="10.00"> currentSprite</text>
</g>
<!-- Node9 -->
<g id="node9" class="node">
<title>Node9</title>
<g id="a_node9"><a xlink:href="class_r_o_f_l_1_1_animated_sprite.html" target="_top" xlink:title=" ">
<polygon fill="none" stroke="#bfbfbf" points="242,-125.5 242,-144.5 357,-144.5 357,-125.5 242,-125.5"/>
<text text-anchor="middle" x="299.5" y="-132.5" font-family="Helvetica,sans-Serif" font-size="10.00">ROFL::AnimatedSprite</text>
</a>
</g>
</g>
<!-- Node4&#45;&gt;Node9 -->
<g id="edge9" class="edge">
<title>Node4&#45;&gt;Node9</title>
<path fill="none" stroke="midnightblue" d="M256.03,-217.2C267.48,-195.81 286.25,-160.76 294.88,-144.62"/>
<polygon fill="midnightblue" stroke="midnightblue" points="252.84,-215.75 251.2,-226.21 259.01,-219.05 252.84,-215.75"/>
</g>
<!-- Node5 -->
<g id="node5" class="node">
<title>Node5</title>
<g id="a_node5"><a xlink:href="struct_r_o_f_l_1_1_vec2.html" target="_top" xlink:title=" ">
<polygon fill="none" stroke="#bfbfbf" points="60,-315.5 60,-334.5 167,-334.5 167,-315.5 60,-315.5"/>
<text text-anchor="middle" x="113.5" y="-322.5" font-family="Helvetica,sans-Serif" font-size="10.00">ROFL::Vec2&lt; float &gt;</text>
</a>
</g>
</g>
<!-- Node5&#45;&gt;Node1 -->
<g id="edge11" class="edge">
<title>Node5&#45;&gt;Node1</title>
<path fill="none" stroke="#9a32cd" stroke-dasharray="5,2" d="M80.66,-311.21C51.84,-297.58 14.5,-272.98 14.5,-237 14.5,-237 14.5,-237 14.5,-66 14.5,-46.12 32.15,-29.14 44.83,-19.5"/>
<polygon fill="#9a32cd" stroke="#9a32cd" points="79.48,-314.51 90.04,-315.41 82.34,-308.13 79.48,-314.51"/>
<text text-anchor="middle" x="50" y="-138" font-family="Helvetica,sans-Serif" font-size="10.00"> direction</text>
<text text-anchor="middle" x="50" y="-127" font-family="Helvetica,sans-Serif" font-size="10.00">previousPosition</text>
</g>
<!-- Node5&#45;&gt;Node2 -->
<g id="edge10" class="edge">
<title>Node5&#45;&gt;Node2</title>
<path fill="none" stroke="#9a32cd" stroke-dasharray="5,2" d="M117,-305.48C122.66,-275.65 134.21,-215.16 144.5,-164 150.98,-131.79 159.05,-93.58 162.64,-76.73"/>
<polygon fill="#9a32cd" stroke="#9a32cd" points="113.56,-304.84 115.14,-315.32 120.44,-306.15 113.56,-304.84"/>
<text text-anchor="middle" x="162.5" y="-200" font-family="Helvetica,sans-Serif" font-size="10.00"> objSize</text>
<text text-anchor="middle" x="162.5" y="-189" font-family="Helvetica,sans-Serif" font-size="10.00">pivot</text>
<text text-anchor="middle" x="162.5" y="-178" font-family="Helvetica,sans-Serif" font-size="10.00">pos</text>
<text text-anchor="middle" x="162.5" y="-167" font-family="Helvetica,sans-Serif" font-size="10.00">scale</text>
</g>
<!-- Node5&#45;&gt;Node4 -->
<g id="edge4" class="edge">
<title>Node5&#45;&gt;Node4</title>
<path fill="none" stroke="#9a32cd" stroke-dasharray="5,2" d="M125.01,-307.04C134.87,-293.67 150.21,-275.42 167.5,-264 180.08,-255.69 195.48,-249.68 209.32,-245.47"/>
<polygon fill="#9a32cd" stroke="#9a32cd" points="122.02,-305.2 119.09,-315.38 127.73,-309.25 122.02,-305.2"/>
<text text-anchor="middle" x="197.5" y="-289" font-family="Helvetica,sans-Serif" font-size="10.00"> pivot</text>
<text text-anchor="middle" x="197.5" y="-278" font-family="Helvetica,sans-Serif" font-size="10.00">spritePosition</text>
<text text-anchor="middle" x="197.5" y="-267" font-family="Helvetica,sans-Serif" font-size="10.00">spriteSize</text>
</g>
<!-- Node6 -->
<g id="node6" class="node">
<title>Node6</title>
<g id="a_node6"><a xlink:href="struct_r_o_f_l_1_1_rect.html" target="_top" xlink:title=" ">
<polygon fill="none" stroke="#bfbfbf" points="377,-315.5 377,-334.5 474,-334.5 474,-315.5 377,-315.5"/>
<text text-anchor="middle" x="425.5" y="-322.5" font-family="Helvetica,sans-Serif" font-size="10.00">ROFL::Rect&lt; int &gt;</text>
</a>
</g>
</g>
<!-- Node6&#45;&gt;Node4 -->
<g id="edge5" class="edge">
<title>Node6&#45;&gt;Node4</title>
<path fill="none" stroke="#9a32cd" stroke-dasharray="5,2" d="M412.68,-306.97C401.46,-293.29 383.95,-274.65 364.5,-264 339.52,-250.32 307.93,-243.56 283.72,-240.22"/>
<polygon fill="#9a32cd" stroke="#9a32cd" points="410.16,-309.43 419.1,-315.11 415.66,-305.09 410.16,-309.43"/>
<text text-anchor="middle" x="411" y="-278" font-family="Helvetica,sans-Serif" font-size="10.00"> src</text>
</g>
<!-- Node7 -->
<g id="node7" class="node">
<title>Node7</title>
<g id="a_node7"><a xlink:href="struct_r_o_f_l_1_1_color.html" target="_top" xlink:title=" ">
<polygon fill="none" stroke="#bfbfbf" points="189,-315.5 189,-334.5 260,-334.5 260,-315.5 189,-315.5"/>
<text text-anchor="middle" x="224.5" y="-322.5" font-family="Helvetica,sans-Serif" font-size="10.00">ROFL::Color</text>
</a>
</g>
</g>
<!-- Node7&#45;&gt;Node4 -->
<g id="edge6" class="edge">
<title>Node7&#45;&gt;Node4</title>
<path fill="none" stroke="#9a32cd" stroke-dasharray="5,2" d="M229.19,-305.46C233.86,-287 240.82,-259.48 244.32,-245.62"/>
<polygon fill="#9a32cd" stroke="#9a32cd" points="225.75,-304.79 226.69,-315.34 232.53,-306.5 225.75,-304.79"/>
<text text-anchor="middle" x="264.5" y="-278" font-family="Helvetica,sans-Serif" font-size="10.00"> colorRGBA</text>
</g>
<!-- Node8 -->
<g id="node8" class="node">
<title>Node8</title>
<g id="a_node8"><a xlink:href="class_r_o_f_l_1_1_texture.html" target="_top" xlink:title=" ">
<polygon fill="none" stroke="#bfbfbf" points="278.5,-315.5 278.5,-334.5 358.5,-334.5 358.5,-315.5 278.5,-315.5"/>
<text text-anchor="middle" x="318.5" y="-322.5" font-family="Helvetica,sans-Serif" font-size="10.00">ROFL::Texture</text>
</a>
</g>
</g>
<!-- Node8&#45;&gt;Node4 -->
<g id="edge7" class="edge">
<title>Node8&#45;&gt;Node4</title>
<path fill="none" stroke="#9a32cd" stroke-dasharray="5,2" d="M314.5,-305.27C310.99,-292.46 304.79,-275.75 294.5,-264 287.57,-256.09 277.73,-249.99 268.77,-245.61"/>
<polygon fill="#9a32cd" stroke="#9a32cd" points="311.17,-306.4 316.93,-315.29 317.97,-304.75 311.17,-306.4"/>
<text text-anchor="middle" x="336" y="-278" font-family="Helvetica,sans-Serif" font-size="10.00"> srcTexture</text>
</g>
<!-- Node9&#45;&gt;Node2 -->
<g id="edge8" class="edge">
<title>Node9&#45;&gt;Node2</title>
<path fill="none" stroke="#9a32cd" stroke-dasharray="5,2" d="M272.63,-120.86C245.75,-107.72 205.2,-87.9 182.15,-76.63"/>
<polygon fill="#9a32cd" stroke="#9a32cd" points="271.33,-124.12 281.85,-125.37 274.4,-117.84 271.33,-124.12"/>
<text text-anchor="middle" x="278" y="-98" font-family="Helvetica,sans-Serif" font-size="10.00"> currentAnimation</text>
</g>
</g>
</svg>
