<?xml version="1.0" encoding="UTF-8" standalone="no"?>
<!DOCTYPE svg PUBLIC "-//W3C//DTD SVG 1.1//EN"
 "http://www.w3.org/Graphics/SVG/1.1/DTD/svg11.dtd">
<!-- Generated by graphviz version 3.0.0 (20220226.1711)
 -->
<!-- Title: ROFL::Window Pages: 1 -->
<svg width="339pt" height="297pt"
 viewBox="0.00 0.00 339.00 297.00" xmlns="http://www.w3.org/2000/svg" xmlns:xlink="http://www.w3.org/1999/xlink">
<g id="graph0" class="graph" transform="scale(1 1) rotate(0) translate(4 293)">
<title>ROFL::Window</title>
<!-- Node1 -->
<g id="node1" class="node">
<title>Node1</title>
<g id="a_node1"><a xlink:title=" ">
<polygon fill="#bfbfbf" stroke="black" points="54,-0.5 54,-19.5 137,-19.5 137,-0.5 54,-0.5"/>
<text text-anchor="middle" x="95.5" y="-7.5" font-family="Helvetica,sans-Serif" font-size="10.00">ROFL::Window</text>
</a>
</g>
</g>
<!-- Node2 -->
<g id="node2" class="node">
<title>Node2</title>
<g id="a_node2"><a xlink:title=" ">
<polygon fill="none" stroke="black" points="17.5,-78.5 17.5,-97.5 77.5,-97.5 77.5,-78.5 17.5,-78.5"/>
<text text-anchor="middle" x="47.5" y="-85.5" font-family="Helvetica,sans-Serif" font-size="10.00">std::string</text>
</a>
</g>
</g>
<!-- Node2&#45;&gt;Node1 -->
<g id="edge1" class="edge">
<title>Node2&#45;&gt;Node1</title>
<path fill="none" stroke="#9a32cd" stroke-dasharray="5,2" d="M58,-69.48C63.69,-60.09 70.88,-48.35 77.5,-38 81.38,-31.92 85.88,-25.17 89.41,-19.94"/>
<polygon fill="#9a32cd" stroke="#9a32cd" points="54.87,-67.89 52.71,-78.26 60.87,-71.5 54.87,-67.89"/>
<text text-anchor="middle" x="95.5" y="-46.5" font-family="Helvetica,sans-Serif" font-size="10.00"> winTitle</text>
</g>
<!-- Node3 -->
<g id="node3" class="node">
<title>Node3</title>
<g id="a_node3"><a xlink:title=" ">
<polygon fill="none" stroke="black" points="0,-152 0,-182 95,-182 95,-152 0,-152"/>
<text text-anchor="start" x="8" y="-170" font-family="Helvetica,sans-Serif" font-size="10.00">std::basic_string&lt;</text>
<text text-anchor="middle" x="47.5" y="-159" font-family="Helvetica,sans-Serif" font-size="10.00"> Char &gt;</text>
</a>
</g>
</g>
<!-- Node3&#45;&gt;Node2 -->
<g id="edge2" class="edge">
<title>Node3&#45;&gt;Node2</title>
<path fill="none" stroke="midnightblue" d="M47.5,-141.71C47.5,-126.72 47.5,-108.38 47.5,-97.76"/>
<polygon fill="midnightblue" stroke="midnightblue" points="44,-141.88 47.5,-151.88 51,-141.88 44,-141.88"/>
</g>
<!-- Node4 -->
<g id="node4" class="node">
<title>Node4</title>
<g id="a_node4"><a xlink:href="struct_r_o_f_l_1_1_vec2.html" target="_top" xlink:title=" ">
<polygon fill="none" stroke="#bfbfbf" points="96,-78.5 96,-97.5 195,-97.5 195,-78.5 96,-78.5"/>
<text text-anchor="middle" x="145.5" y="-85.5" font-family="Helvetica,sans-Serif" font-size="10.00">ROFL::Vec2&lt; int &gt;</text>
</a>
</g>
</g>
<!-- Node4&#45;&gt;Node1 -->
<g id="edge3" class="edge">
<title>Node4&#45;&gt;Node1</title>
<path fill="none" stroke="#9a32cd" stroke-dasharray="5,2" d="M134.36,-69.85C128.23,-60.44 120.47,-48.56 113.5,-38 109.53,-31.98 105.03,-25.23 101.52,-19.99"/>
<polygon fill="#9a32cd" stroke="#9a32cd" points="131.47,-71.84 139.86,-78.31 137.34,-68.02 131.47,-71.84"/>
<text text-anchor="middle" x="155" y="-52" font-family="Helvetica,sans-Serif" font-size="10.00"> dimensions</text>
<text text-anchor="middle" x="155" y="-41" font-family="Helvetica,sans-Serif" font-size="10.00">winPos</text>
</g>
<!-- Node5 -->
<g id="node5" class="node">
<title>Node5</title>
<g id="a_node5"><a xlink:title=" ">
<polygon fill="none" stroke="#bfbfbf" points="128,-269.5 128,-288.5 181,-288.5 181,-269.5 128,-269.5"/>
<text text-anchor="middle" x="154.5" y="-276.5" font-family="Helvetica,sans-Serif" font-size="10.00">Numeric</text>
</a>
</g>
</g>
<!-- Node5&#45;&gt;Node4 -->
<g id="edge4" class="edge">
<title>Node5&#45;&gt;Node4</title>
<path fill="none" stroke="#9a32cd" stroke-dasharray="5,2" d="M153.04,-259.41C151.68,-241.41 149.69,-213.35 148.5,-189 146.85,-155.17 145.97,-114.86 145.65,-97.57"/>
<polygon fill="#9a32cd" stroke="#9a32cd" points="149.56,-259.71 153.81,-269.41 156.54,-259.18 149.56,-259.71"/>
<text text-anchor="middle" x="153" y="-181" font-family="Helvetica,sans-Serif" font-size="10.00"> h</text>
<text text-anchor="middle" x="153" y="-170" font-family="Helvetica,sans-Serif" font-size="10.00">w</text>
<text text-anchor="middle" x="153" y="-159" font-family="Helvetica,sans-Serif" font-size="10.00">x</text>
<text text-anchor="middle" x="153" y="-148" font-family="Helvetica,sans-Serif" font-size="10.00">y</text>
</g>
<!-- Node6 -->
<g id="node6" class="node">
<title>Node6</title>
<g id="a_node6"><a xlink:href="struct_r_o_f_l_1_1_vec2.html" target="_top" xlink:title=" ">
<polygon fill="none" stroke="#bfbfbf" points="166,-157.5 166,-176.5 291,-176.5 291,-157.5 166,-157.5"/>
<text text-anchor="middle" x="228.5" y="-164.5" font-family="Helvetica,sans-Serif" font-size="10.00">ROFL::Vec2&lt; Numeric &gt;</text>
</a>
</g>
</g>
<!-- Node5&#45;&gt;Node6 -->
<g id="edge6" class="edge">
<title>Node5&#45;&gt;Node6</title>
<path fill="none" stroke="#9a32cd" stroke-dasharray="5,2" d="M165.97,-260.96C182,-237.12 210.53,-194.71 222.72,-176.59"/>
<polygon fill="#9a32cd" stroke="#9a32cd" points="162.98,-259.12 160.31,-269.37 168.79,-263.02 162.98,-259.12"/>
<text text-anchor="middle" x="204" y="-243" font-family="Helvetica,sans-Serif" font-size="10.00"> h</text>
<text text-anchor="middle" x="204" y="-232" font-family="Helvetica,sans-Serif" font-size="10.00">w</text>
<text text-anchor="middle" x="204" y="-221" font-family="Helvetica,sans-Serif" font-size="10.00">x</text>
<text text-anchor="middle" x="204" y="-210" font-family="Helvetica,sans-Serif" font-size="10.00">y</text>
</g>
<!-- Node6&#45;&gt;Node4 -->
<g id="edge5" class="edge">
<title>Node6&#45;&gt;Node4</title>
<path fill="none" stroke="#9a32cd" stroke-dasharray="5,2" d="M211.67,-150.39C194.5,-134.46 168.48,-110.32 154.74,-97.57"/>
<polygon fill="#9a32cd" stroke="#9a32cd" points="209.59,-153.23 219.3,-157.47 214.35,-148.1 209.59,-153.23"/>
<text text-anchor="middle" x="195.5" y="-119" font-family="Helvetica,sans-Serif" font-size="10.00"> Zero</text>
</g>
<!-- Node6&#45;&gt;Node6 -->
<g id="edge7" class="edge">
<title>Node6&#45;&gt;Node6</title>
<path fill="none" stroke="#9a32cd" stroke-dasharray="5,2" d="M301.14,-172.94C306.03,-171.57 309,-169.59 309,-167 309,-162.96 301.76,-160.4 291.28,-159.33"/>
<polygon fill="#9a32cd" stroke="#9a32cd" points="300.52,-169.49 291.28,-174.67 301.73,-176.39 300.52,-169.49"/>
<text text-anchor="middle" x="320" y="-164.5" font-family="Helvetica,sans-Serif" font-size="10.00"> Zero</text>
</g>
</g>
</svg>
