<?xml version="1.0" encoding="UTF-8" standalone="no"?>
<!DOCTYPE svg PUBLIC "-//W3C//DTD SVG 1.1//EN"
 "http://www.w3.org/Graphics/SVG/1.1/DTD/svg11.dtd">
<!-- Generated by graphviz version 3.0.0 (20220226.1711)
 -->
<!-- Title: ROFL::AnimatedSprite Pages: 1 -->
<svg width="418pt" height="174pt"
 viewBox="0.00 0.00 417.50 174.00" xmlns="http://www.w3.org/2000/svg" xmlns:xlink="http://www.w3.org/1999/xlink">
<g id="graph0" class="graph" transform="scale(1 1) rotate(0) translate(4 170)">
<title>ROFL::AnimatedSprite</title>
<!-- Node1 -->
<g id="node1" class="node">
<title>Node1</title>
<g id="a_node1"><a xlink:title=" ">
<polygon fill="#bfbfbf" stroke="black" points="167,-0.5 167,-19.5 282,-19.5 282,-0.5 167,-0.5"/>
<text text-anchor="middle" x="224.5" y="-7.5" font-family="Helvetica,sans-Serif" font-size="10.00">ROFL::AnimatedSprite</text>
</a>
</g>
</g>
<!-- Node2 -->
<g id="node2" class="node">
<title>Node2</title>
<g id="a_node2"><a xlink:href="class_r_o_f_l_1_1_sprite.html" target="_top" xlink:title=" ">
<polygon fill="none" stroke="#bfbfbf" points="187.5,-57.5 187.5,-76.5 261.5,-76.5 261.5,-57.5 187.5,-57.5"/>
<text text-anchor="middle" x="224.5" y="-64.5" font-family="Helvetica,sans-Serif" font-size="10.00">ROFL::Sprite</text>
</a>
</g>
</g>
<!-- Node2&#45;&gt;Node1 -->
<g id="edge1" class="edge">
<title>Node2&#45;&gt;Node1</title>
<path fill="none" stroke="midnightblue" d="M224.5,-47.12C224.5,-37.82 224.5,-27.06 224.5,-19.71"/>
<polygon fill="midnightblue" stroke="midnightblue" points="221,-47.41 224.5,-57.41 228,-47.41 221,-47.41"/>
</g>
<!-- Node3 -->
<g id="node3" class="node">
<title>Node3</title>
<g id="a_node3"><a xlink:href="struct_r_o_f_l_1_1_vec2.html" target="_top" xlink:title=" ">
<polygon fill="none" stroke="#bfbfbf" points="0,-146.5 0,-165.5 107,-165.5 107,-146.5 0,-146.5"/>
<text text-anchor="middle" x="53.5" y="-153.5" font-family="Helvetica,sans-Serif" font-size="10.00">ROFL::Vec2&lt; float &gt;</text>
</a>
</g>
</g>
<!-- Node3&#45;&gt;Node2 -->
<g id="edge2" class="edge">
<title>Node3&#45;&gt;Node2</title>
<path fill="none" stroke="#9a32cd" stroke-dasharray="5,2" d="M68.6,-139.04C82.26,-125.48 103.55,-106.44 125.5,-95 144.77,-84.95 168.16,-78.35 187.36,-74.19"/>
<polygon fill="#9a32cd" stroke="#9a32cd" points="65.99,-136.7 61.49,-146.29 70.99,-141.6 65.99,-136.7"/>
<text text-anchor="middle" x="155.5" y="-120" font-family="Helvetica,sans-Serif" font-size="10.00"> pivot</text>
<text text-anchor="middle" x="155.5" y="-109" font-family="Helvetica,sans-Serif" font-size="10.00">spritePosition</text>
<text text-anchor="middle" x="155.5" y="-98" font-family="Helvetica,sans-Serif" font-size="10.00">spriteSize</text>
</g>
<!-- Node4 -->
<g id="node4" class="node">
<title>Node4</title>
<g id="a_node4"><a xlink:href="struct_r_o_f_l_1_1_rect.html" target="_top" xlink:title=" ">
<polygon fill="none" stroke="#bfbfbf" points="125,-146.5 125,-165.5 222,-165.5 222,-146.5 125,-146.5"/>
<text text-anchor="middle" x="173.5" y="-153.5" font-family="Helvetica,sans-Serif" font-size="10.00">ROFL::Rect&lt; int &gt;</text>
</a>
</g>
</g>
<!-- Node4&#45;&gt;Node2 -->
<g id="edge3" class="edge">
<title>Node4&#45;&gt;Node2</title>
<path fill="none" stroke="#9a32cd" stroke-dasharray="5,2" d="M183.77,-137.49C194.58,-119.03 211.17,-90.74 219.44,-76.62"/>
<polygon fill="#9a32cd" stroke="#9a32cd" points="180.61,-135.94 178.58,-146.34 186.65,-139.48 180.61,-135.94"/>
<text text-anchor="middle" x="216" y="-109" font-family="Helvetica,sans-Serif" font-size="10.00"> src</text>
</g>
<!-- Node5 -->
<g id="node5" class="node">
<title>Node5</title>
<g id="a_node5"><a xlink:href="struct_r_o_f_l_1_1_color.html" target="_top" xlink:title=" ">
<polygon fill="none" stroke="#bfbfbf" points="240,-146.5 240,-165.5 311,-165.5 311,-146.5 240,-146.5"/>
<text text-anchor="middle" x="275.5" y="-153.5" font-family="Helvetica,sans-Serif" font-size="10.00">ROFL::Color</text>
</a>
</g>
</g>
<!-- Node5&#45;&gt;Node2 -->
<g id="edge4" class="edge">
<title>Node5&#45;&gt;Node2</title>
<path fill="none" stroke="#9a32cd" stroke-dasharray="5,2" d="M265.23,-137.49C254.42,-119.03 237.83,-90.74 229.56,-76.62"/>
<polygon fill="#9a32cd" stroke="#9a32cd" points="262.35,-139.48 270.42,-146.34 268.39,-135.94 262.35,-139.48"/>
<text text-anchor="middle" x="284.5" y="-109" font-family="Helvetica,sans-Serif" font-size="10.00"> colorRGBA</text>
</g>
<!-- Node6 -->
<g id="node6" class="node">
<title>Node6</title>
<g id="a_node6"><a xlink:href="class_r_o_f_l_1_1_texture.html" target="_top" xlink:title=" ">
<polygon fill="none" stroke="#bfbfbf" points="329.5,-146.5 329.5,-165.5 409.5,-165.5 409.5,-146.5 329.5,-146.5"/>
<text text-anchor="middle" x="369.5" y="-153.5" font-family="Helvetica,sans-Serif" font-size="10.00">ROFL::Texture</text>
</a>
</g>
</g>
<!-- Node6&#45;&gt;Node2 -->
<g id="edge5" class="edge">
<title>Node6&#45;&gt;Node2</title>
<path fill="none" stroke="#9a32cd" stroke-dasharray="5,2" d="M357.83,-137.87C347.81,-124.4 332.2,-106.1 314.5,-95 298.61,-85.03 278.83,-78.57 261.87,-74.48"/>
<polygon fill="#9a32cd" stroke="#9a32cd" points="355.17,-140.18 363.83,-146.28 360.87,-136.11 355.17,-140.18"/>
<text text-anchor="middle" x="374" y="-109" font-family="Helvetica,sans-Serif" font-size="10.00"> srcTexture</text>
</g>
</g>
</svg>
