<?xml version="1.0" encoding="UTF-8" standalone="no"?>
<!DOCTYPE svg PUBLIC "-//W3C//DTD SVG 1.1//EN"
 "http://www.w3.org/Graphics/SVG/1.1/DTD/svg11.dtd">
<!-- Generated by graphviz version 3.0.0 (20220226.1711)
 -->
<!-- Title: ROFL::AnimatedSprite Pages: 1 -->
<svg width="204pt" height="252pt"
 viewBox="0.00 0.00 203.50 252.00" xmlns="http://www.w3.org/2000/svg" xmlns:xlink="http://www.w3.org/1999/xlink">
<g id="graph0" class="graph" transform="scale(1 1) rotate(0) translate(4 248)">
<title>ROFL::AnimatedSprite</title>
<!-- Node1 -->
<g id="node1" class="node">
<title>Node1</title>
<g id="a_node1"><a xlink:title=" ">
<polygon fill="#bfbfbf" stroke="black" points="45,-0.5 45,-19.5 160,-19.5 160,-0.5 45,-0.5"/>
<text text-anchor="middle" x="102.5" y="-7.5" font-family="Helvetica,sans-Serif" font-size="10.00">ROFL::AnimatedSprite</text>
</a>
</g>
</g>
<!-- Node2 -->
<g id="node2" class="node">
<title>Node2</title>
<g id="a_node2"><a xlink:href="class_r_o_f_l_1_1_sprite.html" target="_top" xlink:title=" ">
<polygon fill="none" stroke="#bfbfbf" points="65.5,-57.5 65.5,-76.5 139.5,-76.5 139.5,-57.5 65.5,-57.5"/>
<text text-anchor="middle" x="102.5" y="-64.5" font-family="Helvetica,sans-Serif" font-size="10.00">ROFL::Sprite</text>
</a>
</g>
</g>
<!-- Node2&#45;&gt;Node1 -->
<g id="edge1" class="edge">
<title>Node2&#45;&gt;Node1</title>
<path fill="none" stroke="midnightblue" d="M102.5,-47.12C102.5,-37.82 102.5,-27.06 102.5,-19.71"/>
<polygon fill="midnightblue" stroke="midnightblue" points="99,-47.41 102.5,-57.41 106,-47.41 99,-47.41"/>
</g>
<!-- Node3 -->
<g id="node3" class="node">
<title>Node3</title>
<g id="a_node3"><a xlink:href="struct_r_o_f_l_1_1_rect.html" target="_top" xlink:title=" ">
<polygon fill="none" stroke="#bfbfbf" points="0,-124.5 0,-143.5 97,-143.5 97,-124.5 0,-124.5"/>
<text text-anchor="middle" x="48.5" y="-131.5" font-family="Helvetica,sans-Serif" font-size="10.00">ROFL::Rect&lt; int &gt;</text>
</a>
</g>
</g>
<!-- Node3&#45;&gt;Node2 -->
<g id="edge2" class="edge">
<title>Node3&#45;&gt;Node2</title>
<path fill="none" stroke="#9a32cd" stroke-dasharray="5,2" d="M56.2,-114.72C59.46,-108.13 63.63,-100.88 68.5,-95 74.37,-87.92 82.37,-81.46 89.13,-76.63"/>
<polygon fill="#9a32cd" stroke="#9a32cd" points="52.83,-113.68 51.87,-124.23 59.2,-116.58 52.83,-113.68"/>
<text text-anchor="middle" x="95" y="-98" font-family="Helvetica,sans-Serif" font-size="10.00"> sourceRect</text>
</g>
<!-- Node4 -->
<g id="node4" class="node">
<title>Node4</title>
<g id="a_node4"><a xlink:title=" ">
<polygon fill="none" stroke="#bfbfbf" points="22,-224.5 22,-243.5 75,-243.5 75,-224.5 22,-224.5"/>
<text text-anchor="middle" x="48.5" y="-231.5" font-family="Helvetica,sans-Serif" font-size="10.00">Numeric</text>
</a>
</g>
</g>
<!-- Node4&#45;&gt;Node3 -->
<g id="edge3" class="edge">
<title>Node4&#45;&gt;Node3</title>
<path fill="none" stroke="#9a32cd" stroke-dasharray="5,2" d="M48.5,-214.22C48.5,-192.95 48.5,-159.22 48.5,-143.54"/>
<polygon fill="#9a32cd" stroke="#9a32cd" points="45,-214.3 48.5,-224.3 52,-214.3 45,-214.3"/>
<text text-anchor="middle" x="53" y="-198" font-family="Helvetica,sans-Serif" font-size="10.00"> h</text>
<text text-anchor="middle" x="53" y="-187" font-family="Helvetica,sans-Serif" font-size="10.00">w</text>
<text text-anchor="middle" x="53" y="-176" font-family="Helvetica,sans-Serif" font-size="10.00">x</text>
<text text-anchor="middle" x="53" y="-165" font-family="Helvetica,sans-Serif" font-size="10.00">y</text>
</g>
<!-- Node5 -->
<g id="node5" class="node">
<title>Node5</title>
<g id="a_node5"><a xlink:href="class_r_o_f_l_1_1_texture.html" target="_top" xlink:title=" ">
<polygon fill="none" stroke="#bfbfbf" points="115.5,-124.5 115.5,-143.5 195.5,-143.5 195.5,-124.5 115.5,-124.5"/>
<text text-anchor="middle" x="155.5" y="-131.5" font-family="Helvetica,sans-Serif" font-size="10.00">ROFL::Texture</text>
</a>
</g>
</g>
<!-- Node5&#45;&gt;Node2 -->
<g id="edge4" class="edge">
<title>Node5&#45;&gt;Node2</title>
<path fill="none" stroke="#9a32cd" stroke-dasharray="5,2" d="M141.86,-116.27C131.53,-103.6 117.75,-86.7 109.53,-76.63"/>
<polygon fill="#9a32cd" stroke="#9a32cd" points="139.32,-118.7 148.35,-124.23 144.75,-114.27 139.32,-118.7"/>
<text text-anchor="middle" x="148.5" y="-98" font-family="Helvetica,sans-Serif" font-size="10.00"> texture</text>
</g>
</g>
</svg>
