<?xml version="1.0" encoding="UTF-8" standalone="no"?>
<!DOCTYPE svg PUBLIC "-//W3C//DTD SVG 1.1//EN"
 "http://www.w3.org/Graphics/SVG/1.1/DTD/svg11.dtd">
<!-- Generated by graphviz version 3.0.0 (20220226.1711)
 -->
<!-- Title: ROFL::Sprite Pages: 1 -->
<svg width="418pt" height="117pt"
 viewBox="0.00 0.00 417.50 117.00" xmlns="http://www.w3.org/2000/svg" xmlns:xlink="http://www.w3.org/1999/xlink">
<g id="graph0" class="graph" transform="scale(1 1) rotate(0) translate(4 113)">
<title>ROFL::Sprite</title>
<!-- Node1 -->
<g id="node1" class="node">
<title>Node1</title>
<g id="a_node1"><a xlink:title=" ">
<polygon fill="#bfbfbf" stroke="black" points="187.5,-0.5 187.5,-19.5 261.5,-19.5 261.5,-0.5 187.5,-0.5"/>
<text text-anchor="middle" x="224.5" y="-7.5" font-family="Helvetica,sans-Serif" font-size="10.00">ROFL::Sprite</text>
</a>
</g>
</g>
<!-- Node2 -->
<g id="node2" class="node">
<title>Node2</title>
<g id="a_node2"><a xlink:href="struct_r_o_f_l_1_1_vec2.html" target="_top" xlink:title=" ">
<polygon fill="none" stroke="#bfbfbf" points="0,-89.5 0,-108.5 107,-108.5 107,-89.5 0,-89.5"/>
<text text-anchor="middle" x="53.5" y="-96.5" font-family="Helvetica,sans-Serif" font-size="10.00">ROFL::Vec2&lt; float &gt;</text>
</a>
</g>
</g>
<!-- Node2&#45;&gt;Node1 -->
<g id="edge1" class="edge">
<title>Node2&#45;&gt;Node1</title>
<path fill="none" stroke="#9a32cd" stroke-dasharray="5,2" d="M68.6,-82.04C82.26,-68.48 103.55,-49.44 125.5,-38 144.77,-27.95 168.16,-21.35 187.36,-17.19"/>
<polygon fill="#9a32cd" stroke="#9a32cd" points="65.99,-79.7 61.49,-89.29 70.99,-84.6 65.99,-79.7"/>
<text text-anchor="middle" x="155.5" y="-63" font-family="Helvetica,sans-Serif" font-size="10.00"> pivot</text>
<text text-anchor="middle" x="155.5" y="-52" font-family="Helvetica,sans-Serif" font-size="10.00">spritePosition</text>
<text text-anchor="middle" x="155.5" y="-41" font-family="Helvetica,sans-Serif" font-size="10.00">spriteSize</text>
</g>
<!-- Node3 -->
<g id="node3" class="node">
<title>Node3</title>
<g id="a_node3"><a xlink:href="struct_r_o_f_l_1_1_rect.html" target="_top" xlink:title=" ">
<polygon fill="none" stroke="#bfbfbf" points="125,-89.5 125,-108.5 222,-108.5 222,-89.5 125,-89.5"/>
<text text-anchor="middle" x="173.5" y="-96.5" font-family="Helvetica,sans-Serif" font-size="10.00">ROFL::Rect&lt; int &gt;</text>
</a>
</g>
</g>
<!-- Node3&#45;&gt;Node1 -->
<g id="edge2" class="edge">
<title>Node3&#45;&gt;Node1</title>
<path fill="none" stroke="#9a32cd" stroke-dasharray="5,2" d="M183.77,-80.49C194.58,-62.03 211.17,-33.74 219.44,-19.62"/>
<polygon fill="#9a32cd" stroke="#9a32cd" points="180.61,-78.94 178.58,-89.34 186.65,-82.48 180.61,-78.94"/>
<text text-anchor="middle" x="216" y="-52" font-family="Helvetica,sans-Serif" font-size="10.00"> src</text>
</g>
<!-- Node4 -->
<g id="node4" class="node">
<title>Node4</title>
<g id="a_node4"><a xlink:href="struct_r_o_f_l_1_1_color.html" target="_top" xlink:title=" ">
<polygon fill="none" stroke="#bfbfbf" points="240,-89.5 240,-108.5 311,-108.5 311,-89.5 240,-89.5"/>
<text text-anchor="middle" x="275.5" y="-96.5" font-family="Helvetica,sans-Serif" font-size="10.00">ROFL::Color</text>
</a>
</g>
</g>
<!-- Node4&#45;&gt;Node1 -->
<g id="edge3" class="edge">
<title>Node4&#45;&gt;Node1</title>
<path fill="none" stroke="#9a32cd" stroke-dasharray="5,2" d="M265.23,-80.49C254.42,-62.03 237.83,-33.74 229.56,-19.62"/>
<polygon fill="#9a32cd" stroke="#9a32cd" points="262.35,-82.48 270.42,-89.34 268.39,-78.94 262.35,-82.48"/>
<text text-anchor="middle" x="284.5" y="-52" font-family="Helvetica,sans-Serif" font-size="10.00"> colorRGBA</text>
</g>
<!-- Node5 -->
<g id="node5" class="node">
<title>Node5</title>
<g id="a_node5"><a xlink:href="class_r_o_f_l_1_1_texture.html" target="_top" xlink:title=" ">
<polygon fill="none" stroke="#bfbfbf" points="329.5,-89.5 329.5,-108.5 409.5,-108.5 409.5,-89.5 329.5,-89.5"/>
<text text-anchor="middle" x="369.5" y="-96.5" font-family="Helvetica,sans-Serif" font-size="10.00">ROFL::Texture</text>
</a>
</g>
</g>
<!-- Node5&#45;&gt;Node1 -->
<g id="edge4" class="edge">
<title>Node5&#45;&gt;Node1</title>
<path fill="none" stroke="#9a32cd" stroke-dasharray="5,2" d="M357.83,-80.87C347.81,-67.4 332.2,-49.1 314.5,-38 298.61,-28.03 278.83,-21.57 261.87,-17.48"/>
<polygon fill="#9a32cd" stroke="#9a32cd" points="355.17,-83.18 363.83,-89.28 360.87,-79.11 355.17,-83.18"/>
<text text-anchor="middle" x="374" y="-52" font-family="Helvetica,sans-Serif" font-size="10.00"> srcTexture</text>
</g>
</g>
</svg>
