<?xml version="1.0" encoding="UTF-8" standalone="no"?>
<!DOCTYPE svg PUBLIC "-//W3C//DTD SVG 1.1//EN"
 "http://www.w3.org/Graphics/SVG/1.1/DTD/svg11.dtd">
<!-- Generated by graphviz version 3.0.0 (20220226.1711)
 -->
<!-- Title: ROFL::Sprite Pages: 1 -->
<svg width="205pt" height="195pt"
 viewBox="0.00 0.00 204.50 195.00" xmlns="http://www.w3.org/2000/svg" xmlns:xlink="http://www.w3.org/1999/xlink">
<g id="graph0" class="graph" transform="scale(1 1) rotate(0) translate(4 191)">
<title>ROFL::Sprite</title>
<!-- Node1 -->
<g id="node1" class="node">
<title>Node1</title>
<g id="a_node1"><a xlink:title=" ">
<polygon fill="#bfbfbf" stroke="black" points="64.5,-0.5 64.5,-19.5 138.5,-19.5 138.5,-0.5 64.5,-0.5"/>
<text text-anchor="middle" x="101.5" y="-7.5" font-family="Helvetica,sans-Serif" font-size="10.00">ROFL::Sprite</text>
</a>
</g>
</g>
<!-- Node2 -->
<g id="node2" class="node">
<title>Node2</title>
<g id="a_node2"><a xlink:href="struct_r_o_f_l_1_1_rect.html" target="_top" xlink:title=" ">
<polygon fill="none" stroke="#bfbfbf" points="0,-67.5 0,-86.5 97,-86.5 97,-67.5 0,-67.5"/>
<text text-anchor="middle" x="48.5" y="-74.5" font-family="Helvetica,sans-Serif" font-size="10.00">ROFL::Rect&lt; int &gt;</text>
</a>
</g>
</g>
<!-- Node2&#45;&gt;Node1 -->
<g id="edge1" class="edge">
<title>Node2&#45;&gt;Node1</title>
<path fill="none" stroke="#9a32cd" stroke-dasharray="5,2" d="M58.26,-58.48C62.31,-51.81 67.28,-44.3 72.5,-38 78.03,-31.33 85.14,-24.68 90.94,-19.65"/>
<polygon fill="#9a32cd" stroke="#9a32cd" points="55.07,-57.02 53.07,-67.42 61.12,-60.54 55.07,-57.02"/>
<text text-anchor="middle" x="99" y="-41" font-family="Helvetica,sans-Serif" font-size="10.00"> sourceRect</text>
</g>
<!-- Node3 -->
<g id="node3" class="node">
<title>Node3</title>
<g id="a_node3"><a xlink:title=" ">
<polygon fill="none" stroke="#bfbfbf" points="22,-167.5 22,-186.5 75,-186.5 75,-167.5 22,-167.5"/>
<text text-anchor="middle" x="48.5" y="-174.5" font-family="Helvetica,sans-Serif" font-size="10.00">Numeric</text>
</a>
</g>
</g>
<!-- Node3&#45;&gt;Node2 -->
<g id="edge2" class="edge">
<title>Node3&#45;&gt;Node2</title>
<path fill="none" stroke="#9a32cd" stroke-dasharray="5,2" d="M48.5,-157.22C48.5,-135.95 48.5,-102.22 48.5,-86.54"/>
<polygon fill="#9a32cd" stroke="#9a32cd" points="45,-157.3 48.5,-167.3 52,-157.3 45,-157.3"/>
<text text-anchor="middle" x="53" y="-141" font-family="Helvetica,sans-Serif" font-size="10.00"> h</text>
<text text-anchor="middle" x="53" y="-130" font-family="Helvetica,sans-Serif" font-size="10.00">w</text>
<text text-anchor="middle" x="53" y="-119" font-family="Helvetica,sans-Serif" font-size="10.00">x</text>
<text text-anchor="middle" x="53" y="-108" font-family="Helvetica,sans-Serif" font-size="10.00">y</text>
</g>
<!-- Node4 -->
<g id="node4" class="node">
<title>Node4</title>
<g id="a_node4"><a xlink:href="class_r_o_f_l_1_1_texture.html" target="_top" xlink:title=" ">
<polygon fill="none" stroke="#bfbfbf" points="115.5,-67.5 115.5,-86.5 195.5,-86.5 195.5,-67.5 115.5,-67.5"/>
<text text-anchor="middle" x="155.5" y="-74.5" font-family="Helvetica,sans-Serif" font-size="10.00">ROFL::Texture</text>
</a>
</g>
</g>
<!-- Node4&#45;&gt;Node1 -->
<g id="edge3" class="edge">
<title>Node4&#45;&gt;Node1</title>
<path fill="none" stroke="#9a32cd" stroke-dasharray="5,2" d="M142.55,-59.16C137.34,-52.5 131.22,-44.82 125.5,-38 120.34,-31.85 114.34,-25.1 109.63,-19.89"/>
<polygon fill="#9a32cd" stroke="#9a32cd" points="140.07,-61.68 148.97,-67.43 145.6,-57.39 140.07,-61.68"/>
<text text-anchor="middle" x="151.5" y="-41" font-family="Helvetica,sans-Serif" font-size="10.00"> texture</text>
</g>
<!-- Node5 -->
<g id="node5" class="node">
<title>Node5</title>
<g id="a_node5"><a xlink:href="class_r_o_f_l_1_1_generic.html" target="_top" xlink:title=" ">
<polygon fill="none" stroke="#bfbfbf" points="114.5,-167.5 114.5,-186.5 196.5,-186.5 196.5,-167.5 114.5,-167.5"/>
<text text-anchor="middle" x="155.5" y="-174.5" font-family="Helvetica,sans-Serif" font-size="10.00">ROFL::Generic</text>
</a>
</g>
</g>
<!-- Node5&#45;&gt;Node4 -->
<g id="edge4" class="edge">
<title>Node5&#45;&gt;Node4</title>
<path fill="none" stroke="midnightblue" d="M155.5,-157.22C155.5,-135.95 155.5,-102.22 155.5,-86.54"/>
<polygon fill="midnightblue" stroke="midnightblue" points="152,-157.3 155.5,-167.3 159,-157.3 152,-157.3"/>
</g>
</g>
</svg>
