<?xml version="1.0" encoding="UTF-8" standalone="no"?>
<!DOCTYPE svg PUBLIC "-//W3C//DTD SVG 1.1//EN"
 "http://www.w3.org/Graphics/SVG/1.1/DTD/svg11.dtd">
<!-- Generated by graphviz version 3.0.0 (20220226.1711)
 -->
<!-- Title: ROFL::Interface Pages: 1 -->
<!--zoomable 198 -->
<svg id="main" version="1.1" xmlns="http://www.w3.org/2000/svg" xmlns:xlink="http://www.w3.org/1999/xlink" xml:space="preserve" onload="init(evt)">
<style type="text/css"><![CDATA[
.edge:hover path { stroke: red; }
.edge:hover polygon { stroke: red; fill: red; }
]]></style>
<script type="text/javascript"><![CDATA[
var edges = document.getElementsByTagName('g');
if (edges && edges.length) {
  for (var i=0;i<edges.length;i++) {
    if (edges[i].id.substr(0,4)=='edge') {
      edges[i].setAttribute('class','edge');
    }
  }
}
]]></script>
        <defs>
                <circle id="rim" cx="0" cy="0" r="7"/>
                <circle id="rim2" cx="0" cy="0" r="3.5"/>
                <g id="zoomPlus">
                        <use xlink:href="#rim" fill="#404040">
                                <set attributeName="fill" to="#808080" begin="zoomplus.mouseover" end="zoomplus.mouseout"/>
                        </use>
                        <path d="M-4,0h8M0,-4v8" fill="none" stroke="white" stroke-width="1.5" pointer-events="none"/>
                </g>
                <g id="zoomMin">
                        <use xlink:href="#rim" fill="#404040">
                                <set attributeName="fill" to="#808080" begin="zoomminus.mouseover" end="zoomminus.mouseout"/>
                        </use>
                        <path d="M-4,0h8" fill="none" stroke="white" stroke-width="1.5" pointer-events="none"/>
                </g>
                <g id="dirArrow">
                        <path fill="none" stroke="white" stroke-width="1.5" d="M0,-3.0v7 M-2.5,-0.5L0,-3.0L2.5,-0.5"/>
                </g>
               <g id="resetDef">
                       <use xlink:href="#rim2" fill="#404040">
                               <set attributeName="fill" to="#808080" begin="reset.mouseover" end="reset.mouseout"/>
                       </use>
               </g>
        </defs>

<script type="text/javascript">
var viewWidth = 638;
var viewHeight = 198;
var sectionId = 'dynsection-0';
</script>
<script xlink:href="svgpan.js"/>
<svg id="graph" class="graph">
<g id="viewport">
<title>ROFL::Interface</title>
<!-- Node1 -->
<g id="node1" class="node">
<title>Node1</title>
<g id="a_node1"><a xlink:title=" ">
<polygon fill="#bfbfbf" stroke="black" points="545,-94.5 545,-113.5 630,-113.5 630,-94.5 545,-94.5"/>
<text text-anchor="middle" x="587.5" y="-101.5" font-family="Helvetica,sans-Serif" font-size="10.00">ROFL::Interface</text>
</a>
</g>
</g>
<!-- Node2 -->
<g id="node2" class="node">
<title>Node2</title>
<g id="a_node2"><a xlink:title=" ">
<polygon fill="none" stroke="black" points="334.5,-159 334.5,-189 432.5,-189 432.5,-159 334.5,-159"/>
<text text-anchor="start" x="342.5" y="-177" font-family="Helvetica,sans-Serif" font-size="10.00">std::unordered_set</text>
<text text-anchor="middle" x="383.5" y="-166" font-family="Helvetica,sans-Serif" font-size="10.00">&lt; void * &gt;</text>
</a>
</g>
</g>
<!-- Node2&#45;&gt;Node1 -->
<g id="edge1" class="edge">
<title>Node2&#45;&gt;Node1</title>
<path fill="none" stroke="#9a32cd" stroke-dasharray="5,2" d="M442.28,-158.45C468.42,-150.94 499.55,-141.32 527,-131 540.7,-125.85 555.7,-119.04 567.21,-113.54"/>
<polygon fill="#9a32cd" stroke="#9a32cd" points="441.19,-155.13 432.53,-161.23 443.1,-161.86 441.19,-155.13"/>
<text text-anchor="middle" x="496.5" y="-153" font-family="Helvetica,sans-Serif" font-size="10.00"> pointers</text>
</g>
<!-- Node3 -->
<g id="node3" class="node">
<title>Node3</title>
<g id="a_node3"><a xlink:title=" ">
<polygon fill="none" stroke="black" points="319,-110 319,-140 448,-140 448,-110 319,-110"/>
<text text-anchor="start" x="327" y="-128" font-family="Helvetica,sans-Serif" font-size="10.00">std::unordered_map</text>
<text text-anchor="middle" x="383.5" y="-117" font-family="Helvetica,sans-Serif" font-size="10.00">&lt; EngineVar, std::string &gt;</text>
</a>
</g>
</g>
<!-- Node3&#45;&gt;Node1 -->
<g id="edge2" class="edge">
<title>Node3&#45;&gt;Node1</title>
<path fill="none" stroke="#9a32cd" stroke-dasharray="5,2" d="M458.3,-117.33C487.46,-114.3 519.89,-110.92 544.84,-108.33"/>
<polygon fill="#9a32cd" stroke="#9a32cd" points="457.72,-113.87 448.14,-118.38 458.45,-120.83 457.72,-113.87"/>
<text text-anchor="middle" x="496.5" y="-119" font-family="Helvetica,sans-Serif" font-size="10.00"> var</text>
</g>
<!-- Node4 -->
<g id="node4" class="node">
<title>Node4</title>
<g id="a_node4"><a xlink:title=" ">
<polygon fill="none" stroke="black" points="156,-87.5 156,-106.5 216,-106.5 216,-87.5 156,-87.5"/>
<text text-anchor="middle" x="186" y="-94.5" font-family="Helvetica,sans-Serif" font-size="10.00">std::string</text>
</a>
</g>
</g>
<!-- Node4&#45;&gt;Node3 -->
<g id="edge3" class="edge">
<title>Node4&#45;&gt;Node3</title>
<path fill="none" stroke="#9a32cd" stroke-dasharray="5,2" d="M226.28,-102.63C252.72,-106.41 288.16,-111.49 318.61,-115.85"/>
<polygon fill="#9a32cd" stroke="#9a32cd" points="226.66,-99.15 216.27,-101.19 225.67,-106.07 226.66,-99.15"/>
<text text-anchor="middle" x="279.5" y="-115" font-family="Helvetica,sans-Serif" font-size="10.00"> elements</text>
</g>
<!-- Node6 -->
<g id="node6" class="node">
<title>Node6</title>
<g id="a_node6"><a xlink:title=" ">
<polygon fill="none" stroke="black" points="332,-61 332,-91 435,-91 435,-61 332,-61"/>
<text text-anchor="start" x="340" y="-79" font-family="Helvetica,sans-Serif" font-size="10.00">std::unordered_map</text>
<text text-anchor="middle" x="383.5" y="-68" font-family="Helvetica,sans-Serif" font-size="10.00">&lt; std::string, bool &gt;</text>
</a>
</g>
</g>
<!-- Node4&#45;&gt;Node6 -->
<g id="edge6" class="edge">
<title>Node4&#45;&gt;Node6</title>
<path fill="none" stroke="#9a32cd" stroke-dasharray="5,2" d="M226.31,-91.8C236.62,-90.5 247.72,-89.15 258,-88 282.28,-85.29 309.26,-82.65 331.88,-80.53"/>
<polygon fill="#9a32cd" stroke="#9a32cd" points="225.81,-88.34 216.34,-93.08 226.7,-95.28 225.81,-88.34"/>
<text text-anchor="middle" x="279.5" y="-91" font-family="Helvetica,sans-Serif" font-size="10.00"> keys</text>
</g>
<!-- Node5 -->
<g id="node5" class="node">
<title>Node5</title>
<g id="a_node5"><a xlink:title=" ">
<polygon fill="none" stroke="black" points="0,-82 0,-112 95,-112 95,-82 0,-82"/>
<text text-anchor="start" x="8" y="-100" font-family="Helvetica,sans-Serif" font-size="10.00">std::basic_string&lt;</text>
<text text-anchor="middle" x="47.5" y="-89" font-family="Helvetica,sans-Serif" font-size="10.00"> Char &gt;</text>
</a>
</g>
</g>
<!-- Node5&#45;&gt;Node4 -->
<g id="edge4" class="edge">
<title>Node5&#45;&gt;Node4</title>
<path fill="none" stroke="midnightblue" d="M105.17,-97C122.54,-97 140.94,-97 155.69,-97"/>
<polygon fill="midnightblue" stroke="midnightblue" points="105.09,-93.5 95.09,-97 105.09,-100.5 105.09,-93.5"/>
</g>
<!-- Node6&#45;&gt;Node1 -->
<g id="edge5" class="edge">
<title>Node6&#45;&gt;Node1</title>
<path fill="none" stroke="#9a32cd" stroke-dasharray="5,2" d="M445.48,-83.89C470.72,-87.22 500.29,-91.2 527,-95 532.79,-95.82 538.9,-96.72 544.9,-97.61"/>
<polygon fill="#9a32cd" stroke="#9a32cd" points="445.68,-80.39 435.31,-82.55 444.77,-87.33 445.68,-80.39"/>
<text text-anchor="middle" x="496.5" y="-98" font-family="Helvetica,sans-Serif" font-size="10.00"> initializer_list</text>
</g>
<!-- Node7 -->
<g id="node7" class="node">
<title>Node7</title>
<g id="a_node7"><a xlink:title=" ">
<polygon fill="none" stroke="black" points="332,-0.5 332,-41.5 435,-41.5 435,-0.5 332,-0.5"/>
<text text-anchor="start" x="340" y="-29.5" font-family="Helvetica,sans-Serif" font-size="10.00">std::unordered_map</text>
<text text-anchor="start" x="340" y="-18.5" font-family="Helvetica,sans-Serif" font-size="10.00">&lt; int, std::vector&lt;</text>
<text text-anchor="middle" x="383.5" y="-7.5" font-family="Helvetica,sans-Serif" font-size="10.00"> double &gt; &gt;</text>
</a>
</g>
</g>
<!-- Node7&#45;&gt;Node1 -->
<g id="edge7" class="edge">
<title>Node7&#45;&gt;Node1</title>
<path fill="none" stroke="#9a32cd" stroke-dasharray="5,2" d="M444.73,-39.62C470.46,-48.22 500.59,-59.15 527,-71 542.41,-77.92 559.17,-87.4 570.96,-94.43"/>
<polygon fill="#9a32cd" stroke="#9a32cd" points="445.69,-36.25 435.1,-36.44 443.5,-42.9 445.69,-36.25"/>
<text text-anchor="middle" x="496.5" y="-74" font-family="Helvetica,sans-Serif" font-size="10.00"> profiler_times</text>
</g>
<!-- Node8 -->
<g id="node8" class="node">
<title>Node8</title>
<g id="a_node8"><a xlink:title=" ">
<polygon fill="none" stroke="black" points="132,-11.5 132,-30.5 240,-30.5 240,-11.5 132,-11.5"/>
<text text-anchor="middle" x="186" y="-18.5" font-family="Helvetica,sans-Serif" font-size="10.00">std::vector&lt; double &gt;</text>
</a>
</g>
</g>
<!-- Node8&#45;&gt;Node7 -->
<g id="edge8" class="edge">
<title>Node8&#45;&gt;Node7</title>
<path fill="none" stroke="#9a32cd" stroke-dasharray="5,2" d="M250.42,-21C276.75,-21 306.88,-21 331.71,-21"/>
<polygon fill="#9a32cd" stroke="#9a32cd" points="250.16,-17.5 240.16,-21 250.16,-24.5 250.16,-17.5"/>
<text text-anchor="middle" x="279.5" y="-24" font-family="Helvetica,sans-Serif" font-size="10.00"> elements</text>
</g>
</g>
</svg>
        <g id="navigator" transform="translate(0 0)" fill="#404254">
                <rect fill="#f2f5e9" fill-opacity="0.5" stroke="#606060" stroke-width=".5" x="0" y="0" width="60" height="60"/>
                <use id="zoomplus" xlink:href="#zoomPlus" x="17" y="9" onmousedown="handleZoom(evt,'in')"/>
                <use id="zoomminus" xlink:href="#zoomMin" x="42" y="9" onmousedown="handleZoom(evt,'out')"/>
                <use id="reset" xlink:href="#resetDef" x="30" y="36" onmousedown="handleReset()"/>
                <g id="arrowUp" xlink:href="#dirArrow" transform="translate(30 24)" onmousedown="handlePan(0,-1)">
                  <use xlink:href="#rim" fill="#404040">
                        <set attributeName="fill" to="#808080" begin="arrowUp.mouseover" end="arrowUp.mouseout"/>
                  </use>
                  <path fill="none" stroke="white" stroke-width="1.5" d="M0,-3.0v7 M-2.5,-0.5L0,-3.0L2.5,-0.5"/>
                </g>
                <g id="arrowRight" xlink:href="#dirArrow" transform="rotate(90) translate(36 -43)" onmousedown="handlePan(1,0)">
                  <use xlink:href="#rim" fill="#404040">
                        <set attributeName="fill" to="#808080" begin="arrowRight.mouseover" end="arrowRight.mouseout"/>
                  </use>
                  <path fill="none" stroke="white" stroke-width="1.5" d="M0,-3.0v7 M-2.5,-0.5L0,-3.0L2.5,-0.5"/>
                </g>
                <g id="arrowDown" xlink:href="#dirArrow" transform="rotate(180) translate(-30 -48)" onmousedown="handlePan(0,1)">
                  <use xlink:href="#rim" fill="#404040">
                        <set attributeName="fill" to="#808080" begin="arrowDown.mouseover" end="arrowDown.mouseout"/>
                  </use>
                  <path fill="none" stroke="white" stroke-width="1.5" d="M0,-3.0v7 M-2.5,-0.5L0,-3.0L2.5,-0.5"/>
                </g>
                <g id="arrowLeft" xlink:href="#dirArrow" transform="rotate(270) translate(-36 17)" onmousedown="handlePan(-1,0)">
                  <use xlink:href="#rim" fill="#404040">
                        <set attributeName="fill" to="#808080" begin="arrowLeft.mouseover" end="arrowLeft.mouseout"/>
                  </use>
                  <path fill="none" stroke="white" stroke-width="1.5" d="M0,-3.0v7 M-2.5,-0.5L0,-3.0L2.5,-0.5"/>
                </g>
        </g>
        <svg viewBox="0 0 15 15" width="100%" height="30px" preserveAspectRatio="xMaxYMin meet">
         <g id="arrow_out" transform="scale(0.3 0.3)">
          <a xlink:href="class_r_o_f_l_1_1_interface__coll__graph_org.svg" target="_base">
           <rect id="button" ry="5" rx="5" y="6" x="6" height="38" width="38"
                fill="#f2f5e9" fill-opacity="0.5" stroke="#606060" stroke-width="1.0"/>
           <path id="arrow"
             d="M 11.500037,31.436501 C 11.940474,20.09759 22.043105,11.32322 32.158766,21.979434 L 37.068811,17.246167 C 37.068811,17.246167 37.088388,32 37.088388,32 L 22.160133,31.978069 C 22.160133,31.978069 26.997745,27.140456 26.997745,27.140456 C 18.528582,18.264221 13.291696,25.230495 11.500037,31.436501 z"
             style="fill:#404040;"/>
          </a>
         </g>
        </svg>
</svg>
