<?xml version="1.0" encoding="UTF-8" standalone="no"?>
<!DOCTYPE svg PUBLIC "-//W3C//DTD SVG 1.1//EN"
 "http://www.w3.org/Graphics/SVG/1.1/DTD/svg11.dtd">
<!-- Generated by graphviz version 3.0.0 (20220226.1711)
 -->
<!-- Title: ROFL::InputHandler Pages: 1 -->
<svg width="432pt" height="173pt"
 viewBox="0.00 0.00 431.50 173.00" xmlns="http://www.w3.org/2000/svg" xmlns:xlink="http://www.w3.org/1999/xlink">
<g id="graph0" class="graph" transform="scale(1 1) rotate(0) translate(4 169)">
<title>ROFL::InputHandler</title>
<!-- Node1 -->
<g id="node1" class="node">
<title>Node1</title>
<g id="a_node1"><a xlink:title=" ">
<polygon fill="#bfbfbf" stroke="black" points="195,-0.5 195,-19.5 297,-19.5 297,-0.5 195,-0.5"/>
<text text-anchor="middle" x="246" y="-7.5" font-family="Helvetica,sans-Serif" font-size="10.00">ROFL::InputHandler</text>
</a>
</g>
</g>
<!-- Node2 -->
<g id="node2" class="node">
<title>Node2</title>
<g id="a_node2"><a xlink:title=" ">
<polygon fill="none" stroke="#bfbfbf" points="119,-67.5 119,-97.5 221,-97.5 221,-67.5 119,-67.5"/>
<text text-anchor="start" x="127" y="-85.5" font-family="Helvetica,sans-Serif" font-size="10.00">ROFL::InputHandler</text>
<text text-anchor="middle" x="170" y="-74.5" font-family="Helvetica,sans-Serif" font-size="10.00">::Global</text>
</a>
</g>
</g>
<!-- Node2&#45;&gt;Node1 -->
<g id="edge1" class="edge">
<title>Node2&#45;&gt;Node1</title>
<path fill="none" stroke="#9a32cd" stroke-dasharray="5,2" d="M191.88,-59.91C199.16,-52.85 207.36,-45.01 215,-38 221.84,-31.73 229.72,-24.86 235.83,-19.62"/>
<polygon fill="#9a32cd" stroke="#9a32cd" points="189.12,-57.71 184.41,-67.2 194.01,-62.72 189.12,-57.71"/>
<text text-anchor="middle" x="235" y="-41" font-family="Helvetica,sans-Serif" font-size="10.00"> Settings</text>
</g>
<!-- Node3 -->
<g id="node3" class="node">
<title>Node3</title>
<g id="a_node3"><a xlink:href="class_r_o_f_l_1_1_controller_input.html" target="_top" xlink:title=" ">
<polygon fill="none" stroke="#bfbfbf" points="0,-145.5 0,-164.5 110,-164.5 110,-145.5 0,-145.5"/>
<text text-anchor="middle" x="55" y="-152.5" font-family="Helvetica,sans-Serif" font-size="10.00">ROFL::ControllerInput</text>
</a>
</g>
</g>
<!-- Node3&#45;&gt;Node1 -->
<g id="edge5" class="edge">
<title>Node3&#45;&gt;Node1</title>
<path fill="none" stroke="#9a32cd" stroke-dasharray="5,2" d="M47.09,-135.94C40.07,-116.84 33.04,-86.78 48,-67 65.73,-43.57 142.43,-27.13 194.99,-18.37"/>
<polygon fill="#9a32cd" stroke="#9a32cd" points="43.87,-137.31 50.85,-145.29 50.37,-134.7 43.87,-137.31"/>
<text text-anchor="middle" x="79" y="-80" font-family="Helvetica,sans-Serif" font-size="10.00"> AnyController</text>
</g>
<!-- Node3&#45;&gt;Node2 -->
<g id="edge2" class="edge">
<title>Node3&#45;&gt;Node2</title>
<path fill="none" stroke="#9a32cd" stroke-dasharray="5,2" d="M77.89,-139.97C97.95,-127.67 126.96,-109.89 147.04,-97.58"/>
<polygon fill="#9a32cd" stroke="#9a32cd" points="75.8,-137.14 69.1,-145.36 79.46,-143.11 75.8,-137.14"/>
<text text-anchor="middle" x="147" y="-119" font-family="Helvetica,sans-Serif" font-size="10.00"> AnyController</text>
</g>
<!-- Node4 -->
<g id="node4" class="node">
<title>Node4</title>
<g id="a_node4"><a xlink:href="class_r_o_f_l_1_1_mouse.html" target="_top" xlink:title=" ">
<polygon fill="none" stroke="#bfbfbf" points="239.5,-73 239.5,-92 316.5,-92 316.5,-73 239.5,-73"/>
<text text-anchor="middle" x="278" y="-80" font-family="Helvetica,sans-Serif" font-size="10.00">ROFL::Mouse</text>
</a>
</g>
</g>
<!-- Node4&#45;&gt;Node1 -->
<g id="edge3" class="edge">
<title>Node4&#45;&gt;Node1</title>
<path fill="none" stroke="#9a32cd" stroke-dasharray="5,2" d="M269.91,-63.68C263.53,-49.63 254.91,-30.64 249.96,-19.72"/>
<polygon fill="#9a32cd" stroke="#9a32cd" points="266.76,-65.2 274.08,-72.86 273.13,-62.3 266.76,-65.2"/>
<text text-anchor="middle" x="278.5" y="-41" font-family="Helvetica,sans-Serif" font-size="10.00"> Mouse</text>
</g>
<!-- Node5 -->
<g id="node5" class="node">
<title>Node5</title>
<g id="a_node5"><a xlink:href="class_r_o_f_l_1_1_keyboard.html" target="_top" xlink:title=" ">
<polygon fill="none" stroke="#bfbfbf" points="334.5,-73 334.5,-92 423.5,-92 423.5,-73 334.5,-73"/>
<text text-anchor="middle" x="379" y="-80" font-family="Helvetica,sans-Serif" font-size="10.00">ROFL::Keyboard</text>
</a>
</g>
</g>
<!-- Node5&#45;&gt;Node1 -->
<g id="edge4" class="edge">
<title>Node5&#45;&gt;Node1</title>
<path fill="none" stroke="#9a32cd" stroke-dasharray="5,2" d="M354.34,-67.87C338.57,-59.21 317.65,-47.82 299,-38 287.12,-31.75 273.64,-24.88 263.25,-19.64"/>
<polygon fill="#9a32cd" stroke="#9a32cd" points="352.98,-71.12 363.43,-72.87 356.36,-64.98 352.98,-71.12"/>
<text text-anchor="middle" x="340.5" y="-41" font-family="Helvetica,sans-Serif" font-size="10.00"> Keyboard</text>
</g>
</g>
</svg>
