<?xml version="1.0" encoding="UTF-8" standalone="no"?>
<!DOCTYPE svg PUBLIC "-//W3C//DTD SVG 1.1//EN"
 "http://www.w3.org/Graphics/SVG/1.1/DTD/svg11.dtd">
<!-- Generated by graphviz version 3.0.0 (20220226.1711)
 -->
<!-- Title: ROFL::ObjectStatic Pages: 1 -->
<svg width="472pt" height="341pt"
 viewBox="0.00 0.00 472.00 341.00" xmlns="http://www.w3.org/2000/svg" xmlns:xlink="http://www.w3.org/1999/xlink">
<g id="graph0" class="graph" transform="scale(1 1) rotate(0) translate(4 337)">
<title>ROFL::ObjectStatic</title>
<!-- Node1 -->
<g id="node1" class="node">
<title>Node1</title>
<g id="a_node1"><a xlink:title=" ">
<polygon fill="#bfbfbf" stroke="black" points="82,-0.5 82,-19.5 184,-19.5 184,-0.5 82,-0.5"/>
<text text-anchor="middle" x="133" y="-7.5" font-family="Helvetica,sans-Serif" font-size="10.00">ROFL::ObjectStatic</text>
</a>
</g>
</g>
<!-- Node2 -->
<g id="node2" class="node">
<title>Node2</title>
<g id="a_node2"><a xlink:href="class_r_o_f_l_1_1_object_base.html" target="_top" xlink:title=" ">
<polygon fill="none" stroke="#bfbfbf" points="83.5,-57.5 83.5,-76.5 182.5,-76.5 182.5,-57.5 83.5,-57.5"/>
<text text-anchor="middle" x="133" y="-64.5" font-family="Helvetica,sans-Serif" font-size="10.00">ROFL::ObjectBase</text>
</a>
</g>
</g>
<!-- Node2&#45;&gt;Node1 -->
<g id="edge1" class="edge">
<title>Node2&#45;&gt;Node1</title>
<path fill="none" stroke="midnightblue" d="M133,-47.12C133,-37.82 133,-27.06 133,-19.71"/>
<polygon fill="midnightblue" stroke="midnightblue" points="129.5,-47.41 133,-57.41 136.5,-47.41 129.5,-47.41"/>
</g>
<!-- Node3 -->
<g id="node3" class="node">
<title>Node3</title>
<g id="a_node3"><a xlink:href="struct_r_o_f_l_1_1_collider.html" target="_top" xlink:title=" ">
<polygon fill="none" stroke="#bfbfbf" points="0,-124.5 0,-143.5 80,-143.5 80,-124.5 0,-124.5"/>
<text text-anchor="middle" x="40" y="-131.5" font-family="Helvetica,sans-Serif" font-size="10.00">ROFL::Collider</text>
</a>
</g>
</g>
<!-- Node3&#45;&gt;Node2 -->
<g id="edge2" class="edge">
<title>Node3&#45;&gt;Node2</title>
<path fill="none" stroke="#9a32cd" stroke-dasharray="5,2" d="M38.49,-114.01C38.92,-107.34 40.6,-100.21 45,-95 54.6,-83.65 68.83,-76.99 83.07,-73.1"/>
<polygon fill="#9a32cd" stroke="#9a32cd" points="34.99,-114.47 38.68,-124.41 41.99,-114.34 34.99,-114.47"/>
<text text-anchor="middle" x="69.5" y="-98" font-family="Helvetica,sans-Serif" font-size="10.00"> objCollider</text>
</g>
<!-- Node4 -->
<g id="node4" class="node">
<title>Node4</title>
<g id="a_node4"><a xlink:href="class_r_o_f_l_1_1_sprite.html" target="_top" xlink:title=" ">
<polygon fill="none" stroke="#bfbfbf" points="207,-224.5 207,-243.5 281,-243.5 281,-224.5 207,-224.5"/>
<text text-anchor="middle" x="244" y="-231.5" font-family="Helvetica,sans-Serif" font-size="10.00">ROFL::Sprite</text>
</a>
</g>
</g>
<!-- Node4&#45;&gt;Node2 -->
<g id="edge3" class="edge">
<title>Node4&#45;&gt;Node2</title>
<path fill="none" stroke="#9a32cd" stroke-dasharray="5,2" d="M227.83,-216.89C211.32,-199.85 185.69,-171.65 168,-144 153.44,-121.24 141.56,-91.43 136.15,-76.83"/>
<polygon fill="#9a32cd" stroke="#9a32cd" points="225.61,-219.63 235.12,-224.31 230.6,-214.72 225.61,-219.63"/>
<text text-anchor="middle" x="197.5" y="-131.5" font-family="Helvetica,sans-Serif" font-size="10.00"> currentSprite</text>
</g>
<!-- Node9 -->
<g id="node9" class="node">
<title>Node9</title>
<g id="a_node9"><a xlink:href="class_r_o_f_l_1_1_animated_sprite.html" target="_top" xlink:title=" ">
<polygon fill="none" stroke="#bfbfbf" points="236.5,-124.5 236.5,-143.5 351.5,-143.5 351.5,-124.5 236.5,-124.5"/>
<text text-anchor="middle" x="294" y="-131.5" font-family="Helvetica,sans-Serif" font-size="10.00">ROFL::AnimatedSprite</text>
</a>
</g>
</g>
<!-- Node4&#45;&gt;Node9 -->
<g id="edge9" class="edge">
<title>Node4&#45;&gt;Node9</title>
<path fill="none" stroke="midnightblue" d="M252.99,-215.38C263.8,-194.2 281.5,-159.51 289.64,-143.54"/>
<polygon fill="midnightblue" stroke="midnightblue" points="249.86,-213.8 248.44,-224.3 256.1,-216.99 249.86,-213.8"/>
</g>
<!-- Node5 -->
<g id="node5" class="node">
<title>Node5</title>
<g id="a_node5"><a xlink:href="struct_r_o_f_l_1_1_vec2.html" target="_top" xlink:title=" ">
<polygon fill="none" stroke="#bfbfbf" points="54.5,-313.5 54.5,-332.5 161.5,-332.5 161.5,-313.5 54.5,-313.5"/>
<text text-anchor="middle" x="108" y="-320.5" font-family="Helvetica,sans-Serif" font-size="10.00">ROFL::Vec2&lt; float &gt;</text>
</a>
</g>
</g>
<!-- Node5&#45;&gt;Node2 -->
<g id="edge10" class="edge">
<title>Node5&#45;&gt;Node2</title>
<path fill="none" stroke="#9a32cd" stroke-dasharray="5,2" d="M109.87,-303C114.9,-251.9 128.58,-112.89 132.14,-76.71"/>
<polygon fill="#9a32cd" stroke="#9a32cd" points="106.36,-302.96 108.86,-313.26 113.32,-303.65 106.36,-302.96"/>
<text text-anchor="middle" x="142" y="-198" font-family="Helvetica,sans-Serif" font-size="10.00"> objSize</text>
<text text-anchor="middle" x="142" y="-187" font-family="Helvetica,sans-Serif" font-size="10.00">pivot</text>
<text text-anchor="middle" x="142" y="-176" font-family="Helvetica,sans-Serif" font-size="10.00">pos</text>
<text text-anchor="middle" x="142" y="-165" font-family="Helvetica,sans-Serif" font-size="10.00">scale</text>
</g>
<!-- Node5&#45;&gt;Node4 -->
<g id="edge4" class="edge">
<title>Node5&#45;&gt;Node4</title>
<path fill="none" stroke="#9a32cd" stroke-dasharray="5,2" d="M121.46,-305.6C133.11,-292.3 151.05,-273.87 170,-262 182.75,-254.02 198.21,-247.91 211.69,-243.54"/>
<polygon fill="#9a32cd" stroke="#9a32cd" points="118.57,-303.6 114.75,-313.48 123.9,-308.13 118.57,-303.6"/>
<text text-anchor="middle" x="200" y="-287" font-family="Helvetica,sans-Serif" font-size="10.00"> pivot</text>
<text text-anchor="middle" x="200" y="-276" font-family="Helvetica,sans-Serif" font-size="10.00">spritePosition</text>
<text text-anchor="middle" x="200" y="-265" font-family="Helvetica,sans-Serif" font-size="10.00">spriteSize</text>
</g>
<!-- Node6 -->
<g id="node6" class="node">
<title>Node6</title>
<g id="a_node6"><a xlink:href="struct_r_o_f_l_1_1_rect.html" target="_top" xlink:title=" ">
<polygon fill="none" stroke="#bfbfbf" points="179.5,-313.5 179.5,-332.5 276.5,-332.5 276.5,-313.5 179.5,-313.5"/>
<text text-anchor="middle" x="228" y="-320.5" font-family="Helvetica,sans-Serif" font-size="10.00">ROFL::Rect&lt; int &gt;</text>
</a>
</g>
</g>
<!-- Node6&#45;&gt;Node4 -->
<g id="edge5" class="edge">
<title>Node6&#45;&gt;Node4</title>
<path fill="none" stroke="#9a32cd" stroke-dasharray="5,2" d="M231.41,-303.46C234.81,-285 239.87,-257.48 242.41,-243.62"/>
<polygon fill="#9a32cd" stroke="#9a32cd" points="227.96,-302.87 229.59,-313.34 234.84,-304.14 227.96,-302.87"/>
<text text-anchor="middle" x="247.5" y="-276" font-family="Helvetica,sans-Serif" font-size="10.00"> src</text>
</g>
<!-- Node7 -->
<g id="node7" class="node">
<title>Node7</title>
<g id="a_node7"><a xlink:href="struct_r_o_f_l_1_1_color.html" target="_top" xlink:title=" ">
<polygon fill="none" stroke="#bfbfbf" points="294.5,-313.5 294.5,-332.5 365.5,-332.5 365.5,-313.5 294.5,-313.5"/>
<text text-anchor="middle" x="330" y="-320.5" font-family="Helvetica,sans-Serif" font-size="10.00">ROFL::Color</text>
</a>
</g>
</g>
<!-- Node7&#45;&gt;Node4 -->
<g id="edge6" class="edge">
<title>Node7&#45;&gt;Node4</title>
<path fill="none" stroke="#9a32cd" stroke-dasharray="5,2" d="M313.93,-305.74C295.74,-287.35 266.8,-258.06 252.53,-243.62"/>
<polygon fill="#9a32cd" stroke="#9a32cd" points="311.92,-308.69 321.44,-313.34 316.9,-303.77 311.92,-308.69"/>
<text text-anchor="middle" x="328" y="-276" font-family="Helvetica,sans-Serif" font-size="10.00"> colorRGBA</text>
</g>
<!-- Node8 -->
<g id="node8" class="node">
<title>Node8</title>
<g id="a_node8"><a xlink:href="class_r_o_f_l_1_1_texture.html" target="_top" xlink:title=" ">
<polygon fill="none" stroke="#bfbfbf" points="384,-313.5 384,-332.5 464,-332.5 464,-313.5 384,-313.5"/>
<text text-anchor="middle" x="424" y="-320.5" font-family="Helvetica,sans-Serif" font-size="10.00">ROFL::Texture</text>
</a>
</g>
</g>
<!-- Node8&#45;&gt;Node4 -->
<g id="edge7" class="edge">
<title>Node8&#45;&gt;Node4</title>
<path fill="none" stroke="#9a32cd" stroke-dasharray="5,2" d="M410.17,-305.43C397.86,-291.75 378.65,-272.88 358,-262 334.07,-249.38 304.24,-242.59 281.09,-238.97"/>
<polygon fill="#9a32cd" stroke="#9a32cd" points="407.69,-307.91 416.89,-313.15 412.97,-303.31 407.69,-307.91"/>
<text text-anchor="middle" x="423.5" y="-276" font-family="Helvetica,sans-Serif" font-size="10.00"> srcTexture</text>
</g>
<!-- Node9&#45;&gt;Node2 -->
<g id="edge8" class="edge">
<title>Node9&#45;&gt;Node2</title>
<path fill="none" stroke="#9a32cd" stroke-dasharray="5,2" d="M263.3,-120.6C231.33,-107.7 182.11,-87.83 154.21,-76.56"/>
<polygon fill="#9a32cd" stroke="#9a32cd" points="262.04,-123.87 272.62,-124.37 264.66,-117.38 262.04,-123.87"/>
<text text-anchor="middle" x="262.5" y="-98" font-family="Helvetica,sans-Serif" font-size="10.00"> currentAnimation</text>
</g>
</g>
</svg>
