<?xml version="1.0" encoding="UTF-8" standalone="no"?>
<!DOCTYPE svg PUBLIC "-//W3C//DTD SVG 1.1//EN"
 "http://www.w3.org/Graphics/SVG/1.1/DTD/svg11.dtd">
<!-- Generated by graphviz version 3.0.0 (20220226.1711)
 -->
<!-- Title: source Pages: 1 -->
<svg width="1256pt" height="111pt"
 viewBox="0.00 0.00 1256.00 111.00" xmlns="http://www.w3.org/2000/svg" xmlns:xlink="http://www.w3.org/1999/xlink">
<g id="graph0" class="graph" transform="scale(1 1) rotate(0) translate(4 107)">
<title>source</title>
<g id="clust1" class="cluster">
<title>clusterdir_0b6ee6e7e9547e675db4add2e5de97da</title>
<g id="a_clust1"><a xlink:href="dir_0b6ee6e7e9547e675db4add2e5de97da.html" target="_top" xlink:title="Engine">
<polygon fill="#f2f2f2" stroke="#404040" stroke-dasharray="5,2" points="8,-8 8,-95 1240,-95 1240,-8 8,-8"/>
<text text-anchor="middle" x="624" y="-83" font-family="Helvetica,sans-Serif" font-size="10.00">Engine</text>
</a>
</g>
</g>
<g id="clust2" class="cluster">
<title>clusterdir_6c1eb5fc1071da5e45cf7606d68b026e</title>
<g id="a_clust2"><a xlink:href="dir_6c1eb5fc1071da5e45cf7606d68b026e.html" target="_top">
<polygon fill="#f2f2f2" stroke="#404040" stroke-width="2" points="16,-16 16,-68 1232,-68 1232,-16 16,-16"/>
</a>
</g>
</g>
<!-- dir_6c1eb5fc1071da5e45cf7606d68b026e -->
<g id="node1" class="node">
<title>dir_6c1eb5fc1071da5e45cf7606d68b026e</title>
<text text-anchor="middle" x="1197" y="-39.5" font-family="Helvetica,sans-Serif" font-size="10.00">source</text>
</g>
<!-- dir_bda0a8d96f8491044b52249badfaa9be -->
<g id="node2" class="node">
<title>dir_bda0a8d96f8491044b52249badfaa9be</title>
<g id="a_node2"><a xlink:href="dir_bda0a8d96f8491044b52249badfaa9be.html" target="_top" xlink:title="AssetManager">
<polygon fill="#bcbcbc" stroke="#404040" points="1152,-60 1072,-60 1072,-24 1152,-24 1152,-60"/>
<text text-anchor="middle" x="1112" y="-39.5" font-family="Helvetica,sans-Serif" font-size="10.00">AssetManager</text>
</a>
</g>
</g>
<!-- dir_9b3ea8b2abe10a4c3edf59e124c7b886 -->
<g id="node3" class="node">
<title>dir_9b3ea8b2abe10a4c3edf59e124c7b886</title>
<g id="a_node3"><a xlink:href="dir_9b3ea8b2abe10a4c3edf59e124c7b886.html" target="_top" xlink:title="Camera">
<polygon fill="#bcbcbc" stroke="#404040" points="1054,-60 1000,-60 1000,-24 1054,-24 1054,-60"/>
<text text-anchor="middle" x="1027" y="-39.5" font-family="Helvetica,sans-Serif" font-size="10.00">Camera</text>
</a>
</g>
</g>
<!-- dir_6d6a81d03dc136ed7b0ee125194a3e79 -->
<g id="node4" class="node">
<title>dir_6d6a81d03dc136ed7b0ee125194a3e79</title>
<g id="a_node4"><a xlink:href="dir_6d6a81d03dc136ed7b0ee125194a3e79.html" target="_top" xlink:title="Collision">
<polygon fill="#bcbcbc" stroke="#404040" points="982,-60 928,-60 928,-24 982,-24 982,-60"/>
<text text-anchor="middle" x="955" y="-39.5" font-family="Helvetica,sans-Serif" font-size="10.00">Collision</text>
</a>
</g>
</g>
<!-- dir_b1d8c367c9066f5e5b9e051573233f1c -->
<g id="node5" class="node">
<title>dir_b1d8c367c9066f5e5b9e051573233f1c</title>
<g id="a_node5"><a xlink:href="dir_b1d8c367c9066f5e5b9e051573233f1c.html" target="_top" xlink:title="Core">
<polygon fill="#bcbcbc" stroke="#404040" points="910,-60 856,-60 856,-24 910,-24 910,-60"/>
<text text-anchor="middle" x="883" y="-39.5" font-family="Helvetica,sans-Serif" font-size="10.00">Core</text>
</a>
</g>
</g>
<!-- dir_dd862a0c1a1d2462aff804e62be6b08e -->
<g id="node6" class="node">
<title>dir_dd862a0c1a1d2462aff804e62be6b08e</title>
<g id="a_node6"><a xlink:href="dir_dd862a0c1a1d2462aff804e62be6b08e.html" target="_top" xlink:title="Debug">
<polygon fill="#bcbcbc" stroke="#404040" points="838,-60 784,-60 784,-24 838,-24 838,-60"/>
<text text-anchor="middle" x="811" y="-39.5" font-family="Helvetica,sans-Serif" font-size="10.00">Debug</text>
</a>
</g>
</g>
<!-- dir_c4a620e52b826c81e3f09a008d1dee85 -->
<g id="node7" class="node">
<title>dir_c4a620e52b826c81e3f09a008d1dee85</title>
<g id="a_node7"><a xlink:href="dir_c4a620e52b826c81e3f09a008d1dee85.html" target="_top" xlink:title="definitions">
<polygon fill="#bcbcbc" stroke="#404040" points="766,-60 706,-60 706,-24 766,-24 766,-60"/>
<text text-anchor="middle" x="736" y="-39.5" font-family="Helvetica,sans-Serif" font-size="10.00">definitions</text>
</a>
</g>
</g>
<!-- dir_6f69ab349780dd0237b07275c178a797 -->
<g id="node8" class="node">
<title>dir_6f69ab349780dd0237b07275c178a797</title>
<g id="a_node8"><a xlink:href="dir_6f69ab349780dd0237b07275c178a797.html" target="_top" xlink:title="Graphics">
<polygon fill="#bcbcbc" stroke="#404040" points="688,-60 632,-60 632,-24 688,-24 688,-60"/>
<text text-anchor="middle" x="660" y="-39.5" font-family="Helvetica,sans-Serif" font-size="10.00">Graphics</text>
</a>
</g>
</g>
<!-- dir_d4e65bf357b614ca75d79588cdf6a1f9 -->
<g id="node9" class="node">
<title>dir_d4e65bf357b614ca75d79588cdf6a1f9</title>
<g id="a_node9"><a xlink:href="dir_d4e65bf357b614ca75d79588cdf6a1f9.html" target="_top" xlink:title="Input">
<polygon fill="#bcbcbc" stroke="#404040" points="614,-60 560,-60 560,-24 614,-24 614,-60"/>
<text text-anchor="middle" x="587" y="-39.5" font-family="Helvetica,sans-Serif" font-size="10.00">Input</text>
</a>
</g>
</g>
<!-- dir_85cd55b3a25d4b81710b2fd2f31def7e -->
<g id="node10" class="node">
<title>dir_85cd55b3a25d4b81710b2fd2f31def7e</title>
<g id="a_node10"><a xlink:href="dir_85cd55b3a25d4b81710b2fd2f31def7e.html" target="_top" xlink:title="Interface">
<polygon fill="#bcbcbc" stroke="#404040" points="542,-60 488,-60 488,-24 542,-24 542,-60"/>
<text text-anchor="middle" x="515" y="-39.5" font-family="Helvetica,sans-Serif" font-size="10.00">Interface</text>
</a>
</g>
</g>
<!-- dir_00d6dcc9fa5733deb6549e8371931a1e -->
<g id="node11" class="node">
<title>dir_00d6dcc9fa5733deb6549e8371931a1e</title>
<g id="a_node11"><a xlink:href="dir_00d6dcc9fa5733deb6549e8371931a1e.html" target="_top" xlink:title="Object">
<polygon fill="#bcbcbc" stroke="#404040" points="470,-60 416,-60 416,-24 470,-24 470,-60"/>
<text text-anchor="middle" x="443" y="-39.5" font-family="Helvetica,sans-Serif" font-size="10.00">Object</text>
</a>
</g>
</g>
<!-- dir_2ac87f523fb94d54d387108d7f2617db -->
<g id="node12" class="node">
<title>dir_2ac87f523fb94d54d387108d7f2617db</title>
<g id="a_node12"><a xlink:href="dir_2ac87f523fb94d54d387108d7f2617db.html" target="_top" xlink:title="Profiling">
<polygon fill="#bcbcbc" stroke="#404040" points="398,-60 344,-60 344,-24 398,-24 398,-60"/>
<text text-anchor="middle" x="371" y="-39.5" font-family="Helvetica,sans-Serif" font-size="10.00">Profiling</text>
</a>
</g>
</g>
<!-- dir_7b8af3f16556714086cbf0132df9be68 -->
<g id="node13" class="node">
<title>dir_7b8af3f16556714086cbf0132df9be68</title>
<g id="a_node13"><a xlink:href="dir_7b8af3f16556714086cbf0132df9be68.html" target="_top" xlink:title="Scene">
<polygon fill="#bcbcbc" stroke="#404040" points="326,-60 272,-60 272,-24 326,-24 326,-60"/>
<text text-anchor="middle" x="299" y="-39.5" font-family="Helvetica,sans-Serif" font-size="10.00">Scene</text>
</a>
</g>
</g>
<!-- dir_2f3e24ba25fd4bc50fd83736edae46b8 -->
<g id="node14" class="node">
<title>dir_2f3e24ba25fd4bc50fd83736edae46b8</title>
<g id="a_node14"><a xlink:href="dir_2f3e24ba25fd4bc50fd83736edae46b8.html" target="_top" xlink:title="ScriptingEngine">
<polygon fill="#bcbcbc" stroke="#404040" points="253.5,-60 168.5,-60 168.5,-24 253.5,-24 253.5,-60"/>
<text text-anchor="middle" x="211" y="-39.5" font-family="Helvetica,sans-Serif" font-size="10.00">ScriptingEngine</text>
</a>
</g>
</g>
<!-- dir_bfb677afeaae738cbbbea737fe2798a8 -->
<g id="node15" class="node">
<title>dir_bfb677afeaae738cbbbea737fe2798a8</title>
<g id="a_node15"><a xlink:href="dir_bfb677afeaae738cbbbea737fe2798a8.html" target="_top" xlink:title="Sound">
<polygon fill="#bcbcbc" stroke="#404040" points="150,-60 96,-60 96,-24 150,-24 150,-60"/>
<text text-anchor="middle" x="123" y="-39.5" font-family="Helvetica,sans-Serif" font-size="10.00">Sound</text>
</a>
</g>
</g>
<!-- dir_45abc721adbfd16d0d163c90021cb48d -->
<g id="node16" class="node">
<title>dir_45abc721adbfd16d0d163c90021cb48d</title>
<g id="a_node16"><a xlink:href="dir_45abc721adbfd16d0d163c90021cb48d.html" target="_top" xlink:title="Utility">
<polygon fill="#bcbcbc" stroke="#404040" points="78,-60 24,-60 24,-24 78,-24 78,-60"/>
<text text-anchor="middle" x="51" y="-39.5" font-family="Helvetica,sans-Serif" font-size="10.00">Utility</text>
</a>
</g>
</g>
</g>
</svg>
