<?xml version="1.0" encoding="UTF-8" standalone="no"?>
<!DOCTYPE svg PUBLIC "-//W3C//DTD SVG 1.1//EN"
 "http://www.w3.org/Graphics/SVG/1.1/DTD/svg11.dtd">
<!-- Generated by graphviz version 3.0.0 (20220226.1711)
 -->
<!-- Title: System Pages: 1 -->
<svg width="159pt" height="175pt"
 viewBox="0.00 0.00 159.00 175.00" xmlns="http://www.w3.org/2000/svg" xmlns:xlink="http://www.w3.org/1999/xlink">
<g id="graph0" class="graph" transform="scale(1 1) rotate(0) translate(4 171)">
<title>System</title>
<!-- Node3 -->
<g id="node1" class="node">
<title>Node3</title>
<g id="a_node1"><a xlink:href="group___filesystem.html" target="_top" xlink:title=" ">
<polygon fill="none" stroke="black" points="151,-167 86,-167 86,-148 151,-148 151,-167"/>
<text text-anchor="middle" x="118.5" y="-155" font-family="Helvetica,sans-Serif" font-size="10.00">Filesystem</text>
</a>
</g>
</g>
<!-- Node4 -->
<g id="node2" class="node">
<title>Node4</title>
<g id="a_node2"><a xlink:href="group___hardware.html" target="_top" xlink:title=" ">
<polygon fill="none" stroke="black" points="147,-130 90,-130 90,-111 147,-111 147,-130"/>
<text text-anchor="middle" x="118.5" y="-118" font-family="Helvetica,sans-Serif" font-size="10.00">Hardware</text>
</a>
</g>
</g>
<!-- Node2 -->
<g id="node3" class="node">
<title>Node2</title>
<g id="a_node3"><a xlink:href="group___paths.html" target="_top" xlink:title=" ">
<polygon fill="none" stroke="black" points="139.5,-93 97.5,-93 97.5,-74 139.5,-74 139.5,-93"/>
<text text-anchor="middle" x="118.5" y="-81" font-family="Helvetica,sans-Serif" font-size="10.00">Paths</text>
</a>
</g>
</g>
<!-- Node5 -->
<g id="node4" class="node">
<title>Node5</title>
<g id="a_node4"><a xlink:href="group___screen.html" target="_top" xlink:title=" ">
<polygon fill="none" stroke="black" points="142,-56 95,-56 95,-37 142,-37 142,-56"/>
<text text-anchor="middle" x="118.5" y="-44" font-family="Helvetica,sans-Serif" font-size="10.00">Screen</text>
</a>
</g>
</g>
<!-- Node1 -->
<g id="node5" class="node">
<title>Node1</title>
<g id="a_node5"><a xlink:title=" ">
<polygon fill="#bfbfbf" stroke="black" points="50,-93 0,-93 0,-74 50,-74 50,-93"/>
<text text-anchor="middle" x="25" y="-81" font-family="Helvetica,sans-Serif" font-size="10.00">System</text>
</a>
</g>
</g>
<!-- Node1&#45;&gt;Node3 -->
<g id="edge2" class="edge">
<title>Node1&#45;&gt;Node3</title>
<path fill="none" stroke="black" d="M42.37,-100.76C53.94,-112.45 70.16,-127.82 86,-139.5 90.06,-142.49 94.65,-145.37 99.06,-147.91"/>
<polygon fill="black" stroke="black" points="44.64,-98.08 35.16,-93.35 39.63,-102.96 44.64,-98.08"/>
</g>
<!-- Node1&#45;&gt;Node4 -->
<g id="edge3" class="edge">
<title>Node1&#45;&gt;Node4</title>
<path fill="none" stroke="black" d="M58.88,-96.8C70.39,-101.45 83.08,-106.58 93.7,-110.88"/>
<polygon fill="black" stroke="black" points="60.15,-93.53 49.56,-93.03 57.52,-100.02 60.15,-93.53"/>
</g>
<!-- Node1&#45;&gt;Node2 -->
<g id="edge1" class="edge">
<title>Node1&#45;&gt;Node2</title>
<path fill="none" stroke="black" d="M60.17,-83.5C72.68,-83.5 86.43,-83.5 97.33,-83.5"/>
<polygon fill="black" stroke="black" points="60.04,-80 50.04,-83.5 60.04,-87 60.04,-80"/>
</g>
<!-- Node1&#45;&gt;Node5 -->
<g id="edge4" class="edge">
<title>Node1&#45;&gt;Node5</title>
<path fill="none" stroke="black" d="M59.18,-70.08C71.07,-65.27 84.19,-59.97 94.96,-55.61"/>
<polygon fill="black" stroke="black" points="57.52,-66.98 49.56,-73.97 60.15,-73.47 57.52,-66.98"/>
</g>
<!-- Node6 -->
<g id="node6" class="node">
<title>Node6</title>
<g id="a_node6"><a xlink:href="group___timing.html" target="_top" xlink:title=" ">
<polygon fill="none" stroke="black" points="141,-19 96,-19 96,0 141,0 141,-19"/>
<text text-anchor="middle" x="118.5" y="-7" font-family="Helvetica,sans-Serif" font-size="10.00">Timing</text>
</a>
</g>
</g>
<!-- Node1&#45;&gt;Node6 -->
<g id="edge5" class="edge">
<title>Node1&#45;&gt;Node6</title>
<path fill="none" stroke="black" d="M42.51,-66.69C54.14,-55.28 70.37,-40.19 86,-28.5 90.4,-25.21 95.4,-21.99 100.09,-19.15"/>
<polygon fill="black" stroke="black" points="39.87,-64.38 35.25,-73.92 44.81,-69.34 39.87,-64.38"/>
</g>
</g>
</svg>
