<?xml version="1.0" encoding="UTF-8" standalone="no"?>
<!DOCTYPE svg PUBLIC "-//W3C//DTD SVG 1.1//EN"
 "http://www.w3.org/Graphics/SVG/1.1/DTD/svg11.dtd">
<!-- Generated by graphviz version 3.0.0 (20220226.1711)
 -->
<!-- Title: Graphical Class Hierarchy Pages: 1 -->
<svg width="432pt" height="66pt"
 viewBox="0.00 0.00 432.00 66.00" xmlns="http://www.w3.org/2000/svg" xmlns:xlink="http://www.w3.org/1999/xlink">
<g id="graph0" class="graph" transform="scale(1 1) rotate(0) translate(4 62)">
<title>Graphical Class Hierarchy</title>
<!-- Node0 -->
<g id="node1" class="node">
<title>Node0</title>
<g id="a_node1"><a xlink:href="class_r_o_f_l_1_1_object_base.html" target="_top" xlink:title=" ">
<polygon fill="none" stroke="black" points="0,-19.5 0,-38.5 99,-38.5 99,-19.5 0,-19.5"/>
<text text-anchor="middle" x="49.5" y="-26.5" font-family="Helvetica,sans-Serif" font-size="10.00">ROFL::ObjectBase</text>
</a>
</g>
</g>
<!-- Node1 -->
<g id="node2" class="node">
<title>Node1</title>
<g id="a_node2"><a xlink:href="class_r_o_f_l_1_1_object_dynamic.html" target="_top" xlink:title=" ">
<polygon fill="none" stroke="black" points="135,-38.5 135,-57.5 250,-57.5 250,-38.5 135,-38.5"/>
<text text-anchor="middle" x="192.5" y="-45.5" font-family="Helvetica,sans-Serif" font-size="10.00">ROFL::ObjectDynamic</text>
</a>
</g>
</g>
<!-- Node0&#45;&gt;Node1 -->
<g id="edge1" class="edge">
<title>Node0&#45;&gt;Node1</title>
<path fill="none" stroke="midnightblue" d="M109.15,-36.9C117.58,-38.04 126.24,-39.21 134.63,-40.34"/>
<polygon fill="midnightblue" stroke="midnightblue" points="109.4,-33.41 99.02,-35.54 108.47,-40.34 109.4,-33.41"/>
</g>
<!-- Node3 -->
<g id="node4" class="node">
<title>Node3</title>
<g id="a_node4"><a xlink:href="class_r_o_f_l_1_1_object_static.html" target="_top" xlink:title=" ">
<polygon fill="none" stroke="black" points="141.5,-0.5 141.5,-19.5 243.5,-19.5 243.5,-0.5 141.5,-0.5"/>
<text text-anchor="middle" x="192.5" y="-7.5" font-family="Helvetica,sans-Serif" font-size="10.00">ROFL::ObjectStatic</text>
</a>
</g>
</g>
<!-- Node0&#45;&gt;Node3 -->
<g id="edge3" class="edge">
<title>Node0&#45;&gt;Node3</title>
<path fill="none" stroke="midnightblue" d="M109.16,-21.1C119.89,-19.65 131,-18.15 141.45,-16.74"/>
<polygon fill="midnightblue" stroke="midnightblue" points="108.47,-17.66 99.02,-22.46 109.4,-24.59 108.47,-17.66"/>
</g>
<!-- Node2 -->
<g id="node3" class="node">
<title>Node2</title>
<g id="a_node3"><a xlink:href="class_r_o_f_l_1_1_light_source_dynamic.html" target="_top" xlink:title=" ">
<polygon fill="none" stroke="black" points="286,-38.5 286,-57.5 424,-57.5 424,-38.5 286,-38.5"/>
<text text-anchor="middle" x="355" y="-45.5" font-family="Helvetica,sans-Serif" font-size="10.00">ROFL::LightSourceDynamic</text>
</a>
</g>
</g>
<!-- Node1&#45;&gt;Node2 -->
<g id="edge2" class="edge">
<title>Node1&#45;&gt;Node2</title>
<path fill="none" stroke="midnightblue" d="M260.26,-48C268.7,-48 277.35,-48 285.82,-48"/>
<polygon fill="midnightblue" stroke="midnightblue" points="260.09,-44.5 250.09,-48 260.09,-51.5 260.09,-44.5"/>
</g>
<!-- Node4 -->
<g id="node5" class="node">
<title>Node4</title>
<g id="a_node5"><a xlink:href="class_r_o_f_l_1_1_light_source_static.html" target="_top" xlink:title=" ">
<polygon fill="none" stroke="black" points="292.5,-0.5 292.5,-19.5 417.5,-19.5 417.5,-0.5 292.5,-0.5"/>
<text text-anchor="middle" x="355" y="-7.5" font-family="Helvetica,sans-Serif" font-size="10.00">ROFL::LightSourceStatic</text>
</a>
</g>
</g>
<!-- Node3&#45;&gt;Node4 -->
<g id="edge4" class="edge">
<title>Node3&#45;&gt;Node4</title>
<path fill="none" stroke="midnightblue" d="M254.13,-10C266.61,-10 279.76,-10 292.27,-10"/>
<polygon fill="midnightblue" stroke="midnightblue" points="253.84,-6.5 243.84,-10 253.84,-13.5 253.84,-6.5"/>
</g>
</g>
</svg>
