<?xml version="1.0" encoding="UTF-8" standalone="no"?>
<!DOCTYPE svg PUBLIC "-//W3C//DTD SVG 1.1//EN"
 "http://www.w3.org/Graphics/SVG/1.1/DTD/svg11.dtd">
<!-- Generated by graphviz version 3.0.0 (20220226.1711)
 -->
<!-- Title: Graphical Class Hierarchy Pages: 1 -->
<svg width="210pt" height="66pt"
 viewBox="0.00 0.00 210.00 66.00" xmlns="http://www.w3.org/2000/svg" xmlns:xlink="http://www.w3.org/1999/xlink">
<g id="graph0" class="graph" transform="scale(1 1) rotate(0) translate(4 62)">
<title>Graphical Class Hierarchy</title>
<!-- Node0 -->
<g id="node1" class="node">
<title>Node0</title>
<g id="a_node1"><a xlink:href="class_r_o_f_l_1_1_device.html" target="_top" xlink:title=" ">
<polygon fill="none" stroke="black" points="0,-19.5 0,-38.5 77,-38.5 77,-19.5 0,-19.5"/>
<text text-anchor="middle" x="38.5" y="-26.5" font-family="Helvetica,sans-Serif" font-size="10.00">ROFL::Device</text>
</a>
</g>
</g>
<!-- Node1 -->
<g id="node2" class="node">
<title>Node1</title>
<g id="a_node2"><a xlink:href="class_r_o_f_l_1_1_controller.html" target="_top" xlink:title=" ">
<polygon fill="none" stroke="black" points="113,-38.5 113,-57.5 202,-57.5 202,-38.5 113,-38.5"/>
<text text-anchor="middle" x="157.5" y="-45.5" font-family="Helvetica,sans-Serif" font-size="10.00">ROFL::Controller</text>
</a>
</g>
</g>
<!-- Node0&#45;&gt;Node1 -->
<g id="edge1" class="edge">
<title>Node0&#45;&gt;Node1</title>
<path fill="none" stroke="midnightblue" d="M87.26,-36.76C95.71,-38.13 104.47,-39.55 112.8,-40.9"/>
<polygon fill="midnightblue" stroke="midnightblue" points="87.6,-33.26 77.16,-35.12 86.47,-40.17 87.6,-33.26"/>
</g>
<!-- Node2 -->
<g id="node3" class="node">
<title>Node2</title>
<g id="a_node3"><a xlink:href="class_r_o_f_l_1_1_joystick.html" target="_top" xlink:title=" ">
<polygon fill="none" stroke="black" points="115.5,-0.5 115.5,-19.5 199.5,-19.5 199.5,-0.5 115.5,-0.5"/>
<text text-anchor="middle" x="157.5" y="-7.5" font-family="Helvetica,sans-Serif" font-size="10.00">ROFL::Joystick</text>
</a>
</g>
</g>
<!-- Node0&#45;&gt;Node2 -->
<g id="edge2" class="edge">
<title>Node0&#45;&gt;Node2</title>
<path fill="none" stroke="#8b1a1a" d="M87.1,-21.27C96.43,-19.75 106.16,-18.18 115.26,-16.7"/>
<polygon fill="#8b1a1a" stroke="#8b1a1a" points="86.47,-17.83 77.16,-22.88 87.6,-24.74 86.47,-17.83"/>
</g>
</g>
</svg>
