<?xml version="1.0" encoding="UTF-8" standalone="no"?>
<!DOCTYPE svg PUBLIC "-//W3C//DTD SVG 1.1//EN"
 "http://www.w3.org/Graphics/SVG/1.1/DTD/svg11.dtd">
<!-- Generated by graphviz version 3.0.0 (20220226.1711)
 -->
<!-- Title: Graphical Class Hierarchy Pages: 1 -->
<svg width="603pt" height="420pt"
 viewBox="0.00 0.00 603.00 419.50" xmlns="http://www.w3.org/2000/svg" xmlns:xlink="http://www.w3.org/1999/xlink">
<g id="graph0" class="graph" transform="scale(1 1) rotate(0) translate(4 415.5)">
<title>Graphical Class Hierarchy</title>
<!-- Node0 -->
<g id="node1" class="node">
<title>Node0</title>
<g id="a_node1"><a xlink:href="class_r_o_f_l_1_1_generic.html" target="_top" xlink:title=" ">
<polygon fill="none" stroke="black" points="0,-133.5 0,-152.5 82,-152.5 82,-133.5 0,-133.5"/>
<text text-anchor="middle" x="41" y="-140.5" font-family="Helvetica,sans-Serif" font-size="10.00">ROFL::Generic</text>
</a>
</g>
</g>
<!-- Node1 -->
<g id="node2" class="node">
<title>Node1</title>
<g id="a_node2"><a xlink:href="struct_r_o_f_l_1_1_component.html" target="_top" xlink:title=" ">
<polygon fill="none" stroke="black" points="118,-266.5 118,-285.5 216,-285.5 216,-266.5 118,-266.5"/>
<text text-anchor="middle" x="167" y="-273.5" font-family="Helvetica,sans-Serif" font-size="10.00">ROFL::Component</text>
</a>
</g>
</g>
<!-- Node0&#45;&gt;Node1 -->
<g id="edge1" class="edge">
<title>Node0&#45;&gt;Node1</title>
<path fill="none" stroke="midnightblue" d="M50.13,-161.82C61.79,-186.78 85.48,-230.71 118,-257 122.67,-260.78 128.18,-263.88 133.78,-266.4"/>
<polygon fill="midnightblue" stroke="midnightblue" points="53.31,-160.36 46.01,-152.69 46.93,-163.24 53.31,-160.36"/>
</g>
<!-- Node12 -->
<g id="node13" class="node">
<title>Node12</title>
<g id="a_node13"><a xlink:href="class_r_o_f_l_1_1_cursor.html" target="_top" xlink:title=" ">
<polygon fill="none" stroke="black" points="128.5,-228.5 128.5,-247.5 205.5,-247.5 205.5,-228.5 128.5,-228.5"/>
<text text-anchor="middle" x="167" y="-235.5" font-family="Helvetica,sans-Serif" font-size="10.00">ROFL::Cursor</text>
</a>
</g>
</g>
<!-- Node0&#45;&gt;Node12 -->
<g id="edge12" class="edge">
<title>Node0&#45;&gt;Node12</title>
<path fill="none" stroke="midnightblue" d="M55.95,-160.64C70.07,-177.53 93.3,-202.77 118,-219 123.62,-222.69 130.06,-225.85 136.37,-228.47"/>
<polygon fill="midnightblue" stroke="midnightblue" points="58.47,-158.2 49.43,-152.67 53.05,-162.63 58.47,-158.2"/>
</g>
<!-- Node13 -->
<g id="node14" class="node">
<title>Node13</title>
<g id="a_node14"><a xlink:href="class_r_o_f_l_1_1_error.html" target="_top" xlink:title=" ">
<polygon fill="none" stroke="black" points="132.5,-190.5 132.5,-209.5 201.5,-209.5 201.5,-190.5 132.5,-190.5"/>
<text text-anchor="middle" x="167" y="-197.5" font-family="Helvetica,sans-Serif" font-size="10.00">ROFL::Error</text>
</a>
</g>
</g>
<!-- Node0&#45;&gt;Node13 -->
<g id="edge13" class="edge">
<title>Node0&#45;&gt;Node13</title>
<path fill="none" stroke="midnightblue" d="M68.8,-157.11C83.23,-164.53 101.43,-173.59 118,-181 125.2,-184.22 133.12,-187.47 140.42,-190.35"/>
<polygon fill="midnightblue" stroke="midnightblue" points="70.4,-154 59.91,-152.51 67.18,-160.21 70.4,-154"/>
</g>
<!-- Node14 -->
<g id="node15" class="node">
<title>Node14</title>
<g id="a_node15"><a xlink:href="class_r_o_f_l_1_1_font.html" target="_top" xlink:title=" ">
<polygon fill="none" stroke="black" points="133,-152.5 133,-171.5 201,-171.5 201,-152.5 133,-152.5"/>
<text text-anchor="middle" x="167" y="-159.5" font-family="Helvetica,sans-Serif" font-size="10.00">ROFL::Font</text>
</a>
</g>
</g>
<!-- Node0&#45;&gt;Node14 -->
<g id="edge14" class="edge">
<title>Node0&#45;&gt;Node14</title>
<path fill="none" stroke="midnightblue" d="M92.5,-150.74C106.15,-152.83 120.56,-155.04 132.98,-156.94"/>
<polygon fill="midnightblue" stroke="midnightblue" points="92.67,-147.22 82.26,-149.17 91.61,-154.14 92.67,-147.22"/>
</g>
<!-- Node15 -->
<g id="node16" class="node">
<title>Node15</title>
<g id="a_node16"><a xlink:href="class_r_o_f_l_1_1_script.html" target="_top" xlink:title=" ">
<polygon fill="none" stroke="black" points="130,-114.5 130,-133.5 204,-133.5 204,-114.5 130,-114.5"/>
<text text-anchor="middle" x="167" y="-121.5" font-family="Helvetica,sans-Serif" font-size="10.00">ROFL::Script</text>
</a>
</g>
</g>
<!-- Node0&#45;&gt;Node15 -->
<g id="edge15" class="edge">
<title>Node0&#45;&gt;Node15</title>
<path fill="none" stroke="midnightblue" d="M92.15,-135.32C104.72,-133.39 117.97,-131.36 129.71,-129.56"/>
<polygon fill="midnightblue" stroke="midnightblue" points="91.61,-131.86 82.26,-136.83 92.67,-138.78 91.61,-131.86"/>
</g>
<!-- Node16 -->
<g id="node17" class="node">
<title>Node16</title>
<g id="a_node17"><a xlink:href="class_r_o_f_l_1_1_sound_cue.html" target="_top" xlink:title=" ">
<polygon fill="none" stroke="black" points="120.5,-76.5 120.5,-95.5 213.5,-95.5 213.5,-76.5 120.5,-76.5"/>
<text text-anchor="middle" x="167" y="-83.5" font-family="Helvetica,sans-Serif" font-size="10.00">ROFL::SoundCue</text>
</a>
</g>
</g>
<!-- Node0&#45;&gt;Node16 -->
<g id="edge16" class="edge">
<title>Node0&#45;&gt;Node16</title>
<path fill="none" stroke="midnightblue" d="M68.8,-128.89C83.23,-121.47 101.43,-112.41 118,-105 125.2,-101.78 133.12,-98.53 140.42,-95.65"/>
<polygon fill="midnightblue" stroke="midnightblue" points="67.18,-125.79 59.91,-133.49 70.4,-132 67.18,-125.79"/>
</g>
<!-- Node17 -->
<g id="node18" class="node">
<title>Node17</title>
<g id="a_node18"><a xlink:href="class_r_o_f_l_1_1_texture.html" target="_top" xlink:title=" ">
<polygon fill="none" stroke="black" points="127,-38.5 127,-57.5 207,-57.5 207,-38.5 127,-38.5"/>
<text text-anchor="middle" x="167" y="-45.5" font-family="Helvetica,sans-Serif" font-size="10.00">ROFL::Texture</text>
</a>
</g>
</g>
<!-- Node0&#45;&gt;Node17 -->
<g id="edge17" class="edge">
<title>Node0&#45;&gt;Node17</title>
<path fill="none" stroke="midnightblue" d="M55.95,-125.36C70.07,-108.47 93.3,-83.23 118,-67 123.62,-63.31 130.06,-60.15 136.37,-57.53"/>
<polygon fill="midnightblue" stroke="midnightblue" points="53.05,-123.37 49.43,-133.33 58.47,-127.8 53.05,-123.37"/>
</g>
<!-- Node18 -->
<g id="node19" class="node">
<title>Node18</title>
<g id="a_node19"><a xlink:href="class_r_o_f_l_1_1_video.html" target="_top" xlink:title=" ">
<polygon fill="none" stroke="black" points="130.5,-0.5 130.5,-19.5 203.5,-19.5 203.5,-0.5 130.5,-0.5"/>
<text text-anchor="middle" x="167" y="-7.5" font-family="Helvetica,sans-Serif" font-size="10.00">ROFL::Video</text>
</a>
</g>
</g>
<!-- Node0&#45;&gt;Node18 -->
<g id="edge18" class="edge">
<title>Node0&#45;&gt;Node18</title>
<path fill="none" stroke="midnightblue" d="M50.13,-124.18C61.79,-99.22 85.48,-55.29 118,-29 122.67,-25.22 128.18,-22.12 133.78,-19.6"/>
<polygon fill="midnightblue" stroke="midnightblue" points="46.93,-122.76 46.01,-133.31 53.31,-125.64 46.93,-122.76"/>
</g>
<!-- Node2 -->
<g id="node3" class="node">
<title>Node2</title>
<g id="a_node3"><a xlink:href="struct_r_o_f_l_1_1_animation_controller_component.html" target="_top" xlink:title=" ">
<polygon fill="none" stroke="black" points="256.5,-381 256.5,-411 389.5,-411 389.5,-381 256.5,-381"/>
<text text-anchor="start" x="264.5" y="-399" font-family="Helvetica,sans-Serif" font-size="10.00">ROFL::AnimationController</text>
<text text-anchor="middle" x="323" y="-388" font-family="Helvetica,sans-Serif" font-size="10.00">Component</text>
</a>
</g>
</g>
<!-- Node1&#45;&gt;Node2 -->
<g id="edge2" class="edge">
<title>Node1&#45;&gt;Node2</title>
<path fill="none" stroke="midnightblue" d="M179.61,-293.91C194.17,-315.07 221.03,-350.04 252,-371 257.56,-374.76 263.75,-378.03 270.08,-380.84"/>
<polygon fill="midnightblue" stroke="midnightblue" points="182.46,-291.87 173.98,-285.51 176.64,-295.77 182.46,-291.87"/>
</g>
<!-- Node3 -->
<g id="node4" class="node">
<title>Node3</title>
<g id="a_node4"><a xlink:href="struct_r_o_f_l_1_1_audio_component.html" target="_top" xlink:title=" ">
<polygon fill="none" stroke="black" points="262,-342.5 262,-361.5 384,-361.5 384,-342.5 262,-342.5"/>
<text text-anchor="middle" x="323" y="-349.5" font-family="Helvetica,sans-Serif" font-size="10.00">ROFL::AudioComponent</text>
</a>
</g>
</g>
<!-- Node1&#45;&gt;Node3 -->
<g id="edge3" class="edge">
<title>Node1&#45;&gt;Node3</title>
<path fill="none" stroke="midnightblue" d="M187.69,-292.15C204.04,-304.84 228.35,-322.14 252,-333 260.12,-336.73 269.13,-339.86 277.9,-342.42"/>
<polygon fill="midnightblue" stroke="midnightblue" points="189.5,-289.11 179.49,-285.64 185.15,-294.6 189.5,-289.11"/>
</g>
<!-- Node4 -->
<g id="node5" class="node">
<title>Node4</title>
<g id="a_node5"><a xlink:href="struct_r_o_f_l_1_1_camera_component.html" target="_top" xlink:title=" ">
<polygon fill="none" stroke="black" points="257.5,-304.5 257.5,-323.5 388.5,-323.5 388.5,-304.5 257.5,-304.5"/>
<text text-anchor="middle" x="323" y="-311.5" font-family="Helvetica,sans-Serif" font-size="10.00">ROFL::CameraComponent</text>
</a>
</g>
</g>
<!-- Node1&#45;&gt;Node4 -->
<g id="edge4" class="edge">
<title>Node1&#45;&gt;Node4</title>
<path fill="none" stroke="midnightblue" d="M216.79,-288.04C238.31,-293.35 263.23,-299.5 283.42,-304.48"/>
<polygon fill="midnightblue" stroke="midnightblue" points="217.41,-284.59 206.86,-285.59 215.73,-291.38 217.41,-284.59"/>
</g>
<!-- Node5 -->
<g id="node6" class="node">
<title>Node5</title>
<g id="a_node6"><a xlink:href="struct_r_o_f_l_1_1_collider_component.html" target="_top" xlink:title=" ">
<polygon fill="none" stroke="black" points="258,-266.5 258,-285.5 388,-285.5 388,-266.5 258,-266.5"/>
<text text-anchor="middle" x="323" y="-273.5" font-family="Helvetica,sans-Serif" font-size="10.00">ROFL::ColliderComponent</text>
</a>
</g>
</g>
<!-- Node1&#45;&gt;Node5 -->
<g id="edge5" class="edge">
<title>Node1&#45;&gt;Node5</title>
<path fill="none" stroke="midnightblue" d="M226.38,-276C236.63,-276 247.36,-276 257.77,-276"/>
<polygon fill="midnightblue" stroke="midnightblue" points="226.3,-272.5 216.3,-276 226.3,-279.5 226.3,-272.5"/>
</g>
<!-- Node9 -->
<g id="node10" class="node">
<title>Node9</title>
<g id="a_node10"><a xlink:href="struct_r_o_f_l_1_1_rigid_body_component.html" target="_top" xlink:title=" ">
<polygon fill="none" stroke="black" points="252,-228.5 252,-247.5 394,-247.5 394,-228.5 252,-228.5"/>
<text text-anchor="middle" x="323" y="-235.5" font-family="Helvetica,sans-Serif" font-size="10.00">ROFL::RigidBodyComponent</text>
</a>
</g>
</g>
<!-- Node1&#45;&gt;Node9 -->
<g id="edge9" class="edge">
<title>Node1&#45;&gt;Node9</title>
<path fill="none" stroke="midnightblue" d="M216.79,-263.96C238.31,-258.65 263.23,-252.5 283.42,-247.52"/>
<polygon fill="midnightblue" stroke="midnightblue" points="215.73,-260.62 206.86,-266.41 217.41,-267.41 215.73,-260.62"/>
</g>
<!-- Node10 -->
<g id="node11" class="node">
<title>Node10</title>
<g id="a_node11"><a xlink:href="struct_r_o_f_l_1_1_sprite_component.html" target="_top" xlink:title=" ">
<polygon fill="none" stroke="black" points="261.5,-190.5 261.5,-209.5 384.5,-209.5 384.5,-190.5 261.5,-190.5"/>
<text text-anchor="middle" x="323" y="-197.5" font-family="Helvetica,sans-Serif" font-size="10.00">ROFL::SpriteComponent</text>
</a>
</g>
</g>
<!-- Node1&#45;&gt;Node10 -->
<g id="edge10" class="edge">
<title>Node1&#45;&gt;Node10</title>
<path fill="none" stroke="midnightblue" d="M207.25,-262.15C210.3,-260.58 213.25,-258.86 216,-257 235.27,-243.97 232.03,-230.94 252,-219 258.49,-215.12 265.78,-212.02 273.14,-209.54"/>
<polygon fill="midnightblue" stroke="midnightblue" points="205.55,-259.09 197.96,-266.48 208.5,-265.43 205.55,-259.09"/>
</g>
<!-- Node11 -->
<g id="node12" class="node">
<title>Node11</title>
<g id="a_node12"><a xlink:href="struct_r_o_f_l_1_1_transform_component.html" target="_top" xlink:title=" ">
<polygon fill="none" stroke="black" points="253,-152.5 253,-171.5 393,-171.5 393,-152.5 253,-152.5"/>
<text text-anchor="middle" x="323" y="-159.5" font-family="Helvetica,sans-Serif" font-size="10.00">ROFL::TransformComponent</text>
</a>
</g>
</g>
<!-- Node1&#45;&gt;Node11 -->
<g id="edge11" class="edge">
<title>Node1&#45;&gt;Node11</title>
<path fill="none" stroke="midnightblue" d="M210.68,-261.28C212.56,-259.97 214.35,-258.54 216,-257 243.28,-231.45 223.34,-204.98 252,-181 256.64,-177.12 261.99,-174.03 267.64,-171.56"/>
<polygon fill="midnightblue" stroke="midnightblue" points="208.83,-258.31 201.93,-266.35 212.34,-264.36 208.83,-258.31"/>
</g>
<!-- Node6 -->
<g id="node7" class="node">
<title>Node6</title>
<g id="a_node7"><a xlink:href="struct_r_o_f_l_1_1_box_collider_component.html" target="_top" xlink:title=" ">
<polygon fill="none" stroke="black" points="439,-304.5 439,-323.5 586,-323.5 586,-304.5 439,-304.5"/>
<text text-anchor="middle" x="512.5" y="-311.5" font-family="Helvetica,sans-Serif" font-size="10.00">ROFL::BoxColliderComponent</text>
</a>
</g>
</g>
<!-- Node5&#45;&gt;Node6 -->
<g id="edge6" class="edge">
<title>Node5&#45;&gt;Node6</title>
<path fill="none" stroke="midnightblue" d="M381.28,-287.61C407.95,-293.01 439.28,-299.36 464.53,-304.48"/>
<polygon fill="midnightblue" stroke="midnightblue" points="381.81,-284.15 371.31,-285.59 380.42,-291.01 381.81,-284.15"/>
</g>
<!-- Node7 -->
<g id="node8" class="node">
<title>Node7</title>
<g id="a_node8"><a xlink:href="struct_r_o_f_l_1_1_circle_collider_component.html" target="_top" xlink:title=" ">
<polygon fill="none" stroke="black" points="435,-266.5 435,-285.5 590,-285.5 590,-266.5 435,-266.5"/>
<text text-anchor="middle" x="512.5" y="-273.5" font-family="Helvetica,sans-Serif" font-size="10.00">ROFL::CircleColliderComponent</text>
</a>
</g>
</g>
<!-- Node5&#45;&gt;Node7 -->
<g id="edge7" class="edge">
<title>Node5&#45;&gt;Node7</title>
<path fill="none" stroke="midnightblue" d="M398.03,-276C410.13,-276 422.68,-276 434.83,-276"/>
<polygon fill="midnightblue" stroke="midnightblue" points="398,-272.5 388,-276 398,-279.5 398,-272.5"/>
</g>
<!-- Node8 -->
<g id="node9" class="node">
<title>Node8</title>
<g id="a_node9"><a xlink:href="struct_r_o_f_l_1_1_polygon_collider_component.html" target="_top" xlink:title=" ">
<polygon fill="none" stroke="black" points="430,-228.5 430,-247.5 595,-247.5 595,-228.5 430,-228.5"/>
<text text-anchor="middle" x="512.5" y="-235.5" font-family="Helvetica,sans-Serif" font-size="10.00">ROFL::PolygonColliderComponent</text>
</a>
</g>
</g>
<!-- Node5&#45;&gt;Node8 -->
<g id="edge8" class="edge">
<title>Node5&#45;&gt;Node8</title>
<path fill="none" stroke="midnightblue" d="M381.28,-264.39C407.95,-258.99 439.28,-252.64 464.53,-247.52"/>
<polygon fill="midnightblue" stroke="midnightblue" points="380.42,-260.99 371.31,-266.41 381.81,-267.85 380.42,-260.99"/>
</g>
</g>
</svg>
