<?xml version="1.0" encoding="UTF-8" standalone="no"?>
<!DOCTYPE svg PUBLIC "-//W3C//DTD SVG 1.1//EN"
 "http://www.w3.org/Graphics/SVG/1.1/DTD/svg11.dtd">
<!-- Generated by graphviz version 3.0.0 (20220226.1711)
 -->
<!-- Title: Graphical Class Hierarchy Pages: 1 -->
<svg width="251pt" height="66pt"
 viewBox="0.00 0.00 251.00 66.00" xmlns="http://www.w3.org/2000/svg" xmlns:xlink="http://www.w3.org/1999/xlink">
<g id="graph0" class="graph" transform="scale(1 1) rotate(0) translate(4 62)">
<title>Graphical Class Hierarchy</title>
<!-- Node0 -->
<g id="node1" class="node">
<title>Node0</title>
<g id="a_node1"><a xlink:href="class_r_o_f_l_1_1_texture_filter.html" target="_top" xlink:title=" ">
<polygon fill="none" stroke="black" points="0,-19.5 0,-38.5 102,-38.5 102,-19.5 0,-19.5"/>
<text text-anchor="middle" x="51" y="-26.5" font-family="Helvetica,sans-Serif" font-size="10.00">ROFL::TextureFilter</text>
</a>
</g>
</g>
<!-- Node1 -->
<g id="node2" class="node">
<title>Node1</title>
<g id="a_node2"><a xlink:href="class_r_o_f_l_1_1_blur_filter.html" target="_top" xlink:title=" ">
<polygon fill="none" stroke="black" points="147,-38.5 147,-57.5 234,-57.5 234,-38.5 147,-38.5"/>
<text text-anchor="middle" x="190.5" y="-45.5" font-family="Helvetica,sans-Serif" font-size="10.00">ROFL::BlurFilter</text>
</a>
</g>
</g>
<!-- Node0&#45;&gt;Node1 -->
<g id="edge1" class="edge">
<title>Node0&#45;&gt;Node1</title>
<path fill="none" stroke="midnightblue" d="M112.21,-37.32C123.93,-38.94 135.98,-40.6 146.98,-42.12"/>
<polygon fill="midnightblue" stroke="midnightblue" points="112.41,-33.82 102.03,-35.91 111.46,-40.75 112.41,-33.82"/>
</g>
<!-- Node2 -->
<g id="node3" class="node">
<title>Node2</title>
<g id="a_node3"><a xlink:href="class_r_o_f_l_1_1_pixelate_filter.html" target="_top" xlink:title=" ">
<polygon fill="none" stroke="black" points="138,-0.5 138,-19.5 243,-19.5 243,-0.5 138,-0.5"/>
<text text-anchor="middle" x="190.5" y="-7.5" font-family="Helvetica,sans-Serif" font-size="10.00">ROFL::PixelateFilter</text>
</a>
</g>
</g>
<!-- Node0&#45;&gt;Node2 -->
<g id="edge2" class="edge">
<title>Node0&#45;&gt;Node2</title>
<path fill="none" stroke="midnightblue" d="M112.03,-20.71C120.65,-19.51 129.45,-18.3 137.89,-17.13"/>
<polygon fill="midnightblue" stroke="midnightblue" points="111.46,-17.25 102.03,-22.09 112.41,-24.18 111.46,-17.25"/>
</g>
</g>
</svg>
