<?xml version="1.0" encoding="UTF-8" standalone="no"?>
<!DOCTYPE svg PUBLIC "-//W3C//DTD SVG 1.1//EN"
 "http://www.w3.org/Graphics/SVG/1.1/DTD/svg11.dtd">
<!-- Generated by graphviz version 3.0.0 (20220226.1711)
 -->
<!-- Title: Graphical Class Hierarchy Pages: 1 -->
<svg width="240pt" height="104pt"
 viewBox="0.00 0.00 240.00 104.00" xmlns="http://www.w3.org/2000/svg" xmlns:xlink="http://www.w3.org/1999/xlink">
<g id="graph0" class="graph" transform="scale(1 1) rotate(0) translate(4 100)">
<title>Graphical Class Hierarchy</title>
<!-- Node0 -->
<g id="node1" class="node">
<title>Node0</title>
<g id="a_node1"><a xlink:href="struct_r_o_f_l_1_1_collider.html" target="_top" xlink:title=" ">
<polygon fill="none" stroke="black" points="0,-38.5 0,-57.5 80,-57.5 80,-38.5 0,-38.5"/>
<text text-anchor="middle" x="40" y="-45.5" font-family="Helvetica,sans-Serif" font-size="10.00">ROFL::Collider</text>
</a>
</g>
</g>
<!-- Node1 -->
<g id="node2" class="node">
<title>Node1</title>
<g id="a_node2"><a xlink:href="class_r_o_f_l_1_1_a_a_b_b_collider.html" target="_top" xlink:title=" ">
<polygon fill="none" stroke="black" points="120.5,-76.5 120.5,-95.5 227.5,-95.5 227.5,-76.5 120.5,-76.5"/>
<text text-anchor="middle" x="174" y="-83.5" font-family="Helvetica,sans-Serif" font-size="10.00">ROFL::AABBCollider</text>
</a>
</g>
</g>
<!-- Node0&#45;&gt;Node1 -->
<g id="edge1" class="edge">
<title>Node0&#45;&gt;Node1</title>
<path fill="none" stroke="midnightblue" d="M84.04,-60.39C102.12,-65.59 122.82,-71.55 139.7,-76.41"/>
<polygon fill="midnightblue" stroke="midnightblue" points="84.89,-56.99 74.31,-57.59 82.95,-63.72 84.89,-56.99"/>
</g>
<!-- Node2 -->
<g id="node3" class="node">
<title>Node2</title>
<g id="a_node3"><a xlink:href="class_r_o_f_l_1_1_circle_collider.html" target="_top" xlink:title=" ">
<polygon fill="none" stroke="black" points="121.5,-38.5 121.5,-57.5 226.5,-57.5 226.5,-38.5 121.5,-38.5"/>
<text text-anchor="middle" x="174" y="-45.5" font-family="Helvetica,sans-Serif" font-size="10.00">ROFL::CircleCollider</text>
</a>
</g>
</g>
<!-- Node0&#45;&gt;Node2 -->
<g id="edge2" class="edge">
<title>Node0&#45;&gt;Node2</title>
<path fill="none" stroke="midnightblue" d="M90.52,-48C100.62,-48 111.26,-48 121.43,-48"/>
<polygon fill="midnightblue" stroke="midnightblue" points="90.25,-44.5 80.25,-48 90.25,-51.5 90.25,-44.5"/>
</g>
<!-- Node3 -->
<g id="node4" class="node">
<title>Node3</title>
<g id="a_node4"><a xlink:href="class_r_o_f_l_1_1_polygon_collider.html" target="_top" xlink:title=" ">
<polygon fill="none" stroke="black" points="116,-0.5 116,-19.5 232,-19.5 232,-0.5 116,-0.5"/>
<text text-anchor="middle" x="174" y="-7.5" font-family="Helvetica,sans-Serif" font-size="10.00">ROFL::PolygonCollider</text>
</a>
</g>
</g>
<!-- Node0&#45;&gt;Node3 -->
<g id="edge3" class="edge">
<title>Node0&#45;&gt;Node3</title>
<path fill="none" stroke="midnightblue" d="M84.04,-35.61C102.12,-30.41 122.82,-24.45 139.7,-19.59"/>
<polygon fill="midnightblue" stroke="midnightblue" points="82.95,-32.28 74.31,-38.41 84.89,-39.01 82.95,-32.28"/>
</g>
</g>
</svg>
