<?xml version="1.0" encoding="UTF-8" standalone="no"?>
<!DOCTYPE svg PUBLIC "-//W3C//DTD SVG 1.1//EN"
 "http://www.w3.org/Graphics/SVG/1.1/DTD/svg11.dtd">
<!-- Generated by graphviz version 3.0.0 (20220226.1711)
 -->
<!-- Title: Graphical Class Hierarchy Pages: 1 -->
<svg width="603pt" height="496pt"
 viewBox="0.00 0.00 603.00 495.50" xmlns="http://www.w3.org/2000/svg" xmlns:xlink="http://www.w3.org/1999/xlink">
<g id="graph0" class="graph" transform="scale(1 1) rotate(0) translate(4 491.5)">
<title>Graphical Class Hierarchy</title>
<!-- Node0 -->
<g id="node1" class="node">
<title>Node0</title>
<g id="a_node1"><a xlink:href="class_r_o_f_l_1_1_generic.html" target="_top" xlink:title=" ">
<polygon fill="none" stroke="black" points="0,-152.5 0,-171.5 82,-171.5 82,-152.5 0,-152.5"/>
<text text-anchor="middle" x="41" y="-159.5" font-family="Helvetica,sans-Serif" font-size="10.00">ROFL::Generic</text>
</a>
</g>
</g>
<!-- Node1 -->
<g id="node2" class="node">
<title>Node1</title>
<g id="a_node2"><a xlink:href="struct_r_o_f_l_1_1_component.html" target="_top" xlink:title=" ">
<polygon fill="none" stroke="black" points="118,-304.5 118,-323.5 216,-323.5 216,-304.5 118,-304.5"/>
<text text-anchor="middle" x="167" y="-311.5" font-family="Helvetica,sans-Serif" font-size="10.00">ROFL::Component</text>
</a>
</g>
</g>
<!-- Node0&#45;&gt;Node1 -->
<g id="edge1" class="edge">
<title>Node0&#45;&gt;Node1</title>
<path fill="none" stroke="midnightblue" d="M48.4,-181.49C58.73,-210.1 81.65,-263.49 118,-295 122.33,-298.76 127.5,-301.82 132.81,-304.31"/>
<polygon fill="midnightblue" stroke="midnightblue" points="51.64,-180.14 45.06,-171.83 45.02,-182.43 51.64,-180.14"/>
</g>
<!-- Node14 -->
<g id="node15" class="node">
<title>Node14</title>
<g id="a_node15"><a xlink:href="class_r_o_f_l_1_1_cursor.html" target="_top" xlink:title=" ">
<polygon fill="none" stroke="black" points="128.5,-266.5 128.5,-285.5 205.5,-285.5 205.5,-266.5 128.5,-266.5"/>
<text text-anchor="middle" x="167" y="-273.5" font-family="Helvetica,sans-Serif" font-size="10.00">ROFL::Cursor</text>
</a>
</g>
</g>
<!-- Node0&#45;&gt;Node14 -->
<g id="edge14" class="edge">
<title>Node0&#45;&gt;Node14</title>
<path fill="none" stroke="midnightblue" d="M52.6,-180.39C65.58,-201.49 89.42,-235.88 118,-257 123.12,-260.78 129.09,-263.93 135.05,-266.5"/>
<polygon fill="midnightblue" stroke="midnightblue" points="55.55,-178.52 47.42,-171.73 49.55,-182.11 55.55,-178.52"/>
</g>
<!-- Node15 -->
<g id="node16" class="node">
<title>Node15</title>
<g id="a_node16"><a xlink:href="class_r_o_f_l_1_1_error.html" target="_top" xlink:title=" ">
<polygon fill="none" stroke="black" points="132.5,-228.5 132.5,-247.5 201.5,-247.5 201.5,-228.5 132.5,-228.5"/>
<text text-anchor="middle" x="167" y="-235.5" font-family="Helvetica,sans-Serif" font-size="10.00">ROFL::Error</text>
</a>
</g>
</g>
<!-- Node0&#45;&gt;Node15 -->
<g id="edge15" class="edge">
<title>Node0&#45;&gt;Node15</title>
<path fill="none" stroke="midnightblue" d="M61.08,-178.58C75.88,-190.87 97.31,-207.42 118,-219 124.34,-222.55 131.47,-225.75 138.26,-228.47"/>
<polygon fill="midnightblue" stroke="midnightblue" points="63.08,-175.69 53.18,-171.91 58.56,-181.04 63.08,-175.69"/>
</g>
<!-- Node16 -->
<g id="node17" class="node">
<title>Node16</title>
<g id="a_node17"><a xlink:href="class_r_o_f_l_1_1_font.html" target="_top" xlink:title=" ">
<polygon fill="none" stroke="black" points="133,-190.5 133,-209.5 201,-209.5 201,-190.5 133,-190.5"/>
<text text-anchor="middle" x="167" y="-197.5" font-family="Helvetica,sans-Serif" font-size="10.00">ROFL::Font</text>
</a>
</g>
</g>
<!-- Node0&#45;&gt;Node16 -->
<g id="edge16" class="edge">
<title>Node0&#45;&gt;Node16</title>
<path fill="none" stroke="midnightblue" d="M82.9,-174.54C99.77,-179.7 119.01,-185.6 134.72,-190.41"/>
<polygon fill="midnightblue" stroke="midnightblue" points="83.88,-171.17 73.29,-171.59 81.83,-177.87 83.88,-171.17"/>
</g>
<!-- Node17 -->
<g id="node18" class="node">
<title>Node17</title>
<g id="a_node18"><a xlink:href="class_r_o_f_l_1_1_script.html" target="_top" xlink:title=" ">
<polygon fill="none" stroke="black" points="130,-152.5 130,-171.5 204,-171.5 204,-152.5 130,-152.5"/>
<text text-anchor="middle" x="167" y="-159.5" font-family="Helvetica,sans-Serif" font-size="10.00">ROFL::Script</text>
</a>
</g>
</g>
<!-- Node0&#45;&gt;Node17 -->
<g id="edge17" class="edge">
<title>Node0&#45;&gt;Node17</title>
<path fill="none" stroke="midnightblue" d="M92.53,-162C104.98,-162 118.08,-162 129.71,-162"/>
<polygon fill="midnightblue" stroke="midnightblue" points="92.26,-158.5 82.26,-162 92.26,-165.5 92.26,-158.5"/>
</g>
<!-- Node19 -->
<g id="node20" class="node">
<title>Node19</title>
<g id="a_node20"><a xlink:href="class_r_o_f_l_1_1_sound.html" target="_top" xlink:title=" ">
<polygon fill="none" stroke="black" points="129,-114.5 129,-133.5 205,-133.5 205,-114.5 129,-114.5"/>
<text text-anchor="middle" x="167" y="-121.5" font-family="Helvetica,sans-Serif" font-size="10.00">ROFL::Sound</text>
</a>
</g>
</g>
<!-- Node0&#45;&gt;Node19 -->
<g id="edge19" class="edge">
<title>Node0&#45;&gt;Node19</title>
<path fill="none" stroke="midnightblue" d="M82.9,-149.46C99.77,-144.3 119.01,-138.4 134.72,-133.59"/>
<polygon fill="midnightblue" stroke="midnightblue" points="81.83,-146.13 73.29,-152.41 83.88,-152.83 81.83,-146.13"/>
</g>
<!-- Node20 -->
<g id="node21" class="node">
<title>Node20</title>
<g id="a_node21"><a xlink:href="class_r_o_f_l_1_1_sound_cue.html" target="_top" xlink:title=" ">
<polygon fill="none" stroke="black" points="120.5,-76.5 120.5,-95.5 213.5,-95.5 213.5,-76.5 120.5,-76.5"/>
<text text-anchor="middle" x="167" y="-83.5" font-family="Helvetica,sans-Serif" font-size="10.00">ROFL::SoundCue</text>
</a>
</g>
</g>
<!-- Node0&#45;&gt;Node20 -->
<g id="edge20" class="edge">
<title>Node0&#45;&gt;Node20</title>
<path fill="none" stroke="midnightblue" d="M61.08,-145.42C75.88,-133.13 97.31,-116.58 118,-105 124.34,-101.45 131.47,-98.25 138.26,-95.53"/>
<polygon fill="midnightblue" stroke="midnightblue" points="58.56,-142.96 53.18,-152.09 63.08,-148.31 58.56,-142.96"/>
</g>
<!-- Node21 -->
<g id="node22" class="node">
<title>Node21</title>
<g id="a_node22"><a xlink:href="class_r_o_f_l_1_1_texture.html" target="_top" xlink:title=" ">
<polygon fill="none" stroke="black" points="127,-38.5 127,-57.5 207,-57.5 207,-38.5 127,-38.5"/>
<text text-anchor="middle" x="167" y="-45.5" font-family="Helvetica,sans-Serif" font-size="10.00">ROFL::Texture</text>
</a>
</g>
</g>
<!-- Node0&#45;&gt;Node21 -->
<g id="edge21" class="edge">
<title>Node0&#45;&gt;Node21</title>
<path fill="none" stroke="midnightblue" d="M52.6,-143.61C65.58,-122.51 89.42,-88.12 118,-67 123.12,-63.22 129.09,-60.07 135.05,-57.5"/>
<polygon fill="midnightblue" stroke="midnightblue" points="49.55,-141.89 47.42,-152.27 55.55,-145.48 49.55,-141.89"/>
</g>
<!-- Node22 -->
<g id="node23" class="node">
<title>Node22</title>
<g id="a_node23"><a xlink:href="class_r_o_f_l_1_1_video.html" target="_top" xlink:title=" ">
<polygon fill="none" stroke="black" points="130.5,-0.5 130.5,-19.5 203.5,-19.5 203.5,-0.5 130.5,-0.5"/>
<text text-anchor="middle" x="167" y="-7.5" font-family="Helvetica,sans-Serif" font-size="10.00">ROFL::Video</text>
</a>
</g>
</g>
<!-- Node0&#45;&gt;Node22 -->
<g id="edge22" class="edge">
<title>Node0&#45;&gt;Node22</title>
<path fill="none" stroke="midnightblue" d="M48.4,-142.51C58.73,-113.9 81.65,-60.51 118,-29 122.33,-25.24 127.5,-22.18 132.81,-19.69"/>
<polygon fill="midnightblue" stroke="midnightblue" points="45.02,-141.57 45.06,-152.17 51.64,-143.86 45.02,-141.57"/>
</g>
<!-- Node2 -->
<g id="node3" class="node">
<title>Node2</title>
<g id="a_node3"><a xlink:href="struct_r_o_f_l_1_1_animation_controller_component.html" target="_top" xlink:title=" ">
<polygon fill="none" stroke="black" points="256.5,-457 256.5,-487 389.5,-487 389.5,-457 256.5,-457"/>
<text text-anchor="start" x="264.5" y="-475" font-family="Helvetica,sans-Serif" font-size="10.00">ROFL::AnimationController</text>
<text text-anchor="middle" x="323" y="-464" font-family="Helvetica,sans-Serif" font-size="10.00">Component</text>
</a>
</g>
</g>
<!-- Node1&#45;&gt;Node2 -->
<g id="edge2" class="edge">
<title>Node1&#45;&gt;Node2</title>
<path fill="none" stroke="midnightblue" d="M175.32,-333.23C187.18,-361.95 213.25,-415.97 252,-447 256.83,-450.87 262.32,-454.17 268.04,-456.98"/>
<polygon fill="midnightblue" stroke="midnightblue" points="178.42,-331.56 171.47,-323.57 171.92,-334.15 178.42,-331.56"/>
</g>
<!-- Node3 -->
<g id="node4" class="node">
<title>Node3</title>
<g id="a_node4"><a xlink:href="struct_r_o_f_l_1_1_audio_component.html" target="_top" xlink:title=" ">
<polygon fill="none" stroke="black" points="262,-418.5 262,-437.5 384,-437.5 384,-418.5 262,-418.5"/>
<text text-anchor="middle" x="323" y="-425.5" font-family="Helvetica,sans-Serif" font-size="10.00">ROFL::AudioComponent</text>
</a>
</g>
</g>
<!-- Node1&#45;&gt;Node3 -->
<g id="edge3" class="edge">
<title>Node1&#45;&gt;Node3</title>
<path fill="none" stroke="midnightblue" d="M179.34,-332.33C193.64,-353.89 220.23,-389.27 252,-409 258.2,-412.85 265.19,-415.94 272.28,-418.4"/>
<polygon fill="midnightblue" stroke="midnightblue" points="182.18,-330.27 173.82,-323.75 176.29,-334.06 182.18,-330.27"/>
</g>
<!-- Node4 -->
<g id="node5" class="node">
<title>Node4</title>
<g id="a_node5"><a xlink:href="struct_r_o_f_l_1_1_camera_component.html" target="_top" xlink:title=" ">
<polygon fill="none" stroke="black" points="257.5,-380.5 257.5,-399.5 388.5,-399.5 388.5,-380.5 257.5,-380.5"/>
<text text-anchor="middle" x="323" y="-387.5" font-family="Helvetica,sans-Serif" font-size="10.00">ROFL::CameraComponent</text>
</a>
</g>
</g>
<!-- Node1&#45;&gt;Node4 -->
<g id="edge4" class="edge">
<title>Node1&#45;&gt;Node4</title>
<path fill="none" stroke="midnightblue" d="M187.69,-330.15C204.04,-342.84 228.35,-360.14 252,-371 260.12,-374.73 269.13,-377.86 277.9,-380.42"/>
<polygon fill="midnightblue" stroke="midnightblue" points="189.5,-327.11 179.49,-323.64 185.15,-332.6 189.5,-327.11"/>
</g>
<!-- Node5 -->
<g id="node6" class="node">
<title>Node5</title>
<g id="a_node6"><a xlink:href="struct_r_o_f_l_1_1_collider_component.html" target="_top" xlink:title=" ">
<polygon fill="none" stroke="black" points="258,-342.5 258,-361.5 388,-361.5 388,-342.5 258,-342.5"/>
<text text-anchor="middle" x="323" y="-349.5" font-family="Helvetica,sans-Serif" font-size="10.00">ROFL::ColliderComponent</text>
</a>
</g>
</g>
<!-- Node1&#45;&gt;Node5 -->
<g id="edge5" class="edge">
<title>Node1&#45;&gt;Node5</title>
<path fill="none" stroke="midnightblue" d="M216.79,-326.04C238.31,-331.35 263.23,-337.5 283.42,-342.48"/>
<polygon fill="midnightblue" stroke="midnightblue" points="217.41,-322.59 206.86,-323.59 215.73,-329.38 217.41,-322.59"/>
</g>
<!-- Node10 -->
<g id="node11" class="node">
<title>Node10</title>
<g id="a_node11"><a xlink:href="struct_r_o_f_l_1_1_rigid_body_component.html" target="_top" xlink:title=" ">
<polygon fill="none" stroke="black" points="252,-304.5 252,-323.5 394,-323.5 394,-304.5 252,-304.5"/>
<text text-anchor="middle" x="323" y="-311.5" font-family="Helvetica,sans-Serif" font-size="10.00">ROFL::RigidBodyComponent</text>
</a>
</g>
</g>
<!-- Node1&#45;&gt;Node10 -->
<g id="edge10" class="edge">
<title>Node1&#45;&gt;Node10</title>
<path fill="none" stroke="midnightblue" d="M226.31,-314C234.66,-314 243.32,-314 251.87,-314"/>
<polygon fill="midnightblue" stroke="midnightblue" points="226.3,-310.5 216.3,-314 226.3,-317.5 226.3,-310.5"/>
</g>
<!-- Node11 -->
<g id="node12" class="node">
<title>Node11</title>
<g id="a_node12"><a xlink:href="struct_r_o_f_l_1_1_script_component.html" target="_top" xlink:title=" ">
<polygon fill="none" stroke="black" points="261.5,-266.5 261.5,-285.5 384.5,-285.5 384.5,-266.5 261.5,-266.5"/>
<text text-anchor="middle" x="323" y="-273.5" font-family="Helvetica,sans-Serif" font-size="10.00">ROFL::ScriptComponent</text>
</a>
</g>
</g>
<!-- Node1&#45;&gt;Node11 -->
<g id="edge11" class="edge">
<title>Node1&#45;&gt;Node11</title>
<path fill="none" stroke="midnightblue" d="M216.79,-301.96C238.31,-296.65 263.23,-290.5 283.42,-285.52"/>
<polygon fill="midnightblue" stroke="midnightblue" points="215.73,-298.62 206.86,-304.41 217.41,-305.41 215.73,-298.62"/>
</g>
<!-- Node12 -->
<g id="node13" class="node">
<title>Node12</title>
<g id="a_node13"><a xlink:href="struct_r_o_f_l_1_1_sprite_component.html" target="_top" xlink:title=" ">
<polygon fill="none" stroke="black" points="261.5,-228.5 261.5,-247.5 384.5,-247.5 384.5,-228.5 261.5,-228.5"/>
<text text-anchor="middle" x="323" y="-235.5" font-family="Helvetica,sans-Serif" font-size="10.00">ROFL::SpriteComponent</text>
</a>
</g>
</g>
<!-- Node1&#45;&gt;Node12 -->
<g id="edge12" class="edge">
<title>Node1&#45;&gt;Node12</title>
<path fill="none" stroke="midnightblue" d="M207.25,-300.15C210.3,-298.58 213.25,-296.86 216,-295 235.27,-281.97 232.03,-268.94 252,-257 258.49,-253.12 265.78,-250.02 273.14,-247.54"/>
<polygon fill="midnightblue" stroke="midnightblue" points="205.55,-297.09 197.96,-304.48 208.5,-303.43 205.55,-297.09"/>
</g>
<!-- Node13 -->
<g id="node14" class="node">
<title>Node13</title>
<g id="a_node14"><a xlink:href="struct_r_o_f_l_1_1_transform_component.html" target="_top" xlink:title=" ">
<polygon fill="none" stroke="black" points="253,-190.5 253,-209.5 393,-209.5 393,-190.5 253,-190.5"/>
<text text-anchor="middle" x="323" y="-197.5" font-family="Helvetica,sans-Serif" font-size="10.00">ROFL::TransformComponent</text>
</a>
</g>
</g>
<!-- Node1&#45;&gt;Node13 -->
<g id="edge13" class="edge">
<title>Node1&#45;&gt;Node13</title>
<path fill="none" stroke="midnightblue" d="M210.68,-299.28C212.56,-297.97 214.35,-296.54 216,-295 243.28,-269.45 223.34,-242.98 252,-219 256.64,-215.12 261.99,-212.03 267.64,-209.56"/>
<polygon fill="midnightblue" stroke="midnightblue" points="208.83,-296.31 201.93,-304.35 212.34,-302.36 208.83,-296.31"/>
</g>
<!-- Node6 -->
<g id="node7" class="node">
<title>Node6</title>
<g id="a_node7"><a xlink:href="struct_r_o_f_l_1_1_box_collider_component.html" target="_top" xlink:title=" ">
<polygon fill="none" stroke="black" points="439,-399.5 439,-418.5 586,-418.5 586,-399.5 439,-399.5"/>
<text text-anchor="middle" x="512.5" y="-406.5" font-family="Helvetica,sans-Serif" font-size="10.00">ROFL::BoxColliderComponent</text>
</a>
</g>
</g>
<!-- Node5&#45;&gt;Node6 -->
<g id="edge6" class="edge">
<title>Node5&#45;&gt;Node6</title>
<path fill="none" stroke="midnightblue" d="M375.21,-364.49C381.61,-366.46 388,-368.64 394,-371 410.83,-377.63 413.05,-383.67 430,-390 439.94,-393.71 450.83,-396.85 461.33,-399.44"/>
<polygon fill="midnightblue" stroke="midnightblue" points="375.79,-361.01 365.21,-361.56 373.82,-367.73 375.79,-361.01"/>
</g>
<!-- Node7 -->
<g id="node8" class="node">
<title>Node7</title>
<g id="a_node8"><a xlink:href="struct_r_o_f_l_1_1_capsule_collider_component.html" target="_top" xlink:title=" ">
<polygon fill="none" stroke="black" points="430,-361.5 430,-380.5 595,-380.5 595,-361.5 430,-361.5"/>
<text text-anchor="middle" x="512.5" y="-368.5" font-family="Helvetica,sans-Serif" font-size="10.00">ROFL::CapsuleColliderComponent</text>
</a>
</g>
</g>
<!-- Node5&#45;&gt;Node7 -->
<g id="edge7" class="edge">
<title>Node5&#45;&gt;Node7</title>
<path fill="none" stroke="midnightblue" d="M398.26,-359.52C408.65,-360.58 419.37,-361.66 429.88,-362.73"/>
<polygon fill="midnightblue" stroke="midnightblue" points="398.3,-356.01 388,-358.49 397.6,-362.98 398.3,-356.01"/>
</g>
<!-- Node8 -->
<g id="node9" class="node">
<title>Node8</title>
<g id="a_node9"><a xlink:href="struct_r_o_f_l_1_1_circle_collider_component.html" target="_top" xlink:title=" ">
<polygon fill="none" stroke="black" points="435,-323.5 435,-342.5 590,-342.5 590,-323.5 435,-323.5"/>
<text text-anchor="middle" x="512.5" y="-330.5" font-family="Helvetica,sans-Serif" font-size="10.00">ROFL::CircleColliderComponent</text>
</a>
</g>
</g>
<!-- Node5&#45;&gt;Node8 -->
<g id="edge8" class="edge">
<title>Node5&#45;&gt;Node8</title>
<path fill="none" stroke="midnightblue" d="M398.03,-344.5C410.13,-343.27 422.68,-342 434.83,-340.77"/>
<polygon fill="midnightblue" stroke="midnightblue" points="397.6,-341.02 388,-345.51 398.3,-347.99 397.6,-341.02"/>
</g>
<!-- Node9 -->
<g id="node10" class="node">
<title>Node9</title>
<g id="a_node10"><a xlink:href="struct_r_o_f_l_1_1_polygon_collider_component.html" target="_top" xlink:title=" ">
<polygon fill="none" stroke="black" points="430,-285.5 430,-304.5 595,-304.5 595,-285.5 430,-285.5"/>
<text text-anchor="middle" x="512.5" y="-292.5" font-family="Helvetica,sans-Serif" font-size="10.00">ROFL::PolygonColliderComponent</text>
</a>
</g>
</g>
<!-- Node5&#45;&gt;Node9 -->
<g id="edge9" class="edge">
<title>Node5&#45;&gt;Node9</title>
<path fill="none" stroke="midnightblue" d="M375.21,-339.51C381.61,-337.54 388,-335.36 394,-333 410.83,-326.37 413.05,-320.33 430,-314 439.94,-310.29 450.83,-307.15 461.33,-304.56"/>
<polygon fill="midnightblue" stroke="midnightblue" points="373.82,-336.27 365.21,-342.44 375.79,-342.99 373.82,-336.27"/>
</g>
<!-- Node18 -->
<g id="node19" class="node">
<title>Node18</title>
<g id="a_node19"><a xlink:href="class_r_o_f_l_1_1_native_script.html" target="_top" xlink:title=" ">
<polygon fill="none" stroke="black" points="273,-152.5 273,-171.5 373,-171.5 373,-152.5 273,-152.5"/>
<text text-anchor="middle" x="323" y="-159.5" font-family="Helvetica,sans-Serif" font-size="10.00">ROFL::NativeScript</text>
</a>
</g>
</g>
<!-- Node17&#45;&gt;Node18 -->
<g id="edge18" class="edge">
<title>Node17&#45;&gt;Node18</title>
<path fill="none" stroke="midnightblue" d="M214.31,-162C232.75,-162 253.99,-162 272.71,-162"/>
<polygon fill="midnightblue" stroke="midnightblue" points="214.11,-158.5 204.11,-162 214.11,-165.5 214.11,-158.5"/>
</g>
</g>
</svg>
