<?xml version="1.0" encoding="UTF-8" standalone="no"?>
<!DOCTYPE svg PUBLIC "-//W3C//DTD SVG 1.1//EN"
 "http://www.w3.org/Graphics/SVG/1.1/DTD/svg11.dtd">
<!-- Generated by graphviz version 3.0.0 (20220226.1711)
 -->
<!-- Title: ROFL::PolygonColliderComponent Pages: 1 -->
<svg width="921pt" height="191pt"
 viewBox="0.00 0.00 921.00 190.50" xmlns="http://www.w3.org/2000/svg" xmlns:xlink="http://www.w3.org/1999/xlink">
<g id="graph0" class="graph" transform="scale(1 1) rotate(0) translate(4 186.5)">
<title>ROFL::PolygonColliderComponent</title>
<!-- Node1 -->
<g id="node1" class="node">
<title>Node1</title>
<g id="a_node1"><a xlink:title=" ">
<polygon fill="#bfbfbf" stroke="black" points="748,-94 748,-113 913,-113 913,-94 748,-94"/>
<text text-anchor="middle" x="830.5" y="-101" font-family="Helvetica,sans-Serif" font-size="10.00">ROFL::PolygonColliderComponent</text>
</a>
</g>
</g>
<!-- Node2 -->
<g id="node2" class="node">
<title>Node2</title>
<g id="a_node2"><a xlink:href="struct_r_o_f_l_1_1_collider_component.html" target="_top" xlink:title=" ">
<polygon fill="none" stroke="#bfbfbf" points="543,-68 543,-87 673,-87 673,-68 543,-68"/>
<text text-anchor="middle" x="608" y="-75" font-family="Helvetica,sans-Serif" font-size="10.00">ROFL::ColliderComponent</text>
</a>
</g>
</g>
<!-- Node2&#45;&gt;Node1 -->
<g id="edge1" class="edge">
<title>Node2&#45;&gt;Node1</title>
<path fill="none" stroke="midnightblue" d="M682.23,-88.38C685.19,-88.77 688.12,-89.14 691,-89.5 709.35,-91.77 729.1,-93.93 747.77,-95.85"/>
<polygon fill="midnightblue" stroke="midnightblue" points="682.46,-84.88 672.09,-87.02 681.53,-91.82 682.46,-84.88"/>
</g>
<!-- Node12 -->
<g id="node12" class="node">
<title>Node12</title>
<g id="a_node12"><a xlink:title=" ">
<polygon fill="none" stroke="black" points="753,-36.5 753,-66.5 908,-66.5 908,-36.5 753,-36.5"/>
<text text-anchor="start" x="761" y="-54.5" font-family="Helvetica,sans-Serif" font-size="10.00">std::unordered_set</text>
<text text-anchor="middle" x="830.5" y="-43.5" font-family="Helvetica,sans-Serif" font-size="10.00">&lt; ROFL::ColliderComponent * &gt;</text>
</a>
</g>
</g>
<!-- Node2&#45;&gt;Node12 -->
<g id="edge12" class="edge">
<title>Node2&#45;&gt;Node12</title>
<path fill="none" stroke="#9a32cd" stroke-dasharray="5,2" d="M683.19,-68.75C705.59,-66.11 730.22,-63.21 752.77,-60.55"/>
<polygon fill="#9a32cd" stroke="#9a32cd" points="682.6,-65.3 673.07,-69.94 683.42,-72.25 682.6,-65.3"/>
<text text-anchor="middle" x="710.5" y="-70.5" font-family="Helvetica,sans-Serif" font-size="10.00"> keys</text>
</g>
<!-- Node3 -->
<g id="node3" class="node">
<title>Node3</title>
<g id="a_node3"><a xlink:href="struct_r_o_f_l_1_1_component.html" target="_top" xlink:title=" ">
<polygon fill="none" stroke="#bfbfbf" points="339.5,-125 339.5,-144 437.5,-144 437.5,-125 339.5,-125"/>
<text text-anchor="middle" x="388.5" y="-132" font-family="Helvetica,sans-Serif" font-size="10.00">ROFL::Component</text>
</a>
</g>
</g>
<!-- Node3&#45;&gt;Node2 -->
<g id="edge2" class="edge">
<title>Node3&#45;&gt;Node2</title>
<path fill="none" stroke="midnightblue" d="M435.73,-122.38C475.94,-111.85 533.42,-96.78 570.48,-87.07"/>
<polygon fill="midnightblue" stroke="midnightblue" points="434.69,-119.04 425.9,-124.96 436.47,-125.81 434.69,-119.04"/>
</g>
<!-- Node4 -->
<g id="node4" class="node">
<title>Node4</title>
<g id="a_node4"><a xlink:href="class_r_o_f_l_1_1_generic.html" target="_top" xlink:title=" ">
<polygon fill="none" stroke="#bfbfbf" points="151,-163 151,-182 233,-182 233,-163 151,-163"/>
<text text-anchor="middle" x="192" y="-170" font-family="Helvetica,sans-Serif" font-size="10.00">ROFL::Generic</text>
</a>
</g>
</g>
<!-- Node4&#45;&gt;Node3 -->
<g id="edge3" class="edge">
<title>Node4&#45;&gt;Node3</title>
<path fill="none" stroke="midnightblue" d="M243.42,-162.65C273,-156.87 310.17,-149.61 339.35,-143.91"/>
<polygon fill="midnightblue" stroke="midnightblue" points="242.44,-159.27 233.3,-164.63 243.79,-166.14 242.44,-159.27"/>
</g>
<!-- Node5 -->
<g id="node5" class="node">
<title>Node5</title>
<g id="a_node5"><a xlink:href="class_r_o_f_l_1_1_object.html" target="_top" xlink:title=" ">
<polygon fill="none" stroke="#bfbfbf" points="153.5,-125 153.5,-144 230.5,-144 230.5,-125 153.5,-125"/>
<text text-anchor="middle" x="192" y="-132" font-family="Helvetica,sans-Serif" font-size="10.00">ROFL::Object</text>
</a>
</g>
</g>
<!-- Node5&#45;&gt;Node3 -->
<g id="edge4" class="edge">
<title>Node5&#45;&gt;Node3</title>
<path fill="none" stroke="#9a32cd" stroke-dasharray="5,2" d="M240.73,-134.5C270.74,-134.5 309.33,-134.5 339.41,-134.5"/>
<polygon fill="#9a32cd" stroke="#9a32cd" points="240.5,-131 230.5,-134.5 240.5,-138 240.5,-131"/>
<text text-anchor="middle" x="289" y="-137.5" font-family="Helvetica,sans-Serif" font-size="10.00"> object</text>
</g>
<!-- Node6 -->
<g id="node6" class="node">
<title>Node6</title>
<g id="a_node6"><a xlink:href="struct_r_o_f_l_1_1_collider_properties.html" target="_top" xlink:title=" ">
<polygon fill="none" stroke="#bfbfbf" points="326,-68 326,-87 451,-87 451,-68 326,-68"/>
<text text-anchor="middle" x="388.5" y="-75" font-family="Helvetica,sans-Serif" font-size="10.00">ROFL::ColliderProperties</text>
</a>
</g>
</g>
<!-- Node6&#45;&gt;Node2 -->
<g id="edge5" class="edge">
<title>Node6&#45;&gt;Node2</title>
<path fill="none" stroke="#9a32cd" stroke-dasharray="5,2" d="M461.52,-77.5C487.78,-77.5 517.29,-77.5 542.83,-77.5"/>
<polygon fill="#9a32cd" stroke="#9a32cd" points="461.25,-74 451.24,-77.5 461.24,-81 461.25,-74"/>
<text text-anchor="middle" x="497" y="-80.5" font-family="Helvetica,sans-Serif" font-size="10.00"> properties</text>
</g>
<!-- Node7 -->
<g id="node7" class="node">
<title>Node7</title>
<g id="a_node7"><a xlink:title=" ">
<polygon fill="none" stroke="black" points="140.5,-82 140.5,-101 243.5,-101 243.5,-82 140.5,-82"/>
<text text-anchor="middle" x="192" y="-89" font-family="Helvetica,sans-Serif" font-size="10.00">std::vector&lt; void * &gt;</text>
</a>
</g>
</g>
<!-- Node7&#45;&gt;Node6 -->
<g id="edge6" class="edge">
<title>Node7&#45;&gt;Node6</title>
<path fill="none" stroke="#9a32cd" stroke-dasharray="5,2" d="M253.86,-87.12C276.73,-85.47 302.75,-83.6 325.7,-81.95"/>
<polygon fill="#9a32cd" stroke="#9a32cd" points="253.32,-83.65 243.59,-87.86 253.82,-90.63 253.32,-83.65"/>
<text text-anchor="middle" x="289" y="-99.5" font-family="Helvetica,sans-Serif" font-size="10.00"> fixtures</text>
<text text-anchor="middle" x="289" y="-88.5" font-family="Helvetica,sans-Serif" font-size="10.00">shapes</text>
</g>
<!-- Node8 -->
<g id="node8" class="node">
<title>Node8</title>
<g id="a_node8"><a xlink:href="struct_r_o_f_l_1_1_physical_material.html" target="_top" xlink:title=" ">
<polygon fill="none" stroke="#bfbfbf" points="132,-44 132,-63 252,-63 252,-44 132,-44"/>
<text text-anchor="middle" x="192" y="-51" font-family="Helvetica,sans-Serif" font-size="10.00">ROFL::PhysicalMaterial</text>
</a>
</g>
</g>
<!-- Node8&#45;&gt;Node6 -->
<g id="edge7" class="edge">
<title>Node8&#45;&gt;Node6</title>
<path fill="none" stroke="#9a32cd" stroke-dasharray="5,2" d="M262.37,-61.9C277.42,-63.73 293.24,-65.67 308,-67.5 313.8,-68.22 319.83,-68.97 325.87,-69.72"/>
<polygon fill="#9a32cd" stroke="#9a32cd" points="262.45,-58.38 252.1,-60.65 261.6,-65.33 262.45,-58.38"/>
<text text-anchor="middle" x="289" y="-70.5" font-family="Helvetica,sans-Serif" font-size="10.00"> material</text>
</g>
<!-- Node9 -->
<g id="node9" class="node">
<title>Node9</title>
<g id="a_node9"><a xlink:title=" ">
<polygon fill="none" stroke="black" points="339.5,-12.5 339.5,-42.5 437.5,-42.5 437.5,-12.5 339.5,-12.5"/>
<text text-anchor="start" x="347.5" y="-30.5" font-family="Helvetica,sans-Serif" font-size="10.00">std::unordered_set</text>
<text text-anchor="middle" x="388.5" y="-19.5" font-family="Helvetica,sans-Serif" font-size="10.00">&lt; String &gt;</text>
</a>
</g>
</g>
<!-- Node9&#45;&gt;Node2 -->
<g id="edge8" class="edge">
<title>Node9&#45;&gt;Node2</title>
<path fill="none" stroke="#9a32cd" stroke-dasharray="5,2" d="M447.68,-40.87C484.78,-49.4 531.99,-60.26 565.35,-67.93"/>
<polygon fill="#9a32cd" stroke="#9a32cd" points="448.03,-37.36 437.5,-38.53 446.46,-44.19 448.03,-37.36"/>
<text text-anchor="middle" x="497" y="-60.5" font-family="Helvetica,sans-Serif" font-size="10.00"> ignoredTags</text>
</g>
<!-- Node10 -->
<g id="node10" class="node">
<title>Node10</title>
<g id="a_node10"><a xlink:title=" ">
<polygon fill="none" stroke="black" points="162,-6 162,-25 222,-25 222,-6 162,-6"/>
<text text-anchor="middle" x="192" y="-13" font-family="Helvetica,sans-Serif" font-size="10.00">std::string</text>
</a>
</g>
</g>
<!-- Node10&#45;&gt;Node9 -->
<g id="edge9" class="edge">
<title>Node10&#45;&gt;Node9</title>
<path fill="none" stroke="#9a32cd" stroke-dasharray="5,2" d="M232.39,-16.78C254.61,-17.61 282.87,-18.85 308,-20.5 318.09,-21.16 328.89,-22.02 339.18,-22.9"/>
<polygon fill="#9a32cd" stroke="#9a32cd" points="232.44,-13.28 222.32,-16.42 232.19,-20.28 232.44,-13.28"/>
<text text-anchor="middle" x="289" y="-23.5" font-family="Helvetica,sans-Serif" font-size="10.00"> keys</text>
</g>
<!-- Node11 -->
<g id="node11" class="node">
<title>Node11</title>
<g id="a_node11"><a xlink:title=" ">
<polygon fill="none" stroke="black" points="0,-0.5 0,-30.5 95,-30.5 95,-0.5 0,-0.5"/>
<text text-anchor="start" x="8" y="-18.5" font-family="Helvetica,sans-Serif" font-size="10.00">std::basic_string&lt;</text>
<text text-anchor="middle" x="47.5" y="-7.5" font-family="Helvetica,sans-Serif" font-size="10.00"> Char &gt;</text>
</a>
</g>
</g>
<!-- Node11&#45;&gt;Node10 -->
<g id="edge10" class="edge">
<title>Node11&#45;&gt;Node10</title>
<path fill="none" stroke="midnightblue" d="M105.39,-15.5C124.69,-15.5 145.45,-15.5 161.7,-15.5"/>
<polygon fill="midnightblue" stroke="midnightblue" points="105.16,-12 95.16,-15.5 105.16,-19 105.16,-12"/>
</g>
<!-- Node12&#45;&gt;Node2 -->
<g id="edge11" class="edge">
<title>Node12&#45;&gt;Node2</title>
<path fill="none" stroke="#9a32cd" stroke-dasharray="5,2" d="M742.77,-40.71C725.51,-40.36 707.6,-41.29 691,-44.5 667.95,-48.96 643.16,-59.88 626.95,-67.94"/>
<polygon fill="#9a32cd" stroke="#9a32cd" points="742.72,-44.21 752.84,-41.06 742.96,-37.22 742.72,-44.21"/>
<text text-anchor="middle" x="710.5" y="-47.5" font-family="Helvetica,sans-Serif" font-size="10.00"> colliding</text>
</g>
</g>
</svg>
