<?xml version="1.0" encoding="UTF-8" standalone="no"?>
<!DOCTYPE svg PUBLIC "-//W3C//DTD SVG 1.1//EN"
 "http://www.w3.org/Graphics/SVG/1.1/DTD/svg11.dtd">
<!-- Generated by graphviz version 3.0.0 (20220226.1711)
 -->
<!-- Title: ROFL::TransformComponent Pages: 1 -->
<svg width="421pt" height="297pt"
 viewBox="0.00 0.00 420.50 297.00" xmlns="http://www.w3.org/2000/svg" xmlns:xlink="http://www.w3.org/1999/xlink">
<g id="graph0" class="graph" transform="scale(1 1) rotate(0) translate(4 293)">
<title>ROFL::TransformComponent</title>
<!-- Node1 -->
<g id="node1" class="node">
<title>Node1</title>
<g id="a_node1"><a xlink:title=" ">
<polygon fill="#bfbfbf" stroke="black" points="107,-0.5 107,-19.5 247,-19.5 247,-0.5 107,-0.5"/>
<text text-anchor="middle" x="177" y="-7.5" font-family="Helvetica,sans-Serif" font-size="10.00">ROFL::TransformComponent</text>
</a>
</g>
</g>
<!-- Node2 -->
<g id="node2" class="node">
<title>Node2</title>
<g id="a_node2"><a xlink:href="struct_r_o_f_l_1_1_component.html" target="_top" xlink:title=" ">
<polygon fill="none" stroke="#bfbfbf" points="68,-78.5 68,-97.5 166,-97.5 166,-78.5 68,-78.5"/>
<text text-anchor="middle" x="117" y="-85.5" font-family="Helvetica,sans-Serif" font-size="10.00">ROFL::Component</text>
</a>
</g>
</g>
<!-- Node2&#45;&gt;Node1 -->
<g id="edge1" class="edge">
<title>Node2&#45;&gt;Node1</title>
<path fill="none" stroke="midnightblue" d="M130.42,-70.01C142.76,-54.37 160.57,-31.81 170.2,-19.62"/>
<polygon fill="midnightblue" stroke="midnightblue" points="127.33,-68.26 123.88,-78.28 132.83,-72.6 127.33,-68.26"/>
</g>
<!-- Node3 -->
<g id="node3" class="node">
<title>Node3</title>
<g id="a_node3"><a xlink:href="class_r_o_f_l_1_1_generic.html" target="_top" xlink:title=" ">
<polygon fill="none" stroke="#bfbfbf" points="0,-157.5 0,-176.5 82,-176.5 82,-157.5 0,-157.5"/>
<text text-anchor="middle" x="41" y="-164.5" font-family="Helvetica,sans-Serif" font-size="10.00">ROFL::Generic</text>
</a>
</g>
</g>
<!-- Node3&#45;&gt;Node2 -->
<g id="edge2" class="edge">
<title>Node3&#45;&gt;Node2</title>
<path fill="none" stroke="midnightblue" d="M56.79,-150C72.42,-134.16 95.77,-110.51 108.3,-97.81"/>
<polygon fill="midnightblue" stroke="midnightblue" points="53.96,-147.89 49.42,-157.47 58.94,-152.81 53.96,-147.89"/>
</g>
<!-- Node4 -->
<g id="node4" class="node">
<title>Node4</title>
<g id="a_node4"><a xlink:href="class_r_o_f_l_1_1_object.html" target="_top" xlink:title=" ">
<polygon fill="none" stroke="#bfbfbf" points="100.5,-157.5 100.5,-176.5 177.5,-176.5 177.5,-157.5 100.5,-157.5"/>
<text text-anchor="middle" x="139" y="-164.5" font-family="Helvetica,sans-Serif" font-size="10.00">ROFL::Object</text>
</a>
</g>
</g>
<!-- Node4&#45;&gt;Node2 -->
<g id="edge3" class="edge">
<title>Node4&#45;&gt;Node2</title>
<path fill="none" stroke="#9a32cd" stroke-dasharray="5,2" d="M133.79,-147.77C129.29,-132.02 122.98,-109.92 119.52,-97.81"/>
<polygon fill="#9a32cd" stroke="#9a32cd" points="130.45,-148.81 136.56,-157.47 137.18,-146.89 130.45,-148.81"/>
<text text-anchor="middle" x="143" y="-119" font-family="Helvetica,sans-Serif" font-size="10.00"> object</text>
</g>
<!-- Node5 -->
<g id="node5" class="node">
<title>Node5</title>
<g id="a_node5"><a xlink:href="struct_r_o_f_l_1_1_vec2.html" target="_top" xlink:title=" ">
<polygon fill="none" stroke="#bfbfbf" points="184.5,-78.5 184.5,-97.5 291.5,-97.5 291.5,-78.5 184.5,-78.5"/>
<text text-anchor="middle" x="238" y="-85.5" font-family="Helvetica,sans-Serif" font-size="10.00">ROFL::Vec2&lt; float &gt;</text>
</a>
</g>
</g>
<!-- Node5&#45;&gt;Node1 -->
<g id="edge4" class="edge">
<title>Node5&#45;&gt;Node1</title>
<path fill="none" stroke="#9a32cd" stroke-dasharray="5,2" d="M224.71,-70.44C212.15,-54.79 193.8,-31.93 183.92,-19.62"/>
<polygon fill="#9a32cd" stroke="#9a32cd" points="222.01,-72.67 231,-78.28 227.47,-68.29 222.01,-72.67"/>
<text text-anchor="middle" x="234.5" y="-52" font-family="Helvetica,sans-Serif" font-size="10.00"> Position</text>
<text text-anchor="middle" x="234.5" y="-41" font-family="Helvetica,sans-Serif" font-size="10.00">Scale</text>
</g>
<!-- Node6 -->
<g id="node6" class="node">
<title>Node6</title>
<g id="a_node6"><a xlink:title=" ">
<polygon fill="none" stroke="#bfbfbf" points="209.5,-269.5 209.5,-288.5 262.5,-288.5 262.5,-269.5 209.5,-269.5"/>
<text text-anchor="middle" x="236" y="-276.5" font-family="Helvetica,sans-Serif" font-size="10.00">Numeric</text>
</a>
</g>
</g>
<!-- Node6&#45;&gt;Node5 -->
<g id="edge5" class="edge">
<title>Node6&#45;&gt;Node5</title>
<path fill="none" stroke="#9a32cd" stroke-dasharray="5,2" d="M233.77,-259.06C231.04,-233.25 227.12,-185.59 230,-145 231.2,-128.15 234.4,-108.66 236.37,-97.69"/>
<polygon fill="#9a32cd" stroke="#9a32cd" points="230.32,-259.73 234.91,-269.28 237.27,-258.95 230.32,-259.73"/>
<text text-anchor="middle" x="234.5" y="-181" font-family="Helvetica,sans-Serif" font-size="10.00"> h</text>
<text text-anchor="middle" x="234.5" y="-170" font-family="Helvetica,sans-Serif" font-size="10.00">w</text>
<text text-anchor="middle" x="234.5" y="-159" font-family="Helvetica,sans-Serif" font-size="10.00">x</text>
<text text-anchor="middle" x="234.5" y="-148" font-family="Helvetica,sans-Serif" font-size="10.00">y</text>
</g>
<!-- Node7 -->
<g id="node7" class="node">
<title>Node7</title>
<g id="a_node7"><a xlink:href="struct_r_o_f_l_1_1_vec2.html" target="_top" xlink:title=" ">
<polygon fill="none" stroke="#bfbfbf" points="247.5,-157.5 247.5,-176.5 372.5,-176.5 372.5,-157.5 247.5,-157.5"/>
<text text-anchor="middle" x="310" y="-164.5" font-family="Helvetica,sans-Serif" font-size="10.00">ROFL::Vec2&lt; Numeric &gt;</text>
</a>
</g>
</g>
<!-- Node6&#45;&gt;Node7 -->
<g id="edge7" class="edge">
<title>Node6&#45;&gt;Node7</title>
<path fill="none" stroke="#9a32cd" stroke-dasharray="5,2" d="M247.47,-260.96C263.5,-237.12 292.03,-194.71 304.22,-176.59"/>
<polygon fill="#9a32cd" stroke="#9a32cd" points="244.48,-259.12 241.81,-269.37 250.29,-263.02 244.48,-259.12"/>
<text text-anchor="middle" x="285.5" y="-243" font-family="Helvetica,sans-Serif" font-size="10.00"> h</text>
<text text-anchor="middle" x="285.5" y="-232" font-family="Helvetica,sans-Serif" font-size="10.00">w</text>
<text text-anchor="middle" x="285.5" y="-221" font-family="Helvetica,sans-Serif" font-size="10.00">x</text>
<text text-anchor="middle" x="285.5" y="-210" font-family="Helvetica,sans-Serif" font-size="10.00">y</text>
</g>
<!-- Node7&#45;&gt;Node5 -->
<g id="edge6" class="edge">
<title>Node7&#45;&gt;Node5</title>
<path fill="none" stroke="#9a32cd" stroke-dasharray="5,2" d="M295.04,-150C280.23,-134.16 258.11,-110.51 246.24,-97.81"/>
<polygon fill="#9a32cd" stroke="#9a32cd" points="292.63,-152.55 302.02,-157.47 297.75,-147.77 292.63,-152.55"/>
<text text-anchor="middle" x="282" y="-119" font-family="Helvetica,sans-Serif" font-size="10.00"> Zero</text>
</g>
<!-- Node7&#45;&gt;Node7 -->
<g id="edge8" class="edge">
<title>Node7&#45;&gt;Node7</title>
<path fill="none" stroke="#9a32cd" stroke-dasharray="5,2" d="M382.64,-172.94C387.53,-171.57 390.5,-169.59 390.5,-167 390.5,-162.96 383.26,-160.4 372.78,-159.33"/>
<polygon fill="#9a32cd" stroke="#9a32cd" points="382.02,-169.49 372.78,-174.67 383.23,-176.39 382.02,-169.49"/>
<text text-anchor="middle" x="401.5" y="-164.5" font-family="Helvetica,sans-Serif" font-size="10.00"> Zero</text>
</g>
</g>
</svg>
