<?xml version="1.0" encoding="UTF-8" standalone="no"?>
<!DOCTYPE svg PUBLIC "-//W3C//DTD SVG 1.1//EN"
 "http://www.w3.org/Graphics/SVG/1.1/DTD/svg11.dtd">
<!-- Generated by graphviz version 3.0.0 (20220226.1711)
 -->
<!-- Title: ROFL::ColliderProperties Pages: 1 -->
<svg width="250pt" height="106pt"
 viewBox="0.00 0.00 249.50 106.00" xmlns="http://www.w3.org/2000/svg" xmlns:xlink="http://www.w3.org/1999/xlink">
<g id="graph0" class="graph" transform="scale(1 1) rotate(0) translate(4 102)">
<title>ROFL::ColliderProperties</title>
<!-- Node1 -->
<g id="node1" class="node">
<title>Node1</title>
<g id="a_node1"><a xlink:title=" ">
<polygon fill="#bfbfbf" stroke="black" points="54,-0.5 54,-19.5 179,-19.5 179,-0.5 54,-0.5"/>
<text text-anchor="middle" x="116.5" y="-7.5" font-family="Helvetica,sans-Serif" font-size="10.00">ROFL::ColliderProperties</text>
</a>
</g>
</g>
<!-- Node2 -->
<g id="node2" class="node">
<title>Node2</title>
<g id="a_node2"><a xlink:title=" ">
<polygon fill="none" stroke="black" points="0,-78.5 0,-97.5 103,-97.5 103,-78.5 0,-78.5"/>
<text text-anchor="middle" x="51.5" y="-85.5" font-family="Helvetica,sans-Serif" font-size="10.00">std::vector&lt; void * &gt;</text>
</a>
</g>
</g>
<!-- Node2&#45;&gt;Node1 -->
<g id="edge1" class="edge">
<title>Node2&#45;&gt;Node1</title>
<path fill="none" stroke="#9a32cd" stroke-dasharray="5,2" d="M65.66,-70.44C79.05,-54.79 98.6,-31.93 109.13,-19.62"/>
<polygon fill="#9a32cd" stroke="#9a32cd" points="62.8,-68.41 58.96,-78.28 68.12,-72.96 62.8,-68.41"/>
<text text-anchor="middle" x="110" y="-52" font-family="Helvetica,sans-Serif" font-size="10.00"> fixtures</text>
<text text-anchor="middle" x="110" y="-41" font-family="Helvetica,sans-Serif" font-size="10.00">shapes</text>
</g>
<!-- Node3 -->
<g id="node3" class="node">
<title>Node3</title>
<g id="a_node3"><a xlink:href="struct_r_o_f_l_1_1_physical_material.html" target="_top" xlink:title=" ">
<polygon fill="none" stroke="#bfbfbf" points="121.5,-78.5 121.5,-97.5 241.5,-97.5 241.5,-78.5 121.5,-78.5"/>
<text text-anchor="middle" x="181.5" y="-85.5" font-family="Helvetica,sans-Serif" font-size="10.00">ROFL::PhysicalMaterial</text>
</a>
</g>
</g>
<!-- Node3&#45;&gt;Node1 -->
<g id="edge2" class="edge">
<title>Node3&#45;&gt;Node1</title>
<path fill="none" stroke="#9a32cd" stroke-dasharray="5,2" d="M167.34,-70.44C153.95,-54.79 134.4,-31.93 123.87,-19.62"/>
<polygon fill="#9a32cd" stroke="#9a32cd" points="164.88,-72.96 174.04,-78.28 170.2,-68.41 164.88,-72.96"/>
<text text-anchor="middle" x="175.5" y="-46.5" font-family="Helvetica,sans-Serif" font-size="10.00"> material</text>
</g>
</g>
</svg>
