<?xml version="1.0" encoding="UTF-8" standalone="no"?>
<!DOCTYPE svg PUBLIC "-//W3C//DTD SVG 1.1//EN"
 "http://www.w3.org/Graphics/SVG/1.1/DTD/svg11.dtd">
<!-- Generated by graphviz version 3.0.0 (20220226.1711)
 -->
<!-- Title: ROFL::AnimatedSpriteComponent Pages: 1 -->
<svg width="326pt" height="419pt"
 viewBox="0.00 0.00 326.00 419.00" xmlns="http://www.w3.org/2000/svg" xmlns:xlink="http://www.w3.org/1999/xlink">
<g id="graph0" class="graph" transform="scale(1 1) rotate(0) translate(4 415)">
<title>ROFL::AnimatedSpriteComponent</title>
<!-- Node1 -->
<g id="node1" class="node">
<title>Node1</title>
<g id="a_node1"><a xlink:title=" ">
<polygon fill="#bfbfbf" stroke="black" points="0,-0.5 0,-19.5 164,-19.5 164,-0.5 0,-0.5"/>
<text text-anchor="middle" x="82" y="-7.5" font-family="Helvetica,sans-Serif" font-size="10.00">ROFL::AnimatedSpriteComponent</text>
</a>
</g>
</g>
<!-- Node2 -->
<g id="node2" class="node">
<title>Node2</title>
<g id="a_node2"><a xlink:href="struct_r_o_f_l_1_1_component.html" target="_top" xlink:title=" ">
<polygon fill="none" stroke="#bfbfbf" points="17,-78.5 17,-97.5 115,-97.5 115,-78.5 17,-78.5"/>
<text text-anchor="middle" x="66" y="-85.5" font-family="Helvetica,sans-Serif" font-size="10.00">ROFL::Component</text>
</a>
</g>
</g>
<!-- Node2&#45;&gt;Node1 -->
<g id="edge1" class="edge">
<title>Node2&#45;&gt;Node1</title>
<path fill="none" stroke="midnightblue" d="M69.95,-68.22C73.22,-52.7 77.71,-31.36 80.19,-19.62"/>
<polygon fill="midnightblue" stroke="midnightblue" points="66.47,-67.78 67.84,-78.28 73.32,-69.22 66.47,-67.78"/>
</g>
<!-- Node3 -->
<g id="node3" class="node">
<title>Node3</title>
<g id="a_node3"><a xlink:title=" ">
<polygon fill="none" stroke="black" points="133.5,-67.5 133.5,-108.5 238.5,-108.5 238.5,-67.5 133.5,-67.5"/>
<text text-anchor="start" x="141.5" y="-96.5" font-family="Helvetica,sans-Serif" font-size="10.00">std::unordered_map</text>
<text text-anchor="start" x="141.5" y="-85.5" font-family="Helvetica,sans-Serif" font-size="10.00">&lt; std::string, ROFL</text>
<text text-anchor="middle" x="186" y="-74.5" font-family="Helvetica,sans-Serif" font-size="10.00">::AnimatedSprite * &gt;</text>
</a>
</g>
</g>
<!-- Node3&#45;&gt;Node1 -->
<g id="edge2" class="edge">
<title>Node3&#45;&gt;Node1</title>
<path fill="none" stroke="#9a32cd" stroke-dasharray="5,2" d="M150.97,-61.4C131.09,-46.88 107.51,-29.64 93.7,-19.55"/>
<polygon fill="#9a32cd" stroke="#9a32cd" points="149.08,-64.35 159.22,-67.43 153.21,-58.7 149.08,-64.35"/>
<text text-anchor="middle" x="173" y="-41" font-family="Helvetica,sans-Serif" font-size="10.00"> animation_states</text>
</g>
<!-- Node4 -->
<g id="node4" class="node">
<title>Node4</title>
<g id="a_node4"><a xlink:title=" ">
<polygon fill="none" stroke="black" points="96,-156.5 96,-175.5 156,-175.5 156,-156.5 96,-156.5"/>
<text text-anchor="middle" x="126" y="-163.5" font-family="Helvetica,sans-Serif" font-size="10.00">std::string</text>
</a>
</g>
</g>
<!-- Node4&#45;&gt;Node3 -->
<g id="edge3" class="edge">
<title>Node4&#45;&gt;Node3</title>
<path fill="none" stroke="#9a32cd" stroke-dasharray="5,2" d="M139.23,-148.24C148.46,-136.56 160.79,-120.93 170.48,-108.66"/>
<polygon fill="#9a32cd" stroke="#9a32cd" points="136.33,-146.26 132.88,-156.28 141.83,-150.6 136.33,-146.26"/>
<text text-anchor="middle" x="168.5" y="-130" font-family="Helvetica,sans-Serif" font-size="10.00"> keys</text>
</g>
<!-- Node5 -->
<g id="node5" class="node">
<title>Node5</title>
<g id="a_node5"><a xlink:title=" ">
<polygon fill="none" stroke="black" points="78.5,-213.5 78.5,-243.5 173.5,-243.5 173.5,-213.5 78.5,-213.5"/>
<text text-anchor="start" x="86.5" y="-231.5" font-family="Helvetica,sans-Serif" font-size="10.00">std::basic_string&lt;</text>
<text text-anchor="middle" x="126" y="-220.5" font-family="Helvetica,sans-Serif" font-size="10.00"> Char &gt;</text>
</a>
</g>
</g>
<!-- Node5&#45;&gt;Node4 -->
<g id="edge4" class="edge">
<title>Node5&#45;&gt;Node4</title>
<path fill="none" stroke="midnightblue" d="M126,-203.35C126,-193.51 126,-182.78 126,-175.54"/>
<polygon fill="midnightblue" stroke="midnightblue" points="122.5,-203.47 126,-213.47 129.5,-203.47 122.5,-203.47"/>
</g>
<!-- Node6 -->
<g id="node6" class="node">
<title>Node6</title>
<g id="a_node6"><a xlink:href="class_r_o_f_l_1_1_animated_sprite.html" target="_top" xlink:title=" ">
<polygon fill="none" stroke="#bfbfbf" points="174.5,-156.5 174.5,-175.5 289.5,-175.5 289.5,-156.5 174.5,-156.5"/>
<text text-anchor="middle" x="232" y="-163.5" font-family="Helvetica,sans-Serif" font-size="10.00">ROFL::AnimatedSprite</text>
</a>
</g>
</g>
<!-- Node6&#45;&gt;Node3 -->
<g id="edge5" class="edge">
<title>Node6&#45;&gt;Node3</title>
<path fill="none" stroke="#9a32cd" stroke-dasharray="5,2" d="M221.44,-147.55C214.41,-135.94 205.18,-120.69 197.9,-108.66"/>
<polygon fill="#9a32cd" stroke="#9a32cd" points="218.55,-149.54 226.72,-156.28 224.54,-145.91 218.55,-149.54"/>
<text text-anchor="middle" x="235.5" y="-130" font-family="Helvetica,sans-Serif" font-size="10.00"> elements</text>
</g>
<!-- Node7 -->
<g id="node7" class="node">
<title>Node7</title>
<g id="a_node7"><a xlink:href="class_r_o_f_l_1_1_sprite.html" target="_top" xlink:title=" ">
<polygon fill="none" stroke="#bfbfbf" points="195,-219 195,-238 269,-238 269,-219 195,-219"/>
<text text-anchor="middle" x="232" y="-226" font-family="Helvetica,sans-Serif" font-size="10.00">ROFL::Sprite</text>
</a>
</g>
</g>
<!-- Node7&#45;&gt;Node6 -->
<g id="edge6" class="edge">
<title>Node7&#45;&gt;Node6</title>
<path fill="none" stroke="midnightblue" d="M232,-208.5C232,-197.5 232,-184.18 232,-175.65"/>
<polygon fill="midnightblue" stroke="midnightblue" points="228.5,-208.83 232,-218.83 235.5,-208.83 228.5,-208.83"/>
</g>
<!-- Node8 -->
<g id="node8" class="node">
<title>Node8</title>
<g id="a_node8"><a xlink:href="struct_r_o_f_l_1_1_rect.html" target="_top" xlink:title=" ">
<polygon fill="none" stroke="#bfbfbf" points="122.5,-291.5 122.5,-310.5 219.5,-310.5 219.5,-291.5 122.5,-291.5"/>
<text text-anchor="middle" x="171" y="-298.5" font-family="Helvetica,sans-Serif" font-size="10.00">ROFL::Rect&lt; int &gt;</text>
</a>
</g>
</g>
<!-- Node8&#45;&gt;Node7 -->
<g id="edge7" class="edge">
<title>Node8&#45;&gt;Node7</title>
<path fill="none" stroke="#9a32cd" stroke-dasharray="5,2" d="M181.22,-282.47C185.44,-275.79 190.61,-268.28 196,-262 203.57,-253.18 213.44,-244.43 220.93,-238.23"/>
<polygon fill="#9a32cd" stroke="#9a32cd" points="177.99,-281.05 175.79,-291.41 183.97,-284.68 177.99,-281.05"/>
<text text-anchor="middle" x="222.5" y="-265" font-family="Helvetica,sans-Serif" font-size="10.00"> sourceRect</text>
</g>
<!-- Node9 -->
<g id="node9" class="node">
<title>Node9</title>
<g id="a_node9"><a xlink:title=" ">
<polygon fill="none" stroke="#bfbfbf" points="144.5,-391.5 144.5,-410.5 197.5,-410.5 197.5,-391.5 144.5,-391.5"/>
<text text-anchor="middle" x="171" y="-398.5" font-family="Helvetica,sans-Serif" font-size="10.00">Numeric</text>
</a>
</g>
</g>
<!-- Node9&#45;&gt;Node8 -->
<g id="edge8" class="edge">
<title>Node9&#45;&gt;Node8</title>
<path fill="none" stroke="#9a32cd" stroke-dasharray="5,2" d="M171,-381.22C171,-359.95 171,-326.22 171,-310.54"/>
<polygon fill="#9a32cd" stroke="#9a32cd" points="167.5,-381.3 171,-391.3 174.5,-381.3 167.5,-381.3"/>
<text text-anchor="middle" x="175.5" y="-365" font-family="Helvetica,sans-Serif" font-size="10.00"> h</text>
<text text-anchor="middle" x="175.5" y="-354" font-family="Helvetica,sans-Serif" font-size="10.00">w</text>
<text text-anchor="middle" x="175.5" y="-343" font-family="Helvetica,sans-Serif" font-size="10.00">x</text>
<text text-anchor="middle" x="175.5" y="-332" font-family="Helvetica,sans-Serif" font-size="10.00">y</text>
</g>
<!-- Node10 -->
<g id="node10" class="node">
<title>Node10</title>
<g id="a_node10"><a xlink:href="class_r_o_f_l_1_1_texture.html" target="_top" xlink:title=" ">
<polygon fill="none" stroke="#bfbfbf" points="238,-291.5 238,-310.5 318,-310.5 318,-291.5 238,-291.5"/>
<text text-anchor="middle" x="278" y="-298.5" font-family="Helvetica,sans-Serif" font-size="10.00">ROFL::Texture</text>
</a>
</g>
</g>
<!-- Node10&#45;&gt;Node7 -->
<g id="edge9" class="edge">
<title>Node10&#45;&gt;Node7</title>
<path fill="none" stroke="#9a32cd" stroke-dasharray="5,2" d="M266.64,-282.59C257.45,-268.5 244.88,-249.24 237.69,-238.22"/>
<polygon fill="#9a32cd" stroke="#9a32cd" points="263.96,-284.89 272.36,-291.36 269.83,-281.07 263.96,-284.89"/>
<text text-anchor="middle" x="276" y="-265" font-family="Helvetica,sans-Serif" font-size="10.00"> texture</text>
</g>
</g>
</svg>
