<?xml version="1.0" encoding="UTF-8" standalone="no"?>
<!DOCTYPE svg PUBLIC "-//W3C//DTD SVG 1.1//EN"
 "http://www.w3.org/Graphics/SVG/1.1/DTD/svg11.dtd">
<!-- Generated by graphviz version 3.0.0 (20220226.1711)
 -->
<!-- Title: ROFL::ColliderComponent Pages: 1 -->
<svg width="591pt" height="104pt"
 viewBox="0.00 0.00 591.00 104.00" xmlns="http://www.w3.org/2000/svg" xmlns:xlink="http://www.w3.org/1999/xlink">
<g id="graph0" class="graph" transform="scale(1 1) rotate(0) translate(4 100)">
<title>ROFL::ColliderComponent</title>
<!-- Node1 -->
<g id="node1" class="node">
<title>Node1</title>
<g id="a_node1"><a xlink:title=" ">
<polygon fill="#bfbfbf" stroke="black" points="252,-38.5 252,-57.5 382,-57.5 382,-38.5 252,-38.5"/>
<text text-anchor="middle" x="317" y="-45.5" font-family="Helvetica,sans-Serif" font-size="10.00">ROFL::ColliderComponent</text>
</a>
</g>
</g>
<!-- Node4 -->
<g id="node4" class="node">
<title>Node4</title>
<g id="a_node4"><a xlink:href="struct_r_o_f_l_1_1_box_collider_component.html" target="_top" xlink:title=" ">
<polygon fill="none" stroke="#bfbfbf" points="427,-76.5 427,-95.5 574,-95.5 574,-76.5 427,-76.5"/>
<text text-anchor="middle" x="500.5" y="-83.5" font-family="Helvetica,sans-Serif" font-size="10.00">ROFL::BoxColliderComponent</text>
</a>
</g>
</g>
<!-- Node1&#45;&gt;Node4 -->
<g id="edge3" class="edge">
<title>Node1&#45;&gt;Node4</title>
<path fill="none" stroke="midnightblue" d="M373.79,-59.68C399.53,-65.07 429.7,-71.39 454.03,-76.48"/>
<polygon fill="midnightblue" stroke="midnightblue" points="374.31,-56.21 363.8,-57.59 372.87,-63.06 374.31,-56.21"/>
</g>
<!-- Node5 -->
<g id="node5" class="node">
<title>Node5</title>
<g id="a_node5"><a xlink:href="struct_r_o_f_l_1_1_circle_collider_component.html" target="_top" xlink:title=" ">
<polygon fill="none" stroke="#bfbfbf" points="423,-38.5 423,-57.5 578,-57.5 578,-38.5 423,-38.5"/>
<text text-anchor="middle" x="500.5" y="-45.5" font-family="Helvetica,sans-Serif" font-size="10.00">ROFL::CircleColliderComponent</text>
</a>
</g>
</g>
<!-- Node1&#45;&gt;Node5 -->
<g id="edge4" class="edge">
<title>Node1&#45;&gt;Node5</title>
<path fill="none" stroke="midnightblue" d="M392.56,-48C402.57,-48 412.86,-48 422.91,-48"/>
<polygon fill="midnightblue" stroke="midnightblue" points="392.25,-44.5 382.25,-48 392.25,-51.5 392.25,-44.5"/>
</g>
<!-- Node6 -->
<g id="node6" class="node">
<title>Node6</title>
<g id="a_node6"><a xlink:href="struct_r_o_f_l_1_1_polygon_collider_component.html" target="_top" xlink:title=" ">
<polygon fill="none" stroke="#bfbfbf" points="418,-0.5 418,-19.5 583,-19.5 583,-0.5 418,-0.5"/>
<text text-anchor="middle" x="500.5" y="-7.5" font-family="Helvetica,sans-Serif" font-size="10.00">ROFL::PolygonColliderComponent</text>
</a>
</g>
</g>
<!-- Node1&#45;&gt;Node6 -->
<g id="edge5" class="edge">
<title>Node1&#45;&gt;Node6</title>
<path fill="none" stroke="midnightblue" d="M373.79,-36.32C399.53,-30.93 429.7,-24.61 454.03,-19.52"/>
<polygon fill="midnightblue" stroke="midnightblue" points="372.87,-32.94 363.8,-38.41 374.31,-39.79 372.87,-32.94"/>
</g>
<!-- Node2 -->
<g id="node2" class="node">
<title>Node2</title>
<g id="a_node2"><a xlink:href="struct_r_o_f_l_1_1_component.html" target="_top" xlink:title=" ">
<polygon fill="none" stroke="#bfbfbf" points="118,-38.5 118,-57.5 216,-57.5 216,-38.5 118,-38.5"/>
<text text-anchor="middle" x="167" y="-45.5" font-family="Helvetica,sans-Serif" font-size="10.00">ROFL::Component</text>
</a>
</g>
</g>
<!-- Node2&#45;&gt;Node1 -->
<g id="edge1" class="edge">
<title>Node2&#45;&gt;Node1</title>
<path fill="none" stroke="midnightblue" d="M226.14,-48C234.55,-48 243.25,-48 251.77,-48"/>
<polygon fill="midnightblue" stroke="midnightblue" points="226.05,-44.5 216.05,-48 226.05,-51.5 226.05,-44.5"/>
</g>
<!-- Node3 -->
<g id="node3" class="node">
<title>Node3</title>
<g id="a_node3"><a xlink:href="class_r_o_f_l_1_1_generic.html" target="_top" xlink:title=" ">
<polygon fill="none" stroke="#bfbfbf" points="0,-38.5 0,-57.5 82,-57.5 82,-38.5 0,-38.5"/>
<text text-anchor="middle" x="41" y="-45.5" font-family="Helvetica,sans-Serif" font-size="10.00">ROFL::Generic</text>
</a>
</g>
</g>
<!-- Node3&#45;&gt;Node2 -->
<g id="edge2" class="edge">
<title>Node3&#45;&gt;Node2</title>
<path fill="none" stroke="midnightblue" d="M92.31,-48C100.7,-48 109.39,-48 117.73,-48"/>
<polygon fill="midnightblue" stroke="midnightblue" points="92.26,-44.5 82.26,-48 92.26,-51.5 92.26,-44.5"/>
</g>
</g>
</svg>
