<?xml version="1.0" encoding="UTF-8" standalone="no"?>
<!DOCTYPE svg PUBLIC "-//W3C//DTD SVG 1.1//EN"
 "http://www.w3.org/Graphics/SVG/1.1/DTD/svg11.dtd">
<!-- Generated by graphviz version 3.0.0 (20220226.1711)
 -->
<!-- Title: ROFL::SpriteComponent Pages: 1 -->
<svg width="530pt" height="297pt"
 viewBox="0.00 0.00 529.50 297.00" xmlns="http://www.w3.org/2000/svg" xmlns:xlink="http://www.w3.org/1999/xlink">
<g id="graph0" class="graph" transform="scale(1 1) rotate(0) translate(4 293)">
<title>ROFL::SpriteComponent</title>
<!-- Node1 -->
<g id="node1" class="node">
<title>Node1</title>
<g id="a_node1"><a xlink:title=" ">
<polygon fill="#bfbfbf" stroke="black" points="275.5,-0.5 275.5,-19.5 398.5,-19.5 398.5,-0.5 275.5,-0.5"/>
<text text-anchor="middle" x="337" y="-7.5" font-family="Helvetica,sans-Serif" font-size="10.00">ROFL::SpriteComponent</text>
</a>
</g>
</g>
<!-- Node2 -->
<g id="node2" class="node">
<title>Node2</title>
<g id="a_node2"><a xlink:href="struct_r_o_f_l_1_1_component.html" target="_top" xlink:title=" ">
<polygon fill="none" stroke="#bfbfbf" points="68,-73 68,-92 166,-92 166,-73 68,-73"/>
<text text-anchor="middle" x="117" y="-80" font-family="Helvetica,sans-Serif" font-size="10.00">ROFL::Component</text>
</a>
</g>
</g>
<!-- Node2&#45;&gt;Node1 -->
<g id="edge1" class="edge">
<title>Node2&#45;&gt;Node1</title>
<path fill="none" stroke="midnightblue" d="M153.3,-69.87C197.49,-55.71 271.08,-32.12 310.37,-19.53"/>
<polygon fill="midnightblue" stroke="midnightblue" points="151.99,-66.61 143.54,-73 154.13,-73.28 151.99,-66.61"/>
</g>
<!-- Node3 -->
<g id="node3" class="node">
<title>Node3</title>
<g id="a_node3"><a xlink:href="class_r_o_f_l_1_1_generic.html" target="_top" xlink:title=" ">
<polygon fill="none" stroke="#bfbfbf" points="0,-157.5 0,-176.5 82,-176.5 82,-157.5 0,-157.5"/>
<text text-anchor="middle" x="41" y="-164.5" font-family="Helvetica,sans-Serif" font-size="10.00">ROFL::Generic</text>
</a>
</g>
</g>
<!-- Node3&#45;&gt;Node2 -->
<g id="edge2" class="edge">
<title>Node3&#45;&gt;Node2</title>
<path fill="none" stroke="midnightblue" d="M55.88,-149.85C71.82,-132.54 96.52,-105.73 109.08,-92.1"/>
<polygon fill="midnightblue" stroke="midnightblue" points="53.05,-147.76 48.85,-157.48 58.2,-152.5 53.05,-147.76"/>
</g>
<!-- Node4 -->
<g id="node4" class="node">
<title>Node4</title>
<g id="a_node4"><a xlink:href="class_r_o_f_l_1_1_object.html" target="_top" xlink:title=" ">
<polygon fill="none" stroke="#bfbfbf" points="100.5,-157.5 100.5,-176.5 177.5,-176.5 177.5,-157.5 100.5,-157.5"/>
<text text-anchor="middle" x="139" y="-164.5" font-family="Helvetica,sans-Serif" font-size="10.00">ROFL::Object</text>
</a>
</g>
</g>
<!-- Node4&#45;&gt;Node2 -->
<g id="edge3" class="edge">
<title>Node4&#45;&gt;Node2</title>
<path fill="none" stroke="#9a32cd" stroke-dasharray="5,2" d="M134.05,-147.43C129.44,-130.13 122.76,-105.11 119.29,-92.1"/>
<polygon fill="#9a32cd" stroke="#9a32cd" points="130.77,-148.72 136.73,-157.48 137.53,-146.92 130.77,-148.72"/>
<text text-anchor="middle" x="143" y="-119" font-family="Helvetica,sans-Serif" font-size="10.00"> object</text>
</g>
<!-- Node5 -->
<g id="node5" class="node">
<title>Node5</title>
<g id="a_node5"><a xlink:href="struct_r_o_f_l_1_1_vec2.html" target="_top" xlink:title=" ">
<polygon fill="none" stroke="#bfbfbf" points="184.5,-73 184.5,-92 291.5,-92 291.5,-73 184.5,-73"/>
<text text-anchor="middle" x="238" y="-80" font-family="Helvetica,sans-Serif" font-size="10.00">ROFL::Vec2&lt; float &gt;</text>
</a>
</g>
</g>
<!-- Node5&#45;&gt;Node1 -->
<g id="edge4" class="edge">
<title>Node5&#45;&gt;Node1</title>
<path fill="none" stroke="#9a32cd" stroke-dasharray="5,2" d="M258.29,-67.05C278.27,-52.82 308.16,-31.54 324.76,-19.72"/>
<polygon fill="#9a32cd" stroke="#9a32cd" points="256.25,-64.2 250.14,-72.86 260.32,-69.91 256.25,-64.2"/>
<text text-anchor="middle" x="308.5" y="-41" font-family="Helvetica,sans-Serif" font-size="10.00"> Size</text>
</g>
<!-- Node6 -->
<g id="node6" class="node">
<title>Node6</title>
<g id="a_node6"><a xlink:title=" ">
<polygon fill="none" stroke="#bfbfbf" points="209.5,-269.5 209.5,-288.5 262.5,-288.5 262.5,-269.5 209.5,-269.5"/>
<text text-anchor="middle" x="236" y="-276.5" font-family="Helvetica,sans-Serif" font-size="10.00">Numeric</text>
</a>
</g>
</g>
<!-- Node6&#45;&gt;Node5 -->
<g id="edge5" class="edge">
<title>Node6&#45;&gt;Node5</title>
<path fill="none" stroke="#9a32cd" stroke-dasharray="5,2" d="M233.51,-259.06C230.46,-233.25 226.05,-185.6 229,-145 230.38,-126.06 234.12,-104.09 236.32,-92.21"/>
<polygon fill="#9a32cd" stroke="#9a32cd" points="230.08,-259.79 234.79,-269.28 237.02,-258.92 230.08,-259.79"/>
<text text-anchor="middle" x="233.5" y="-181" font-family="Helvetica,sans-Serif" font-size="10.00"> h</text>
<text text-anchor="middle" x="233.5" y="-170" font-family="Helvetica,sans-Serif" font-size="10.00">w</text>
<text text-anchor="middle" x="233.5" y="-159" font-family="Helvetica,sans-Serif" font-size="10.00">x</text>
<text text-anchor="middle" x="233.5" y="-148" font-family="Helvetica,sans-Serif" font-size="10.00">y</text>
</g>
<!-- Node7 -->
<g id="node7" class="node">
<title>Node7</title>
<g id="a_node7"><a xlink:href="struct_r_o_f_l_1_1_vec2.html" target="_top" xlink:title=" ">
<polygon fill="none" stroke="#bfbfbf" points="247.5,-157.5 247.5,-176.5 372.5,-176.5 372.5,-157.5 247.5,-157.5"/>
<text text-anchor="middle" x="310" y="-164.5" font-family="Helvetica,sans-Serif" font-size="10.00">ROFL::Vec2&lt; Numeric &gt;</text>
</a>
</g>
</g>
<!-- Node6&#45;&gt;Node7 -->
<g id="edge7" class="edge">
<title>Node6&#45;&gt;Node7</title>
<path fill="none" stroke="#9a32cd" stroke-dasharray="5,2" d="M247.47,-260.96C263.5,-237.12 292.03,-194.71 304.22,-176.59"/>
<polygon fill="#9a32cd" stroke="#9a32cd" points="244.48,-259.12 241.81,-269.37 250.29,-263.02 244.48,-259.12"/>
<text text-anchor="middle" x="286.5" y="-243" font-family="Helvetica,sans-Serif" font-size="10.00"> h</text>
<text text-anchor="middle" x="286.5" y="-232" font-family="Helvetica,sans-Serif" font-size="10.00">w</text>
<text text-anchor="middle" x="286.5" y="-221" font-family="Helvetica,sans-Serif" font-size="10.00">x</text>
<text text-anchor="middle" x="286.5" y="-210" font-family="Helvetica,sans-Serif" font-size="10.00">y</text>
</g>
<!-- Node7&#45;&gt;Node5 -->
<g id="edge6" class="edge">
<title>Node7&#45;&gt;Node5</title>
<path fill="none" stroke="#9a32cd" stroke-dasharray="5,2" d="M295.91,-149.85C280.8,-132.54 257.4,-105.73 245.5,-92.1"/>
<polygon fill="#9a32cd" stroke="#9a32cd" points="293.35,-152.25 302.57,-157.48 298.63,-147.65 293.35,-152.25"/>
<text text-anchor="middle" x="285" y="-119" font-family="Helvetica,sans-Serif" font-size="10.00"> Zero</text>
</g>
<!-- Node7&#45;&gt;Node7 -->
<g id="edge8" class="edge">
<title>Node7&#45;&gt;Node7</title>
<path fill="none" stroke="#9a32cd" stroke-dasharray="5,2" d="M382.64,-172.94C387.53,-171.57 390.5,-169.59 390.5,-167 390.5,-162.96 383.26,-160.4 372.78,-159.33"/>
<polygon fill="#9a32cd" stroke="#9a32cd" points="382.02,-169.49 372.78,-174.67 383.23,-176.39 382.02,-169.49"/>
<text text-anchor="middle" x="401.5" y="-164.5" font-family="Helvetica,sans-Serif" font-size="10.00"> Zero</text>
</g>
<!-- Node8 -->
<g id="node8" class="node">
<title>Node8</title>
<g id="a_node8"><a xlink:href="struct_r_o_f_l_1_1_sprite_component_1_1_flip.html" target="_top" xlink:title=" ">
<polygon fill="none" stroke="#bfbfbf" points="309.5,-67.5 309.5,-97.5 432.5,-97.5 432.5,-67.5 309.5,-67.5"/>
<text text-anchor="start" x="317.5" y="-85.5" font-family="Helvetica,sans-Serif" font-size="10.00">ROFL::SpriteComponent</text>
<text text-anchor="middle" x="371" y="-74.5" font-family="Helvetica,sans-Serif" font-size="10.00">::Flip</text>
</a>
</g>
</g>
<!-- Node8&#45;&gt;Node1 -->
<g id="edge9" class="edge">
<title>Node8&#45;&gt;Node1</title>
<path fill="none" stroke="#9a32cd" stroke-dasharray="5,2" d="M359.6,-57.86C353.31,-44.82 345.87,-29.38 341.29,-19.89"/>
<polygon fill="#9a32cd" stroke="#9a32cd" points="356.62,-59.75 364.12,-67.23 362.93,-56.71 356.62,-59.75"/>
<text text-anchor="middle" x="365.5" y="-41" font-family="Helvetica,sans-Serif" font-size="10.00"> Flip</text>
</g>
<!-- Node9 -->
<g id="node9" class="node">
<title>Node9</title>
<g id="a_node9"><a xlink:href="struct_r_o_f_l_1_1_color.html" target="_top" xlink:title=" ">
<polygon fill="none" stroke="#bfbfbf" points="450.5,-73 450.5,-92 521.5,-92 521.5,-73 450.5,-73"/>
<text text-anchor="middle" x="486" y="-80" font-family="Helvetica,sans-Serif" font-size="10.00">ROFL::Color</text>
</a>
</g>
</g>
<!-- Node9&#45;&gt;Node1 -->
<g id="edge10" class="edge">
<title>Node9&#45;&gt;Node1</title>
<path fill="none" stroke="#9a32cd" stroke-dasharray="5,2" d="M458.91,-68.68C428.77,-54.42 380.91,-31.78 355.04,-19.53"/>
<polygon fill="#9a32cd" stroke="#9a32cd" points="457.49,-71.88 468.03,-73 460.48,-65.56 457.49,-71.88"/>
<text text-anchor="middle" x="428" y="-41" font-family="Helvetica,sans-Serif" font-size="10.00"> Color</text>
</g>
</g>
</svg>
