<?xml version="1.0" encoding="UTF-8" standalone="no"?>
<!DOCTYPE svg PUBLIC "-//W3C//DTD SVG 1.1//EN"
 "http://www.w3.org/Graphics/SVG/1.1/DTD/svg11.dtd">
<!-- Generated by graphviz version 3.0.0 (20220226.1711)
 -->
<!-- Title: ROFL::Ray Pages: 1 -->
<svg width="238pt" height="297pt"
 viewBox="0.00 0.00 238.00 297.00" xmlns="http://www.w3.org/2000/svg" xmlns:xlink="http://www.w3.org/1999/xlink">
<g id="graph0" class="graph" transform="scale(1 1) rotate(0) translate(4 293)">
<title>ROFL::Ray</title>
<!-- Node1 -->
<g id="node1" class="node">
<title>Node1</title>
<g id="a_node1"><a xlink:title=" ">
<polygon fill="#bfbfbf" stroke="black" points="21,-0.5 21,-19.5 86,-19.5 86,-0.5 21,-0.5"/>
<text text-anchor="middle" x="53.5" y="-7.5" font-family="Helvetica,sans-Serif" font-size="10.00">ROFL::Ray</text>
</a>
</g>
</g>
<!-- Node2 -->
<g id="node2" class="node">
<title>Node2</title>
<g id="a_node2"><a xlink:href="struct_r_o_f_l_1_1_vec2.html" target="_top" xlink:title=" ">
<polygon fill="none" stroke="#bfbfbf" points="0,-78.5 0,-97.5 107,-97.5 107,-78.5 0,-78.5"/>
<text text-anchor="middle" x="53.5" y="-85.5" font-family="Helvetica,sans-Serif" font-size="10.00">ROFL::Vec2&lt; float &gt;</text>
</a>
</g>
</g>
<!-- Node2&#45;&gt;Node1 -->
<g id="edge1" class="edge">
<title>Node2&#45;&gt;Node1</title>
<path fill="none" stroke="#9a32cd" stroke-dasharray="5,2" d="M53.5,-68.22C53.5,-52.7 53.5,-31.36 53.5,-19.62"/>
<polygon fill="#9a32cd" stroke="#9a32cd" points="50,-68.28 53.5,-78.28 57,-68.28 50,-68.28"/>
<text text-anchor="middle" x="73.5" y="-52" font-family="Helvetica,sans-Serif" font-size="10.00"> direction</text>
<text text-anchor="middle" x="73.5" y="-41" font-family="Helvetica,sans-Serif" font-size="10.00">origin</text>
</g>
<!-- Node3 -->
<g id="node3" class="node">
<title>Node3</title>
<g id="a_node3"><a xlink:title=" ">
<polygon fill="none" stroke="#bfbfbf" points="27,-269.5 27,-288.5 80,-288.5 80,-269.5 27,-269.5"/>
<text text-anchor="middle" x="53.5" y="-276.5" font-family="Helvetica,sans-Serif" font-size="10.00">Numeric</text>
</a>
</g>
</g>
<!-- Node3&#45;&gt;Node2 -->
<g id="edge2" class="edge">
<title>Node3&#45;&gt;Node2</title>
<path fill="none" stroke="#9a32cd" stroke-dasharray="5,2" d="M51.14,-259.07C48.23,-233.27 43.97,-185.63 46.5,-145 47.55,-128.18 50.35,-108.68 52.07,-97.7"/>
<polygon fill="#9a32cd" stroke="#9a32cd" points="47.7,-259.76 52.35,-269.28 54.65,-258.94 47.7,-259.76"/>
<text text-anchor="middle" x="51" y="-181" font-family="Helvetica,sans-Serif" font-size="10.00"> h</text>
<text text-anchor="middle" x="51" y="-170" font-family="Helvetica,sans-Serif" font-size="10.00">w</text>
<text text-anchor="middle" x="51" y="-159" font-family="Helvetica,sans-Serif" font-size="10.00">x</text>
<text text-anchor="middle" x="51" y="-148" font-family="Helvetica,sans-Serif" font-size="10.00">y</text>
</g>
<!-- Node4 -->
<g id="node4" class="node">
<title>Node4</title>
<g id="a_node4"><a xlink:href="struct_r_o_f_l_1_1_vec2.html" target="_top" xlink:title=" ">
<polygon fill="none" stroke="#bfbfbf" points="65,-157.5 65,-176.5 190,-176.5 190,-157.5 65,-157.5"/>
<text text-anchor="middle" x="127.5" y="-164.5" font-family="Helvetica,sans-Serif" font-size="10.00">ROFL::Vec2&lt; Numeric &gt;</text>
</a>
</g>
</g>
<!-- Node3&#45;&gt;Node4 -->
<g id="edge4" class="edge">
<title>Node3&#45;&gt;Node4</title>
<path fill="none" stroke="#9a32cd" stroke-dasharray="5,2" d="M64.97,-260.96C81,-237.12 109.53,-194.71 121.72,-176.59"/>
<polygon fill="#9a32cd" stroke="#9a32cd" points="61.98,-259.12 59.31,-269.37 67.79,-263.02 61.98,-259.12"/>
<text text-anchor="middle" x="103" y="-243" font-family="Helvetica,sans-Serif" font-size="10.00"> h</text>
<text text-anchor="middle" x="103" y="-232" font-family="Helvetica,sans-Serif" font-size="10.00">w</text>
<text text-anchor="middle" x="103" y="-221" font-family="Helvetica,sans-Serif" font-size="10.00">x</text>
<text text-anchor="middle" x="103" y="-210" font-family="Helvetica,sans-Serif" font-size="10.00">y</text>
</g>
<!-- Node4&#45;&gt;Node2 -->
<g id="edge3" class="edge">
<title>Node4&#45;&gt;Node2</title>
<path fill="none" stroke="#9a32cd" stroke-dasharray="5,2" d="M112.12,-150C96.9,-134.16 74.17,-110.51 61.97,-97.81"/>
<polygon fill="#9a32cd" stroke="#9a32cd" points="109.85,-152.68 119.3,-157.47 114.89,-147.83 109.85,-152.68"/>
<text text-anchor="middle" x="98.5" y="-119" font-family="Helvetica,sans-Serif" font-size="10.00"> Zero</text>
</g>
<!-- Node4&#45;&gt;Node4 -->
<g id="edge5" class="edge">
<title>Node4&#45;&gt;Node4</title>
<path fill="none" stroke="#9a32cd" stroke-dasharray="5,2" d="M200.14,-172.94C205.03,-171.57 208,-169.59 208,-167 208,-162.96 200.76,-160.4 190.28,-159.33"/>
<polygon fill="#9a32cd" stroke="#9a32cd" points="199.52,-169.49 190.28,-174.67 200.73,-176.39 199.52,-169.49"/>
<text text-anchor="middle" x="219" y="-164.5" font-family="Helvetica,sans-Serif" font-size="10.00"> Zero</text>
</g>
</g>
</svg>
