<?xml version="1.0" encoding="UTF-8" standalone="no"?>
<!DOCTYPE svg PUBLIC "-//W3C//DTD SVG 1.1//EN"
 "http://www.w3.org/Graphics/SVG/1.1/DTD/svg11.dtd">
<!-- Generated by graphviz version 3.0.0 (20220226.1711)
 -->
<!-- Title: ROFL::Vec2&lt; Numeric &gt; Pages: 1 -->
<svg width="247pt" height="219pt"
 viewBox="0.00 0.00 247.00 219.00" xmlns="http://www.w3.org/2000/svg" xmlns:xlink="http://www.w3.org/1999/xlink">
<g id="graph0" class="graph" transform="scale(1 1) rotate(0) translate(4 215)">
<title>ROFL::Vec2&lt; Numeric &gt;</title>
<!-- Node1 -->
<g id="node1" class="node">
<title>Node1</title>
<g id="a_node1"><a xlink:title=" ">
<polygon fill="#bfbfbf" stroke="black" points="0,-0.5 0,-19.5 125,-19.5 125,-0.5 0,-0.5"/>
<text text-anchor="middle" x="62.5" y="-7.5" font-family="Helvetica,sans-Serif" font-size="10.00">ROFL::Vec2&lt; Numeric &gt;</text>
</a>
</g>
</g>
<!-- Node2 -->
<g id="node2" class="node">
<title>Node2</title>
<g id="a_node2"><a xlink:title=" ">
<polygon fill="none" stroke="#bfbfbf" points="36,-191.5 36,-210.5 89,-210.5 89,-191.5 36,-191.5"/>
<text text-anchor="middle" x="62.5" y="-198.5" font-family="Helvetica,sans-Serif" font-size="10.00">Numeric</text>
</a>
</g>
</g>
<!-- Node2&#45;&gt;Node1 -->
<g id="edge1" class="edge">
<title>Node2&#45;&gt;Node1</title>
<path fill="none" stroke="#9a32cd" stroke-dasharray="5,2" d="M60.14,-181.07C57.23,-155.27 52.97,-107.63 55.5,-67 56.55,-50.18 59.35,-30.68 61.07,-19.7"/>
<polygon fill="#9a32cd" stroke="#9a32cd" points="56.7,-181.76 61.35,-191.28 63.65,-180.94 56.7,-181.76"/>
<text text-anchor="middle" x="60" y="-103" font-family="Helvetica,sans-Serif" font-size="10.00"> h</text>
<text text-anchor="middle" x="60" y="-92" font-family="Helvetica,sans-Serif" font-size="10.00">w</text>
<text text-anchor="middle" x="60" y="-81" font-family="Helvetica,sans-Serif" font-size="10.00">x</text>
<text text-anchor="middle" x="60" y="-70" font-family="Helvetica,sans-Serif" font-size="10.00">y</text>
</g>
<!-- Node3 -->
<g id="node3" class="node">
<title>Node3</title>
<g id="a_node3"><a xlink:href="struct_r_o_f_l_1_1_vec2.html" target="_top" xlink:title=" ">
<polygon fill="none" stroke="#bfbfbf" points="74,-79.5 74,-98.5 199,-98.5 199,-79.5 74,-79.5"/>
<text text-anchor="middle" x="136.5" y="-86.5" font-family="Helvetica,sans-Serif" font-size="10.00">ROFL::Vec2&lt; Numeric &gt;</text>
</a>
</g>
</g>
<!-- Node2&#45;&gt;Node3 -->
<g id="edge3" class="edge">
<title>Node2&#45;&gt;Node3</title>
<path fill="none" stroke="#9a32cd" stroke-dasharray="5,2" d="M73.97,-182.96C90,-159.12 118.53,-116.71 130.72,-98.59"/>
<polygon fill="#9a32cd" stroke="#9a32cd" points="70.98,-181.12 68.31,-191.37 76.79,-185.02 70.98,-181.12"/>
<text text-anchor="middle" x="112" y="-165" font-family="Helvetica,sans-Serif" font-size="10.00"> h</text>
<text text-anchor="middle" x="112" y="-154" font-family="Helvetica,sans-Serif" font-size="10.00">w</text>
<text text-anchor="middle" x="112" y="-143" font-family="Helvetica,sans-Serif" font-size="10.00">x</text>
<text text-anchor="middle" x="112" y="-132" font-family="Helvetica,sans-Serif" font-size="10.00">y</text>
</g>
<!-- Node3&#45;&gt;Node1 -->
<g id="edge2" class="edge">
<title>Node3&#45;&gt;Node1</title>
<path fill="none" stroke="#9a32cd" stroke-dasharray="5,2" d="M121.12,-72C105.9,-56.16 83.17,-32.51 70.97,-19.81"/>
<polygon fill="#9a32cd" stroke="#9a32cd" points="118.85,-74.68 128.3,-79.47 123.89,-69.83 118.85,-74.68"/>
<text text-anchor="middle" x="107.5" y="-41" font-family="Helvetica,sans-Serif" font-size="10.00"> Zero</text>
</g>
<!-- Node3&#45;&gt;Node3 -->
<g id="edge4" class="edge">
<title>Node3&#45;&gt;Node3</title>
<path fill="none" stroke="#9a32cd" stroke-dasharray="5,2" d="M209.14,-94.94C214.03,-93.57 217,-91.59 217,-89 217,-84.96 209.76,-82.4 199.28,-81.33"/>
<polygon fill="#9a32cd" stroke="#9a32cd" points="208.52,-91.49 199.28,-96.67 209.73,-98.39 208.52,-91.49"/>
<text text-anchor="middle" x="228" y="-86.5" font-family="Helvetica,sans-Serif" font-size="10.00"> Zero</text>
</g>
</g>
</svg>
