<?xml version="1.0" encoding="UTF-8" standalone="no"?>
<!DOCTYPE svg PUBLIC "-//W3C//DTD SVG 1.1//EN"
 "http://www.w3.org/Graphics/SVG/1.1/DTD/svg11.dtd">
<!-- Generated by graphviz version 3.0.0 (20220226.1711)
 -->
<!-- Title: ROFL::Component Pages: 1 -->
<svg width="603pt" height="306pt"
 viewBox="0.00 0.00 603.00 305.50" xmlns="http://www.w3.org/2000/svg" xmlns:xlink="http://www.w3.org/1999/xlink">
<g id="graph0" class="graph" transform="scale(1 1) rotate(0) translate(4 301.5)">
<title>ROFL::Component</title>
<!-- Node1 -->
<g id="node1" class="node">
<title>Node1</title>
<g id="a_node1"><a xlink:title=" ">
<polygon fill="#bfbfbf" stroke="black" points="118,-133.5 118,-152.5 216,-152.5 216,-133.5 118,-133.5"/>
<text text-anchor="middle" x="167" y="-140.5" font-family="Helvetica,sans-Serif" font-size="10.00">ROFL::Component</text>
</a>
</g>
</g>
<!-- Node3 -->
<g id="node3" class="node">
<title>Node3</title>
<g id="a_node3"><a xlink:href="struct_r_o_f_l_1_1_animation_controller_component.html" target="_top" xlink:title=" ">
<polygon fill="none" stroke="#bfbfbf" points="256.5,-267 256.5,-297 389.5,-297 389.5,-267 256.5,-267"/>
<text text-anchor="start" x="264.5" y="-285" font-family="Helvetica,sans-Serif" font-size="10.00">ROFL::AnimationController</text>
<text text-anchor="middle" x="323" y="-274" font-family="Helvetica,sans-Serif" font-size="10.00">Component</text>
</a>
</g>
</g>
<!-- Node1&#45;&gt;Node3 -->
<g id="edge2" class="edge">
<title>Node1&#45;&gt;Node3</title>
<path fill="none" stroke="midnightblue" d="M177.36,-161.97C190.66,-187.09 217.32,-231.21 252,-257 257.18,-260.85 263,-264.15 269.03,-266.97"/>
<polygon fill="midnightblue" stroke="midnightblue" points="180.32,-160.07 172.64,-152.77 174.09,-163.26 180.32,-160.07"/>
</g>
<!-- Node4 -->
<g id="node4" class="node">
<title>Node4</title>
<g id="a_node4"><a xlink:href="struct_r_o_f_l_1_1_audio_component.html" target="_top" xlink:title=" ">
<polygon fill="none" stroke="#bfbfbf" points="262,-228.5 262,-247.5 384,-247.5 384,-228.5 262,-228.5"/>
<text text-anchor="middle" x="323" y="-235.5" font-family="Helvetica,sans-Serif" font-size="10.00">ROFL::AudioComponent</text>
</a>
</g>
</g>
<!-- Node1&#45;&gt;Node4 -->
<g id="edge3" class="edge">
<title>Node1&#45;&gt;Node4</title>
<path fill="none" stroke="midnightblue" d="M182.73,-160.45C198.25,-177.77 224.27,-203.84 252,-219 259.07,-222.87 266.98,-225.99 274.87,-228.49"/>
<polygon fill="midnightblue" stroke="midnightblue" points="185.2,-157.97 175.98,-152.74 179.93,-162.57 185.2,-157.97"/>
</g>
<!-- Node5 -->
<g id="node5" class="node">
<title>Node5</title>
<g id="a_node5"><a xlink:href="struct_r_o_f_l_1_1_camera_component.html" target="_top" xlink:title=" ">
<polygon fill="none" stroke="#bfbfbf" points="257.5,-190.5 257.5,-209.5 388.5,-209.5 388.5,-190.5 257.5,-190.5"/>
<text text-anchor="middle" x="323" y="-197.5" font-family="Helvetica,sans-Serif" font-size="10.00">ROFL::CameraComponent</text>
</a>
</g>
</g>
<!-- Node1&#45;&gt;Node5 -->
<g id="edge4" class="edge">
<title>Node1&#45;&gt;Node5</title>
<path fill="none" stroke="midnightblue" d="M196.35,-157.19C212.42,-164.89 233.04,-174.19 252,-181 261.72,-184.49 272.39,-187.7 282.41,-190.44"/>
<polygon fill="midnightblue" stroke="midnightblue" points="197.51,-153.87 186.99,-152.65 194.45,-160.16 197.51,-153.87"/>
</g>
<!-- Node6 -->
<g id="node6" class="node">
<title>Node6</title>
<g id="a_node6"><a xlink:href="struct_r_o_f_l_1_1_collider_component.html" target="_top" xlink:title=" ">
<polygon fill="none" stroke="#bfbfbf" points="258,-152.5 258,-171.5 388,-171.5 388,-152.5 258,-152.5"/>
<text text-anchor="middle" x="323" y="-159.5" font-family="Helvetica,sans-Serif" font-size="10.00">ROFL::ColliderComponent</text>
</a>
</g>
</g>
<!-- Node1&#45;&gt;Node6 -->
<g id="edge5" class="edge">
<title>Node1&#45;&gt;Node6</title>
<path fill="none" stroke="midnightblue" d="M226.38,-150.2C236.63,-151.47 247.36,-152.79 257.77,-154.08"/>
<polygon fill="midnightblue" stroke="midnightblue" points="226.66,-146.71 216.3,-148.96 225.8,-153.66 226.66,-146.71"/>
</g>
<!-- Node11 -->
<g id="node11" class="node">
<title>Node11</title>
<g id="a_node11"><a xlink:href="struct_r_o_f_l_1_1_rigid_body_component.html" target="_top" xlink:title=" ">
<polygon fill="none" stroke="#bfbfbf" points="252,-114.5 252,-133.5 394,-133.5 394,-114.5 252,-114.5"/>
<text text-anchor="middle" x="323" y="-121.5" font-family="Helvetica,sans-Serif" font-size="10.00">ROFL::RigidBodyComponent</text>
</a>
</g>
</g>
<!-- Node1&#45;&gt;Node11 -->
<g id="edge10" class="edge">
<title>Node1&#45;&gt;Node11</title>
<path fill="none" stroke="midnightblue" d="M226.31,-135.81C234.66,-134.78 243.32,-133.71 251.87,-132.65"/>
<polygon fill="midnightblue" stroke="midnightblue" points="225.8,-132.34 216.3,-137.04 226.66,-139.29 225.8,-132.34"/>
</g>
<!-- Node12 -->
<g id="node12" class="node">
<title>Node12</title>
<g id="a_node12"><a xlink:href="struct_r_o_f_l_1_1_script_component.html" target="_top" xlink:title=" ">
<polygon fill="none" stroke="#bfbfbf" points="261.5,-76.5 261.5,-95.5 384.5,-95.5 384.5,-76.5 261.5,-76.5"/>
<text text-anchor="middle" x="323" y="-83.5" font-family="Helvetica,sans-Serif" font-size="10.00">ROFL::ScriptComponent</text>
</a>
</g>
</g>
<!-- Node1&#45;&gt;Node12 -->
<g id="edge11" class="edge">
<title>Node1&#45;&gt;Node12</title>
<path fill="none" stroke="midnightblue" d="M196.35,-128.81C212.42,-121.11 233.04,-111.81 252,-105 261.72,-101.51 272.39,-98.3 282.41,-95.56"/>
<polygon fill="midnightblue" stroke="midnightblue" points="194.45,-125.84 186.99,-133.35 197.51,-132.13 194.45,-125.84"/>
</g>
<!-- Node13 -->
<g id="node13" class="node">
<title>Node13</title>
<g id="a_node13"><a xlink:href="struct_r_o_f_l_1_1_sprite_component.html" target="_top" xlink:title=" ">
<polygon fill="none" stroke="#bfbfbf" points="261.5,-38.5 261.5,-57.5 384.5,-57.5 384.5,-38.5 261.5,-38.5"/>
<text text-anchor="middle" x="323" y="-45.5" font-family="Helvetica,sans-Serif" font-size="10.00">ROFL::SpriteComponent</text>
</a>
</g>
</g>
<!-- Node1&#45;&gt;Node13 -->
<g id="edge12" class="edge">
<title>Node1&#45;&gt;Node13</title>
<path fill="none" stroke="midnightblue" d="M182.73,-125.55C198.25,-108.23 224.27,-82.16 252,-67 259.07,-63.13 266.98,-60.01 274.87,-57.51"/>
<polygon fill="midnightblue" stroke="midnightblue" points="179.93,-123.43 175.98,-133.26 185.2,-128.03 179.93,-123.43"/>
</g>
<!-- Node14 -->
<g id="node14" class="node">
<title>Node14</title>
<g id="a_node14"><a xlink:href="struct_r_o_f_l_1_1_transform_component.html" target="_top" xlink:title=" ">
<polygon fill="none" stroke="#bfbfbf" points="253,-0.5 253,-19.5 393,-19.5 393,-0.5 253,-0.5"/>
<text text-anchor="middle" x="323" y="-7.5" font-family="Helvetica,sans-Serif" font-size="10.00">ROFL::TransformComponent</text>
</a>
</g>
</g>
<!-- Node1&#45;&gt;Node14 -->
<g id="edge13" class="edge">
<title>Node1&#45;&gt;Node14</title>
<path fill="none" stroke="midnightblue" d="M176.71,-124.35C189.55,-98.9 216.01,-53.65 252,-29 257.71,-25.09 264.2,-21.98 270.87,-19.51"/>
<polygon fill="midnightblue" stroke="midnightblue" points="173.56,-122.82 172.32,-133.34 179.85,-125.89 173.56,-122.82"/>
</g>
<!-- Node2 -->
<g id="node2" class="node">
<title>Node2</title>
<g id="a_node2"><a xlink:href="class_r_o_f_l_1_1_generic.html" target="_top" xlink:title=" ">
<polygon fill="none" stroke="#bfbfbf" points="0,-133.5 0,-152.5 82,-152.5 82,-133.5 0,-133.5"/>
<text text-anchor="middle" x="41" y="-140.5" font-family="Helvetica,sans-Serif" font-size="10.00">ROFL::Generic</text>
</a>
</g>
</g>
<!-- Node2&#45;&gt;Node1 -->
<g id="edge1" class="edge">
<title>Node2&#45;&gt;Node1</title>
<path fill="none" stroke="midnightblue" d="M92.31,-143C100.7,-143 109.39,-143 117.73,-143"/>
<polygon fill="midnightblue" stroke="midnightblue" points="92.26,-139.5 82.26,-143 92.26,-146.5 92.26,-139.5"/>
</g>
<!-- Node7 -->
<g id="node7" class="node">
<title>Node7</title>
<g id="a_node7"><a xlink:href="struct_r_o_f_l_1_1_box_collider_component.html" target="_top" xlink:title=" ">
<polygon fill="none" stroke="#bfbfbf" points="439,-209.5 439,-228.5 586,-228.5 586,-209.5 439,-209.5"/>
<text text-anchor="middle" x="512.5" y="-216.5" font-family="Helvetica,sans-Serif" font-size="10.00">ROFL::BoxColliderComponent</text>
</a>
</g>
</g>
<!-- Node6&#45;&gt;Node7 -->
<g id="edge6" class="edge">
<title>Node6&#45;&gt;Node7</title>
<path fill="none" stroke="midnightblue" d="M375.21,-174.49C381.61,-176.46 388,-178.64 394,-181 410.83,-187.63 413.05,-193.67 430,-200 439.94,-203.71 450.83,-206.85 461.33,-209.44"/>
<polygon fill="midnightblue" stroke="midnightblue" points="375.79,-171.01 365.21,-171.56 373.82,-177.73 375.79,-171.01"/>
</g>
<!-- Node8 -->
<g id="node8" class="node">
<title>Node8</title>
<g id="a_node8"><a xlink:href="struct_r_o_f_l_1_1_capsule_collider_component.html" target="_top" xlink:title=" ">
<polygon fill="none" stroke="#bfbfbf" points="430,-171.5 430,-190.5 595,-190.5 595,-171.5 430,-171.5"/>
<text text-anchor="middle" x="512.5" y="-178.5" font-family="Helvetica,sans-Serif" font-size="10.00">ROFL::CapsuleColliderComponent</text>
</a>
</g>
</g>
<!-- Node6&#45;&gt;Node8 -->
<g id="edge7" class="edge">
<title>Node6&#45;&gt;Node8</title>
<path fill="none" stroke="midnightblue" d="M398.26,-169.52C408.65,-170.58 419.37,-171.66 429.88,-172.73"/>
<polygon fill="midnightblue" stroke="midnightblue" points="398.3,-166.01 388,-168.49 397.6,-172.98 398.3,-166.01"/>
</g>
<!-- Node9 -->
<g id="node9" class="node">
<title>Node9</title>
<g id="a_node9"><a xlink:href="struct_r_o_f_l_1_1_circle_collider_component.html" target="_top" xlink:title=" ">
<polygon fill="none" stroke="#bfbfbf" points="435,-133.5 435,-152.5 590,-152.5 590,-133.5 435,-133.5"/>
<text text-anchor="middle" x="512.5" y="-140.5" font-family="Helvetica,sans-Serif" font-size="10.00">ROFL::CircleColliderComponent</text>
</a>
</g>
</g>
<!-- Node6&#45;&gt;Node9 -->
<g id="edge8" class="edge">
<title>Node6&#45;&gt;Node9</title>
<path fill="none" stroke="midnightblue" d="M398.03,-154.5C410.13,-153.27 422.68,-152 434.83,-150.77"/>
<polygon fill="midnightblue" stroke="midnightblue" points="397.6,-151.02 388,-155.51 398.3,-157.99 397.6,-151.02"/>
</g>
<!-- Node10 -->
<g id="node10" class="node">
<title>Node10</title>
<g id="a_node10"><a xlink:href="struct_r_o_f_l_1_1_polygon_collider_component.html" target="_top" xlink:title=" ">
<polygon fill="none" stroke="#bfbfbf" points="430,-95.5 430,-114.5 595,-114.5 595,-95.5 430,-95.5"/>
<text text-anchor="middle" x="512.5" y="-102.5" font-family="Helvetica,sans-Serif" font-size="10.00">ROFL::PolygonColliderComponent</text>
</a>
</g>
</g>
<!-- Node6&#45;&gt;Node10 -->
<g id="edge9" class="edge">
<title>Node6&#45;&gt;Node10</title>
<path fill="none" stroke="midnightblue" d="M375.21,-149.51C381.61,-147.54 388,-145.36 394,-143 410.83,-136.37 413.05,-130.33 430,-124 439.94,-120.29 450.83,-117.15 461.33,-114.56"/>
<polygon fill="midnightblue" stroke="midnightblue" points="373.82,-146.27 365.21,-152.44 375.79,-152.99 373.82,-146.27"/>
</g>
</g>
</svg>
