<?xml version="1.0" encoding="UTF-8" standalone="no"?>
<!DOCTYPE svg PUBLIC "-//W3C//DTD SVG 1.1//EN"
 "http://www.w3.org/Graphics/SVG/1.1/DTD/svg11.dtd">
<!-- Generated by graphviz version 3.0.0 (20220226.1711)
 -->
<!-- Title: ROFL::Circle Pages: 1 -->
<svg width="238pt" height="286pt"
 viewBox="0.00 0.00 238.00 286.00" xmlns="http://www.w3.org/2000/svg" xmlns:xlink="http://www.w3.org/1999/xlink">
<g id="graph0" class="graph" transform="scale(1 1) rotate(0) translate(4 282)">
<title>ROFL::Circle</title>
<!-- Node1 -->
<g id="node1" class="node">
<title>Node1</title>
<g id="a_node1"><a xlink:title=" ">
<polygon fill="#bfbfbf" stroke="black" points="17,-0.5 17,-19.5 90,-19.5 90,-0.5 17,-0.5"/>
<text text-anchor="middle" x="53.5" y="-7.5" font-family="Helvetica,sans-Serif" font-size="10.00">ROFL::Circle</text>
</a>
</g>
</g>
<!-- Node2 -->
<g id="node2" class="node">
<title>Node2</title>
<g id="a_node2"><a xlink:href="struct_r_o_f_l_1_1_vec2.html" target="_top" xlink:title=" ">
<polygon fill="none" stroke="#bfbfbf" points="0,-67.5 0,-86.5 107,-86.5 107,-67.5 0,-67.5"/>
<text text-anchor="middle" x="53.5" y="-74.5" font-family="Helvetica,sans-Serif" font-size="10.00">ROFL::Vec2&lt; float &gt;</text>
</a>
</g>
</g>
<!-- Node2&#45;&gt;Node1 -->
<g id="edge1" class="edge">
<title>Node2&#45;&gt;Node1</title>
<path fill="none" stroke="#9a32cd" stroke-dasharray="5,2" d="M53.5,-57.04C53.5,-44.67 53.5,-29.12 53.5,-19.63"/>
<polygon fill="#9a32cd" stroke="#9a32cd" points="50,-57.23 53.5,-67.23 57,-57.23 50,-57.23"/>
<text text-anchor="middle" x="69" y="-41" font-family="Helvetica,sans-Serif" font-size="10.00"> center</text>
</g>
<!-- Node3 -->
<g id="node3" class="node">
<title>Node3</title>
<g id="a_node3"><a xlink:title=" ">
<polygon fill="none" stroke="#bfbfbf" points="27,-258.5 27,-277.5 80,-277.5 80,-258.5 27,-258.5"/>
<text text-anchor="middle" x="53.5" y="-265.5" font-family="Helvetica,sans-Serif" font-size="10.00">Numeric</text>
</a>
</g>
</g>
<!-- Node3&#45;&gt;Node2 -->
<g id="edge2" class="edge">
<title>Node3&#45;&gt;Node2</title>
<path fill="none" stroke="#9a32cd" stroke-dasharray="5,2" d="M51.14,-248.07C48.23,-222.27 43.97,-174.63 46.5,-134 47.55,-117.18 50.35,-97.68 52.07,-86.7"/>
<polygon fill="#9a32cd" stroke="#9a32cd" points="47.7,-248.76 52.35,-258.28 54.65,-247.94 47.7,-248.76"/>
<text text-anchor="middle" x="51" y="-170" font-family="Helvetica,sans-Serif" font-size="10.00"> h</text>
<text text-anchor="middle" x="51" y="-159" font-family="Helvetica,sans-Serif" font-size="10.00">w</text>
<text text-anchor="middle" x="51" y="-148" font-family="Helvetica,sans-Serif" font-size="10.00">x</text>
<text text-anchor="middle" x="51" y="-137" font-family="Helvetica,sans-Serif" font-size="10.00">y</text>
</g>
<!-- Node4 -->
<g id="node4" class="node">
<title>Node4</title>
<g id="a_node4"><a xlink:href="struct_r_o_f_l_1_1_vec2.html" target="_top" xlink:title=" ">
<polygon fill="none" stroke="#bfbfbf" points="65,-146.5 65,-165.5 190,-165.5 190,-146.5 65,-146.5"/>
<text text-anchor="middle" x="127.5" y="-153.5" font-family="Helvetica,sans-Serif" font-size="10.00">ROFL::Vec2&lt; Numeric &gt;</text>
</a>
</g>
</g>
<!-- Node3&#45;&gt;Node4 -->
<g id="edge4" class="edge">
<title>Node3&#45;&gt;Node4</title>
<path fill="none" stroke="#9a32cd" stroke-dasharray="5,2" d="M64.97,-249.96C81,-226.12 109.53,-183.71 121.72,-165.59"/>
<polygon fill="#9a32cd" stroke="#9a32cd" points="61.98,-248.12 59.31,-258.37 67.79,-252.02 61.98,-248.12"/>
<text text-anchor="middle" x="103" y="-232" font-family="Helvetica,sans-Serif" font-size="10.00"> h</text>
<text text-anchor="middle" x="103" y="-221" font-family="Helvetica,sans-Serif" font-size="10.00">w</text>
<text text-anchor="middle" x="103" y="-210" font-family="Helvetica,sans-Serif" font-size="10.00">x</text>
<text text-anchor="middle" x="103" y="-199" font-family="Helvetica,sans-Serif" font-size="10.00">y</text>
</g>
<!-- Node4&#45;&gt;Node2 -->
<g id="edge3" class="edge">
<title>Node4&#45;&gt;Node2</title>
<path fill="none" stroke="#9a32cd" stroke-dasharray="5,2" d="M112.12,-139C96.9,-123.16 74.17,-99.51 61.97,-86.81"/>
<polygon fill="#9a32cd" stroke="#9a32cd" points="109.85,-141.68 119.3,-146.47 114.89,-136.83 109.85,-141.68"/>
<text text-anchor="middle" x="98.5" y="-108" font-family="Helvetica,sans-Serif" font-size="10.00"> Zero</text>
</g>
<!-- Node4&#45;&gt;Node4 -->
<g id="edge5" class="edge">
<title>Node4&#45;&gt;Node4</title>
<path fill="none" stroke="#9a32cd" stroke-dasharray="5,2" d="M200.14,-161.94C205.03,-160.57 208,-158.59 208,-156 208,-151.96 200.76,-149.4 190.28,-148.33"/>
<polygon fill="#9a32cd" stroke="#9a32cd" points="199.52,-158.49 190.28,-163.67 200.73,-165.39 199.52,-158.49"/>
<text text-anchor="middle" x="219" y="-153.5" font-family="Helvetica,sans-Serif" font-size="10.00"> Zero</text>
</g>
</g>
</svg>
