<?xml version="1.0" encoding="UTF-8" standalone="no"?>
<!DOCTYPE svg PUBLIC "-//W3C//DTD SVG 1.1//EN"
 "http://www.w3.org/Graphics/SVG/1.1/DTD/svg11.dtd">
<!-- Generated by graphviz version 3.0.0 (20220226.1711)
 -->
<!-- Title: ROFL::Polygon Pages: 1 -->
<svg width="247pt" height="297pt"
 viewBox="0.00 0.00 247.00 297.00" xmlns="http://www.w3.org/2000/svg" xmlns:xlink="http://www.w3.org/1999/xlink">
<g id="graph0" class="graph" transform="scale(1 1) rotate(0) translate(4 293)">
<title>ROFL::Polygon</title>
<!-- Node1 -->
<g id="node1" class="node">
<title>Node1</title>
<g id="a_node1"><a xlink:title=" ">
<polygon fill="#bfbfbf" stroke="black" points="82,-0.5 82,-19.5 165,-19.5 165,-0.5 82,-0.5"/>
<text text-anchor="middle" x="123.5" y="-7.5" font-family="Helvetica,sans-Serif" font-size="10.00">ROFL::Polygon</text>
</a>
</g>
</g>
<!-- Node2 -->
<g id="node2" class="node">
<title>Node2</title>
<g id="a_node2"><a xlink:title=" ">
<polygon fill="none" stroke="black" points="11.5,-67.5 11.5,-97.5 113.5,-97.5 113.5,-67.5 11.5,-67.5"/>
<text text-anchor="start" x="19.5" y="-85.5" font-family="Helvetica,sans-Serif" font-size="10.00">std::vector&lt; ROFL::</text>
<text text-anchor="middle" x="62.5" y="-74.5" font-family="Helvetica,sans-Serif" font-size="10.00">Vec2 &gt;</text>
</a>
</g>
</g>
<!-- Node2&#45;&gt;Node1 -->
<g id="edge1" class="edge">
<title>Node2&#45;&gt;Node1</title>
<path fill="none" stroke="#9a32cd" stroke-dasharray="5,2" d="M81.64,-59.38C93.19,-46.04 107.27,-29.76 115.81,-19.89"/>
<polygon fill="#9a32cd" stroke="#9a32cd" points="78.74,-57.38 74.84,-67.23 84.03,-61.96 78.74,-57.38"/>
<text text-anchor="middle" x="112.5" y="-41" font-family="Helvetica,sans-Serif" font-size="10.00"> points</text>
</g>
<!-- Node3 -->
<g id="node3" class="node">
<title>Node3</title>
<g id="a_node3"><a xlink:href="struct_r_o_f_l_1_1_vec2.html" target="_top" xlink:title=" ">
<polygon fill="none" stroke="#bfbfbf" points="0,-157.5 0,-176.5 125,-176.5 125,-157.5 0,-157.5"/>
<text text-anchor="middle" x="62.5" y="-164.5" font-family="Helvetica,sans-Serif" font-size="10.00">ROFL::Vec2&lt; Numeric &gt;</text>
</a>
</g>
</g>
<!-- Node3&#45;&gt;Node2 -->
<g id="edge2" class="edge">
<title>Node3&#45;&gt;Node2</title>
<path fill="none" stroke="#9a32cd" stroke-dasharray="5,2" d="M62.5,-147.29C62.5,-132.2 62.5,-111.3 62.5,-97.59"/>
<polygon fill="#9a32cd" stroke="#9a32cd" points="59,-147.48 62.5,-157.48 66,-147.48 59,-147.48"/>
<text text-anchor="middle" x="84" y="-119" font-family="Helvetica,sans-Serif" font-size="10.00"> elements</text>
</g>
<!-- Node3&#45;&gt;Node3 -->
<g id="edge4" class="edge">
<title>Node3&#45;&gt;Node3</title>
<path fill="none" stroke="#9a32cd" stroke-dasharray="5,2" d="M135.14,-172.94C140.03,-171.57 143,-169.59 143,-167 143,-162.96 135.76,-160.4 125.28,-159.33"/>
<polygon fill="#9a32cd" stroke="#9a32cd" points="134.52,-169.49 125.28,-174.67 135.73,-176.39 134.52,-169.49"/>
<text text-anchor="middle" x="154" y="-164.5" font-family="Helvetica,sans-Serif" font-size="10.00"> Zero</text>
</g>
<!-- Node5 -->
<g id="node5" class="node">
<title>Node5</title>
<g id="a_node5"><a xlink:href="struct_r_o_f_l_1_1_vec2.html" target="_top" xlink:title=" ">
<polygon fill="none" stroke="#bfbfbf" points="132,-73 132,-92 239,-92 239,-73 132,-73"/>
<text text-anchor="middle" x="185.5" y="-80" font-family="Helvetica,sans-Serif" font-size="10.00">ROFL::Vec2&lt; float &gt;</text>
</a>
</g>
</g>
<!-- Node3&#45;&gt;Node5 -->
<g id="edge7" class="edge">
<title>Node3&#45;&gt;Node5</title>
<path fill="none" stroke="#9a32cd" stroke-dasharray="5,2" d="M83.82,-151.7C109.45,-134.51 151.62,-106.23 172.68,-92.1"/>
<polygon fill="#9a32cd" stroke="#9a32cd" points="81.56,-149 75.2,-157.48 85.45,-154.82 81.56,-149"/>
<text text-anchor="middle" x="145.5" y="-119" font-family="Helvetica,sans-Serif" font-size="10.00"> Zero</text>
</g>
<!-- Node4 -->
<g id="node4" class="node">
<title>Node4</title>
<g id="a_node4"><a xlink:title=" ">
<polygon fill="none" stroke="#bfbfbf" points="106,-269.5 106,-288.5 159,-288.5 159,-269.5 106,-269.5"/>
<text text-anchor="middle" x="132.5" y="-276.5" font-family="Helvetica,sans-Serif" font-size="10.00">Numeric</text>
</a>
</g>
</g>
<!-- Node4&#45;&gt;Node3 -->
<g id="edge3" class="edge">
<title>Node4&#45;&gt;Node3</title>
<path fill="none" stroke="#9a32cd" stroke-dasharray="5,2" d="M121.45,-260.64C106.25,-236.74 79.45,-194.63 67.97,-176.59"/>
<polygon fill="#9a32cd" stroke="#9a32cd" points="118.69,-262.81 127.01,-269.37 124.59,-259.05 118.69,-262.81"/>
<text text-anchor="middle" x="118" y="-243" font-family="Helvetica,sans-Serif" font-size="10.00"> h</text>
<text text-anchor="middle" x="118" y="-232" font-family="Helvetica,sans-Serif" font-size="10.00">w</text>
<text text-anchor="middle" x="118" y="-221" font-family="Helvetica,sans-Serif" font-size="10.00">x</text>
<text text-anchor="middle" x="118" y="-210" font-family="Helvetica,sans-Serif" font-size="10.00">y</text>
</g>
<!-- Node4&#45;&gt;Node5 -->
<g id="edge6" class="edge">
<title>Node4&#45;&gt;Node5</title>
<path fill="none" stroke="#9a32cd" stroke-dasharray="5,2" d="M143.22,-260.01C153.09,-242.51 167.28,-214.86 174.5,-189 184.26,-154.06 185.51,-110.42 185.57,-92.16"/>
<polygon fill="#9a32cd" stroke="#9a32cd" points="139.97,-258.64 137.99,-269.05 146.03,-262.14 139.97,-258.64"/>
<text text-anchor="middle" x="186" y="-181" font-family="Helvetica,sans-Serif" font-size="10.00"> h</text>
<text text-anchor="middle" x="186" y="-170" font-family="Helvetica,sans-Serif" font-size="10.00">w</text>
<text text-anchor="middle" x="186" y="-159" font-family="Helvetica,sans-Serif" font-size="10.00">x</text>
<text text-anchor="middle" x="186" y="-148" font-family="Helvetica,sans-Serif" font-size="10.00">y</text>
</g>
<!-- Node5&#45;&gt;Node1 -->
<g id="edge5" class="edge">
<title>Node5&#45;&gt;Node1</title>
<path fill="none" stroke="#9a32cd" stroke-dasharray="5,2" d="M171.25,-65.3C158.78,-51.12 141.14,-31.06 131.16,-19.72"/>
<polygon fill="#9a32cd" stroke="#9a32cd" points="168.67,-67.66 177.9,-72.86 173.92,-63.03 168.67,-67.66"/>
<text text-anchor="middle" x="171" y="-41" font-family="Helvetica,sans-Serif" font-size="10.00"> center</text>
</g>
</g>
</svg>
