<?xml version="1.0" encoding="UTF-8" standalone="no"?>
<!DOCTYPE svg PUBLIC "-//W3C//DTD SVG 1.1//EN"
 "http://www.w3.org/Graphics/SVG/1.1/DTD/svg11.dtd">
<!-- Generated by graphviz version 3.0.0 (20220226.1711)
 -->
<!-- Title: ROFL::Collider Pages: 1 -->
<svg width="373pt" height="84pt"
 viewBox="0.00 0.00 372.50 84.00" xmlns="http://www.w3.org/2000/svg" xmlns:xlink="http://www.w3.org/1999/xlink">
<g id="graph0" class="graph" transform="scale(1 1) rotate(0) translate(4 80)">
<title>ROFL::Collider</title>
<!-- Node1 -->
<g id="node1" class="node">
<title>Node1</title>
<g id="a_node1"><a xlink:title=" ">
<polygon fill="#bfbfbf" stroke="black" points="137.5,-56.5 137.5,-75.5 217.5,-75.5 217.5,-56.5 137.5,-56.5"/>
<text text-anchor="middle" x="177.5" y="-63.5" font-family="Helvetica,sans-Serif" font-size="10.00">ROFL::Collider</text>
</a>
</g>
</g>
<!-- Node2 -->
<g id="node2" class="node">
<title>Node2</title>
<g id="a_node2"><a xlink:href="class_r_o_f_l_1_1_a_a_b_b_collider.html" target="_top" xlink:title=" ">
<polygon fill="none" stroke="#bfbfbf" points="0,-0.5 0,-19.5 107,-19.5 107,-0.5 0,-0.5"/>
<text text-anchor="middle" x="53.5" y="-7.5" font-family="Helvetica,sans-Serif" font-size="10.00">ROFL::AABBCollider</text>
</a>
</g>
</g>
<!-- Node1&#45;&gt;Node2 -->
<g id="edge1" class="edge">
<title>Node1&#45;&gt;Node2</title>
<path fill="none" stroke="midnightblue" d="M148.49,-52.37C125.27,-42.26 93.34,-28.35 73.06,-19.52"/>
<polygon fill="midnightblue" stroke="midnightblue" points="147.29,-55.66 157.85,-56.44 150.08,-49.24 147.29,-55.66"/>
</g>
<!-- Node3 -->
<g id="node3" class="node">
<title>Node3</title>
<g id="a_node3"><a xlink:href="class_r_o_f_l_1_1_circle_collider.html" target="_top" xlink:title=" ">
<polygon fill="none" stroke="#bfbfbf" points="125,-0.5 125,-19.5 230,-19.5 230,-0.5 125,-0.5"/>
<text text-anchor="middle" x="177.5" y="-7.5" font-family="Helvetica,sans-Serif" font-size="10.00">ROFL::CircleCollider</text>
</a>
</g>
</g>
<!-- Node1&#45;&gt;Node3 -->
<g id="edge2" class="edge">
<title>Node1&#45;&gt;Node3</title>
<path fill="none" stroke="midnightblue" d="M177.5,-45.8C177.5,-36.91 177.5,-26.78 177.5,-19.75"/>
<polygon fill="midnightblue" stroke="midnightblue" points="174,-46.08 177.5,-56.08 181,-46.08 174,-46.08"/>
</g>
<!-- Node4 -->
<g id="node4" class="node">
<title>Node4</title>
<g id="a_node4"><a xlink:href="class_r_o_f_l_1_1_polygon_collider.html" target="_top" xlink:title=" ">
<polygon fill="none" stroke="#bfbfbf" points="248.5,-0.5 248.5,-19.5 364.5,-19.5 364.5,-0.5 248.5,-0.5"/>
<text text-anchor="middle" x="306.5" y="-7.5" font-family="Helvetica,sans-Serif" font-size="10.00">ROFL::PolygonCollider</text>
</a>
</g>
</g>
<!-- Node1&#45;&gt;Node4 -->
<g id="edge3" class="edge">
<title>Node1&#45;&gt;Node4</title>
<path fill="none" stroke="midnightblue" d="M207.35,-52.5C231.54,-42.38 264.96,-28.39 286.16,-19.52"/>
<polygon fill="midnightblue" stroke="midnightblue" points="205.81,-49.35 197.94,-56.44 208.52,-55.81 205.81,-49.35"/>
</g>
</g>
</svg>
