<?xml version="1.0" encoding="UTF-8" standalone="no"?>
<!DOCTYPE svg PUBLIC "-//W3C//DTD SVG 1.1//EN"
 "http://www.w3.org/Graphics/SVG/1.1/DTD/svg11.dtd">
<!-- Generated by graphviz version 3.0.0 (20220226.1711)
 -->
<!-- Title: ROFL::TransformComponent Pages: 1 -->
<svg width="186pt" height="152pt"
 viewBox="0.00 0.00 185.50 152.00" xmlns="http://www.w3.org/2000/svg" xmlns:xlink="http://www.w3.org/1999/xlink">
<g id="graph0" class="graph" transform="scale(1 1) rotate(0) translate(4 148)">
<title>ROFL::TransformComponent</title>
<!-- Node1 -->
<g id="node1" class="node">
<title>Node1</title>
<g id="a_node1"><a xlink:title=" ">
<polygon fill="#bfbfbf" stroke="black" points="20,-0.5 20,-19.5 160,-19.5 160,-0.5 20,-0.5"/>
<text text-anchor="middle" x="90" y="-7.5" font-family="Helvetica,sans-Serif" font-size="10.00">ROFL::TransformComponent</text>
</a>
</g>
</g>
<!-- Node2 -->
<g id="node2" class="node">
<title>Node2</title>
<g id="a_node2"><a xlink:href="struct_r_o_f_l_1_1_component.html" target="_top" xlink:title=" ">
<polygon fill="none" stroke="#bfbfbf" points="41,-57.5 41,-76.5 139,-76.5 139,-57.5 41,-57.5"/>
<text text-anchor="middle" x="90" y="-64.5" font-family="Helvetica,sans-Serif" font-size="10.00">ROFL::Component</text>
</a>
</g>
</g>
<!-- Node2&#45;&gt;Node1 -->
<g id="edge1" class="edge">
<title>Node2&#45;&gt;Node1</title>
<path fill="none" stroke="midnightblue" d="M90,-47.12C90,-37.82 90,-27.06 90,-19.71"/>
<polygon fill="midnightblue" stroke="midnightblue" points="86.5,-47.41 90,-57.41 93.5,-47.41 86.5,-47.41"/>
</g>
<!-- Node3 -->
<g id="node3" class="node">
<title>Node3</title>
<g id="a_node3"><a xlink:href="class_r_o_f_l_1_1_generic.html" target="_top" xlink:title=" ">
<polygon fill="none" stroke="#bfbfbf" points="0,-124.5 0,-143.5 82,-143.5 82,-124.5 0,-124.5"/>
<text text-anchor="middle" x="41" y="-131.5" font-family="Helvetica,sans-Serif" font-size="10.00">ROFL::Generic</text>
</a>
</g>
</g>
<!-- Node3&#45;&gt;Node2 -->
<g id="edge2" class="edge">
<title>Node3&#45;&gt;Node2</title>
<path fill="none" stroke="midnightblue" d="M53.89,-115.9C63.41,-103.27 75.98,-86.6 83.5,-76.63"/>
<polygon fill="midnightblue" stroke="midnightblue" points="50.83,-114.14 47.61,-124.23 56.42,-118.36 50.83,-114.14"/>
</g>
<!-- Node4 -->
<g id="node4" class="node">
<title>Node4</title>
<g id="a_node4"><a xlink:href="class_r_o_f_l_1_1_object.html" target="_top" xlink:title=" ">
<polygon fill="none" stroke="#bfbfbf" points="100.5,-124.5 100.5,-143.5 177.5,-143.5 177.5,-124.5 100.5,-124.5"/>
<text text-anchor="middle" x="139" y="-131.5" font-family="Helvetica,sans-Serif" font-size="10.00">ROFL::Object</text>
</a>
</g>
</g>
<!-- Node4&#45;&gt;Node2 -->
<g id="edge3" class="edge">
<title>Node4&#45;&gt;Node2</title>
<path fill="none" stroke="#9a32cd" stroke-dasharray="5,2" d="M126.11,-115.9C116.59,-103.27 104.02,-86.6 96.5,-76.63"/>
<polygon fill="#9a32cd" stroke="#9a32cd" points="123.58,-118.36 132.39,-124.23 129.17,-114.14 123.58,-118.36"/>
<text text-anchor="middle" x="132" y="-98" font-family="Helvetica,sans-Serif" font-size="10.00"> object</text>
</g>
</g>
</svg>
