<?xml version="1.0" encoding="UTF-8" standalone="no"?>
<!DOCTYPE svg PUBLIC "-//W3C//DTD SVG 1.1//EN"
 "http://www.w3.org/Graphics/SVG/1.1/DTD/svg11.dtd">
<!-- Generated by graphviz version 3.0.0 (20220226.1711)
 -->
<!-- Title: ROFL::CircleColliderComponent Pages: 1 -->
<svg width="401pt" height="298pt"
 viewBox="0.00 0.00 401.00 298.00" xmlns="http://www.w3.org/2000/svg" xmlns:xlink="http://www.w3.org/1999/xlink">
<g id="graph0" class="graph" transform="scale(1 1) rotate(0) translate(4 294)">
<title>ROFL::CircleColliderComponent</title>
<!-- Node1 -->
<g id="node1" class="node">
<title>Node1</title>
<g id="a_node1"><a xlink:title=" ">
<polygon fill="#bfbfbf" stroke="black" points="139.5,-0.5 139.5,-19.5 294.5,-19.5 294.5,-0.5 139.5,-0.5"/>
<text text-anchor="middle" x="217" y="-7.5" font-family="Helvetica,sans-Serif" font-size="10.00">ROFL::CircleColliderComponent</text>
</a>
</g>
</g>
<!-- Node2 -->
<g id="node2" class="node">
<title>Node2</title>
<g id="a_node2"><a xlink:href="struct_r_o_f_l_1_1_collider_component.html" target="_top" xlink:title=" ">
<polygon fill="none" stroke="#bfbfbf" points="152,-57.5 152,-76.5 282,-76.5 282,-57.5 152,-57.5"/>
<text text-anchor="middle" x="217" y="-64.5" font-family="Helvetica,sans-Serif" font-size="10.00">ROFL::ColliderComponent</text>
</a>
</g>
</g>
<!-- Node2&#45;&gt;Node1 -->
<g id="edge1" class="edge">
<title>Node2&#45;&gt;Node1</title>
<path fill="none" stroke="midnightblue" d="M217,-47.12C217,-37.82 217,-27.06 217,-19.71"/>
<polygon fill="midnightblue" stroke="midnightblue" points="213.5,-47.41 217,-57.41 220.5,-47.41 213.5,-47.41"/>
</g>
<!-- Node3 -->
<g id="node3" class="node">
<title>Node3</title>
<g id="a_node3"><a xlink:href="struct_r_o_f_l_1_1_component.html" target="_top" xlink:title=" ">
<polygon fill="none" stroke="#bfbfbf" points="41,-130 41,-149 139,-149 139,-130 41,-130"/>
<text text-anchor="middle" x="90" y="-137" font-family="Helvetica,sans-Serif" font-size="10.00">ROFL::Component</text>
</a>
</g>
</g>
<!-- Node3&#45;&gt;Node2 -->
<g id="edge2" class="edge">
<title>Node3&#45;&gt;Node2</title>
<path fill="none" stroke="midnightblue" d="M114.32,-125C139.94,-110.78 179.52,-88.8 201.3,-76.72"/>
<polygon fill="midnightblue" stroke="midnightblue" points="112.62,-121.94 105.57,-129.86 116.01,-128.06 112.62,-121.94"/>
</g>
<!-- Node4 -->
<g id="node4" class="node">
<title>Node4</title>
<g id="a_node4"><a xlink:href="class_r_o_f_l_1_1_generic.html" target="_top" xlink:title=" ">
<polygon fill="none" stroke="#bfbfbf" points="0,-202.5 0,-221.5 82,-221.5 82,-202.5 0,-202.5"/>
<text text-anchor="middle" x="41" y="-209.5" font-family="Helvetica,sans-Serif" font-size="10.00">ROFL::Generic</text>
</a>
</g>
</g>
<!-- Node4&#45;&gt;Node3 -->
<g id="edge3" class="edge">
<title>Node4&#45;&gt;Node3</title>
<path fill="none" stroke="midnightblue" d="M52.82,-194C62.64,-179.87 76.2,-160.35 83.94,-149.22"/>
<polygon fill="midnightblue" stroke="midnightblue" points="49.84,-192.15 47.01,-202.36 55.59,-196.14 49.84,-192.15"/>
</g>
<!-- Node5 -->
<g id="node5" class="node">
<title>Node5</title>
<g id="a_node5"><a xlink:href="class_r_o_f_l_1_1_object.html" target="_top" xlink:title=" ">
<polygon fill="none" stroke="#bfbfbf" points="100.5,-202.5 100.5,-221.5 177.5,-221.5 177.5,-202.5 100.5,-202.5"/>
<text text-anchor="middle" x="139" y="-209.5" font-family="Helvetica,sans-Serif" font-size="10.00">ROFL::Object</text>
</a>
</g>
</g>
<!-- Node5&#45;&gt;Node3 -->
<g id="edge4" class="edge">
<title>Node5&#45;&gt;Node3</title>
<path fill="none" stroke="#9a32cd" stroke-dasharray="5,2" d="M127.18,-194C117.36,-179.87 103.8,-160.35 96.06,-149.22"/>
<polygon fill="#9a32cd" stroke="#9a32cd" points="124.41,-196.14 132.99,-202.36 130.16,-192.15 124.41,-196.14"/>
<text text-anchor="middle" x="134" y="-176" font-family="Helvetica,sans-Serif" font-size="10.00"> object</text>
</g>
<!-- Node6 -->
<g id="node6" class="node">
<title>Node6</title>
<g id="a_node6"><a xlink:href="struct_r_o_f_l_1_1_physical_material.html" target="_top" xlink:title=" ">
<polygon fill="none" stroke="#bfbfbf" points="157,-130 157,-149 277,-149 277,-130 157,-130"/>
<text text-anchor="middle" x="217" y="-137" font-family="Helvetica,sans-Serif" font-size="10.00">ROFL::PhysicalMaterial</text>
</a>
</g>
</g>
<!-- Node6&#45;&gt;Node2 -->
<g id="edge5" class="edge">
<title>Node6&#45;&gt;Node2</title>
<path fill="none" stroke="#9a32cd" stroke-dasharray="5,2" d="M217,-119.44C217,-105.53 217,-87.32 217,-76.72"/>
<polygon fill="#9a32cd" stroke="#9a32cd" points="213.5,-119.86 217,-129.86 220.5,-119.86 213.5,-119.86"/>
<text text-anchor="middle" x="236" y="-98" font-family="Helvetica,sans-Serif" font-size="10.00"> material</text>
</g>
<!-- Node7 -->
<g id="node7" class="node">
<title>Node7</title>
<g id="a_node7"><a xlink:title=" ">
<polygon fill="none" stroke="black" points="295,-124.5 295,-154.5 393,-154.5 393,-124.5 295,-124.5"/>
<text text-anchor="start" x="303" y="-142.5" font-family="Helvetica,sans-Serif" font-size="10.00">std::unordered_set</text>
<text text-anchor="middle" x="344" y="-131.5" font-family="Helvetica,sans-Serif" font-size="10.00">&lt; String &gt;</text>
</a>
</g>
</g>
<!-- Node7&#45;&gt;Node2 -->
<g id="edge6" class="edge">
<title>Node7&#45;&gt;Node2</title>
<path fill="none" stroke="#9a32cd" stroke-dasharray="5,2" d="M309.71,-119.47C284.5,-105.47 251.44,-87.12 232.37,-76.53"/>
<polygon fill="#9a32cd" stroke="#9a32cd" points="308.16,-122.61 318.6,-124.4 311.56,-116.49 308.16,-122.61"/>
<text text-anchor="middle" x="312" y="-98" font-family="Helvetica,sans-Serif" font-size="10.00"> ignoredTags</text>
</g>
<!-- Node8 -->
<g id="node8" class="node">
<title>Node8</title>
<g id="a_node8"><a xlink:title=" ">
<polygon fill="none" stroke="black" points="314,-202.5 314,-221.5 374,-221.5 374,-202.5 314,-202.5"/>
<text text-anchor="middle" x="344" y="-209.5" font-family="Helvetica,sans-Serif" font-size="10.00">std::string</text>
</a>
</g>
</g>
<!-- Node8&#45;&gt;Node7 -->
<g id="edge7" class="edge">
<title>Node8&#45;&gt;Node7</title>
<path fill="none" stroke="#9a32cd" stroke-dasharray="5,2" d="M344,-192.24C344,-180.41 344,-165.38 344,-154.58"/>
<polygon fill="#9a32cd" stroke="#9a32cd" points="340.5,-192.36 344,-202.36 347.5,-192.36 340.5,-192.36"/>
<text text-anchor="middle" x="356.5" y="-176" font-family="Helvetica,sans-Serif" font-size="10.00"> keys</text>
</g>
<!-- Node9 -->
<g id="node9" class="node">
<title>Node9</title>
<g id="a_node9"><a xlink:title=" ">
<polygon fill="none" stroke="black" points="296.5,-259.5 296.5,-289.5 391.5,-289.5 391.5,-259.5 296.5,-259.5"/>
<text text-anchor="start" x="304.5" y="-277.5" font-family="Helvetica,sans-Serif" font-size="10.00">std::basic_string&lt;</text>
<text text-anchor="middle" x="344" y="-266.5" font-family="Helvetica,sans-Serif" font-size="10.00"> Char &gt;</text>
</a>
</g>
</g>
<!-- Node9&#45;&gt;Node8 -->
<g id="edge8" class="edge">
<title>Node9&#45;&gt;Node8</title>
<path fill="none" stroke="midnightblue" d="M344,-249.35C344,-239.51 344,-228.78 344,-221.54"/>
<polygon fill="midnightblue" stroke="midnightblue" points="340.5,-249.47 344,-259.47 347.5,-249.47 340.5,-249.47"/>
</g>
</g>
</svg>
