<?xml version="1.0" encoding="UTF-8" standalone="no"?>
<!DOCTYPE svg PUBLIC "-//W3C//DTD SVG 1.1//EN"
 "http://www.w3.org/Graphics/SVG/1.1/DTD/svg11.dtd">
<!-- Generated by graphviz version 3.0.0 (20220226.1711)
 -->
<!-- Title: ROFL::AudioComponent Pages: 1 -->
<svg width="218pt" height="162pt"
 viewBox="0.00 0.00 217.50 162.00" xmlns="http://www.w3.org/2000/svg" xmlns:xlink="http://www.w3.org/1999/xlink">
<g id="graph0" class="graph" transform="scale(1 1) rotate(0) translate(4 158)">
<title>ROFL::AudioComponent</title>
<!-- Node1 -->
<g id="node1" class="node">
<title>Node1</title>
<g id="a_node1"><a xlink:title=" ">
<polygon fill="#bfbfbf" stroke="black" points="50.5,-0.5 50.5,-19.5 172.5,-19.5 172.5,-0.5 50.5,-0.5"/>
<text text-anchor="middle" x="111.5" y="-7.5" font-family="Helvetica,sans-Serif" font-size="10.00">ROFL::AudioComponent</text>
</a>
</g>
</g>
<!-- Node2 -->
<g id="node2" class="node">
<title>Node2</title>
<g id="a_node2"><a xlink:href="struct_r_o_f_l_1_1_component.html" target="_top" xlink:title=" ">
<polygon fill="none" stroke="#bfbfbf" points="111.5,-67.5 111.5,-86.5 209.5,-86.5 209.5,-67.5 111.5,-67.5"/>
<text text-anchor="middle" x="160.5" y="-74.5" font-family="Helvetica,sans-Serif" font-size="10.00">ROFL::Component</text>
</a>
</g>
</g>
<!-- Node2&#45;&gt;Node1 -->
<g id="edge1" class="edge">
<title>Node2&#45;&gt;Node1</title>
<path fill="none" stroke="midnightblue" d="M147.61,-58.9C138.09,-46.27 125.52,-29.6 118,-19.63"/>
<polygon fill="midnightblue" stroke="midnightblue" points="145.08,-61.36 153.89,-67.23 150.67,-57.14 145.08,-61.36"/>
</g>
<!-- Node3 -->
<g id="node3" class="node">
<title>Node3</title>
<g id="a_node3"><a xlink:href="class_r_o_f_l_1_1_generic.html" target="_top" xlink:title=" ">
<polygon fill="none" stroke="#bfbfbf" points="17.5,-134.5 17.5,-153.5 99.5,-153.5 99.5,-134.5 17.5,-134.5"/>
<text text-anchor="middle" x="58.5" y="-141.5" font-family="Helvetica,sans-Serif" font-size="10.00">ROFL::Generic</text>
</a>
</g>
</g>
<!-- Node3&#45;&gt;Node2 -->
<g id="edge2" class="edge">
<title>Node3&#45;&gt;Node2</title>
<path fill="none" stroke="midnightblue" d="M80.83,-128.77C101.02,-115.9 130.09,-97.38 146.96,-86.63"/>
<polygon fill="midnightblue" stroke="midnightblue" points="78.81,-125.91 72.26,-134.23 82.57,-131.81 78.81,-125.91"/>
</g>
<!-- Node5 -->
<g id="node5" class="node">
<title>Node5</title>
<g id="a_node5"><a xlink:href="class_r_o_f_l_1_1_sound_cue.html" target="_top" xlink:title=" ">
<polygon fill="none" stroke="#bfbfbf" points="0,-67.5 0,-86.5 93,-86.5 93,-67.5 0,-67.5"/>
<text text-anchor="middle" x="46.5" y="-74.5" font-family="Helvetica,sans-Serif" font-size="10.00">ROFL::SoundCue</text>
</a>
</g>
</g>
<!-- Node3&#45;&gt;Node5 -->
<g id="edge5" class="edge">
<title>Node3&#45;&gt;Node5</title>
<path fill="none" stroke="midnightblue" d="M55,-124.04C52.72,-111.67 49.85,-96.12 48.09,-86.63"/>
<polygon fill="midnightblue" stroke="midnightblue" points="51.62,-125.04 56.88,-134.23 58.51,-123.76 51.62,-125.04"/>
</g>
<!-- Node4 -->
<g id="node4" class="node">
<title>Node4</title>
<g id="a_node4"><a xlink:href="class_r_o_f_l_1_1_object.html" target="_top" xlink:title=" ">
<polygon fill="none" stroke="#bfbfbf" points="122,-134.5 122,-153.5 199,-153.5 199,-134.5 122,-134.5"/>
<text text-anchor="middle" x="160.5" y="-141.5" font-family="Helvetica,sans-Serif" font-size="10.00">ROFL::Object</text>
</a>
</g>
</g>
<!-- Node4&#45;&gt;Node2 -->
<g id="edge3" class="edge">
<title>Node4&#45;&gt;Node2</title>
<path fill="none" stroke="#9a32cd" stroke-dasharray="5,2" d="M160.5,-124.04C160.5,-111.67 160.5,-96.12 160.5,-86.63"/>
<polygon fill="#9a32cd" stroke="#9a32cd" points="157,-124.23 160.5,-134.23 164,-124.23 157,-124.23"/>
<text text-anchor="middle" x="175.5" y="-108" font-family="Helvetica,sans-Serif" font-size="10.00"> object</text>
</g>
<!-- Node5&#45;&gt;Node1 -->
<g id="edge4" class="edge">
<title>Node5&#45;&gt;Node1</title>
<path fill="none" stroke="#9a32cd" stroke-dasharray="5,2" d="M62.5,-60C75.25,-47.25 92.61,-29.89 102.87,-19.63"/>
<polygon fill="#9a32cd" stroke="#9a32cd" points="59.86,-57.69 55.27,-67.23 64.81,-62.64 59.86,-57.69"/>
<text text-anchor="middle" x="98.5" y="-41" font-family="Helvetica,sans-Serif" font-size="10.00"> sound</text>
</g>
</g>
</svg>
