<?xml version="1.0" encoding="UTF-8" standalone="no"?>
<!DOCTYPE svg PUBLIC "-//W3C//DTD SVG 1.1//EN"
 "http://www.w3.org/Graphics/SVG/1.1/DTD/svg11.dtd">
<!-- Generated by graphviz version 3.0.0 (20220226.1711)
 -->
<!-- Title: ROFL::ColliderComponent Pages: 1 -->
<svg width="591pt" height="142pt"
 viewBox="0.00 0.00 591.00 142.00" xmlns="http://www.w3.org/2000/svg" xmlns:xlink="http://www.w3.org/1999/xlink">
<g id="graph0" class="graph" transform="scale(1 1) rotate(0) translate(4 138)">
<title>ROFL::ColliderComponent</title>
<!-- Node1 -->
<g id="node1" class="node">
<title>Node1</title>
<g id="a_node1"><a xlink:title=" ">
<polygon fill="#bfbfbf" stroke="black" points="252,-57.5 252,-76.5 382,-76.5 382,-57.5 252,-57.5"/>
<text text-anchor="middle" x="317" y="-64.5" font-family="Helvetica,sans-Serif" font-size="10.00">ROFL::ColliderComponent</text>
</a>
</g>
</g>
<!-- Node4 -->
<g id="node4" class="node">
<title>Node4</title>
<g id="a_node4"><a xlink:href="struct_r_o_f_l_1_1_box_collider_component.html" target="_top" xlink:title=" ">
<polygon fill="none" stroke="#bfbfbf" points="427,-114.5 427,-133.5 574,-133.5 574,-114.5 427,-114.5"/>
<text text-anchor="middle" x="500.5" y="-121.5" font-family="Helvetica,sans-Serif" font-size="10.00">ROFL::BoxColliderComponent</text>
</a>
</g>
</g>
<!-- Node1&#45;&gt;Node4 -->
<g id="edge3" class="edge">
<title>Node1&#45;&gt;Node4</title>
<path fill="none" stroke="midnightblue" d="M350.03,-80.43C369.47,-88.26 394.9,-97.95 418,-105 429.4,-108.48 441.85,-111.67 453.52,-114.42"/>
<polygon fill="midnightblue" stroke="midnightblue" points="351.31,-77.17 340.73,-76.64 348.67,-83.66 351.31,-77.17"/>
</g>
<!-- Node5 -->
<g id="node5" class="node">
<title>Node5</title>
<g id="a_node5"><a xlink:href="struct_r_o_f_l_1_1_capsule_collider_component.html" target="_top" xlink:title=" ">
<polygon fill="none" stroke="#bfbfbf" points="418,-76.5 418,-95.5 583,-95.5 583,-76.5 418,-76.5"/>
<text text-anchor="middle" x="500.5" y="-83.5" font-family="Helvetica,sans-Serif" font-size="10.00">ROFL::CapsuleColliderComponent</text>
</a>
</g>
</g>
<!-- Node1&#45;&gt;Node5 -->
<g id="edge4" class="edge">
<title>Node1&#45;&gt;Node5</title>
<path fill="none" stroke="midnightblue" d="M392.37,-74.79C400.77,-75.67 409.37,-76.56 417.85,-77.45"/>
<polygon fill="midnightblue" stroke="midnightblue" points="392.56,-71.29 382.25,-73.73 391.83,-78.25 392.56,-71.29"/>
</g>
<!-- Node6 -->
<g id="node6" class="node">
<title>Node6</title>
<g id="a_node6"><a xlink:href="struct_r_o_f_l_1_1_circle_collider_component.html" target="_top" xlink:title=" ">
<polygon fill="none" stroke="#bfbfbf" points="423,-38.5 423,-57.5 578,-57.5 578,-38.5 423,-38.5"/>
<text text-anchor="middle" x="500.5" y="-45.5" font-family="Helvetica,sans-Serif" font-size="10.00">ROFL::CircleColliderComponent</text>
</a>
</g>
</g>
<!-- Node1&#45;&gt;Node6 -->
<g id="edge5" class="edge">
<title>Node1&#45;&gt;Node6</title>
<path fill="none" stroke="midnightblue" d="M392.25,-59.23C402.36,-58.17 412.75,-57.08 422.91,-56.02"/>
<polygon fill="midnightblue" stroke="midnightblue" points="391.83,-55.75 382.25,-60.27 392.56,-62.71 391.83,-55.75"/>
</g>
<!-- Node7 -->
<g id="node7" class="node">
<title>Node7</title>
<g id="a_node7"><a xlink:href="struct_r_o_f_l_1_1_polygon_collider_component.html" target="_top" xlink:title=" ">
<polygon fill="none" stroke="#bfbfbf" points="418,-0.5 418,-19.5 583,-19.5 583,-0.5 418,-0.5"/>
<text text-anchor="middle" x="500.5" y="-7.5" font-family="Helvetica,sans-Serif" font-size="10.00">ROFL::PolygonColliderComponent</text>
</a>
</g>
</g>
<!-- Node1&#45;&gt;Node7 -->
<g id="edge6" class="edge">
<title>Node1&#45;&gt;Node7</title>
<path fill="none" stroke="midnightblue" d="M350.03,-53.57C369.47,-45.74 394.9,-36.05 418,-29 429.4,-25.52 441.85,-22.33 453.52,-19.58"/>
<polygon fill="midnightblue" stroke="midnightblue" points="348.67,-50.34 340.73,-57.36 351.31,-56.83 348.67,-50.34"/>
</g>
<!-- Node2 -->
<g id="node2" class="node">
<title>Node2</title>
<g id="a_node2"><a xlink:href="struct_r_o_f_l_1_1_component.html" target="_top" xlink:title=" ">
<polygon fill="none" stroke="#bfbfbf" points="118,-57.5 118,-76.5 216,-76.5 216,-57.5 118,-57.5"/>
<text text-anchor="middle" x="167" y="-64.5" font-family="Helvetica,sans-Serif" font-size="10.00">ROFL::Component</text>
</a>
</g>
</g>
<!-- Node2&#45;&gt;Node1 -->
<g id="edge1" class="edge">
<title>Node2&#45;&gt;Node1</title>
<path fill="none" stroke="midnightblue" d="M226.14,-67C234.55,-67 243.25,-67 251.77,-67"/>
<polygon fill="midnightblue" stroke="midnightblue" points="226.05,-63.5 216.05,-67 226.05,-70.5 226.05,-63.5"/>
</g>
<!-- Node3 -->
<g id="node3" class="node">
<title>Node3</title>
<g id="a_node3"><a xlink:href="class_r_o_f_l_1_1_generic.html" target="_top" xlink:title=" ">
<polygon fill="none" stroke="#bfbfbf" points="0,-57.5 0,-76.5 82,-76.5 82,-57.5 0,-57.5"/>
<text text-anchor="middle" x="41" y="-64.5" font-family="Helvetica,sans-Serif" font-size="10.00">ROFL::Generic</text>
</a>
</g>
</g>
<!-- Node3&#45;&gt;Node2 -->
<g id="edge2" class="edge">
<title>Node3&#45;&gt;Node2</title>
<path fill="none" stroke="midnightblue" d="M92.31,-67C100.7,-67 109.39,-67 117.73,-67"/>
<polygon fill="midnightblue" stroke="midnightblue" points="92.26,-63.5 82.26,-67 92.26,-70.5 92.26,-63.5"/>
</g>
</g>
</svg>
