<?xml version="1.0" encoding="UTF-8" standalone="no"?>
<!DOCTYPE svg PUBLIC "-//W3C//DTD SVG 1.1//EN"
 "http://www.w3.org/Graphics/SVG/1.1/DTD/svg11.dtd">
<!-- Generated by graphviz version 3.0.0 (20220226.1711)
 -->
<!-- Title: ROFL::Component Pages: 1 -->
<svg width="603pt" height="268pt"
 viewBox="0.00 0.00 603.00 267.50" xmlns="http://www.w3.org/2000/svg" xmlns:xlink="http://www.w3.org/1999/xlink">
<g id="graph0" class="graph" transform="scale(1 1) rotate(0) translate(4 263.5)">
<title>ROFL::Component</title>
<!-- Node1 -->
<g id="node1" class="node">
<title>Node1</title>
<g id="a_node1"><a xlink:title=" ">
<polygon fill="#bfbfbf" stroke="black" points="118,-114.5 118,-133.5 216,-133.5 216,-114.5 118,-114.5"/>
<text text-anchor="middle" x="167" y="-121.5" font-family="Helvetica,sans-Serif" font-size="10.00">ROFL::Component</text>
</a>
</g>
</g>
<!-- Node3 -->
<g id="node3" class="node">
<title>Node3</title>
<g id="a_node3"><a xlink:href="struct_r_o_f_l_1_1_animation_controller_component.html" target="_top" xlink:title=" ">
<polygon fill="none" stroke="#bfbfbf" points="256.5,-229 256.5,-259 389.5,-259 389.5,-229 256.5,-229"/>
<text text-anchor="start" x="264.5" y="-247" font-family="Helvetica,sans-Serif" font-size="10.00">ROFL::AnimationController</text>
<text text-anchor="middle" x="323" y="-236" font-family="Helvetica,sans-Serif" font-size="10.00">Component</text>
</a>
</g>
</g>
<!-- Node1&#45;&gt;Node3 -->
<g id="edge2" class="edge">
<title>Node1&#45;&gt;Node3</title>
<path fill="none" stroke="midnightblue" d="M179.61,-141.91C194.17,-163.07 221.03,-198.04 252,-219 257.56,-222.76 263.75,-226.03 270.08,-228.84"/>
<polygon fill="midnightblue" stroke="midnightblue" points="182.46,-139.87 173.98,-133.51 176.64,-143.77 182.46,-139.87"/>
</g>
<!-- Node4 -->
<g id="node4" class="node">
<title>Node4</title>
<g id="a_node4"><a xlink:href="struct_r_o_f_l_1_1_audio_component.html" target="_top" xlink:title=" ">
<polygon fill="none" stroke="#bfbfbf" points="262,-190.5 262,-209.5 384,-209.5 384,-190.5 262,-190.5"/>
<text text-anchor="middle" x="323" y="-197.5" font-family="Helvetica,sans-Serif" font-size="10.00">ROFL::AudioComponent</text>
</a>
</g>
</g>
<!-- Node1&#45;&gt;Node4 -->
<g id="edge3" class="edge">
<title>Node1&#45;&gt;Node4</title>
<path fill="none" stroke="midnightblue" d="M187.69,-140.15C204.04,-152.84 228.35,-170.14 252,-181 260.12,-184.73 269.13,-187.86 277.9,-190.42"/>
<polygon fill="midnightblue" stroke="midnightblue" points="189.5,-137.11 179.49,-133.64 185.15,-142.6 189.5,-137.11"/>
</g>
<!-- Node5 -->
<g id="node5" class="node">
<title>Node5</title>
<g id="a_node5"><a xlink:href="struct_r_o_f_l_1_1_camera_component.html" target="_top" xlink:title=" ">
<polygon fill="none" stroke="#bfbfbf" points="257.5,-152.5 257.5,-171.5 388.5,-171.5 388.5,-152.5 257.5,-152.5"/>
<text text-anchor="middle" x="323" y="-159.5" font-family="Helvetica,sans-Serif" font-size="10.00">ROFL::CameraComponent</text>
</a>
</g>
</g>
<!-- Node1&#45;&gt;Node5 -->
<g id="edge4" class="edge">
<title>Node1&#45;&gt;Node5</title>
<path fill="none" stroke="midnightblue" d="M216.79,-136.04C238.31,-141.35 263.23,-147.5 283.42,-152.48"/>
<polygon fill="midnightblue" stroke="midnightblue" points="217.41,-132.59 206.86,-133.59 215.73,-139.38 217.41,-132.59"/>
</g>
<!-- Node6 -->
<g id="node6" class="node">
<title>Node6</title>
<g id="a_node6"><a xlink:href="struct_r_o_f_l_1_1_collider_component.html" target="_top" xlink:title=" ">
<polygon fill="none" stroke="#bfbfbf" points="258,-114.5 258,-133.5 388,-133.5 388,-114.5 258,-114.5"/>
<text text-anchor="middle" x="323" y="-121.5" font-family="Helvetica,sans-Serif" font-size="10.00">ROFL::ColliderComponent</text>
</a>
</g>
</g>
<!-- Node1&#45;&gt;Node6 -->
<g id="edge5" class="edge">
<title>Node1&#45;&gt;Node6</title>
<path fill="none" stroke="midnightblue" d="M226.38,-124C236.63,-124 247.36,-124 257.77,-124"/>
<polygon fill="midnightblue" stroke="midnightblue" points="226.3,-120.5 216.3,-124 226.3,-127.5 226.3,-120.5"/>
</g>
<!-- Node10 -->
<g id="node10" class="node">
<title>Node10</title>
<g id="a_node10"><a xlink:href="struct_r_o_f_l_1_1_rigid_body_component.html" target="_top" xlink:title=" ">
<polygon fill="none" stroke="#bfbfbf" points="252,-76.5 252,-95.5 394,-95.5 394,-76.5 252,-76.5"/>
<text text-anchor="middle" x="323" y="-83.5" font-family="Helvetica,sans-Serif" font-size="10.00">ROFL::RigidBodyComponent</text>
</a>
</g>
</g>
<!-- Node1&#45;&gt;Node10 -->
<g id="edge9" class="edge">
<title>Node1&#45;&gt;Node10</title>
<path fill="none" stroke="midnightblue" d="M216.79,-111.96C238.31,-106.65 263.23,-100.5 283.42,-95.52"/>
<polygon fill="midnightblue" stroke="midnightblue" points="215.73,-108.62 206.86,-114.41 217.41,-115.41 215.73,-108.62"/>
</g>
<!-- Node11 -->
<g id="node11" class="node">
<title>Node11</title>
<g id="a_node11"><a xlink:href="struct_r_o_f_l_1_1_sprite_component.html" target="_top" xlink:title=" ">
<polygon fill="none" stroke="#bfbfbf" points="261.5,-38.5 261.5,-57.5 384.5,-57.5 384.5,-38.5 261.5,-38.5"/>
<text text-anchor="middle" x="323" y="-45.5" font-family="Helvetica,sans-Serif" font-size="10.00">ROFL::SpriteComponent</text>
</a>
</g>
</g>
<!-- Node1&#45;&gt;Node11 -->
<g id="edge10" class="edge">
<title>Node1&#45;&gt;Node11</title>
<path fill="none" stroke="midnightblue" d="M187.69,-107.85C204.04,-95.16 228.35,-77.86 252,-67 260.12,-63.27 269.13,-60.14 277.9,-57.58"/>
<polygon fill="midnightblue" stroke="midnightblue" points="185.15,-105.4 179.49,-114.36 189.5,-110.89 185.15,-105.4"/>
</g>
<!-- Node12 -->
<g id="node12" class="node">
<title>Node12</title>
<g id="a_node12"><a xlink:href="struct_r_o_f_l_1_1_transform_component.html" target="_top" xlink:title=" ">
<polygon fill="none" stroke="#bfbfbf" points="253,-0.5 253,-19.5 393,-19.5 393,-0.5 253,-0.5"/>
<text text-anchor="middle" x="323" y="-7.5" font-family="Helvetica,sans-Serif" font-size="10.00">ROFL::TransformComponent</text>
</a>
</g>
</g>
<!-- Node1&#45;&gt;Node12 -->
<g id="edge11" class="edge">
<title>Node1&#45;&gt;Node12</title>
<path fill="none" stroke="midnightblue" d="M179.34,-105.67C193.64,-84.11 220.23,-48.73 252,-29 258.2,-25.15 265.19,-22.06 272.28,-19.6"/>
<polygon fill="midnightblue" stroke="midnightblue" points="176.29,-103.94 173.82,-114.25 182.18,-107.73 176.29,-103.94"/>
</g>
<!-- Node2 -->
<g id="node2" class="node">
<title>Node2</title>
<g id="a_node2"><a xlink:href="class_r_o_f_l_1_1_generic.html" target="_top" xlink:title=" ">
<polygon fill="none" stroke="#bfbfbf" points="0,-114.5 0,-133.5 82,-133.5 82,-114.5 0,-114.5"/>
<text text-anchor="middle" x="41" y="-121.5" font-family="Helvetica,sans-Serif" font-size="10.00">ROFL::Generic</text>
</a>
</g>
</g>
<!-- Node2&#45;&gt;Node1 -->
<g id="edge1" class="edge">
<title>Node2&#45;&gt;Node1</title>
<path fill="none" stroke="midnightblue" d="M92.31,-124C100.7,-124 109.39,-124 117.73,-124"/>
<polygon fill="midnightblue" stroke="midnightblue" points="92.26,-120.5 82.26,-124 92.26,-127.5 92.26,-120.5"/>
</g>
<!-- Node7 -->
<g id="node7" class="node">
<title>Node7</title>
<g id="a_node7"><a xlink:href="struct_r_o_f_l_1_1_box_collider_component.html" target="_top" xlink:title=" ">
<polygon fill="none" stroke="#bfbfbf" points="439,-152.5 439,-171.5 586,-171.5 586,-152.5 439,-152.5"/>
<text text-anchor="middle" x="512.5" y="-159.5" font-family="Helvetica,sans-Serif" font-size="10.00">ROFL::BoxColliderComponent</text>
</a>
</g>
</g>
<!-- Node6&#45;&gt;Node7 -->
<g id="edge6" class="edge">
<title>Node6&#45;&gt;Node7</title>
<path fill="none" stroke="midnightblue" d="M381.28,-135.61C407.95,-141.01 439.28,-147.36 464.53,-152.48"/>
<polygon fill="midnightblue" stroke="midnightblue" points="381.81,-132.15 371.31,-133.59 380.42,-139.01 381.81,-132.15"/>
</g>
<!-- Node8 -->
<g id="node8" class="node">
<title>Node8</title>
<g id="a_node8"><a xlink:href="struct_r_o_f_l_1_1_circle_collider_component.html" target="_top" xlink:title=" ">
<polygon fill="none" stroke="#bfbfbf" points="435,-114.5 435,-133.5 590,-133.5 590,-114.5 435,-114.5"/>
<text text-anchor="middle" x="512.5" y="-121.5" font-family="Helvetica,sans-Serif" font-size="10.00">ROFL::CircleColliderComponent</text>
</a>
</g>
</g>
<!-- Node6&#45;&gt;Node8 -->
<g id="edge7" class="edge">
<title>Node6&#45;&gt;Node8</title>
<path fill="none" stroke="midnightblue" d="M398.03,-124C410.13,-124 422.68,-124 434.83,-124"/>
<polygon fill="midnightblue" stroke="midnightblue" points="398,-120.5 388,-124 398,-127.5 398,-120.5"/>
</g>
<!-- Node9 -->
<g id="node9" class="node">
<title>Node9</title>
<g id="a_node9"><a xlink:href="struct_r_o_f_l_1_1_polygon_collider_component.html" target="_top" xlink:title=" ">
<polygon fill="none" stroke="#bfbfbf" points="430,-76.5 430,-95.5 595,-95.5 595,-76.5 430,-76.5"/>
<text text-anchor="middle" x="512.5" y="-83.5" font-family="Helvetica,sans-Serif" font-size="10.00">ROFL::PolygonColliderComponent</text>
</a>
</g>
</g>
<!-- Node6&#45;&gt;Node9 -->
<g id="edge8" class="edge">
<title>Node6&#45;&gt;Node9</title>
<path fill="none" stroke="midnightblue" d="M381.28,-112.39C407.95,-106.99 439.28,-100.64 464.53,-95.52"/>
<polygon fill="midnightblue" stroke="midnightblue" points="380.42,-108.99 371.31,-114.41 381.81,-115.85 380.42,-108.99"/>
</g>
</g>
</svg>
