<?xml version="1.0" encoding="UTF-8" standalone="no"?>
<!DOCTYPE svg PUBLIC "-//W3C//DTD SVG 1.1//EN"
 "http://www.w3.org/Graphics/SVG/1.1/DTD/svg11.dtd">
<!-- Generated by graphviz version 3.0.0 (20220226.1711)
 -->
<!-- Title: ROFL::SoundData Pages: 1 -->
<svg width="104pt" height="152pt"
 viewBox="0.00 0.00 104.00 152.00" xmlns="http://www.w3.org/2000/svg" xmlns:xlink="http://www.w3.org/1999/xlink">
<g id="graph0" class="graph" transform="scale(1 1) rotate(0) translate(4 148)">
<title>ROFL::SoundData</title>
<!-- Node1 -->
<g id="node1" class="node">
<title>Node1</title>
<g id="a_node1"><a xlink:title=" ">
<polygon fill="#bfbfbf" stroke="black" points="0,-0.5 0,-19.5 96,-19.5 96,-0.5 0,-0.5"/>
<text text-anchor="middle" x="48" y="-7.5" font-family="Helvetica,sans-Serif" font-size="10.00">ROFL::SoundData</text>
</a>
</g>
</g>
<!-- Node2 -->
<g id="node2" class="node">
<title>Node2</title>
<g id="a_node2"><a xlink:href="class_r_o_f_l_1_1_sound_cue.html" target="_top" xlink:title=" ">
<polygon fill="none" stroke="#bfbfbf" points="1.5,-67.5 1.5,-86.5 94.5,-86.5 94.5,-67.5 1.5,-67.5"/>
<text text-anchor="middle" x="48" y="-74.5" font-family="Helvetica,sans-Serif" font-size="10.00">ROFL::SoundCue</text>
</a>
</g>
</g>
<!-- Node2&#45;&gt;Node1 -->
<g id="edge1" class="edge">
<title>Node2&#45;&gt;Node1</title>
<path fill="none" stroke="#9a32cd" stroke-dasharray="5,2" d="M48,-57.04C48,-44.67 48,-29.12 48,-19.63"/>
<polygon fill="#9a32cd" stroke="#9a32cd" points="44.5,-57.23 48,-67.23 51.5,-57.23 44.5,-57.23"/>
<text text-anchor="middle" x="63.5" y="-41" font-family="Helvetica,sans-Serif" font-size="10.00"> Sound</text>
</g>
<!-- Node3 -->
<g id="node3" class="node">
<title>Node3</title>
<g id="a_node3"><a xlink:href="class_r_o_f_l_1_1_generic.html" target="_top" xlink:title=" ">
<polygon fill="none" stroke="#bfbfbf" points="7,-124.5 7,-143.5 89,-143.5 89,-124.5 7,-124.5"/>
<text text-anchor="middle" x="48" y="-131.5" font-family="Helvetica,sans-Serif" font-size="10.00">ROFL::Generic</text>
</a>
</g>
</g>
<!-- Node3&#45;&gt;Node2 -->
<g id="edge2" class="edge">
<title>Node3&#45;&gt;Node2</title>
<path fill="none" stroke="midnightblue" d="M48,-114.12C48,-104.82 48,-94.06 48,-86.71"/>
<polygon fill="midnightblue" stroke="midnightblue" points="44.5,-114.41 48,-124.41 51.5,-114.41 44.5,-114.41"/>
</g>
</g>
</svg>
