<?xml version="1.0" encoding="UTF-8" standalone="no"?>
<!DOCTYPE svg PUBLIC "-//W3C//DTD SVG 1.1//EN"
 "http://www.w3.org/Graphics/SVG/1.1/DTD/svg11.dtd">
<!-- Generated by graphviz version 3.0.0 (20220226.1711)
 -->
<!-- Title: ROFL::CameraComponent Pages: 1 -->
<svg width="247pt" height="162pt"
 viewBox="0.00 0.00 247.00 162.00" xmlns="http://www.w3.org/2000/svg" xmlns:xlink="http://www.w3.org/1999/xlink">
<g id="graph0" class="graph" transform="scale(1 1) rotate(0) translate(4 158)">
<title>ROFL::CameraComponent</title>
<!-- Node1 -->
<g id="node1" class="node">
<title>Node1</title>
<g id="a_node1"><a xlink:title=" ">
<polygon fill="#bfbfbf" stroke="black" points="78.5,-0.5 78.5,-19.5 209.5,-19.5 209.5,-0.5 78.5,-0.5"/>
<text text-anchor="middle" x="144" y="-7.5" font-family="Helvetica,sans-Serif" font-size="10.00">ROFL::CameraComponent</text>
</a>
</g>
</g>
<!-- Node2 -->
<g id="node2" class="node">
<title>Node2</title>
<g id="a_node2"><a xlink:href="struct_r_o_f_l_1_1_component.html" target="_top" xlink:title=" ">
<polygon fill="none" stroke="#bfbfbf" points="41,-67.5 41,-86.5 139,-86.5 139,-67.5 41,-67.5"/>
<text text-anchor="middle" x="90" y="-74.5" font-family="Helvetica,sans-Serif" font-size="10.00">ROFL::Component</text>
</a>
</g>
</g>
<!-- Node2&#45;&gt;Node1 -->
<g id="edge1" class="edge">
<title>Node2&#45;&gt;Node1</title>
<path fill="none" stroke="midnightblue" d="M103.9,-59.27C114.43,-46.6 128.46,-29.7 136.83,-19.63"/>
<polygon fill="midnightblue" stroke="midnightblue" points="100.98,-57.31 97.28,-67.23 106.37,-61.78 100.98,-57.31"/>
</g>
<!-- Node3 -->
<g id="node3" class="node">
<title>Node3</title>
<g id="a_node3"><a xlink:href="class_r_o_f_l_1_1_generic.html" target="_top" xlink:title=" ">
<polygon fill="none" stroke="#bfbfbf" points="0,-134.5 0,-153.5 82,-153.5 82,-134.5 0,-134.5"/>
<text text-anchor="middle" x="41" y="-141.5" font-family="Helvetica,sans-Serif" font-size="10.00">ROFL::Generic</text>
</a>
</g>
</g>
<!-- Node3&#45;&gt;Node2 -->
<g id="edge2" class="edge">
<title>Node3&#45;&gt;Node2</title>
<path fill="none" stroke="midnightblue" d="M53.89,-125.9C63.41,-113.27 75.98,-96.6 83.5,-86.63"/>
<polygon fill="midnightblue" stroke="midnightblue" points="50.83,-124.14 47.61,-134.23 56.42,-128.36 50.83,-124.14"/>
</g>
<!-- Node4 -->
<g id="node4" class="node">
<title>Node4</title>
<g id="a_node4"><a xlink:href="class_r_o_f_l_1_1_object.html" target="_top" xlink:title=" ">
<polygon fill="none" stroke="#bfbfbf" points="100.5,-134.5 100.5,-153.5 177.5,-153.5 177.5,-134.5 100.5,-134.5"/>
<text text-anchor="middle" x="139" y="-141.5" font-family="Helvetica,sans-Serif" font-size="10.00">ROFL::Object</text>
</a>
</g>
</g>
<!-- Node4&#45;&gt;Node2 -->
<g id="edge3" class="edge">
<title>Node4&#45;&gt;Node2</title>
<path fill="none" stroke="#9a32cd" stroke-dasharray="5,2" d="M126.11,-125.9C116.59,-113.27 104.02,-96.6 96.5,-86.63"/>
<polygon fill="#9a32cd" stroke="#9a32cd" points="123.58,-128.36 132.39,-134.23 129.17,-124.14 123.58,-128.36"/>
<text text-anchor="middle" x="133" y="-108" font-family="Helvetica,sans-Serif" font-size="10.00"> object</text>
</g>
<!-- Node5 -->
<g id="node5" class="node">
<title>Node5</title>
<g id="a_node5"><a xlink:href="class_r_o_f_l_1_1_camera.html" target="_top" xlink:title=" ">
<polygon fill="none" stroke="#bfbfbf" points="157,-67.5 157,-86.5 239,-86.5 239,-67.5 157,-67.5"/>
<text text-anchor="middle" x="198" y="-74.5" font-family="Helvetica,sans-Serif" font-size="10.00">ROFL::Camera</text>
</a>
</g>
</g>
<!-- Node5&#45;&gt;Node1 -->
<g id="edge4" class="edge">
<title>Node5&#45;&gt;Node1</title>
<path fill="none" stroke="#9a32cd" stroke-dasharray="5,2" d="M184.1,-59.27C173.57,-46.6 159.54,-29.7 151.17,-19.63"/>
<polygon fill="#9a32cd" stroke="#9a32cd" points="181.63,-61.78 190.72,-67.23 187.02,-57.31 181.63,-61.78"/>
<text text-anchor="middle" x="192" y="-41" font-family="Helvetica,sans-Serif" font-size="10.00"> camera</text>
</g>
</g>
</svg>
