<?xml version="1.0" encoding="UTF-8" standalone="no"?>
<!DOCTYPE svg PUBLIC "-//W3C//DTD SVG 1.1//EN"
 "http://www.w3.org/Graphics/SVG/1.1/DTD/svg11.dtd">
<!-- Generated by graphviz version 3.0.0 (20220226.1711)
 -->
<!-- Title: ROFL::Vec3&lt; Numeric &gt; Pages: 1 -->
<svg width="247pt" height="263pt"
 viewBox="0.00 0.00 247.00 263.00" xmlns="http://www.w3.org/2000/svg" xmlns:xlink="http://www.w3.org/1999/xlink">
<g id="graph0" class="graph" transform="scale(1 1) rotate(0) translate(4 259)">
<title>ROFL::Vec3&lt; Numeric &gt;</title>
<!-- Node1 -->
<g id="node1" class="node">
<title>Node1</title>
<g id="a_node1"><a xlink:title=" ">
<polygon fill="#bfbfbf" stroke="black" points="0,-0.5 0,-19.5 125,-19.5 125,-0.5 0,-0.5"/>
<text text-anchor="middle" x="62.5" y="-7.5" font-family="Helvetica,sans-Serif" font-size="10.00">ROFL::Vec3&lt; Numeric &gt;</text>
</a>
</g>
</g>
<!-- Node2 -->
<g id="node2" class="node">
<title>Node2</title>
<g id="a_node2"><a xlink:title=" ">
<polygon fill="none" stroke="#bfbfbf" points="36,-235.5 36,-254.5 89,-254.5 89,-235.5 36,-235.5"/>
<text text-anchor="middle" x="62.5" y="-242.5" font-family="Helvetica,sans-Serif" font-size="10.00">Numeric</text>
</a>
</g>
</g>
<!-- Node2&#45;&gt;Node1 -->
<g id="edge1" class="edge">
<title>Node2&#45;&gt;Node1</title>
<path fill="none" stroke="#9a32cd" stroke-dasharray="5,2" d="M60.47,-224.88C57.31,-192.41 51.93,-124.41 55.5,-67 56.55,-50.18 59.35,-30.68 61.07,-19.7"/>
<polygon fill="#9a32cd" stroke="#9a32cd" points="57.02,-225.56 61.51,-235.15 63.99,-224.85 57.02,-225.56"/>
<text text-anchor="middle" x="60" y="-125" font-family="Helvetica,sans-Serif" font-size="10.00"> d</text>
<text text-anchor="middle" x="60" y="-114" font-family="Helvetica,sans-Serif" font-size="10.00">h</text>
<text text-anchor="middle" x="60" y="-103" font-family="Helvetica,sans-Serif" font-size="10.00">w</text>
<text text-anchor="middle" x="60" y="-92" font-family="Helvetica,sans-Serif" font-size="10.00">x</text>
<text text-anchor="middle" x="60" y="-81" font-family="Helvetica,sans-Serif" font-size="10.00">y</text>
<text text-anchor="middle" x="60" y="-70" font-family="Helvetica,sans-Serif" font-size="10.00">z</text>
</g>
<!-- Node3 -->
<g id="node3" class="node">
<title>Node3</title>
<g id="a_node3"><a xlink:href="struct_r_o_f_l_1_1_vec3.html" target="_top" xlink:title=" ">
<polygon fill="none" stroke="#bfbfbf" points="74,-90.5 74,-109.5 199,-109.5 199,-90.5 74,-90.5"/>
<text text-anchor="middle" x="136.5" y="-97.5" font-family="Helvetica,sans-Serif" font-size="10.00">ROFL::Vec3&lt; Numeric &gt;</text>
</a>
</g>
</g>
<!-- Node2&#45;&gt;Node3 -->
<g id="edge3" class="edge">
<title>Node2&#45;&gt;Node3</title>
<path fill="none" stroke="#9a32cd" stroke-dasharray="5,2" d="M71.65,-226.32C87.65,-195.4 120.14,-132.61 132.02,-109.65"/>
<polygon fill="#9a32cd" stroke="#9a32cd" points="68.39,-224.99 66.91,-235.48 74.61,-228.21 68.39,-224.99"/>
<text text-anchor="middle" x="114" y="-209" font-family="Helvetica,sans-Serif" font-size="10.00"> d</text>
<text text-anchor="middle" x="114" y="-198" font-family="Helvetica,sans-Serif" font-size="10.00">h</text>
<text text-anchor="middle" x="114" y="-187" font-family="Helvetica,sans-Serif" font-size="10.00">w</text>
<text text-anchor="middle" x="114" y="-176" font-family="Helvetica,sans-Serif" font-size="10.00">x</text>
<text text-anchor="middle" x="114" y="-165" font-family="Helvetica,sans-Serif" font-size="10.00">y</text>
<text text-anchor="middle" x="114" y="-154" font-family="Helvetica,sans-Serif" font-size="10.00">z</text>
</g>
<!-- Node3&#45;&gt;Node1 -->
<g id="edge2" class="edge">
<title>Node3&#45;&gt;Node1</title>
<path fill="none" stroke="#9a32cd" stroke-dasharray="5,2" d="M122.67,-82.56C107.02,-63.95 82.12,-34.33 69.84,-19.72"/>
<polygon fill="#9a32cd" stroke="#9a32cd" points="120.02,-84.84 129.13,-90.24 125.38,-80.33 120.02,-84.84"/>
<text text-anchor="middle" x="104.5" y="-41" font-family="Helvetica,sans-Serif" font-size="10.00"> Zero</text>
</g>
<!-- Node3&#45;&gt;Node3 -->
<g id="edge4" class="edge">
<title>Node3&#45;&gt;Node3</title>
<path fill="none" stroke="#9a32cd" stroke-dasharray="5,2" d="M180.85,-110.36C200.29,-111.27 217,-107.81 217,-100 217,-90.87 194.16,-87.69 170.83,-90.47"/>
<polygon fill="#9a32cd" stroke="#9a32cd" points="181.09,-106.87 170.83,-109.53 180.51,-113.84 181.09,-106.87"/>
<text text-anchor="middle" x="228" y="-97.5" font-family="Helvetica,sans-Serif" font-size="10.00"> Zero</text>
</g>
</g>
</svg>
