<?xml version="1.0" encoding="UTF-8" standalone="no"?>
<!DOCTYPE svg PUBLIC "-//W3C//DTD SVG 1.1//EN"
 "http://www.w3.org/Graphics/SVG/1.1/DTD/svg11.dtd">
<!-- Generated by graphviz version 3.0.0 (20220226.1711)
 -->
<!-- Title: ROFL::AnimationControllerComponent::Transition Pages: 1 -->
<svg width="141pt" height="185pt"
 viewBox="0.00 0.00 141.00 185.00" xmlns="http://www.w3.org/2000/svg" xmlns:xlink="http://www.w3.org/1999/xlink">
<g id="graph0" class="graph" transform="scale(1 1) rotate(0) translate(4 181)">
<title>ROFL::AnimationControllerComponent::Transition</title>
<!-- Node1 -->
<g id="node1" class="node">
<title>Node1</title>
<g id="a_node1"><a xlink:title=" ">
<polygon fill="#bfbfbf" stroke="black" points="0,-0.5 0,-30.5 133,-30.5 133,-0.5 0,-0.5"/>
<text text-anchor="start" x="8" y="-18.5" font-family="Helvetica,sans-Serif" font-size="10.00">ROFL::AnimationController</text>
<text text-anchor="middle" x="66.5" y="-7.5" font-family="Helvetica,sans-Serif" font-size="10.00">Component::Transition</text>
</a>
</g>
</g>
<!-- Node2 -->
<g id="node2" class="node">
<title>Node2</title>
<g id="a_node2"><a xlink:title=" ">
<polygon fill="none" stroke="black" points="36.5,-89.5 36.5,-108.5 96.5,-108.5 96.5,-89.5 36.5,-89.5"/>
<text text-anchor="middle" x="66.5" y="-96.5" font-family="Helvetica,sans-Serif" font-size="10.00">std::string</text>
</a>
</g>
</g>
<!-- Node2&#45;&gt;Node1 -->
<g id="edge1" class="edge">
<title>Node2&#45;&gt;Node1</title>
<path fill="none" stroke="#9a32cd" stroke-dasharray="5,2" d="M66.5,-79.23C66.5,-64.41 66.5,-44.05 66.5,-30.6"/>
<polygon fill="#9a32cd" stroke="#9a32cd" points="63,-79.28 66.5,-89.28 70,-79.28 63,-79.28"/>
<text text-anchor="middle" x="79" y="-63" font-family="Helvetica,sans-Serif" font-size="10.00"> entry</text>
<text text-anchor="middle" x="79" y="-52" font-family="Helvetica,sans-Serif" font-size="10.00">exit</text>
</g>
<!-- Node3 -->
<g id="node3" class="node">
<title>Node3</title>
<g id="a_node3"><a xlink:title=" ">
<polygon fill="none" stroke="black" points="19,-146.5 19,-176.5 114,-176.5 114,-146.5 19,-146.5"/>
<text text-anchor="start" x="27" y="-164.5" font-family="Helvetica,sans-Serif" font-size="10.00">std::basic_string&lt;</text>
<text text-anchor="middle" x="66.5" y="-153.5" font-family="Helvetica,sans-Serif" font-size="10.00"> Char &gt;</text>
</a>
</g>
</g>
<!-- Node3&#45;&gt;Node2 -->
<g id="edge2" class="edge">
<title>Node3&#45;&gt;Node2</title>
<path fill="none" stroke="midnightblue" d="M66.5,-136.35C66.5,-126.51 66.5,-115.78 66.5,-108.54"/>
<polygon fill="midnightblue" stroke="midnightblue" points="63,-136.47 66.5,-146.47 70,-136.47 63,-136.47"/>
</g>
</g>
</svg>
