<?xml version="1.0" encoding="UTF-8" standalone="no"?>
<!DOCTYPE svg PUBLIC "-//W3C//DTD SVG 1.1//EN"
 "http://www.w3.org/Graphics/SVG/1.1/DTD/svg11.dtd">
<!-- Generated by graphviz version 3.0.0 (20220226.1711)
 -->
<!-- Title: ROFL::SpriteComponent Pages: 1 -->
<svg width="421pt" height="286pt"
 viewBox="0.00 0.00 420.50 286.00" xmlns="http://www.w3.org/2000/svg" xmlns:xlink="http://www.w3.org/1999/xlink">
<g id="graph0" class="graph" transform="scale(1 1) rotate(0) translate(4 282)">
<title>ROFL::SpriteComponent</title>
<!-- Node1 -->
<g id="node1" class="node">
<title>Node1</title>
<g id="a_node1"><a xlink:title=" ">
<polygon fill="#bfbfbf" stroke="black" points="176.5,-0.5 176.5,-19.5 299.5,-19.5 299.5,-0.5 176.5,-0.5"/>
<text text-anchor="middle" x="238" y="-7.5" font-family="Helvetica,sans-Serif" font-size="10.00">ROFL::SpriteComponent</text>
</a>
</g>
</g>
<!-- Node2 -->
<g id="node2" class="node">
<title>Node2</title>
<g id="a_node2"><a xlink:href="struct_r_o_f_l_1_1_component.html" target="_top" xlink:title=" ">
<polygon fill="none" stroke="#bfbfbf" points="68,-67.5 68,-86.5 166,-86.5 166,-67.5 68,-67.5"/>
<text text-anchor="middle" x="117" y="-74.5" font-family="Helvetica,sans-Serif" font-size="10.00">ROFL::Component</text>
</a>
</g>
</g>
<!-- Node2&#45;&gt;Node1 -->
<g id="edge1" class="edge">
<title>Node2&#45;&gt;Node1</title>
<path fill="none" stroke="midnightblue" d="M142.21,-62.46C166.2,-49.57 201.56,-30.57 221.94,-19.63"/>
<polygon fill="midnightblue" stroke="midnightblue" points="140.47,-59.42 133.32,-67.23 143.78,-65.58 140.47,-59.42"/>
</g>
<!-- Node3 -->
<g id="node3" class="node">
<title>Node3</title>
<g id="a_node3"><a xlink:href="class_r_o_f_l_1_1_generic.html" target="_top" xlink:title=" ">
<polygon fill="none" stroke="#bfbfbf" points="0,-146.5 0,-165.5 82,-165.5 82,-146.5 0,-146.5"/>
<text text-anchor="middle" x="41" y="-153.5" font-family="Helvetica,sans-Serif" font-size="10.00">ROFL::Generic</text>
</a>
</g>
</g>
<!-- Node3&#45;&gt;Node2 -->
<g id="edge2" class="edge">
<title>Node3&#45;&gt;Node2</title>
<path fill="none" stroke="midnightblue" d="M56.79,-139C72.42,-123.16 95.77,-99.51 108.3,-86.81"/>
<polygon fill="midnightblue" stroke="midnightblue" points="53.96,-136.89 49.42,-146.47 58.94,-141.81 53.96,-136.89"/>
</g>
<!-- Node4 -->
<g id="node4" class="node">
<title>Node4</title>
<g id="a_node4"><a xlink:href="class_r_o_f_l_1_1_object.html" target="_top" xlink:title=" ">
<polygon fill="none" stroke="#bfbfbf" points="100.5,-146.5 100.5,-165.5 177.5,-165.5 177.5,-146.5 100.5,-146.5"/>
<text text-anchor="middle" x="139" y="-153.5" font-family="Helvetica,sans-Serif" font-size="10.00">ROFL::Object</text>
</a>
</g>
</g>
<!-- Node4&#45;&gt;Node2 -->
<g id="edge3" class="edge">
<title>Node4&#45;&gt;Node2</title>
<path fill="none" stroke="#9a32cd" stroke-dasharray="5,2" d="M133.79,-136.77C129.29,-121.02 122.98,-98.92 119.52,-86.81"/>
<polygon fill="#9a32cd" stroke="#9a32cd" points="130.45,-137.81 136.56,-146.47 137.18,-135.89 130.45,-137.81"/>
<text text-anchor="middle" x="143" y="-108" font-family="Helvetica,sans-Serif" font-size="10.00"> object</text>
</g>
<!-- Node5 -->
<g id="node5" class="node">
<title>Node5</title>
<g id="a_node5"><a xlink:href="struct_r_o_f_l_1_1_vec2.html" target="_top" xlink:title=" ">
<polygon fill="none" stroke="#bfbfbf" points="184.5,-67.5 184.5,-86.5 291.5,-86.5 291.5,-67.5 184.5,-67.5"/>
<text text-anchor="middle" x="238" y="-74.5" font-family="Helvetica,sans-Serif" font-size="10.00">ROFL::Vec2&lt; float &gt;</text>
</a>
</g>
</g>
<!-- Node5&#45;&gt;Node1 -->
<g id="edge4" class="edge">
<title>Node5&#45;&gt;Node1</title>
<path fill="none" stroke="#9a32cd" stroke-dasharray="5,2" d="M238,-57.04C238,-44.67 238,-29.12 238,-19.63"/>
<polygon fill="#9a32cd" stroke="#9a32cd" points="234.5,-57.23 238,-67.23 241.5,-57.23 234.5,-57.23"/>
<text text-anchor="middle" x="249.5" y="-41" font-family="Helvetica,sans-Serif" font-size="10.00"> Size</text>
</g>
<!-- Node6 -->
<g id="node6" class="node">
<title>Node6</title>
<g id="a_node6"><a xlink:title=" ">
<polygon fill="none" stroke="#bfbfbf" points="209.5,-258.5 209.5,-277.5 262.5,-277.5 262.5,-258.5 209.5,-258.5"/>
<text text-anchor="middle" x="236" y="-265.5" font-family="Helvetica,sans-Serif" font-size="10.00">Numeric</text>
</a>
</g>
</g>
<!-- Node6&#45;&gt;Node5 -->
<g id="edge5" class="edge">
<title>Node6&#45;&gt;Node5</title>
<path fill="none" stroke="#9a32cd" stroke-dasharray="5,2" d="M233.43,-248.05C230.29,-222.24 225.76,-174.58 229,-134 230.35,-117.12 233.95,-97.64 236.16,-86.68"/>
<polygon fill="#9a32cd" stroke="#9a32cd" points="230,-248.8 234.74,-258.27 236.94,-247.91 230,-248.8"/>
<text text-anchor="middle" x="233.5" y="-170" font-family="Helvetica,sans-Serif" font-size="10.00"> h</text>
<text text-anchor="middle" x="233.5" y="-159" font-family="Helvetica,sans-Serif" font-size="10.00">w</text>
<text text-anchor="middle" x="233.5" y="-148" font-family="Helvetica,sans-Serif" font-size="10.00">x</text>
<text text-anchor="middle" x="233.5" y="-137" font-family="Helvetica,sans-Serif" font-size="10.00">y</text>
</g>
<!-- Node7 -->
<g id="node7" class="node">
<title>Node7</title>
<g id="a_node7"><a xlink:href="struct_r_o_f_l_1_1_vec2.html" target="_top" xlink:title=" ">
<polygon fill="none" stroke="#bfbfbf" points="247.5,-146.5 247.5,-165.5 372.5,-165.5 372.5,-146.5 247.5,-146.5"/>
<text text-anchor="middle" x="310" y="-153.5" font-family="Helvetica,sans-Serif" font-size="10.00">ROFL::Vec2&lt; Numeric &gt;</text>
</a>
</g>
</g>
<!-- Node6&#45;&gt;Node7 -->
<g id="edge7" class="edge">
<title>Node6&#45;&gt;Node7</title>
<path fill="none" stroke="#9a32cd" stroke-dasharray="5,2" d="M247.47,-249.96C263.5,-226.12 292.03,-183.71 304.22,-165.59"/>
<polygon fill="#9a32cd" stroke="#9a32cd" points="244.48,-248.12 241.81,-258.37 250.29,-252.02 244.48,-248.12"/>
<text text-anchor="middle" x="285.5" y="-232" font-family="Helvetica,sans-Serif" font-size="10.00"> h</text>
<text text-anchor="middle" x="285.5" y="-221" font-family="Helvetica,sans-Serif" font-size="10.00">w</text>
<text text-anchor="middle" x="285.5" y="-210" font-family="Helvetica,sans-Serif" font-size="10.00">x</text>
<text text-anchor="middle" x="285.5" y="-199" font-family="Helvetica,sans-Serif" font-size="10.00">y</text>
</g>
<!-- Node7&#45;&gt;Node5 -->
<g id="edge6" class="edge">
<title>Node7&#45;&gt;Node5</title>
<path fill="none" stroke="#9a32cd" stroke-dasharray="5,2" d="M295.04,-139C280.23,-123.16 258.11,-99.51 246.24,-86.81"/>
<polygon fill="#9a32cd" stroke="#9a32cd" points="292.63,-141.55 302.02,-146.47 297.75,-136.77 292.63,-141.55"/>
<text text-anchor="middle" x="282" y="-108" font-family="Helvetica,sans-Serif" font-size="10.00"> Zero</text>
</g>
<!-- Node7&#45;&gt;Node7 -->
<g id="edge8" class="edge">
<title>Node7&#45;&gt;Node7</title>
<path fill="none" stroke="#9a32cd" stroke-dasharray="5,2" d="M382.64,-161.94C387.53,-160.57 390.5,-158.59 390.5,-156 390.5,-151.96 383.26,-149.4 372.78,-148.33"/>
<polygon fill="#9a32cd" stroke="#9a32cd" points="382.02,-158.49 372.78,-163.67 383.23,-165.39 382.02,-158.49"/>
<text text-anchor="middle" x="401.5" y="-153.5" font-family="Helvetica,sans-Serif" font-size="10.00"> Zero</text>
</g>
<!-- Node8 -->
<g id="node8" class="node">
<title>Node8</title>
<g id="a_node8"><a xlink:href="struct_r_o_f_l_1_1_color.html" target="_top" xlink:title=" ">
<polygon fill="none" stroke="#bfbfbf" points="309.5,-67.5 309.5,-86.5 380.5,-86.5 380.5,-67.5 309.5,-67.5"/>
<text text-anchor="middle" x="345" y="-74.5" font-family="Helvetica,sans-Serif" font-size="10.00">ROFL::Color</text>
</a>
</g>
</g>
<!-- Node8&#45;&gt;Node1 -->
<g id="edge9" class="edge">
<title>Node8&#45;&gt;Node1</title>
<path fill="none" stroke="#9a32cd" stroke-dasharray="5,2" d="M321.86,-61.94C300.67,-49.07 269.98,-30.43 252.2,-19.63"/>
<polygon fill="#9a32cd" stroke="#9a32cd" points="320.21,-65.03 330.57,-67.23 323.84,-59.05 320.21,-65.03"/>
<text text-anchor="middle" x="323" y="-41" font-family="Helvetica,sans-Serif" font-size="10.00"> colorRGBA</text>
</g>
</g>
</svg>
